<svg preserveAspectRatio="none" width="100%" height="100%" overflow="visible" style="display: block;" viewBox="0 0 131.942 29.6276" fill="none" xmlns="http://www.w3.org/2000/svg">
<g id="UXhzLFjk4">
<g id="d5D3Dr7Sy">
</g>
<path id="UJyUz71js" d="M10.5967 7.1469C8.15245 7.1469 6.85576 8.59362 6.85576 11.1629V22.2674H0.140625V0.501797H3.91129L6.2677 3.01287C7.38747 1.38806 9.06607 0.501797 11.3344 0.501797H13.3668V7.1469H10.5967ZM14.9838 0.501797H21.6994V12.7293C21.6994 15.0038 23.1716 16.5686 25.3518 16.5686C27.5324 16.5686 28.9742 15.0043 28.9742 12.7293V0.501797H35.6898V22.269H31.9194L29.6226 19.8177C28.0622 21.6791 25.8519 22.7705 23.2613 22.7705C18.3723 22.7705 14.9854 19.1963 14.9854 13.9692V0.501797H14.9838ZM58.5462 22.269H51.8311V10.1296C51.8311 7.79687 50.3287 6.20197 48.0905 6.20197C45.8519 6.20197 44.3498 7.79687 44.3498 10.1299V22.2694H37.6342V0.501797H41.4049L43.7316 2.98249C45.2922 1.0931 47.5303 0 50.1826 0C55.1312 0 58.5478 3.6327 58.5478 8.91988V22.269H58.5462ZM57.8111 0.501797H64.8203L68.1193 12.8478L72.0956 0.501797H76.9847L80.9615 12.9057L84.2601 0.501797H90.7108L83.8779 22.269H78.0168L74.158 10.3082L70.2693 22.2694H64.7623L57.8111 0.501797ZM99.8709 0C105.584 0 109.031 3.16104 109.031 8.4167V22.269H105.232L103.26 20.1428C101.787 21.8558 99.6669 22.7705 97.1041 22.7705C92.5392 22.7705 89.3288 19.9362 89.3288 15.9188C89.3288 11.6362 92.4511 9.15501 97.8703 9.15501H102.495V8.44661C102.495 6.58527 101.465 5.58214 99.5203 5.58214C97.7821 5.58214 96.6638 6.46864 96.5457 7.94504H89.9781C90.3605 3.13113 94.2494 0 99.8742 0H99.8709ZM102.492 14.3541V13.4092H98.5749C96.8963 13.4092 95.9243 14.1772 95.9243 15.5052C95.9243 16.9234 97.0726 17.7797 98.987 17.7797C101.255 17.7797 102.492 16.5987 102.492 14.3541Z" fill="var(--fill-0, white)" style="fill:white;fill-opacity:1;"/>
<path id="Iu42AbJpg" d="M120.048 29.5046H112.95L116.749 20.3781L107.941 0.501953H115.777L120.342 12.3447L124.642 0.501953H131.74L120.048 29.5046Z" fill="var(--fill-0, white)" style="fill:white;fill-opacity:1;"/>
</g>
</svg>
