<svg preserveAspectRatio="none" width="100%" height="100%" overflow="visible" style="display: block;" viewBox="0 0 147.792 39.7455" fill="none" xmlns="http://www.w3.org/2000/svg">
<g id="t_lGiZhK6">
<g id="MTU9K6Xnv">
</g>
<path id="Q3FkNvlAZ" d="M32.4969 5.53487L32.6286 5.66526L32.6322 5.66163C35.166 8.205 34.4392 13.3157 30.7657 19.1094L37.9912 26.3375L37.6808 26.9424C36.4665 29.3115 34.8218 31.4341 32.8309 33.2019C30.2088 35.5427 27.0439 37.192 23.6231 38.0006L23.499 38.0305L23.3213 38.0728L23.1935 38.1014L22.9114 38.1634C22.8338 38.1795 22.7561 38.1949 22.6779 38.2094L22.5029 38.2429C22.3166 38.2801 22.1216 38.3149 21.9317 38.3471L21.7727 38.3707L21.6522 38.3858C15.7242 39.2149 9.74805 37.2367 5.48571 33.0341L5.36649 32.9185C2.82805 30.3751 3.54701 25.2608 7.22571 19.4634L0 12.2351L0.31039 11.6305C1.5226 9.26007 3.16909 7.13851 5.16416 5.37591C7.2026 3.56215 9.57039 2.15643 12.139 1.23513C12.7351 1.02033 13.3584 0.832794 13.9706 0.673833C14.4751 0.538508 14.9855 0.425521 15.4995 0.332275C15.6735 0.297469 15.8696 0.261625 16.0597 0.229158C22.0699 -0.707725 28.1686 1.26085 32.4969 5.53487ZM30.054 5.84526H30.0465L30.054 5.84916C27.5987 5.0889 23.7026 6.31721 19.5844 9.03098C22.7177 8.15773 25.7481 8.60994 27.7068 10.5697C29.5621 12.4289 30.0701 15.2507 29.3673 18.2151C29.3348 18.3741 29.2927 18.5331 29.2429 18.6959C32.6049 13.6099 33.6805 8.85202 31.5517 6.72708C31.5161 6.68942 31.479 6.65331 31.44 6.61903L31.4239 6.60422L31.4003 6.58292C31.3761 6.56552 31.3525 6.54734 31.3294 6.52838C31.2984 6.50344 31.2673 6.47877 31.2338 6.45643L31.1816 6.41903C30.8421 6.1637 30.4603 5.96968 30.054 5.84526ZM28.3686 17.2775C28.3686 17.278 28.3686 17.2783 28.3686 17.2788H28.3699L28.3686 17.2775ZM28.3686 17.2788H28.3623C28.7722 14.8471 28.2382 12.7606 26.8722 11.3944C25.4971 10.0258 23.4119 9.49409 20.9891 9.90396C18.4057 10.3362 15.7977 11.7632 13.633 13.9144L13.6255 13.9268C13.6169 13.939 13.613 13.939 13.613 13.939C11.4558 16.1014 10.0299 18.7157 9.59662 21.299C9.18675 23.7344 9.72078 25.8172 11.087 27.1845C12.4569 28.5507 14.547 29.0847 16.9701 28.6749C19.5595 28.2377 22.1774 26.8071 24.3384 24.6411C26.5055 22.4767 27.9348 19.864 28.3686 17.2788ZM6.41091 6.77046C4.76182 8.2302 3.37299 9.95955 2.3039 11.885L2.29143 11.8886L8.56078 18.1432C9.08052 17.4118 9.62727 16.7001 10.2003 16.0094C10.4039 15.7673 10.6138 15.5164 10.8286 15.2668L10.9106 15.1736L11.2086 14.8408C11.2174 14.8333 11.226 14.8172 11.226 14.8172L11.2805 14.7551L11.3091 14.7216L11.4631 14.5502C11.5426 14.4619 11.6221 14.3712 11.7068 14.2855C11.7068 14.2769 11.719 14.2645 11.719 14.2645L11.8532 14.118C11.886 14.0858 11.9179 14.0528 11.9488 14.0185C11.9525 14.0112 11.9564 14.0112 11.9564 14.0112C11.9649 14.0063 11.9649 13.9988 11.9649 13.9988C11.9699 13.9925 11.9774 13.985 11.9823 13.9764C11.9875 13.9689 11.9935 13.9619 11.9997 13.9551C12.0151 13.944 12.0288 13.9305 12.0408 13.9154C12.0483 13.9071 12.0561 13.8988 12.0644 13.8907C12.1153 13.8398 12.1761 13.7801 12.2306 13.7206C12.2582 13.6845 12.294 13.6497 12.3301 13.6138L12.381 13.5616C12.3912 13.5489 12.4018 13.537 12.4132 13.5255L12.5088 13.4312L12.6953 13.2473L12.7574 13.1816L12.8268 13.1084C14.1699 11.7619 15.6044 10.5097 17.1203 9.36137L17.319 9.21591H17.3203V9.21461L17.3229 9.21357L17.5216 9.06682C17.7449 8.90059 17.966 8.73773 18.1922 8.57877C18.4317 8.41617 18.674 8.25227 18.9125 8.09461C22.1688 5.92344 25.3582 4.62085 27.9613 4.3624C24.3231 2.1689 20.006 1.38838 15.8299 2.16916C15.7169 2.1889 15.6187 2.2089 15.5195 2.22864L15.4597 2.24111C14.547 2.42994 13.6491 2.68214 12.7709 2.99513C10.4283 3.83383 8.26909 5.11565 6.41091 6.77046ZM6.7561 32.1164C7.1026 32.3821 7.50026 32.5808 7.94468 32.7198H7.9361C10.4075 33.4751 14.2886 32.2429 18.3919 29.5367C15.2623 30.406 12.2382 29.9541 10.2797 27.9944C8.43273 26.1437 7.92493 23.3133 8.62416 20.3489C8.66 20.1899 8.6987 20.031 8.74701 19.8681C5.38623 24.9551 4.31325 29.712 6.43948 31.838C6.53948 31.9369 6.64519 32.0299 6.7561 32.1164ZM29.4418 20.4445C29.0119 21.0447 28.566 21.6333 28.1042 22.2092C28.0309 22.2975 27.9577 22.3894 27.8831 22.4824L27.8247 22.5546L27.6384 22.777C27.4844 22.9593 27.3291 23.1445 27.174 23.3245L27.0771 23.4364C26.9826 23.5419 26.8906 23.6473 26.7927 23.7505L26.7727 23.7741L26.6932 23.8697C26.6821 23.8886 26.6673 23.905 26.6499 23.9182L26.5094 24.0746C26.44 24.1541 26.3704 24.2325 26.2971 24.3107C26.2847 24.3107 26.2847 24.3232 26.2847 24.3232C26.2312 24.3764 26.1792 24.4323 26.1244 24.4894L26.1231 24.492L26.0462 24.5728C26.0784 24.5331 26.1096 24.4944 26.1455 24.4585L26.1132 24.4894L26.0462 24.5616C26.0387 24.5653 26.0262 24.5777 26.0262 24.5777C26.02 24.5842 26.0143 24.5912 26.0088 24.5988C26.0031 24.6066 25.9969 24.6141 25.9904 24.6211C25.9751 24.632 25.9613 24.645 25.9494 24.6595C25.9156 24.6975 25.8805 24.7341 25.8439 24.7689L25.7605 24.8559L25.6525 24.9627C25.6374 24.9816 25.6205 24.9985 25.6016 25.0136C25.5979 25.026 25.573 25.051 25.573 25.051L25.4787 25.1453C25.419 25.2047 25.3595 25.2658 25.2925 25.3279L25.2551 25.3699C25.2265 25.4011 25.1966 25.4346 25.1644 25.4668C23.8192 26.812 22.3844 28.0642 20.8699 29.2151C20.7356 29.3144 20.6039 29.4102 20.4649 29.5094C20.2462 29.6759 20.0203 29.8385 19.7943 29.9975L19.3236 30.318H19.3223L19.079 30.4819L18.9 30.5998L18.7213 30.7167C15.5914 32.7398 12.54 33.9632 10.0338 34.2102C13.3029 36.1782 17.1299 37.0133 20.9218 36.586C21.0623 36.5725 21.1964 36.5538 21.3293 36.5364L21.4945 36.5154L21.6397 36.4905C21.8135 36.4655 21.9875 36.437 22.1613 36.4034C22.2457 36.3912 22.3265 36.3749 22.4073 36.3575C22.5306 36.3367 22.6527 36.3102 22.7738 36.278L22.8805 36.2533L22.9203 36.2434C28.3395 35.0193 32.9813 31.5458 35.6836 26.6915V26.6889L29.4418 20.4445ZM35.6862 26.6915H35.6836L35.6912 26.699V26.679C35.6862 26.6816 35.6836 26.6853 35.6836 26.6889L35.6862 26.6915ZM48.374 7.90189H51.9408V30.3193H48.374V7.90189ZM72.0293 30.3193H68.701V7.90189H72.0293V30.3193ZM144.464 7.90189H147.792V30.3193H144.464V7.90189ZM133.933 7.90085L142.545 30.318H138.87L136.709 24.6237H126.382L124.221 30.3193H120.546L129.158 7.90189L133.933 7.90085ZM135.438 21.2902L131.541 11.0255L127.645 21.2902H135.438ZM74.8971 12.4128H78.2255V30.3154H74.8971V12.4128ZM78.2255 10.725H74.8971V7.90318H78.2255V10.725ZM84.4229 14.5551C85.4873 13.3629 87.6483 12.4053 89.7857 12.4053C95.6925 12.4053 98.3252 16.2764 98.3252 21.0245V30.3154H94.9969V21.0258C94.9969 18.1071 93.4195 15.7349 89.7099 15.7349C87.021 15.7349 84.5969 17.2128 84.4229 20.2221V30.3118H81.0945V12.4092H84.4229V14.5551ZM109.544 12.4128C111.702 12.4128 113.687 13.2076 115.248 14.5489V12.4128H118.572V31.0544C118.572 35.8484 114.815 39.7455 110.195 39.7455H109.266C105.202 39.7455 101.814 36.7338 101.05 32.7473H104.478C105.15 34.8772 107.041 36.4159 109.269 36.4159H110.198C112.988 36.4159 115.252 34.0151 115.252 31.0544V29.2263C113.691 30.5614 111.704 31.365 109.543 31.365C104.559 31.365 100.506 27.1125 100.506 21.8876C100.506 16.6614 104.56 12.4128 109.544 12.4128ZM115.252 21.879C115.252 18.4884 112.694 15.7312 109.544 15.7312C106.393 15.7312 103.831 18.4858 103.831 21.879C103.831 25.2731 106.393 28.0266 109.544 28.0266C112.691 28.0266 115.252 25.2694 115.252 21.879ZM61.9262 7.90318H66.3551L56.453 18.9689L67.0195 30.3154H62.4304L51.9447 18.9702L61.9262 7.90318Z" fill="var(--fill-0, white)" style="fill:white;fill-opacity:1;"/>
</g>
</svg>
