<svg preserveAspectRatio="none" width="100%" height="100%" overflow="visible" style="display: block;" viewBox="0 0 121.064 40" fill="none" xmlns="http://www.w3.org/2000/svg">
<g id="svg (11) 1" clip-path="url(#clip0_312_5667)">
<path id="W7e2Xw7GK" d="M51.8083 21.0454C51.8083 26.779 47.323 31.0037 41.8185 31.0037C36.3138 31.0037 31.8283 26.779 31.8283 21.0454C31.8283 15.2714 36.3138 11.0869 41.8185 11.0869C47.323 11.0869 51.8083 15.2714 51.8083 21.0454ZM47.4351 21.0454C47.4351 17.4626 44.8355 15.0109 41.8185 15.0109C38.8011 15.0109 36.2017 17.4624 36.2017 21.0454C36.2017 24.5924 38.8011 27.0797 41.8185 27.0797C44.8355 27.0797 47.4351 24.588 47.4351 21.0454ZM73.3598 21.0454C73.3598 26.779 68.8743 31.0037 63.3696 31.0037C57.8651 31.0037 53.3798 26.779 53.3798 21.0454C53.3798 15.276 57.8651 11.0869 63.3696 11.0869C68.8743 11.0869 73.3598 15.2714 73.3598 21.0454ZM68.9864 21.0454C68.9864 17.4626 66.387 15.0109 63.3696 15.0109C60.3526 15.0109 57.753 17.4624 57.753 21.0454C57.753 24.5924 60.3526 27.0797 63.3696 27.0797C66.387 27.0797 68.9864 24.588 68.9864 21.0454ZM94.0128 11.6886V29.5671C94.0128 36.9214 89.6755 39.925 84.5481 39.925C79.7215 39.925 76.8166 36.6969 75.7211 34.0569L79.5285 32.4722C80.2066 34.0928 81.8677 36.0056 84.5438 36.0056C87.8255 36.0056 89.8596 33.9807 89.8596 30.1686V28.7365H89.707C88.7281 29.9441 86.8426 30.9994 84.4628 30.9994C79.4836 30.9994 74.9219 26.6622 74.9219 21.0814C74.9219 15.4601 79.4836 11.0869 84.4628 11.0869C86.8379 11.0869 88.7238 12.1422 89.707 13.3139H89.8596V11.6933H94.0128V11.6886ZM90.1694 21.0814C90.1694 17.5748 87.8302 15.0109 84.8536 15.0109C81.8362 15.0109 79.3085 17.5748 79.3085 21.0814C79.3085 24.5522 81.8362 27.0797 84.8536 27.0797C87.8302 27.0797 90.1694 24.5516 90.1694 21.0814ZM100.86 1.20944V30.3933H96.5947V1.20923H100.86V1.20944ZM117.481 24.3231L120.875 26.586C119.78 28.2067 117.14 30.9994 112.578 30.9994C106.921 30.9994 102.696 26.6265 102.696 21.0407C102.696 15.1188 106.957 11.0824 112.089 11.0824C117.256 11.0824 119.784 15.1952 120.61 17.4175L121.064 18.549L107.752 24.0624C108.771 26.0605 110.356 27.0797 112.578 27.0797C114.805 27.0797 116.349 25.9841 117.481 24.3231ZM107.033 20.7403L115.932 17.0448C115.443 15.8009 113.97 14.9343 112.237 14.9343C110.014 14.9343 106.921 16.8965 107.033 20.7399V20.7403ZM15.683 18.4548V14.2299H29.9204C30.0596 14.9663 30.1313 15.8373 30.1313 16.7799C30.1313 19.9499 29.2647 23.8694 26.4723 26.6622C23.7557 29.4909 20.2851 30.9994 15.6877 30.9994C7.16574 30.9994 0 24.0582 0 15.5365C0 7.01476 7.16574 0.0734863 15.6879 0.0734863C20.4019 0.0734863 23.7604 1.92349 26.2836 4.33434L23.3023 7.31561C21.4928 5.61838 19.0415 4.29817 15.683 4.29817C9.46042 4.29817 4.5934 9.31349 4.5934 15.5365C4.5934 21.7594 9.46042 26.7743 15.683 26.7743C19.7196 26.7743 22.0183 25.1537 23.4911 23.6809C24.6851 22.4869 25.4708 20.7807 25.7806 18.4503L15.683 18.4548Z" fill="var(--fill-0, white)" style="fill:white;fill-opacity:1;"/>
</g>
<defs>
<clipPath id="clip0_312_5667">
<rect width="121.064" height="40" fill="white" style="fill:white;fill-opacity:1;"/>
</clipPath>
</defs>
</svg>
