<svg preserveAspectRatio="none" width="100%" height="100%" overflow="visible" style="display: block;" viewBox="0 0 110 32" fill="none" xmlns="http://www.w3.org/2000/svg">
<g id="svg (8) 1" clip-path="url(#clip0_312_5678)">
<g id="PVfQ0k1m5">
<path id="RhZ54util" d="M57.7844 11.5453L53.3254 27.1529C53.2419 27.4289 52.9859 27.6171 52.6967 27.6149H50.2114C49.9224 27.6169 49.6668 27.4287 49.5833 27.1529L43.332 5.36048H47.3854L51.5747 19.9502L55.6101 5.83046C55.6934 5.55441 55.9496 5.36626 56.2388 5.36838H59.2981C59.5875 5.36626 59.8434 5.55479 59.9268 5.83103L63.9799 19.9507L68.1414 5.35913H72.2468L66.0094 27.1515C65.9259 27.4274 65.6703 27.6155 65.3813 27.6136H62.896C62.6068 27.6159 62.3508 27.4276 62.2673 27.1515L57.7844 11.5453ZM86.4234 10.8115H90.0213V27.6169H86.4234V26.0128C82.8321 28.8772 77.6226 28.5017 74.486 25.1527C71.3484 21.8083 71.3484 16.611 74.486 13.2666C77.6226 9.9174 82.8321 9.54188 86.4234 12.4063V10.8115ZM102.133 13.9093C99.2 13.9093 97.6641 16.2898 97.6641 18.6372V27.6182H94.066V10.8128H97.5013V12.4489C98.6555 11.1459 100.396 10.4892 102.691 10.4892C106.224 10.4892 109.999 12.5506 109.999 18.3467V27.6182H106.396V18.3739C106.396 15.7077 104.683 13.9093 102.133 13.9093ZM75.4199 19.2136C75.4194 22.2316 77.8827 24.6779 80.9221 24.6779V24.6686C83.9553 24.6686 86.4161 22.231 86.4234 19.2196C86.4261 16.2015 83.964 13.7532 80.9254 13.7518C77.886 13.7499 75.4213 16.1956 75.4199 19.2136Z" fill="var(--fill-0, white)" style="fill:white;fill-opacity:1;"/>
</g>
<path id="qse2o9q6q" d="M16.0403 0C16.3125 0 16.5638 0.144578 16.6974 0.382458L18.6621 3.8107H26.9616C27.2332 3.81243 27.4834 3.95817 27.6181 4.19316L29.8032 7.99865C29.8701 8.1172 29.9055 8.24655 29.9055 8.38111C29.9055 8.51508 29.8701 8.64443 29.8032 8.76299L27.8393 12.1872L28.2739 12.9509L31.9837 19.4209L31.9891 19.4317C32.056 19.5503 32.0914 19.6788 32.0914 19.8134C32.0914 19.9474 32.0552 20.0767 31.9885 20.1953L29.8032 24.0013C29.6687 24.2367 29.4179 24.3825 29.1461 24.3832H25.2176L21.0678 31.6181C20.9331 31.8535 20.6825 31.999 20.4107 32H16.0457C15.7737 32 15.5224 31.8554 15.3886 31.6181L13.4241 28.1885H5.12979C4.85837 28.1872 4.60821 28.0416 4.47327 27.8068L2.28738 24.0013C2.22127 23.8849 2.18627 23.7534 2.18589 23.6195C2.18589 23.4849 2.22127 23.3556 2.28815 23.2364L4.25134 19.8088L0.102267 12.5737C0.0359578 12.4576 0.000579965 12.3264 0 12.1926C0 12.0586 0.0361511 11.9287 0.102267 11.8101L2.28274 7.99942C2.41729 7.76424 2.66765 7.6187 2.93926 7.61754H6.86833L7.30485 6.85783L11.0182 0.382458C11.1527 0.146892 11.4035 0.000963855 11.6753 0H16.0403ZM22.1554 12.9509L14.2115 26.8066L13.8592 27.4196L14.0817 27.8061L16.0403 31.2245L16.0424 31.2204L16.0451 31.2251L24.7765 15.9994L26.961 19.8028H31.3314L27.4022 12.9509H22.1547H22.1554ZM2.93926 8.38111L11.6693 23.6035H7.30968L5.12438 27.4144H5.12844L5.12515 27.4196H12.9835L15.6038 22.8492L7.31026 8.38111H2.93926ZM7.74079 7.61677L10.3618 12.1872H26.9616L29.1475 8.38111H11.6747L13.8606 4.57504L11.6747 0.763566L7.74002 7.61677H7.74079Z" fill="var(--fill-0, white)" style="fill:white;fill-opacity:1;"/>
</g>
<defs>
<clipPath id="clip0_312_5678">
<rect width="110" height="32" fill="white" style="fill:white;fill-opacity:1;"/>
</clipPath>
</defs>
</svg>
