<svg preserveAspectRatio="none" width="100%" height="100%" overflow="visible" style="display: block;" viewBox="0 0 119.007 32" fill="none" xmlns="http://www.w3.org/2000/svg">
<g id="svg (9) 1" clip-path="url(#clip0_312_5661)">
<path id="aBBCRFywi" d="M12.6605 -0.105664C5.69725 -0.105664 0 5.59159 0 12.5548C0 19.5181 5.69725 25.2153 12.6605 25.2153C19.6237 25.2153 25.321 19.5532 25.321 12.5548C25.321 5.55624 19.6589 -0.105664 12.6605 -0.105664ZM12.6605 20.6786C8.33485 20.6786 4.85312 17.1266 4.85312 12.5548C4.85312 7.98302 8.33485 4.43102 12.6605 4.43102C16.9861 4.43102 20.4679 7.98302 20.4679 12.5548C20.4679 17.1266 16.9861 20.6786 12.6605 20.6786ZM38.1218 6.92785C35.836 6.92785 33.6203 7.84226 32.4597 9.38976V7.27964H27.8879V31.8973H32.4597V22.9998C33.6203 24.4417 35.7655 25.2153 38.1218 25.2153C43.0454 25.2153 46.9139 21.3469 46.9139 16.0717C46.9139 10.7965 43.0454 6.92785 38.1218 6.92785ZM37.3482 21.2413C34.7457 21.2413 32.4246 19.2016 32.4246 16.0717C32.4246 12.9416 34.7457 10.9019 37.3482 10.9019C39.9506 10.9019 42.2716 12.9416 42.2716 16.0717C42.2716 19.2016 39.9506 21.2413 37.3482 21.2413ZM57.6757 6.92785C52.682 6.92785 48.7431 10.8316 48.7431 16.0717C48.7431 21.3115 52.1897 25.2153 57.8165 25.2153C62.4234 25.2153 65.3777 22.437 66.2921 19.307H61.8257C61.2628 20.6084 59.6804 21.5226 57.7813 21.5226C55.425 21.5226 53.6316 19.8697 53.2095 17.5136H66.5029V15.7199C66.5029 10.9371 63.1619 6.92785 57.6757 6.92785ZM53.2447 14.278C53.737 12.0625 55.5658 10.6206 57.7813 10.6206C60.1376 10.6206 61.9311 12.1679 62.1421 14.278H53.2447ZM78.6708 6.92785C76.631 6.92785 74.4857 7.84226 73.5011 9.35462V7.27964H68.9292V24.8637H73.5011V15.4035C73.5011 12.6602 74.9781 10.8668 77.3695 10.8668C79.585 10.8668 80.7805 12.5548 80.7805 14.9111V24.8637H85.3526V14.1726C85.3526 9.81162 82.6796 6.92785 78.6708 6.92785ZM97.0625 0.246545L87.1098 24.8644H91.9983L94.108 19.4836H105.433L107.542 24.8644H112.5L102.619 0.246545H97.0625ZM95.6907 15.4041L99.7703 5.09988L103.814 15.4041H95.6907ZM119.007 0.246545H114.365V24.8644H119.007V0.246545Z" fill="var(--fill-0, white)" style="fill:white;fill-opacity:1;"/>
</g>
<defs>
<clipPath id="clip0_312_5661">
<rect width="119.007" height="32" fill="white" style="fill:white;fill-opacity:1;"/>
</clipPath>
</defs>
</svg>
