<svg preserveAspectRatio="none" width="100%" height="100%" overflow="visible" style="display: block;" viewBox="0 0 138 32" fill="none" xmlns="http://www.w3.org/2000/svg">
<g id="svg 3" clip-path="url(#clip0_312_5670)">
<path id="P0lhmV0z1" d="M122.953 3.53333L131.161 31.9724L112.656 31.9707L114.691 24.9486H108.785L112.656 31.9716H100.037L98.0693 25.1408H94.7757V31.9697L77.807 32.0129L72.7583 23.0499V32.0129H59.6517C59.6318 32.0138 59.6121 32.0129 59.5922 32.0129H59.5886C53.7693 32.0121 48.7225 28.4992 46.2215 23.3583C45.0346 28.5001 42.6391 32.0148 39.8767 32.0148H39.874C34.6254 32.0138 30.0047 29.1544 27.3145 24.8228H27.3109L31.3549 31.9978H18.1787L13.1238 23.0339V31.9978H0L4.5945 16.009H8.98601C8.759 14.631 8.63288 13.1164 8.63288 11.5263C8.63288 5.17115 10.6418 0.0186667 13.1202 0.0186667C19.6792 0.0186667 25.0983 4.35952 25.9447 9.98642C28.1869 4.15006 33.5789 0.0366061 39.8767 0.0366061C42.6391 0.0366061 45.0346 3.5503 46.2215 8.69212C48.7225 3.5503 53.771 0.0356364 59.5922 0.0356364C62.4049 0.0356364 64.8382 3.68267 66.0009 8.98061H63.4926C62.6986 4.96897 61.2487 2.28194 59.5913 2.28194C57.0823 2.28194 55.0482 8.43588 55.0482 16.0262C55.0482 23.6165 57.0823 29.7702 59.5913 29.7702C62.1002 29.7702 64.1343 23.6172 64.1343 16.0262L68.6243 16.0272C68.3973 14.649 68.2719 13.1343 68.2719 11.5442C68.2719 5.18909 70.2791 0.0375758 72.7539 0.0375758C79.8916 0.0375758 85.6762 5.20703 85.6762 11.5442C85.6762 17.8815 79.9231 23.0223 72.8133 23.0509H84.7264L91.3761 -0.00557576H95.0308L101.725 12.1411V11.4921C101.725 5.13697 103.732 -0.0145455 106.207 -0.0145455C110.362 -0.0145455 114.06 1.73188 116.423 4.44485L117.715 -0.00557576H133.386L138 15.993L122.953 3.53333ZM15.4679 11.5263C15.4679 6.33503 14.417 2.12655 13.1202 2.12655C11.8231 2.12655 10.7725 6.33503 10.7725 11.5263C10.7725 16.7173 11.8241 20.9261 13.1202 20.9261C14.417 20.9261 15.4679 16.7173 15.4679 11.5263ZM26.3025 23.0339L26.3051 23.0393H26.3546C25.431 21.0303 24.8912 18.7857 24.8378 16.4126C22.7795 20.3093 18.3365 23.0131 13.1806 23.0339H26.3025ZM35.3886 13.8931H44.3649C44.0261 7.31491 42.146 2.28121 39.8767 2.28121C37.6075 2.28121 35.7274 7.31491 35.3886 13.8931ZM46.0762 23.0519C45.0986 20.9314 44.5488 18.5476 44.5488 16.0272H35.3336C35.3345 23.6172 37.3679 29.7702 39.8767 29.7702C41.5378 29.7702 42.9898 27.0744 43.7819 23.0519H46.0762ZM75.0987 11.5442C75.0987 6.35321 74.0488 2.14545 72.7546 2.14545C71.4605 2.14545 70.4106 6.35321 70.4106 11.5442C70.4106 16.7353 71.4595 20.943 72.7546 20.943C74.0488 20.943 75.0987 16.7353 75.0987 11.5442ZM97.4547 23.0078L94.7757 13.7069V23.0078H97.4547ZM112.752 15.9784L115.746 21.3008L118.589 11.4921H108.551C108.551 6.30109 107.501 2.09333 106.207 2.09333C104.913 2.09333 103.862 6.30109 103.862 11.4921L103.841 15.9784H112.752ZM119.023 9.99806L120.899 3.52267L117.083 5.27273C118.092 6.66958 118.771 8.27321 119.023 9.99733V9.99806Z" fill="var(--fill-0, white)" style="fill:white;fill-opacity:1;"/>
</g>
<defs>
<clipPath id="clip0_312_5670">
<rect width="138" height="32" fill="white" style="fill:white;fill-opacity:1;"/>
</clipPath>
</defs>
</svg>
