<svg preserveAspectRatio="none" width="100%" height="100%" overflow="visible" style="display: block;" viewBox="0 0 87.2727 24" fill="none" xmlns="http://www.w3.org/2000/svg">
<g id="Freepik  All-in-One AI Creative Suite 1">
<path id="Vector" d="M22.9209 13.676C22.8842 13.6395 22.9086 13.5663 22.9698 13.5663H23.2145H23.2268C25.3193 13.3591 27.0693 12.0061 27.0693 9.6171C27.0693 6.86238 24.8421 5.59473 22.2845 5.59473H10.3288C10.1697 5.59473 10.0352 5.7288 10.0352 5.88726V18.1007C10.0352 18.2591 10.1697 18.3932 10.3288 18.3932H14.1468C14.3059 18.3932 14.4405 18.2591 14.4405 18.1007V14.2001C14.4405 14.0417 14.5751 13.9077 14.7342 13.9077H17.2183C17.5609 13.9077 17.8914 14.0539 18.1239 14.3099L21.6604 18.2835C21.7339 18.3201 21.8073 18.3445 21.8807 18.381H26.9224C27.1794 18.381 27.314 18.0762 27.1304 17.8935L22.9209 13.676ZM21.33 11.0554H14.7219C14.5628 11.0554 14.4283 10.9213 14.4283 10.7629V8.91014C14.4283 8.75169 14.5628 8.6176 14.7219 8.6176H21.2322C22.1621 8.6176 22.774 9.0686 22.774 9.79993C22.774 10.6288 22.2111 11.0554 21.33 11.0554Z" fill="var(--fill-0, black)" style="fill:black;fill-opacity:1;"/>
<path id="Vector_2" d="M71.182 5.60693H67.364C67.2049 5.60693 67.0703 5.74101 67.0703 5.89947V14.0052C67.0703 14.1636 67.2049 14.2977 67.364 14.2977H71.182C71.3411 14.2977 71.4757 14.1636 71.4757 14.0052V5.89947C71.4634 5.74101 71.3411 5.60693 71.182 5.60693Z" fill="var(--fill-0, black)" style="fill:black;fill-opacity:1;"/>
<path id="Vector_3" d="M71.182 16.0156H67.364C67.2049 16.0156 67.0703 16.1497 67.0703 16.3082V18.1122C67.0703 18.2706 67.2049 18.4047 67.364 18.4047H71.182C71.3411 18.4047 71.4757 18.2706 71.4757 18.1122V16.3082C71.4634 16.1497 71.3411 16.0156 71.182 16.0156Z" fill="var(--fill-0, black)" style="fill:black;fill-opacity:1;"/>
<path id="Vector_4" d="M86.8964 18.0153L81.9891 11.543C81.8794 11.3967 81.8914 11.2017 82.0139 11.0676L86.6522 5.99698C86.7867 5.85071 86.6762 5.61912 86.4808 5.61912H82.4663C82.3566 5.61912 82.2589 5.66788 82.1853 5.74101L77.7064 10.641C77.6942 10.6532 77.6697 10.6654 77.6452 10.6654H77.4861C77.4495 10.6654 77.4127 10.6288 77.4127 10.5922V5.87509C77.4127 5.72882 77.2904 5.60693 77.1435 5.60693H73.4724C73.3255 5.60693 73.2031 5.72882 73.2031 5.87509V18.1129C73.2031 18.247 73.3133 18.3567 73.4479 18.3567H77.1558C77.2904 18.3567 77.4005 18.247 77.4005 18.1129V15.8335C77.4005 15.736 77.4372 15.6506 77.4984 15.5775L79.1259 13.8467C79.1259 13.8467 79.1382 13.8223 79.1749 13.8223C79.2116 13.8223 79.3707 13.8223 79.3952 13.8223C79.4197 13.8223 79.4441 13.8467 79.4441 13.8467L82.7233 18.2104C82.797 18.3079 82.9075 18.3567 83.03 18.3567H86.713C86.9084 18.3567 87.0069 18.1494 86.8964 18.0153Z" fill="var(--fill-0, black)" style="fill:black;fill-opacity:1;"/>
<path id="Vector_5" d="M33.0057 8.5323H36.738C36.8971 8.5323 37.0317 8.39822 37.0317 8.23976V5.89947C37.0317 5.74101 36.8971 5.60693 36.738 5.60693H29.0163C28.8572 5.60693 28.7227 5.74101 28.7227 5.89947V18.1129C28.7227 18.2713 28.8572 18.4054 29.0163 18.4054H36.738C36.8971 18.4054 37.0317 18.2713 37.0317 18.1129V15.7726C37.0317 15.6141 36.8971 15.48 36.738 15.48H32.9812C32.8221 15.48 32.6875 15.346 32.6875 15.1875V13.6639C32.6875 13.4932 32.8343 13.347 33.0057 13.347H36.738C36.8971 13.347 37.0317 13.2129 37.0317 13.0544V10.7629C37.0317 10.6044 36.8971 10.4704 36.738 10.4704H33.0057C32.8343 10.4704 32.6875 10.3241 32.6875 10.1534V8.83702C32.6875 8.66638 32.8343 8.5323 33.0057 8.5323Z" fill="var(--fill-0, black)" style="fill:black;fill-opacity:1;"/>
<path id="Vector_6" d="M43.0408 8.5323H46.7731C46.9322 8.5323 47.0668 8.39822 47.0668 8.23976V5.89947C47.0668 5.74101 46.9322 5.60693 46.7731 5.60693H39.0515C38.8924 5.60693 38.7578 5.74101 38.7578 5.89947V18.1129C38.7578 18.2713 38.8924 18.4054 39.0515 18.4054H46.7731C46.9322 18.4054 47.0668 18.2713 47.0668 18.1129V15.7726C47.0668 15.6141 46.9322 15.48 46.7731 15.48H43.0163C42.8572 15.48 42.7226 15.346 42.7226 15.1875V13.6639C42.7226 13.4932 42.8695 13.347 43.0408 13.347H46.7731C46.9322 13.347 47.0668 13.2129 47.0668 13.0544V10.7629C47.0668 10.6044 46.9322 10.4704 46.7731 10.4704H43.0408C42.8695 10.4704 42.7226 10.3241 42.7226 10.1534V8.83702C42.7226 8.66638 42.8695 8.5323 43.0408 8.5323Z" fill="var(--fill-0, black)" style="fill:black;fill-opacity:1;"/>
<path id="Vector_7" d="M4.2869 8.5323H8.01926C8.17836 8.5323 8.31295 8.39822 8.31295 8.23976V5.89947C8.31295 5.74101 8.17836 5.60693 8.01926 5.60693H0.2976C0.138518 5.60693 0.00390625 5.74101 0.00390625 5.89947V18.1129C0.00390625 18.2713 0.138518 18.4054 0.2976 18.4054H3.67505C3.83414 18.4054 3.96874 18.2713 3.96874 18.1129V13.676C3.96874 13.5054 4.11559 13.3591 4.2869 13.3591H8.01926C8.17836 13.3591 8.31295 13.2251 8.31295 13.0666V10.7751C8.31295 10.6166 8.17836 10.4825 8.01926 10.4825H4.2869C4.11559 10.4825 3.96874 10.3363 3.96874 10.1656V8.84921C3.96874 8.66638 4.10335 8.5323 4.2869 8.5323Z" fill="var(--fill-0, black)" style="fill:black;fill-opacity:1;"/>
<path id="Vector_8" d="M60.6469 5.60693H49.0827C48.9237 5.60693 48.7891 5.74101 48.7891 5.89947V18.1129C48.7891 18.2713 48.9237 18.4054 49.0827 18.4054H52.9007C53.0598 18.4054 53.1944 18.2713 53.1944 18.1129V14.0783C53.1944 13.9929 53.2556 13.932 53.3413 13.932H53.892H60.6591C63.596 13.932 65.8232 12.4084 65.8232 9.71462C65.8232 6.92335 63.596 5.60693 60.6469 5.60693ZM60.0962 11.0554H53.4881C53.329 11.0554 53.1944 10.9213 53.1944 10.7629V8.91015C53.1944 8.7517 53.329 8.61761 53.4881 8.61761H59.9983C60.9283 8.61761 61.5402 9.06861 61.5402 9.79995C61.5402 10.6288 60.965 11.0554 60.0962 11.0554Z" fill="var(--fill-0, black)" style="fill:black;fill-opacity:1;"/>
</g>
</svg>
