<svg width="119" height="32" viewBox="0 0 119 32" fill="none" xmlns="http://www.w3.org/2000/svg">
<g clip-path="url(#clip0_401_8371)">
<path d="M12.6605 -0.105713C5.69725 -0.105713 0 5.59154 0 12.5548C0 19.518 5.69725 25.2153 12.6605 25.2153C19.6237 25.2153 25.321 19.5532 25.321 12.5548C25.321 5.5562 19.6589 -0.105713 12.6605 -0.105713ZM12.6605 20.6786C8.33485 20.6786 4.85312 17.1266 4.85312 12.5548C4.85312 7.98297 8.33485 4.43097 12.6605 4.43097C16.9861 4.43097 20.4679 7.98297 20.4679 12.5548C20.4679 17.1266 16.9861 20.6786 12.6605 20.6786ZM38.1218 6.9278C35.836 6.9278 33.6203 7.84221 32.4597 9.38971V7.27959H27.8879V31.8972H32.4597V22.9998C33.6203 24.4416 35.7655 25.2153 38.1218 25.2153C43.0454 25.2153 46.9139 21.3468 46.9139 16.0716C46.9139 10.7965 43.0454 6.9278 38.1218 6.9278ZM37.3482 21.2412C34.7457 21.2412 32.4246 19.2016 32.4246 16.0716C32.4246 12.9415 34.7457 10.9019 37.3482 10.9019C39.9506 10.9019 42.2716 12.9415 42.2716 16.0716C42.2716 19.2016 39.9506 21.2412 37.3482 21.2412ZM57.6757 6.9278C52.682 6.9278 48.7431 10.8316 48.7431 16.0716C48.7431 21.3115 52.1897 25.2153 57.8165 25.2153C62.4234 25.2153 65.3777 22.4369 66.2921 19.307H61.8257C61.2628 20.6083 59.6804 21.5225 57.7813 21.5225C55.425 21.5225 53.6316 19.8696 53.2095 17.5135H66.5029V15.7199C66.5029 10.937 63.1619 6.9278 57.6757 6.9278ZM53.2447 14.278C53.737 12.0624 55.5658 10.6206 57.7813 10.6206C60.1376 10.6206 61.9311 12.1679 62.1421 14.278H53.2447ZM78.6708 6.9278C76.631 6.9278 74.4857 7.84221 73.5011 9.35457V7.27959H68.9292V24.8637H73.5011V15.4034C73.5011 12.6602 74.9781 10.8667 77.3695 10.8667C79.585 10.8667 80.7805 12.5548 80.7805 14.9111V24.8637H85.3526V14.1726C85.3526 9.81157 82.6796 6.9278 78.6708 6.9278ZM97.0625 0.246496L87.1098 24.8643H91.9983L94.108 19.4835H105.433L107.542 24.8643H112.5L102.619 0.246496H97.0625ZM95.6907 15.404L99.7703 5.09983L103.814 15.404H95.6907ZM119.007 0.246496H114.365V24.8643H119.007V0.246496Z" fill="white" style="fill:white;fill-opacity:1;"/>
</g>
<defs>
<clipPath id="clip0_401_8371">
<rect width="119.007" height="32" fill="white" style="fill:white;fill-opacity:1;"/>
</clipPath>
</defs>
</svg>
