<svg width="132" height="32" viewBox="0 0 132 32" fill="none" xmlns="http://www.w3.org/2000/svg">
<g clip-path="url(#clip0_401_8375)">
<path d="M10.5967 8.33293C8.15245 8.33293 6.85576 9.77966 6.85576 12.3489V23.4534H0.140625V1.68783H3.91129L6.2677 4.1989C7.38747 2.57409 9.06607 1.68783 11.3344 1.68783H13.3668V8.33293H10.5967ZM14.9838 1.68783H21.6994V13.9153C21.6994 16.1899 23.1716 17.7546 25.3518 17.7546C27.5324 17.7546 28.9742 16.1903 28.9742 13.9153V1.68783H35.6898V23.455H31.9194L29.6226 21.0038C28.0622 22.8651 25.8519 23.9566 23.2613 23.9566C18.3723 23.9566 14.9854 20.3823 14.9854 15.1552V1.68783H14.9838ZM58.5462 23.455H51.8311V11.3157C51.8311 8.9829 50.3287 7.38801 48.0905 7.38801C45.8519 7.38801 44.3498 8.9829 44.3498 11.3159V23.4555H37.6342V1.68783H41.4049L43.7316 4.16853C45.2922 2.27914 47.5303 1.18604 50.1826 1.18604C55.1312 1.18604 58.5478 4.81873 58.5478 10.1059V23.455H58.5462ZM57.8111 1.68783H64.8203L68.1193 14.0338L72.0956 1.68783H76.9847L80.9615 14.0918L84.2601 1.68783H90.7108L83.8779 23.455H78.0168L74.158 11.4942L70.2693 23.4555H64.7623L57.8111 1.68783ZM99.8709 1.18604C105.584 1.18604 109.031 4.34708 109.031 9.60273V23.455H105.232L103.26 21.3289C101.787 23.0418 99.6669 23.9566 97.1041 23.9566C92.5392 23.9566 89.3288 21.1223 89.3288 17.1049C89.3288 12.8222 92.4511 10.341 97.8703 10.341H102.495V9.63264C102.495 7.77131 101.465 6.76818 99.5203 6.76818C97.7821 6.76818 96.6638 7.65467 96.5457 9.13108H89.9781C90.3605 4.31717 94.2494 1.18604 99.8742 1.18604H99.8709ZM102.492 15.5401V14.5952H98.5749C96.8963 14.5952 95.9243 15.3632 95.9243 16.6912C95.9243 18.1094 97.0726 18.9657 98.987 18.9657C101.255 18.9657 102.492 17.7848 102.492 15.5401Z" fill="white" style="fill:white;fill-opacity:1;"/>
<path d="M120.048 30.6907H112.95L116.749 21.5642L107.941 1.68799H115.777L120.342 13.5308L124.642 1.68799H131.74L120.048 30.6907Z" fill="white" style="fill:white;fill-opacity:1;"/>
</g>
<defs>
<clipPath id="clip0_401_8375">
<rect width="131.942" height="32" fill="white" style="fill:white;fill-opacity:1;"/>
</clipPath>
</defs>
</svg>
