<svg width="138" height="32" viewBox="0 0 138 32" fill="none" xmlns="http://www.w3.org/2000/svg">
<g clip-path="url(#clip0_401_8384)">
<path d="M122.953 3.53323L131.161 31.9723L112.656 31.9706L114.691 24.9485H108.785L112.656 31.9715H100.037L98.0693 25.1407H94.7757V31.9696L77.807 32.0127L72.7583 23.0498V32.0127H59.6517C59.6318 32.0137 59.6121 32.0127 59.5922 32.0127H59.5886C53.7693 32.012 48.7225 28.499 46.2215 23.3582C45.0346 28.5 42.6391 32.0147 39.8767 32.0147H39.874C34.6254 32.0137 30.0047 29.1543 27.3145 24.8227H27.3109L31.3549 31.9977H18.1787L13.1238 23.0338V31.9977H0L4.5945 16.0089H8.98601C8.759 14.6309 8.63288 13.1163 8.63288 11.5262C8.63288 5.17105 10.6418 0.0185637 13.1202 0.0185637C19.6792 0.0185637 25.0983 4.35941 25.9447 9.98632C28.1869 4.14996 33.5789 0.0365031 39.8767 0.0365031C42.6391 0.0365031 45.0346 3.5502 46.2215 8.69202C48.7225 3.5502 53.771 0.0355334 59.5922 0.0355334C62.4049 0.0355334 64.8382 3.68256 66.0009 8.9805H63.4926C62.6986 4.96887 61.2487 2.28184 59.5913 2.28184C57.0823 2.28184 55.0482 8.43578 55.0482 16.0261C55.0482 23.6164 57.0823 29.7701 59.5913 29.7701C62.1002 29.7701 64.1343 23.6171 64.1343 16.0261L68.6243 16.027C68.3973 14.6489 68.2719 13.1342 68.2719 11.5441C68.2719 5.18899 70.2791 0.0374728 72.7539 0.0374728C79.8916 0.0374728 85.6762 5.20693 85.6762 11.5441C85.6762 17.8814 79.9231 23.0222 72.8133 23.0508H84.7264L91.3761 -0.00567874H95.0308L101.725 12.141V11.492C101.725 5.13687 103.732 -0.0146484 106.207 -0.0146484C110.362 -0.0146484 114.06 1.73178 116.423 4.44475L117.715 -0.00567874H133.386L138 15.9929L122.953 3.53323ZM15.4679 11.5262C15.4679 6.33493 14.417 2.12644 13.1202 2.12644C11.8231 2.12644 10.7725 6.33493 10.7725 11.5262C10.7725 16.7172 11.8241 20.926 13.1202 20.926C14.417 20.926 15.4679 16.7172 15.4679 11.5262ZM26.3025 23.0338L26.3051 23.0392H26.3546C25.431 21.0302 24.8912 18.7856 24.8378 16.4125C22.7795 20.3092 18.3365 23.013 13.1806 23.0338H26.3025ZM35.3886 13.893H44.3649C44.0261 7.31481 42.146 2.28111 39.8767 2.28111C37.6075 2.28111 35.7274 7.31481 35.3886 13.893ZM46.0762 23.0518C45.0986 20.9313 44.5488 18.5475 44.5488 16.027H35.3336C35.3345 23.6171 37.3679 29.7701 39.8767 29.7701C41.5378 29.7701 42.9898 27.0743 43.7819 23.0518H46.0762ZM75.0987 11.5441C75.0987 6.35311 74.0488 2.14535 72.7546 2.14535C71.4605 2.14535 70.4106 6.35311 70.4106 11.5441C70.4106 16.7352 71.4595 20.9429 72.7546 20.9429C74.0488 20.9429 75.0987 16.7352 75.0987 11.5441ZM97.4547 23.0077L94.7757 13.7068V23.0077H97.4547ZM112.752 15.9783L115.746 21.3007L118.589 11.492H108.551C108.551 6.30099 107.501 2.09323 106.207 2.09323C104.913 2.09323 103.862 6.30099 103.862 11.492L103.841 15.9783H112.752ZM119.023 9.99796L120.899 3.52256L117.083 5.27262C118.092 6.66947 118.771 8.27311 119.023 9.99723V9.99796Z" fill="white" style="fill:white;fill-opacity:1;"/>
</g>
<defs>
<clipPath id="clip0_401_8384">
<rect width="138" height="32" fill="white" style="fill:white;fill-opacity:1;"/>
</clipPath>
</defs>
</svg>
