<svg preserveAspectRatio="none" width="100%" height="100%" overflow="visible" style="display: block;" viewBox="0 0 57.7614 14.286" fill="none" xmlns="http://www.w3.org/2000/svg">
<path id="Vector" fill-rule="evenodd" clip-rule="evenodd" d="M43.2505 11.9491H46.5869V14.0575H43.9391C42.0857 14.0575 40.9202 13.0382 40.9202 11.1407V5.53511H39.0316V3.4091H40.9202L41.4677 0.6151H43.2329V3.4091H46.5869V5.53511H43.2505V11.9491ZM3.8133 0L8.6679 10.824H8.809V0H11.3333V14.0575H7.52L2.6654 3.23347H2.5243V14.0575H0V0H3.8133ZM17.812 14.2684C14.7225 14.2684 12.7457 12.1071 12.7457 8.75091C12.7457 5.39471 14.6873 3.19819 17.812 3.19819C20.9367 3.19819 22.8429 5.30651 22.8429 8.75091C22.8429 12.1953 20.9014 14.2684 17.812 14.2684ZM17.812 12.16C19.1891 12.16 20.3363 11.6853 20.3715 10.3324V7.16951C20.3715 5.78131 19.2068 5.30651 17.812 5.30651C16.4172 5.30651 15.2171 5.78131 15.2171 7.16951V10.3324C15.2524 11.7029 16.4348 12.16 17.812 12.16ZM25.5444 3.39147L28.2979 11.8256H28.439L31.1926 3.39147H33.7346L29.9389 14.0398H26.7966L23.0186 3.39147H25.5429H25.5444ZM35.0419 3.4091H37.3722V14.0575H35.0419V3.4091ZM34.9001 0H37.5126V2.00328H34.9001V0ZM52.3064 14.286C49.4639 14.286 47.6458 12.1247 47.6458 8.75091C47.6458 5.37711 49.4286 3.21583 52.3064 3.21583C53.6483 3.21583 54.7425 3.74274 55.3958 4.72674H55.5369L55.9962 3.4091H57.7614V14.0575H55.9962L55.5369 12.7744H55.3958C54.6896 13.7055 53.5072 14.286 52.3064 14.286ZM52.7826 12.16C54.1774 12.16 55.3951 11.7206 55.4304 10.3324V7.16951C55.4304 5.74601 54.159 5.34181 52.7297 5.34181C51.3004 5.34181 50.1172 5.78131 50.1172 7.16951V10.3324C50.1525 11.7382 51.3709 12.16 52.7826 12.16Z" fill="var(--fill-0, black)" style="fill:black;fill-opacity:1;"/>
</svg>
