<svg preserveAspectRatio="none" width="100%" height="100%" overflow="visible" style="display: block;" viewBox="0 0 131.504 24" fill="none" xmlns="http://www.w3.org/2000/svg">
<g id="Top Influencer Marketing Software Platform  Influencer Outreach &#226;&#128;&#147; Soci 1" clip-path="url(#clip0_312_5616)">
<path id="Vector" d="M12.8777 17.2086C12.8777 14.7193 10.8387 12.6069 8.27405 12.6069H6.53653C6.23505 12.6823 6.0843 12.4562 6.0843 12.23C6.0843 12.0039 6.23505 11.7778 6.53653 11.7778C6.53653 11.7778 6.53653 11.7778 6.61191 11.7778H12.9511C12.9511 9.51467 11.0628 7.63037 8.80166 7.63037H6.53653C3.96992 7.63037 1.9329 9.6674 1.9329 12.232C1.9329 14.7967 3.97191 16.7583 6.53653 16.7583H8.27405C8.50017 16.7583 8.72629 16.909 8.72629 17.2105C8.72629 17.512 8.57554 17.6628 8.27405 17.6628C8.27405 17.6628 8.27405 17.6628 8.19868 17.6628H3.29157C3.14083 19.4737 2.161 21.2072 0.574219 21.8102H8.27207C10.7633 21.8102 12.8777 19.7732 12.8777 17.2086Z" fill="var(--fill-0, black)" style="fill:black;fill-opacity:1;"/>
<g id="Group">
<path id="Vector_2" d="M35.6859 9.04263C36.5447 9.53255 37.2806 10.2684 37.7705 11.1273C38.2604 11.9861 38.5064 13.0909 38.5064 14.1937C38.5064 15.4195 38.2604 16.4013 37.7705 17.3811C37.2806 18.24 36.5447 18.9759 35.6859 19.4658C34.827 19.8347 33.8472 20.0787 32.6194 20.0787C31.5146 20.0787 30.5348 19.8327 29.676 19.3428C28.8171 18.8529 28.0813 18.117 27.5913 17.2582C27.1014 16.3993 26.8555 15.2945 26.8555 14.0707C26.8555 12.8469 27.1014 11.8631 27.5913 11.0043C28.0813 10.1454 28.8171 9.40958 29.676 8.91966C30.5348 8.42974 31.5146 8.18379 32.6194 8.18379C33.8452 8.30677 34.827 8.55272 35.6859 9.04263ZM31.0267 10.8813C30.5368 11.1273 30.0469 11.6172 29.8009 12.1071C29.432 12.72 29.311 13.3329 29.311 14.1917C29.311 15.0506 29.434 15.7864 29.8009 16.2764C30.1699 16.8892 30.5368 17.2562 31.0267 17.5021C31.5166 17.7481 32.1315 17.8711 32.7444 17.8711C33.3573 17.8711 33.9702 17.7481 34.4621 17.5021C34.954 17.2562 35.4419 16.7663 35.6879 16.2764C36.0568 15.6635 36.1778 15.0506 36.1778 14.1917C36.1778 13.3329 36.0548 12.597 35.6879 12.1071C35.3189 11.6172 34.952 11.1273 34.4621 10.8813C33.9722 10.6354 33.3573 10.5124 32.7444 10.5124C32.0065 10.3914 31.5166 10.5124 31.0267 10.8813ZM50.1553 9.53255C51.1351 10.2684 51.75 11.3712 51.994 12.72H49.4194C49.2965 11.9841 48.9295 11.3712 48.4396 11.0023C47.9497 10.6334 47.2138 10.3894 46.476 10.3894C45.6171 10.3894 44.7583 10.7583 44.1474 11.3692C43.5365 11.9802 43.2885 12.964 43.2885 14.1897C43.2885 15.4155 43.5345 16.3973 44.1474 17.0102C44.7603 17.6251 45.4961 17.9901 46.476 17.9901C47.3348 17.9901 47.9477 17.7441 48.4396 17.3772C48.9295 17.0083 49.2984 16.3973 49.4194 15.6595H51.994C51.748 17.0083 51.1351 18.113 50.1553 18.8469C49.1755 19.5808 47.9477 20.0727 46.476 20.0727C45.3712 20.0727 44.3913 19.8268 43.5325 19.3368C42.6737 18.8469 41.9378 18.1111 41.5689 17.2522C41.0789 16.3934 40.833 15.2886 40.833 14.0648C40.833 12.839 41.0789 11.8572 41.5689 10.9983C41.9378 10.2625 42.6737 9.5266 43.5325 9.0347C44.3913 8.54478 45.3712 8.29883 46.476 8.29883C47.9477 8.30677 49.1755 8.79668 50.1553 9.53255ZM54.8165 4.13553C55.0624 3.88958 55.4294 3.7666 55.9213 3.7666C56.4112 3.7666 56.7801 3.88958 57.026 4.13553C57.272 4.38148 57.395 4.74842 57.395 5.11536C57.395 5.48429 57.272 5.85123 57.026 6.0952C56.7801 6.34115 56.4132 6.46412 55.9213 6.46412C55.4313 6.46412 55.0624 6.34115 54.8165 6.0952C54.5705 5.84925 54.4475 5.4823 54.4475 5.11536C54.4475 4.74842 54.5705 4.38148 54.8165 4.13553ZM57.147 8.55272V20.0807H54.8184V8.55272H57.147ZM67.8161 9.16363C68.552 9.65354 69.0419 10.3894 69.4108 11.2483V8.55073H71.7394V20.0787H69.4108V17.3811C69.1649 18.24 68.552 18.9759 67.8161 19.4658C67.0803 19.9557 66.2214 20.2016 65.1186 20.2016C64.1388 20.2016 63.2799 19.9557 62.4211 19.4658C61.6852 18.9759 61.0723 18.361 60.5824 17.3811C60.0925 16.4013 59.9695 15.4175 59.9695 14.1937C59.9695 12.9679 60.2155 11.9861 60.5824 11.1273C61.0723 10.2684 61.6872 9.53255 62.4211 9.04263C63.155 8.55272 64.1388 8.30677 65.1186 8.30677C66.2214 8.30677 67.0803 8.67371 67.8161 9.16363ZM63.3989 11.4942C62.786 12.1071 62.4191 13.0889 62.4191 14.3147C62.4191 15.5405 62.788 16.3993 63.3989 17.1352C64.0118 17.8711 64.8707 18.115 65.9735 18.115C66.5864 18.115 67.1993 17.9921 67.8122 17.6251C68.3021 17.2562 68.792 16.8892 69.0379 16.2764C69.2839 15.6635 69.5279 15.0506 69.5279 14.3127C69.5279 13.5769 69.4049 12.841 69.0379 12.3491C68.669 11.8592 68.3021 11.3692 67.8122 11.0003C67.3222 10.6314 66.7074 10.5104 65.9735 10.5104C64.8727 10.3914 64.0138 10.7583 63.3989 11.4942ZM77.5034 4.50445V19.9557H75.1748V4.50445H77.5034ZM90.747 13.7018C91.237 14.3147 91.6059 15.1735 91.6059 16.0304C91.6059 17.2562 91.237 18.238 90.3801 18.9739C89.5213 19.7097 88.4165 20.0787 86.8237 20.0787H80.9368V5.36528H86.6988C88.1705 5.36528 89.2733 5.7342 90.1322 6.34511C90.868 6.95801 91.358 7.93982 91.358 9.04263C91.358 10.0225 91.112 10.7603 90.6221 11.2502C90.1322 11.7402 89.5173 12.2301 88.6584 12.355C89.5213 12.599 90.2571 12.9659 90.747 13.7018ZM83.2674 11.6172H86.2108C87.0697 11.6172 87.6826 11.3712 88.1745 11.0043C88.6644 10.6354 88.7874 10.0245 88.7874 9.40958C88.7874 8.67371 88.5414 8.18379 88.1745 7.81487C87.6846 7.44594 87.0697 7.20197 86.2108 7.20197H83.3904L83.2674 11.6172ZM88.4184 17.3811C88.9084 17.0122 89.1543 16.4013 89.1543 15.6635C89.1543 14.9256 88.9084 14.3147 88.4184 13.9458C87.9285 13.5768 87.1927 13.3329 86.3338 13.3329H83.3904V17.994H86.3338C87.1907 17.994 87.9265 17.8711 88.4184 17.3811ZM102.642 9.04263C103.501 9.53255 104.237 10.1474 104.727 11.1273C105.216 11.9861 105.462 13.0909 105.462 14.1937C105.462 15.4195 105.216 16.4013 104.727 17.3811C104.237 18.24 103.501 18.9759 102.642 19.4658C101.783 19.9557 100.803 20.2016 99.6984 20.2016C98.5937 20.2016 97.6138 19.9557 96.755 19.4658C95.8961 18.9759 95.1603 18.24 94.6703 17.3811C94.1804 16.5223 93.9345 15.4175 93.9345 14.1937C93.9345 12.9679 94.1804 11.9861 94.6703 11.1273C95.1603 10.2684 95.8961 9.53255 96.755 9.04263C97.6138 8.55272 98.5937 8.30677 99.6984 8.30677C100.68 8.30677 101.662 8.55272 102.642 9.04263ZM97.8598 10.8813C97.3698 11.1273 96.8799 11.6172 96.634 12.1071C96.2651 12.72 96.1441 13.3329 96.1441 14.1917C96.1441 15.0506 96.267 15.7864 96.634 16.2764C97.0029 16.8892 97.3698 17.2562 97.8598 17.5021C98.3497 17.7481 98.9646 17.8711 99.5775 17.8711C100.19 17.8711 100.803 17.7481 101.295 17.5021C101.785 17.2562 102.275 16.7663 102.521 16.2764C102.89 15.6635 103.011 15.0506 103.011 14.1917C103.011 13.3329 102.888 12.597 102.521 12.1071C102.154 11.6172 101.785 11.1273 101.295 10.8813C100.805 10.6354 100.19 10.5124 99.5775 10.5124C98.9626 10.3914 98.3497 10.5124 97.8598 10.8813ZM116.498 9.04263C117.357 9.53255 118.093 10.1474 118.583 11.1273C119.073 11.9861 119.319 13.0909 119.319 14.1937C119.319 15.4195 119.073 16.4013 118.583 17.3811C118.093 18.24 117.357 18.9759 116.498 19.4658C115.64 19.9557 114.66 20.2016 113.555 20.2016C112.45 20.2016 111.47 19.9557 110.611 19.4658C109.753 18.9759 109.017 18.24 108.527 17.3811C108.037 16.5223 107.791 15.4175 107.791 14.1937C107.791 12.9679 108.037 11.9861 108.527 11.1273C109.017 10.2684 109.753 9.53255 110.611 9.04263C111.47 8.55272 112.45 8.30677 113.555 8.30677C114.66 8.30677 115.642 8.55272 116.498 9.04263ZM111.839 10.8813C111.349 11.1273 110.859 11.6172 110.613 12.1071C110.245 12.72 110.124 13.3329 110.124 14.1917C110.124 15.0506 110.247 15.7864 110.613 16.2764C110.982 16.8892 111.349 17.2562 111.839 17.5021C112.329 17.7481 112.944 17.8711 113.557 17.8711C114.17 17.8711 114.783 17.7481 115.275 17.5021C115.767 17.2562 116.254 16.7663 116.5 16.2764C116.869 15.6635 116.99 15.0506 116.99 14.1917C116.99 13.3329 116.867 12.597 116.5 12.1071C116.131 11.6172 115.765 11.1273 115.275 10.8813C114.785 10.6354 114.17 10.5124 113.557 10.5124C112.821 10.3914 112.331 10.5124 111.839 10.8813ZM128.641 19.9557L124.472 14.8046V19.9557H122.143V4.50445H124.472V13.3349L128.518 8.42974H131.339L126.311 14.1917L131.462 19.9537L128.641 19.9557Z" fill="var(--fill-0, black)" style="fill:black;fill-opacity:1;"/>
<path id="Vector_3" d="M13.2338 24.0003C6.62881 24.0003 1.27344 18.6449 1.27344 12.0399C1.27344 5.43496 6.62881 0.0795898 13.2338 0.0795898C19.8387 0.0795898 25.1941 5.43496 25.1941 12.0399C25.1941 18.6449 19.8387 24.0003 13.2338 24.0003Z" fill="var(--fill-0, black)" style="fill:black;fill-opacity:1;"/>
</g>
<path id="Vector_4" d="M18.9871 14.5289C18.9871 12.0396 16.9481 9.92721 14.3834 9.92721H12.6459C12.3444 10.0026 12.1937 9.77647 12.1937 9.55035C12.1937 9.32424 12.3444 9.09812 12.6459 9.09812C12.6459 9.09812 12.6459 9.09812 12.7213 9.09812H19.0605C19.0605 6.83498 17.1722 4.95068 14.911 4.95068H12.6459C10.0793 4.95068 8.04227 6.98771 8.04227 9.55234C8.04227 12.117 10.0813 14.0786 12.6459 14.0786H14.3834C14.6095 14.0786 14.8357 14.2294 14.8357 14.5308C14.8357 14.8323 14.6849 14.9831 14.3834 14.9831C14.3834 14.9831 14.3834 14.9831 14.3081 14.9831H9.40095C9.25021 16.794 8.27037 18.5275 6.68359 19.1305H14.3814C16.8727 19.1305 18.9871 17.0935 18.9871 14.5289Z" fill="var(--fill-0, white)" style="fill:white;fill-opacity:1;"/>
<g id="_x3C_Slice_x3E_">
</g>
</g>
<defs>
<clipPath id="clip0_312_5616">
<rect width="131.504" height="24" fill="white" style="fill:white;fill-opacity:1;"/>
</clipPath>
</defs>
</svg>
