<svg preserveAspectRatio="none" width="100%" height="100%" overflow="visible" style="display: block;" viewBox="0 0 16 16" fill="none" xmlns="http://www.w3.org/2000/svg">
<g id="Icon">
<path id="Vector" d="M6.66797 5.16667C6.66813 5.07786 6.69195 4.9907 6.73697 4.91415C6.78199 4.8376 6.84658 4.77442 6.92411 4.7311C7.00164 4.68779 7.0893 4.66591 7.17809 4.66771C7.26688 4.6695 7.35359 4.69492 7.4293 4.74133L9.87197 6.24067C9.94477 6.2854 10.0049 6.34805 10.0466 6.42262C10.0883 6.4972 10.1102 6.58122 10.1102 6.66667C10.1102 6.75211 10.0883 6.83613 10.0466 6.91071C10.0049 6.98529 9.94477 7.04793 9.87197 7.09267L7.4293 8.59267C7.35349 8.63914 7.26666 8.66456 7.17776 8.6663C7.08886 8.66804 7.0011 8.64605 6.92353 8.60257C6.84596 8.5591 6.78138 8.49573 6.73646 8.41899C6.69154 8.34225 6.6679 8.25492 6.66797 8.166V5.16667Z" stroke="var(--stroke-0, #7272FE)" style="stroke:#7272FE;stroke:color(display-p3 0.4460 0.4460 0.9976);stroke-opacity:1;" stroke-width="1.33333" stroke-linecap="round" stroke-linejoin="round"/>
<path id="Vector_2" d="M8 11.3333V14" stroke="var(--stroke-0, #7272FE)" style="stroke:#7272FE;stroke:color(display-p3 0.4460 0.4460 0.9976);stroke-opacity:1;" stroke-width="1.33333" stroke-linecap="round" stroke-linejoin="round"/>
<path id="Vector_3" d="M5.33203 14H10.6654" stroke="var(--stroke-0, #7272FE)" style="stroke:#7272FE;stroke:color(display-p3 0.4460 0.4460 0.9976);stroke-opacity:1;" stroke-width="1.33333" stroke-linecap="round" stroke-linejoin="round"/>
<path id="Vector_4" d="M13.332 2H2.66536C1.92898 2 1.33203 2.59695 1.33203 3.33333V10C1.33203 10.7364 1.92898 11.3333 2.66536 11.3333H13.332C14.0684 11.3333 14.6654 10.7364 14.6654 10V3.33333C14.6654 2.59695 14.0684 2 13.332 2Z" stroke="var(--stroke-0, #7272FE)" style="stroke:#7272FE;stroke:color(display-p3 0.4460 0.4460 0.9976);stroke-opacity:1;" stroke-width="1.33333" stroke-linecap="round" stroke-linejoin="round"/>
</g>
</svg>
