<svg preserveAspectRatio="none" width="100%" height="100%" overflow="visible" style="display: block;" viewBox="0 0 16 16" fill="none" xmlns="http://www.w3.org/2000/svg">
<g id="Icon">
<path id="Vector" d="M2.66797 14.6667H12.0013C12.3549 14.6667 12.6941 14.5262 12.9441 14.2762C13.1942 14.0261 13.3346 13.687 13.3346 13.3334V4.66671L10.0013 1.33337H4.0013C3.64768 1.33337 3.30854 1.47385 3.05849 1.7239C2.80844 1.97395 2.66797 2.31309 2.66797 2.66671V5.33337" stroke="var(--stroke-0, #5DAFF1)" style="stroke:#5DAFF1;stroke:color(display-p3 0.3647 0.6863 0.9451);stroke-opacity:1;" stroke-width="1.33333" stroke-linecap="round" stroke-linejoin="round"/>
<path id="Vector_2" d="M9.33203 1.33337V4.00004C9.33203 4.35366 9.47251 4.6928 9.72256 4.94285C9.9726 5.1929 10.3117 5.33337 10.6654 5.33337H13.332" stroke="var(--stroke-0, #5DAFF1)" style="stroke:#5DAFF1;stroke:color(display-p3 0.3647 0.6863 0.9451);stroke-opacity:1;" stroke-width="1.33333" stroke-linecap="round" stroke-linejoin="round"/>
<path id="Vector_3" d="M3.33203 8L1.33203 10L3.33203 12" stroke="var(--stroke-0, #5DAFF1)" style="stroke:#5DAFF1;stroke:color(display-p3 0.3647 0.6863 0.9451);stroke-opacity:1;" stroke-width="1.33333" stroke-linecap="round" stroke-linejoin="round"/>
<path id="Vector_4" d="M6 12L8 10L6 8" stroke="var(--stroke-0, #5DAFF1)" style="stroke:#5DAFF1;stroke:color(display-p3 0.3647 0.6863 0.9451);stroke-opacity:1;" stroke-width="1.33333" stroke-linecap="round" stroke-linejoin="round"/>
</g>
</svg>
