<svg width="661" height="106" viewBox="0 0 661 106" fill="none" xmlns="http://www.w3.org/2000/svg">
<path d="M24.6528 85.0176L0 4.608H16.9344L29.8368 46.3104L33.7536 66.7008L37.5552 46.3104L50.112 4.608L66.816 4.4928L79.3728 46.3104L83.2896 64.0512L86.5152 46.3104L99.4176 4.608H115.661L90.7776 85.0176H74.6496L62.0928 42.048L58.2912 23.8464L54.72 42.048L41.472 85.0176H24.6528Z" fill="black"/>
<path d="M177.275 85.0176H161.953L161.608 77.9904C157.115 83.0592 150.318 86.4 142.369 86.4C125.55 86.4 113.8 72 113.8 53.1072C113.8 34.2144 125.55 19.8144 142.369 19.8144C150.318 19.8144 157.115 23.04 161.608 28.1088L161.953 21.1968H177.275V85.0176ZM129.582 53.1072C129.582 64.6272 136.494 73.2672 146.286 73.2672C153.198 73.2672 158.843 68.8896 161.377 61.9776V44.2368C158.843 37.3248 153.198 32.9472 146.286 32.9472C136.494 32.9472 129.582 41.472 129.582 53.1072Z" fill="black"/>
<path d="M206.243 85.0176L182.857 21.1968H199.446L211.658 55.5264L215.459 70.848L219.376 55.5264L231.357 21.1968H247.485L224.214 85.0176H206.243Z" fill="black"/>
<path d="M280.503 86.4C260.343 86.4 247.786 73.6128 247.786 53.1072C247.786 32.4864 260.573 19.8144 281.309 19.8144C301.93 19.8144 313.335 33.1776 311.722 54.4896H263.684C263.914 65.4336 269.789 73.6128 280.503 73.6128C288.797 73.6128 294.673 69.2352 295.94 62.8992H311.722C310.109 77.4144 298.129 86.4 280.503 86.4ZM265.181 43.3152L295.594 43.4304C295.133 36.7488 289.258 32.256 281.194 32.256C272.785 32.256 267.485 36.0576 265.181 43.3152Z" fill="black"/>
<path d="M317.174 85.0176V71.1936H351.389C357.84 71.1936 361.872 67.1616 361.872 60.7104C361.872 54.4896 357.84 50.4576 351.389 50.4576H341.597C326.16 50.4576 316.368 41.7024 316.253 27.648C316.253 13.4784 326.045 4.608 341.597 4.608H375.35V18.432H341.597C335.837 18.432 332.15 22.0032 332.035 27.648C332.035 33.1776 335.722 36.6336 341.597 36.6336H351.389C367.402 36.6336 377.539 45.9648 377.654 60.7104C377.654 75.5712 367.517 85.0176 351.389 85.0176H317.174Z" fill="black"/>
<path d="M421.487 19.8144C438.191 19.8144 450.057 34.2144 450.057 53.1072C450.057 72 438.191 86.4 421.487 86.4C413.538 86.4 406.742 83.1744 402.364 78.1056V105.523H386.466V21.1968H401.788L402.134 28.3392C406.511 23.1552 413.423 19.8144 421.487 19.8144ZM402.364 61.8624C404.898 68.7744 410.543 73.2672 417.57 73.2672C427.362 73.2672 434.159 64.6272 434.159 53.1072C434.159 41.472 427.362 32.9472 417.57 32.9472C410.543 32.9472 404.898 37.3248 402.364 44.352V61.8624Z" fill="black"/>
<path d="M489.029 86.4C468.869 86.4 456.312 73.6128 456.312 53.1072C456.312 32.4864 469.099 19.8144 489.835 19.8144C510.456 19.8144 521.86 33.1776 520.248 54.4896H472.209C472.44 65.4336 478.315 73.6128 489.029 73.6128C497.323 73.6128 503.198 69.2352 504.465 62.8992H520.248C518.635 77.4144 506.654 86.4 489.029 86.4ZM473.707 43.3152L504.12 43.4304C503.659 36.7488 497.784 32.256 489.72 32.256C481.31 32.256 476.011 36.0576 473.707 43.3152Z" fill="black"/>
<path d="M559.4 86.4C539.24 86.4 526.683 73.6128 526.683 53.1072C526.683 32.4864 539.47 19.8144 560.206 19.8144C580.827 19.8144 592.232 33.1776 590.619 54.4896H542.58C542.811 65.4336 548.686 73.6128 559.4 73.6128C567.694 73.6128 573.569 69.2352 574.836 62.8992H590.619C589.006 77.4144 577.025 86.4 559.4 86.4ZM544.078 43.3152L574.491 43.4304C574.03 36.7488 568.155 32.256 560.091 32.256C551.681 32.256 546.382 36.0576 544.078 43.3152Z" fill="black"/>
<path d="M625.623 19.8144C633.572 19.8144 640.369 23.04 644.862 28.224V0H660.529V85.0176H645.438L645.092 77.76C640.599 82.944 633.687 86.4 625.623 86.4C608.919 86.4 597.054 72 597.054 53.1072C597.054 34.2144 608.919 19.8144 625.623 19.8144ZM612.951 53.1072C612.951 64.6272 619.748 73.2672 629.54 73.2672C636.683 73.2672 642.327 68.7744 644.862 61.632V44.5824C642.327 37.44 636.683 32.9472 629.54 32.9472C619.748 32.9472 612.951 41.472 612.951 53.1072Z" fill="black"/>
</svg>
