<svg xmlns="http://www.w3.org/2000/svg" width="218" height="108" fill="none" viewBox="0 0 218 108"><path fill="#000" d="M72.508 51.809 97.075 9.122A18.177 18.177 0 0 1 112.825 0h23.596c4.878 0 8.833 3.967 8.833 8.862v42.947l24.567-42.687A18.176 18.176 0 0 1 185.571 0h23.596C214.045 0 218 3.967 218 8.862v34.403c0 4.894-3.955 8.862-8.833 8.862h-4.096l-26.904 46.747c-5.022 8.727-16.145 11.716-24.844 6.678l-18.071-10.467a18.256 18.256 0 0 1-9.094-15.8V62.841l-20.737 36.034c-5.022 8.726-16.145 11.716-24.844 6.678L62.506 95.086a18.255 18.255 0 0 1-9.093-15.8V62.84l-7.228 12.56c-2.44 4.238-7.842 5.69-12.067 3.243l-29.7-17.202c-4.225-2.447-5.672-7.867-3.233-12.105L24.329 9.122A18.176 18.176 0 0 1 40.08 0h23.596c4.879 0 8.833 3.967 8.833 8.862v42.947Z"/></svg>