<svg width="820" height="375" viewBox="0 0 820 375" fill="none" xmlns="http://www.w3.org/2000/svg">
<path d="M259.615 198.729L342.536 44.2686C357.17 17.0084 385.605 0 416.545 0H513.615C527.975 0 539.615 11.6406 539.615 26V198.729L622.536 44.2686C637.17 17.0084 665.605 0 696.545 0H793.615C807.975 0 819.615 11.6406 819.615 26V174C819.615 188.359 807.975 200 793.615 200H765.93L690.212 341.042C673.127 372.868 633.106 384.257 601.824 366.196L517.615 317.579C497.814 306.146 485.615 285.018 485.615 262.153V200.585L410.261 340.952C393.175 372.777 353.154 384.166 321.872 366.105L237.615 317.46C217.814 306.027 205.615 284.899 205.615 262.034V200.585L177.972 252.076C171.031 265.004 154.773 269.631 142.065 262.294L13.8325 188.26C1.66779 181.236 -2.71924 165.821 3.92473 153.445L62.5357 44.2683C77.1702 17.0083 105.605 0 136.545 0H233.615C247.975 0 259.615 11.6406 259.615 26V198.729Z" fill="black"/>
</svg>
