<svg width="220" height="101" viewBox="0 0 220 101" fill="none" xmlns="http://www.w3.org/2000/svg">
<path d="M69.7313 53.2663L90.7436 14.1257C95.4133 5.42722 104.487 0 114.359 0H137.812C141.661 0 144.781 3.12009 144.781 6.96892V53.2663L165.793 14.1257C170.463 5.42722 179.537 0 189.409 0H212.862C216.711 0 219.831 3.12009 219.831 6.96892V46.6381C219.831 50.487 216.711 53.6071 212.862 53.6071H205.441L185.146 91.4114C180.567 99.9417 169.84 102.994 161.455 98.1536L138.884 85.1223C133.577 82.058 130.307 76.3949 130.307 70.2663V53.7638L110.11 91.3871C105.53 99.9173 94.803 102.97 86.4184 98.1292L63.8345 85.0904C58.527 82.0261 55.2574 76.363 55.2574 70.2344V53.7638L47.8481 67.5651C45.9877 71.0305 41.6299 72.2707 38.2236 70.3041L3.85282 50.4602C0.592248 48.5777 -0.583631 44.4458 1.19719 41.1287L15.6937 14.1256C20.3634 5.42718 29.4367 0 39.3093 0H62.7624C66.6112 0 69.7313 3.12009 69.7313 6.96892V53.2663Z" fill="black"/>
</svg>
