<svg width="4206" height="589" viewBox="0 0 4206 589" fill="none" xmlns="http://www.w3.org/2000/svg">
<path d="M282.388 290.73L372.904 133.951C387.909 107.961 415.64 91.9502 445.65 91.9502H536.388C550.748 91.9502 562.388 103.591 562.388 117.95V290.73L652.904 133.951C667.909 107.961 695.64 91.9502 725.651 91.9502H816.388C830.748 91.9502 842.388 103.591 842.388 117.95V265.95C842.388 280.31 830.748 291.95 816.388 291.95H792.623L686.069 476.509C668.396 507.12 629.254 517.609 598.643 499.935L520.888 455.044C501.086 443.611 488.888 422.483 488.888 399.618V333.06L406.068 476.51C388.395 507.121 349.253 517.609 318.642 499.936L240.888 455.045C221.086 443.612 208.888 422.484 208.888 399.619V333.06L177.067 388.176C169.887 400.611 153.986 404.872 141.55 397.692L13.3793 323.692C0.943751 316.513 -3.317 300.611 3.86264 288.176L92.9042 133.95C107.909 107.961 135.64 91.9502 165.65 91.9502H256.388C270.748 91.9502 282.388 103.591 282.388 117.95V290.73Z" fill="black"/>
<path d="M981.795 121.134C978.347 109.888 986.758 98.5118 998.52 98.5118H1061.87C1065.72 98.5118 1069.11 101.023 1070.24 104.701L1124.33 281.568L1144.48 388.491L1164.07 281.568L1214.68 110.952C1216.88 103.564 1223.64 98.4799 1231.35 98.4332L1304.19 97.9917C1308.07 97.9682 1311.51 100.511 1312.62 104.234L1365.6 281.568L1385.2 373.376L1401.43 281.568L1454.16 110.843C1456.43 103.512 1463.2 98.5118 1470.88 98.5118H1535.68C1541.57 98.5118 1545.77 104.217 1544.03 109.845L1428.53 483.094C1427.39 486.758 1424.01 489.255 1420.17 489.255H1350.78C1342.98 489.255 1336.13 484.094 1333.97 476.6L1283.31 300.601L1263.72 203.755L1245.24 300.601L1188.93 483.088C1187.8 486.755 1184.41 489.255 1180.57 489.255H1107.59C1099.91 489.255 1093.12 484.238 1090.87 476.889L981.795 121.134Z" fill="black"/>
<path d="M1780.63 489.255C1771.31 489.255 1763.63 481.946 1763.16 472.635L1761.19 433.275V233.985L1763.16 194.624C1763.63 185.314 1771.31 178.004 1780.63 178.004H1839.78C1844.61 178.004 1848.52 181.92 1848.52 186.751V480.509C1848.52 485.339 1844.61 489.255 1839.78 489.255H1780.63ZM1672.18 495.973C1645.69 495.973 1621.8 488.882 1600.53 474.701C1579.63 460.146 1563.21 440.552 1551.27 415.921C1539.32 390.916 1533.35 363.486 1533.35 333.63C1533.35 303.774 1539.32 276.53 1551.27 251.898C1563.21 226.894 1579.63 207.301 1600.53 193.119C1621.8 178.564 1645.69 171.286 1672.18 171.286C1691.96 171.286 1710.06 175.205 1726.48 183.042C1743.28 190.88 1757.09 201.702 1767.91 215.511C1779.11 228.946 1786.38 244.061 1789.74 260.855V406.404C1786.38 423.199 1779.11 438.5 1767.91 452.308C1757.09 465.744 1743.28 476.38 1726.48 484.217C1710.06 492.055 1691.96 495.973 1672.18 495.973ZM1694.58 424.318C1708.38 424.318 1720.89 420.4 1732.08 412.562C1743.28 404.725 1751.86 393.902 1757.83 380.094C1764.18 366.285 1767.35 350.797 1767.35 333.63C1767.35 316.462 1764.18 300.975 1757.83 287.166C1751.86 273.357 1743.28 262.535 1732.08 254.697C1720.89 246.86 1708.38 242.941 1694.58 242.941C1680.39 242.941 1667.71 247.047 1656.51 255.257C1645.31 263.094 1636.54 273.917 1630.2 287.726C1623.85 301.534 1620.68 316.836 1620.68 333.63C1620.68 350.424 1623.85 365.725 1630.2 379.534C1636.54 393.342 1645.31 404.352 1656.51 412.562C1667.71 420.4 1680.39 424.318 1694.58 424.318Z" fill="black"/>
<path d="M1876.71 201.367C1872.65 189.977 1881.1 178.004 1893.19 178.004H1953.35C1957.11 178.004 1960.44 180.4 1961.64 183.959L2012.82 335.869L2030.73 413.122L2049.76 335.869L2097.86 190.019C2100.23 182.848 2106.93 178.004 2114.48 178.004H2177.9C2183.93 178.004 2188.16 183.979 2186.14 189.672L2082.06 483.43C2080.82 486.922 2077.52 489.255 2073.81 489.255H1991.57C1984.17 489.255 1977.57 484.601 1975.09 477.63L1876.71 201.367Z" fill="black"/>
<path d="M2348.97 495.973C2316.12 495.973 2287.39 489.442 2262.76 476.38C2238.5 462.945 2219.84 444.098 2206.78 419.84C2193.71 395.208 2187.18 366.472 2187.18 333.63C2187.18 300.788 2193.9 272.238 2207.33 247.98C2221.14 223.348 2240.55 204.501 2265.55 191.439C2290.56 178.004 2319.86 171.286 2353.44 171.286C2386.66 171.286 2415.02 178.377 2438.53 192.559C2462.42 206.741 2479.96 227.08 2491.16 253.578C2502.35 280.075 2506.64 311.238 2504.03 347.065H2256.6L2257.16 287.166H2415.02C2414.28 277.836 2411.1 269.625 2405.51 262.535C2400.28 255.071 2393 249.286 2383.67 245.181C2374.72 241.075 2364.45 239.023 2352.88 239.023C2334.97 239.023 2320.23 242.755 2308.66 250.219C2297.09 257.683 2288.51 268.692 2282.91 283.247C2277.31 297.802 2274.51 315.903 2274.51 337.548C2274.51 354.343 2277.31 369.457 2282.91 382.893C2288.51 396.328 2296.9 406.964 2308.1 414.801C2319.3 422.266 2332.92 425.998 2348.97 425.998C2360.53 425.998 2370.98 424.132 2380.31 420.4C2390.02 416.294 2397.86 410.883 2403.83 404.165C2406.62 401.028 2408.96 397.646 2410.85 394.02C2414.69 386.675 2421.52 380.653 2429.81 380.653H2493.29C2498.45 380.653 2502.52 385.104 2501.67 390.192C2498.41 409.759 2490.99 427.106 2479.4 442.232C2465.96 459.399 2448.05 472.648 2425.66 481.978C2403.27 491.308 2377.7 495.973 2348.97 495.973Z" fill="black"/>
<path d="M2527.11 431.176C2527.11 421.514 2534.95 413.682 2544.61 413.682H2695.62C2704.57 413.682 2712.41 411.816 2719.13 408.084C2725.85 404.352 2731.07 399.127 2734.8 392.409C2738.53 385.692 2740.4 377.854 2740.4 368.897C2740.4 360.314 2738.53 352.85 2734.8 346.505C2731.07 339.788 2725.85 334.749 2719.13 331.391C2712.41 327.659 2704.57 325.792 2695.62 325.792H2647.47C2622.09 325.792 2599.89 321.314 2580.86 312.357C2562.2 303.027 2547.64 289.778 2537.19 272.611C2526.74 255.444 2521.52 235.477 2521.52 212.712C2521.52 189.573 2526.55 169.42 2536.63 152.253C2547.08 135.086 2561.82 121.837 2580.86 112.507C2599.89 103.177 2622.09 98.5118 2647.47 98.5118H2807.23C2812.06 98.5118 2815.97 102.428 2815.97 107.259V156.592C2815.97 166.253 2808.14 174.085 2798.48 174.085H2647.47C2639.64 174.085 2632.73 175.765 2626.76 179.124C2621.16 182.109 2616.68 186.588 2613.32 192.559C2609.97 198.157 2608.29 204.875 2608.29 212.712C2608.29 220.176 2609.78 226.894 2612.76 232.865C2616.12 238.463 2620.79 242.755 2626.76 245.74C2632.73 248.726 2639.64 250.219 2647.47 250.219H2695.62C2722.11 250.219 2745.25 255.071 2765.03 264.774C2784.81 274.477 2800.11 288.286 2810.94 306.199C2821.76 324.113 2827.17 345.012 2827.17 368.897C2827.17 393.156 2821.76 414.428 2810.94 432.715C2800.49 451.002 2785.18 464.997 2765.03 474.701C2745.25 484.404 2722.11 489.255 2695.62 489.255H2535.86C2531.03 489.255 2527.11 485.339 2527.11 480.509V431.176Z" fill="black"/>
<path d="M3039.04 171.286C3065.54 171.286 3089.23 178.564 3110.13 193.119C3131.41 207.301 3148.01 226.894 3159.96 251.898C3171.9 276.53 3177.87 303.774 3177.87 333.63C3177.87 363.486 3171.9 390.916 3159.96 415.921C3148.01 440.552 3131.41 460.146 3110.13 474.701C3089.23 488.882 3065.54 495.973 3039.04 495.973C3021.12 495.973 3004.52 492.801 2989.22 486.456C2973.91 480.112 2960.85 471.155 2950.03 459.586V580.154C2950.03 584.985 2946.11 588.901 2941.28 588.901H2880.19C2870.53 588.901 2862.7 581.068 2862.7 571.407V195.498C2862.7 185.836 2870.53 178.004 2880.19 178.004H2938.95C2943.59 178.004 2947.43 181.636 2947.68 186.275L2948.91 208.793C2959.73 197.224 2972.79 188.081 2988.1 181.363C3003.77 174.645 3020.75 171.286 3039.04 171.286ZM3016.65 424.318C3030.83 424.318 3043.52 420.4 3054.71 412.562C3065.91 404.352 3074.68 393.342 3081.02 379.534C3087.37 365.725 3090.54 350.424 3090.54 333.63C3090.54 316.836 3087.37 301.534 3081.02 287.726C3074.68 273.917 3065.91 263.094 3054.71 255.257C3043.52 247.047 3030.83 242.941 3016.65 242.941C3006.2 242.941 2996.49 245.181 2987.54 249.659C2978.95 253.764 2971.49 259.736 2965.14 267.573C2958.8 275.41 2953.76 284.554 2950.03 295.003V372.256C2955.25 388.304 2963.84 400.993 2975.78 410.323C2987.72 419.653 3001.34 424.318 3016.65 424.318Z" fill="black"/>
<path d="M3365.56 495.973C3332.72 495.973 3303.98 489.442 3279.35 476.38C3255.09 462.945 3236.43 444.098 3223.37 419.84C3210.31 395.208 3203.77 366.472 3203.77 333.63C3203.77 300.788 3210.49 272.238 3223.93 247.98C3237.74 223.348 3257.14 204.501 3282.15 191.439C3307.15 178.004 3336.45 171.286 3370.04 171.286C3403.25 171.286 3431.61 178.377 3455.13 192.559C3479.01 206.741 3496.55 227.08 3507.75 253.578C3518.94 280.075 3523.24 311.238 3520.62 347.065H3273.19L3273.75 287.166H3431.61C3430.87 277.836 3427.7 269.625 3422.1 262.535C3416.87 255.071 3409.6 249.286 3400.27 245.181C3391.31 241.075 3381.05 239.023 3369.48 239.023C3351.56 239.023 3336.82 242.755 3325.25 250.219C3313.68 257.683 3305.1 268.692 3299.5 283.247C3293.9 297.802 3291.1 315.903 3291.1 337.548C3291.1 354.343 3293.9 369.457 3299.5 382.893C3305.1 396.328 3313.5 406.964 3324.69 414.801C3335.89 422.266 3349.51 425.998 3365.56 425.998C3377.13 425.998 3387.58 424.132 3396.91 420.4C3406.61 416.294 3414.45 410.883 3420.42 404.165C3423.21 401.028 3425.55 397.646 3427.44 394.02C3431.28 386.675 3438.11 380.653 3446.4 380.653H3509.88C3515.04 380.653 3519.11 385.104 3518.26 390.192C3515 409.759 3507.58 427.106 3495.99 442.232C3482.56 459.399 3464.64 472.648 3442.25 481.978C3419.86 491.308 3394.29 495.973 3365.56 495.973Z" fill="black"/>
<path d="M3708.61 495.973C3675.77 495.973 3647.03 489.442 3622.4 476.38C3598.14 462.945 3579.48 444.098 3566.42 419.84C3553.36 395.208 3546.83 366.472 3546.83 333.63C3546.83 300.788 3553.55 272.238 3566.98 247.98C3580.79 223.348 3600.2 204.501 3625.2 191.439C3650.21 178.004 3679.5 171.286 3713.09 171.286C3746.31 171.286 3774.67 178.377 3798.18 192.559C3822.07 206.741 3839.61 227.08 3850.8 253.578C3862 280.075 3866.29 311.238 3863.68 347.065H3616.25L3616.81 287.166H3774.67C3773.92 277.836 3770.75 269.625 3765.15 262.535C3759.93 255.071 3752.65 249.286 3743.32 245.181C3734.36 241.075 3724.1 239.023 3712.53 239.023C3694.62 239.023 3679.88 242.755 3668.31 250.219C3656.74 257.683 3648.15 268.692 3642.56 283.247C3636.96 297.802 3634.16 315.903 3634.16 337.548C3634.16 354.343 3636.96 369.457 3642.56 382.893C3648.15 396.328 3656.55 406.964 3667.75 414.801C3678.94 422.266 3692.57 425.998 3708.61 425.998C3720.18 425.998 3730.63 424.132 3739.96 420.4C3749.67 416.294 3757.5 410.883 3763.47 404.165C3766.26 401.028 3768.6 397.646 3770.5 394.02C3774.33 386.675 3781.17 380.653 3789.45 380.653H3852.94C3858.1 380.653 3862.16 385.104 3861.32 390.192C3858.06 409.759 3850.63 427.106 3839.05 442.232C3825.61 459.399 3807.7 472.648 3785.31 481.978C3762.91 491.308 3737.35 495.973 3708.61 495.973Z" fill="black"/>
<path d="M4028.72 171.286C4040.66 171.286 4052.04 172.779 4062.86 175.765C4074.06 178.75 4084.32 183.042 4093.65 188.64C4102.98 194.238 4111.19 200.769 4118.29 208.234V92.4939C4118.29 82.8323 4126.12 75 4135.78 75H4196.31C4201.14 75 4205.05 78.9161 4205.05 83.7469V480.509C4205.05 485.339 4201.14 489.255 4196.31 489.255H4137.67C4128.37 489.255 4120.69 481.982 4120.2 472.697L4119.4 457.906C4108.58 469.849 4095.15 479.179 4079.1 485.897C4063.42 492.614 4046.63 495.973 4028.72 495.973C4002.22 495.973 3978.33 488.882 3957.06 474.701C3936.16 460.146 3919.74 440.552 3907.8 415.921C3895.86 390.916 3889.89 363.486 3889.89 333.63C3889.89 303.774 3895.86 276.53 3907.8 251.898C3919.74 226.894 3936.16 207.301 3957.06 193.119C3978.33 178.564 4002.22 171.286 4028.72 171.286ZM4051.11 424.318C4066.78 424.318 4080.59 419.466 4092.53 409.763C4104.48 400.06 4113.06 386.998 4118.29 370.577V296.683C4114.55 285.86 4109.51 276.53 4103.17 268.692C4096.83 260.482 4089.18 254.138 4080.22 249.659C4071.26 245.181 4061.56 242.941 4051.11 242.941C4036.93 242.941 4024.24 247.047 4013.04 255.257C4001.85 263.094 3993.08 273.917 3986.73 287.726C3980.39 301.534 3977.21 316.836 3977.21 333.63C3977.21 350.424 3980.39 365.725 3986.73 379.534C3993.08 393.342 4001.85 404.352 4013.04 412.562C4024.24 420.4 4036.93 424.318 4051.11 424.318Z" fill="black"/>
</svg>
