<svg width="3866" height="533" viewBox="0 0 3866 533" fill="none" xmlns="http://www.w3.org/2000/svg">
<path d="M267.38 279.729L350.3 125.269C364.935 98.0084 393.37 81 424.31 81H521.38C535.739 81 547.38 92.6406 547.38 107V279.729L630.3 125.269C644.935 98.0084 673.37 81 704.31 81H801.38C815.739 81 827.38 92.6406 827.38 107V255C827.38 269.359 815.739 281 801.38 281H773.694L697.976 422.042C680.891 453.868 640.87 465.257 609.588 447.196L525.38 398.579C505.578 387.146 493.38 366.018 493.38 343.153V281.585L418.025 421.952C400.94 453.777 360.919 465.166 329.637 447.105L245.38 398.46C225.578 387.027 213.38 365.899 213.38 343.034V281.585L185.737 333.076C178.796 346.004 162.538 350.631 149.829 343.294L21.5969 269.26C9.43222 262.236 5.0452 246.821 11.6892 234.445L70.3002 125.268C84.9346 98.0083 113.37 81 144.31 81H241.38C255.739 81 267.38 92.6406 267.38 107V279.729Z" fill="black"/>
<path d="M955.262 110.654C952.149 100.5 959.743 90.2288 970.364 90.2288H1027.57C1031.04 90.2288 1034.1 92.4965 1035.12 95.8168L1083.95 255.51L1102.15 352.05L1119.84 255.51L1165.54 101.461C1167.52 94.7901 1173.63 90.1999 1180.58 90.1577L1246.35 89.7592C1249.86 89.7379 1252.96 92.0339 1253.96 95.3957L1301.8 255.51L1319.49 338.403L1334.15 255.51L1381.76 101.363C1383.81 94.7433 1389.93 90.2288 1396.85 90.2288H1455.36C1460.68 90.2288 1464.48 95.3799 1462.91 100.461L1358.62 437.468C1357.59 440.775 1354.53 443.031 1351.07 443.031H1288.42C1281.38 443.031 1275.19 438.37 1273.24 431.604L1227.5 272.695L1209.81 185.253L1193.13 272.695L1142.28 437.462C1141.26 440.772 1138.2 443.031 1134.74 443.031H1068.84C1061.9 443.031 1055.78 438.5 1053.74 431.865L955.262 110.654Z" fill="black"/>
<path d="M1676.53 443.031C1668.11 443.031 1661.18 436.43 1660.76 428.024L1658.98 392.486V212.547L1660.76 177.009C1661.18 168.602 1668.11 162.002 1676.53 162.002H1729.93C1734.29 162.002 1737.83 165.538 1737.83 169.9V435.133C1737.83 439.495 1734.29 443.031 1729.93 443.031H1676.53ZM1578.61 449.096C1554.69 449.096 1533.12 442.694 1513.92 429.889C1495.05 416.747 1480.22 399.057 1469.44 376.817C1458.65 354.24 1453.26 329.473 1453.26 302.516C1453.26 275.559 1458.65 250.961 1469.44 228.721C1480.22 206.145 1495.05 188.454 1513.92 175.649C1533.12 162.508 1554.69 155.937 1578.61 155.937C1596.47 155.937 1612.81 159.475 1627.64 166.551C1642.8 173.627 1655.27 183.399 1665.04 195.867C1675.15 207.998 1681.72 221.645 1684.76 236.808V368.224C1681.72 383.388 1675.15 397.203 1665.04 409.671C1655.27 421.802 1642.8 431.405 1627.64 438.481C1612.81 445.558 1596.47 449.096 1578.61 449.096ZM1598.83 384.399C1611.3 384.399 1622.59 380.861 1632.7 373.784C1642.8 366.708 1650.55 356.936 1655.95 344.468C1661.67 332.001 1664.54 318.017 1664.54 302.516C1664.54 287.016 1661.67 273.032 1655.95 260.564C1650.55 248.097 1642.8 238.325 1632.7 231.248C1622.59 224.172 1611.3 220.634 1598.83 220.634C1586.03 220.634 1574.57 224.341 1564.46 231.754C1554.35 238.83 1546.43 248.602 1540.7 261.07C1534.98 273.537 1532.11 287.353 1532.11 302.516C1532.11 317.68 1534.98 331.495 1540.7 343.963C1546.43 356.431 1554.35 366.371 1564.46 373.784C1574.57 380.861 1586.03 384.399 1598.83 384.399Z" fill="black"/>
<path d="M1763.28 183.096C1759.61 172.812 1767.24 162.002 1778.16 162.002H1832.48C1835.87 162.002 1838.88 164.166 1839.96 167.378L1886.17 304.538L1902.34 374.29L1919.53 304.538L1962.96 172.85C1965.09 166.376 1971.14 162.002 1977.96 162.002H2035.22C2040.67 162.002 2044.48 167.397 2042.66 172.537L1948.69 437.77C1947.57 440.923 1944.59 443.031 1941.24 443.031H1866.98C1860.3 443.031 1854.35 438.828 1852.1 432.534L1763.28 183.096Z" fill="black"/>
<path d="M2189.68 449.096C2160.03 449.096 2134.08 443.199 2111.84 431.405C2089.94 419.275 2073.09 402.258 2061.29 380.355C2049.5 358.115 2043.6 332.169 2043.6 302.516C2043.6 272.863 2049.67 247.086 2061.8 225.183C2074.27 202.943 2091.79 185.927 2114.37 174.133C2136.94 162.002 2163.39 155.937 2193.72 155.937C2223.71 155.937 2249.32 162.339 2270.55 175.144C2292.12 187.948 2307.95 206.313 2318.06 230.237C2328.17 254.162 2332.05 282.298 2329.69 314.647H2106.28L2106.78 260.564H2249.32C2248.65 252.14 2245.78 244.727 2240.73 238.325C2236.01 231.585 2229.44 226.362 2221.02 222.656C2212.93 218.949 2203.66 217.096 2193.22 217.096C2177.04 217.096 2163.73 220.465 2153.29 227.205C2142.84 233.944 2135.09 243.885 2130.04 257.026C2124.98 270.168 2122.45 286.511 2122.45 306.054C2122.45 321.218 2124.98 334.865 2130.04 346.996C2135.09 359.126 2142.67 368.73 2152.78 375.806C2162.89 382.545 2175.19 385.915 2189.68 385.915C2200.12 385.915 2209.56 384.23 2217.98 380.861C2226.74 377.154 2233.82 372.268 2239.21 366.203C2241.73 363.37 2243.84 360.316 2245.55 357.043C2249.02 350.411 2255.19 344.974 2262.67 344.974H2319.99C2324.65 344.974 2328.32 348.992 2327.55 353.586C2324.61 371.253 2317.91 386.915 2307.45 400.573C2295.32 416.073 2279.14 428.036 2258.92 436.46C2238.71 444.884 2215.62 449.096 2189.68 449.096Z" fill="black"/>
<path d="M2350.53 390.59C2350.53 381.867 2357.6 374.795 2366.32 374.795H2502.67C2510.76 374.795 2517.83 373.11 2523.9 369.741C2529.96 366.371 2534.68 361.654 2538.05 355.588C2541.42 349.523 2543.1 342.447 2543.1 334.359C2543.1 326.609 2541.42 319.87 2538.05 314.142C2534.68 308.076 2529.96 303.527 2523.9 300.495C2517.83 297.125 2510.76 295.44 2502.67 295.44H2459.2C2436.29 295.44 2416.24 291.397 2399.05 283.309C2382.2 274.885 2369.06 262.923 2359.63 247.423C2350.19 231.922 2345.47 213.895 2345.47 193.34C2345.47 172.448 2350.02 154.252 2359.12 138.752C2368.56 123.251 2381.87 111.289 2399.05 102.865C2416.24 94.4408 2436.29 90.2288 2459.2 90.2288H2603.44C2607.8 90.2288 2611.34 93.7646 2611.34 98.1264V142.669C2611.34 151.392 2604.27 158.464 2595.54 158.464H2459.2C2452.12 158.464 2445.89 159.98 2440.5 163.013C2435.44 165.709 2431.4 169.752 2428.37 175.144C2425.33 180.198 2423.82 186.264 2423.82 193.34C2423.82 200.079 2425.17 206.145 2427.86 211.536C2430.89 216.59 2435.11 220.465 2440.5 223.161C2445.89 225.857 2452.12 227.205 2459.2 227.205H2502.67C2526.59 227.205 2547.48 231.585 2565.34 240.346C2583.2 249.107 2597.02 261.575 2606.79 277.749C2616.56 293.924 2621.45 312.794 2621.45 334.359C2621.45 356.262 2616.56 375.469 2606.79 391.98C2597.35 408.492 2583.54 421.128 2565.34 429.889C2547.48 438.65 2526.59 443.031 2502.67 443.031H2358.43C2354.06 443.031 2350.53 439.495 2350.53 435.133V390.59Z" fill="black"/>
<path d="M2812.74 155.937C2836.67 155.937 2858.07 162.508 2876.94 175.649C2896.14 188.454 2911.14 206.145 2921.92 228.721C2932.7 250.961 2938.09 275.559 2938.09 302.516C2938.09 329.473 2932.7 354.24 2921.92 376.817C2911.14 399.057 2896.14 416.747 2876.94 429.889C2858.07 442.694 2836.67 449.096 2812.74 449.096C2796.57 449.096 2781.57 446.232 2767.76 440.503C2753.94 434.775 2742.15 426.688 2732.38 416.242V525.102C2732.38 529.464 2728.84 533 2724.48 533H2669.32C2660.6 533 2653.53 525.928 2653.53 517.205V177.797C2653.53 169.074 2660.6 162.002 2669.32 162.002H2722.37C2726.57 162.002 2730.03 165.281 2730.26 169.47L2731.37 189.802C2741.14 179.356 2752.93 171.1 2766.75 165.035C2780.9 158.969 2796.23 155.937 2812.74 155.937ZM2792.53 384.399C2805.33 384.399 2816.79 380.861 2826.9 373.784C2837.01 366.371 2844.92 356.431 2850.65 343.963C2856.38 331.495 2859.24 317.68 2859.24 302.516C2859.24 287.353 2856.38 273.537 2850.65 261.07C2844.92 248.602 2837.01 238.83 2826.9 231.754C2816.79 224.341 2805.33 220.634 2792.53 220.634C2783.09 220.634 2774.33 222.656 2766.24 226.699C2758.49 230.406 2751.75 235.797 2746.02 242.874C2740.3 249.95 2735.75 258.206 2732.38 267.641V337.392C2737.1 351.882 2744.85 363.338 2755.63 371.763C2766.41 380.187 2778.71 384.399 2792.53 384.399Z" fill="black"/>
<path d="M3107.56 449.096C3077.9 449.096 3051.96 443.199 3029.72 431.405C3007.82 419.275 2990.97 402.258 2979.17 380.355C2967.38 358.115 2961.48 332.169 2961.48 302.516C2961.48 272.863 2967.55 247.086 2979.68 225.183C2992.15 202.943 3009.67 185.927 3032.25 174.133C3054.82 162.002 3081.27 155.937 3111.6 155.937C3141.59 155.937 3167.2 162.339 3188.43 175.144C3209.99 187.948 3225.83 206.313 3235.94 230.237C3246.05 254.162 3249.92 282.298 3247.57 314.647H3024.16L3024.66 260.564H3167.2C3166.53 252.14 3163.66 244.727 3158.61 238.325C3153.89 231.585 3147.32 226.362 3138.9 222.656C3130.81 218.949 3121.54 217.096 3111.1 217.096C3094.92 217.096 3081.61 220.465 3071.17 227.205C3060.72 233.944 3052.97 243.885 3047.91 257.026C3042.86 270.168 3040.33 286.511 3040.33 306.054C3040.33 321.218 3042.86 334.865 3047.91 346.996C3052.97 359.126 3060.55 368.73 3070.66 375.806C3080.77 382.545 3093.07 385.915 3107.56 385.915C3118 385.915 3127.44 384.23 3135.86 380.861C3144.62 377.154 3151.7 372.268 3157.09 366.203C3159.61 363.37 3161.72 360.316 3163.43 357.043C3166.9 350.411 3173.07 344.974 3180.55 344.974H3237.87C3242.53 344.974 3246.2 348.992 3245.43 353.586C3242.49 371.253 3235.79 386.915 3225.33 400.573C3213.2 416.073 3197.02 428.036 3176.8 436.46C3156.59 444.884 3133.5 449.096 3107.56 449.096Z" fill="black"/>
<path d="M3417.3 449.096C3387.65 449.096 3361.7 443.199 3339.46 431.405C3317.56 419.275 3300.71 402.258 3288.92 380.355C3277.12 358.115 3271.23 332.169 3271.23 302.516C3271.23 272.863 3277.29 247.086 3289.42 225.183C3301.89 202.943 3319.41 185.927 3341.99 174.133C3364.57 162.002 3391.02 155.937 3421.34 155.937C3451.33 155.937 3476.94 162.339 3498.17 175.144C3519.74 187.948 3535.58 206.313 3545.68 230.237C3555.79 254.162 3559.67 282.298 3557.31 314.647H3333.9L3334.41 260.564H3476.94C3476.27 252.14 3473.41 244.727 3468.35 238.325C3463.63 231.585 3457.06 226.362 3448.64 222.656C3440.55 218.949 3431.29 217.096 3420.84 217.096C3404.67 217.096 3391.36 220.465 3380.91 227.205C3370.46 233.944 3362.71 243.885 3357.66 257.026C3352.6 270.168 3350.08 286.511 3350.08 306.054C3350.08 321.218 3352.6 334.865 3357.66 346.996C3362.71 359.126 3370.29 368.73 3380.4 375.806C3390.51 382.545 3402.81 385.915 3417.3 385.915C3427.75 385.915 3437.18 384.23 3445.61 380.861C3454.37 377.154 3461.44 372.268 3466.83 366.203C3469.35 363.37 3471.47 360.316 3473.18 357.043C3476.64 350.411 3482.81 344.974 3490.29 344.974H3547.61C3552.27 344.974 3555.94 348.992 3555.18 353.586C3552.23 371.253 3545.53 386.915 3535.07 400.573C3522.94 416.073 3506.77 428.036 3486.55 436.46C3466.33 444.884 3443.25 449.096 3417.3 449.096Z" fill="black"/>
<path d="M3706.32 155.937C3717.1 155.937 3727.38 157.285 3737.15 159.98C3747.26 162.676 3756.53 166.551 3764.95 171.606C3773.38 176.66 3780.79 182.557 3787.19 189.296V84.7952C3787.19 76.0717 3794.27 69 3802.99 69H3857.64C3862 69 3865.54 72.5359 3865.54 76.8976V435.133C3865.54 439.495 3862 443.031 3857.64 443.031H3804.69C3796.3 443.031 3789.37 436.463 3788.92 428.08L3788.2 414.725C3778.43 425.508 3766.3 433.932 3751.81 439.998C3737.66 446.063 3722.5 449.096 3706.32 449.096C3682.4 449.096 3660.83 442.694 3641.62 429.889C3622.75 416.747 3607.93 399.057 3597.15 376.817C3586.36 354.24 3580.97 329.473 3580.97 302.516C3580.97 275.559 3586.36 250.961 3597.15 228.721C3607.93 206.145 3622.75 188.454 3641.62 175.649C3660.83 162.508 3682.4 155.937 3706.32 155.937ZM3726.54 384.399C3740.69 384.399 3753.16 380.018 3763.94 371.257C3774.73 362.496 3782.48 350.702 3787.19 335.876V269.157C3783.82 259.385 3779.28 250.961 3773.55 243.885C3767.82 236.471 3760.91 230.743 3752.82 226.699C3744.74 222.656 3735.97 220.634 3726.54 220.634C3713.74 220.634 3702.28 224.341 3692.17 231.754C3682.06 238.83 3674.14 248.602 3668.41 261.07C3662.69 273.537 3659.82 287.353 3659.82 302.516C3659.82 317.68 3662.69 331.495 3668.41 343.963C3674.14 356.431 3682.06 366.371 3692.17 373.784C3702.28 380.861 3713.74 384.399 3726.54 384.399Z" fill="black"/>
</svg>
