<svg width="1035" height="144" viewBox="0 0 1035 144" fill="none" xmlns="http://www.w3.org/2000/svg">
<path d="M252.835 29.9759C251.999 27.2472 254.039 24.487 256.893 24.487H272.265C273.199 24.487 274.022 25.0964 274.295 25.9887L287.419 68.9031L292.309 94.8465L297.063 68.9031L309.343 27.5054C309.874 25.7128 311.517 24.4793 313.386 24.468L331.059 24.3609C332.002 24.3551 332.835 24.9722 333.105 25.8756L345.961 68.9031L350.715 91.1791L354.654 68.9031L367.449 27.4791C367.998 25.7002 369.643 24.487 371.504 24.487H387.227C388.656 24.487 389.677 25.8713 389.255 27.2368L361.229 117.801C360.954 118.69 360.132 119.296 359.202 119.296H342.365C340.473 119.296 338.809 118.043 338.286 116.225L325.994 73.5213L321.24 50.0229L316.758 73.5213L303.093 117.799C302.819 118.689 301.996 119.296 301.065 119.296H283.358C281.493 119.296 279.847 118.078 279.3 116.295L252.835 29.9759Z" fill="black"/>
<path d="M446.662 119.296C444.4 119.296 442.536 117.522 442.423 115.263L441.945 105.713V57.3577L442.423 47.8074C442.536 45.5484 444.4 43.7748 446.662 43.7748H461.012C462.185 43.7748 463.135 44.725 463.135 45.8971V117.173C463.135 118.346 462.185 119.296 461.012 119.296H446.662ZM420.349 120.926C413.919 120.926 408.124 119.205 402.963 115.764C397.892 112.233 393.907 107.479 391.01 101.502C388.112 95.4351 386.663 88.7795 386.663 81.5352C386.663 74.291 388.112 67.6807 391.01 61.7042C393.907 55.6372 397.892 50.8832 402.963 47.4422C408.124 43.9106 413.919 42.1448 420.349 42.1448C425.148 42.1448 429.54 43.0956 433.524 44.9972C437.599 46.8988 440.949 49.5249 443.575 52.8753C446.292 56.1352 448.058 59.8026 448.873 63.8775V99.193C448.058 103.268 446.292 106.981 443.575 110.331C440.949 113.591 437.599 116.172 433.524 118.073C429.54 119.975 425.148 120.926 420.349 120.926ZM425.782 103.54C429.132 103.54 432.166 102.589 434.882 100.687C437.599 98.7855 439.682 96.1595 441.13 92.8091C442.67 89.4586 443.44 85.7007 443.44 81.5352C443.44 77.3698 442.67 73.6119 441.13 70.2614C439.682 66.911 437.599 64.285 434.882 62.3833C432.166 60.4817 429.132 59.5309 425.782 59.5309C422.341 59.5309 419.262 60.527 416.545 62.5192C413.829 64.4208 411.701 67.0468 410.161 70.3973C408.622 73.7477 407.852 77.4604 407.852 81.5352C407.852 85.6101 408.622 89.3228 410.161 92.6732C411.701 96.0237 413.829 98.695 416.545 100.687C419.262 102.589 422.341 103.54 425.782 103.54Z" fill="black"/>
<path d="M469.973 49.4434C468.989 46.6797 471.038 43.7748 473.972 43.7748H488.57C489.481 43.7748 490.291 44.3562 490.581 45.2195L502.998 82.0786L507.345 100.823L511.963 82.0786L523.634 46.69C524.208 44.9502 525.833 43.7748 527.665 43.7748H543.053C544.518 43.7748 545.543 45.2246 545.053 46.6059L519.799 117.882C519.499 118.729 518.697 119.296 517.798 119.296H497.843C496.048 119.296 494.447 118.166 493.844 116.475L469.973 49.4434Z" fill="black"/>
<path d="M584.561 120.926C576.592 120.926 569.619 119.341 563.643 116.172C557.757 112.912 553.229 108.339 550.06 102.453C546.891 96.4764 545.306 89.5039 545.306 81.5352C545.306 73.5666 546.936 66.6393 550.196 60.7534C553.546 54.7769 558.255 50.204 564.322 47.0347C570.389 43.7748 577.498 42.1448 585.647 42.1448C593.706 42.1448 600.589 43.8653 606.293 47.3063C612.089 50.7473 616.345 55.6824 619.061 62.1117C621.778 68.5409 622.819 76.1021 622.185 84.7951H562.149L562.285 70.2614H600.588C600.407 67.9976 599.638 66.0055 598.279 64.285C597.012 62.4739 595.246 61.0703 592.982 60.0743C590.809 59.0782 588.319 58.5801 585.511 58.5801C581.165 58.5801 577.588 59.4857 574.781 61.2967C571.974 63.1078 569.891 65.7791 568.533 69.3106C567.175 72.8422 566.495 77.234 566.495 82.486C566.495 86.5609 567.175 90.2283 568.533 93.4882C569.891 96.7481 571.929 99.3288 574.645 101.23C577.362 103.042 580.667 103.947 584.561 103.947C587.368 103.947 589.903 103.494 592.167 102.589C594.521 101.593 596.423 100.28 597.872 98.6497C598.549 97.8884 599.117 97.0679 599.576 96.1881C600.507 94.4059 602.165 92.9449 604.176 92.9449H619.58C620.831 92.9449 621.818 94.0247 621.612 95.2593C620.821 100.007 619.02 104.216 616.209 107.886C612.949 112.052 608.602 115.266 603.169 117.53C597.736 119.794 591.533 120.926 584.561 120.926Z" fill="black"/>
<path d="M627.786 105.203C627.786 102.859 629.687 100.959 632.031 100.959H668.671C670.844 100.959 672.746 100.506 674.375 99.6005C676.005 98.695 677.273 97.4272 678.179 95.7973C679.084 94.1674 679.537 92.2657 679.537 90.0925C679.537 88.0098 679.084 86.1987 678.179 84.6593C677.273 83.0294 676.005 81.8069 674.375 80.9919C672.746 80.0864 670.844 79.6336 668.671 79.6336H656.989C650.832 79.6336 645.444 78.547 640.826 76.3737C636.298 74.1099 632.767 70.8953 630.231 66.7299C627.696 62.5645 626.428 57.7199 626.428 52.1962C626.428 46.5819 627.65 41.6921 630.095 37.5266C632.631 33.3612 636.208 30.1466 640.826 27.8828C645.444 25.619 650.832 24.487 656.989 24.487H695.752C696.924 24.487 697.874 25.4372 697.874 26.6094V38.5793C697.874 40.9236 695.974 42.824 693.629 42.824H656.989C655.088 42.824 653.413 43.2315 651.964 44.0464C650.605 44.7708 649.519 45.8575 648.704 47.3063C647.889 48.6646 647.481 50.2946 647.481 52.1962C647.481 54.0072 647.844 55.6372 648.568 57.086C649.383 58.4443 650.515 59.4857 651.964 60.2101C653.413 60.9345 655.088 61.2967 656.989 61.2967H668.671C675.1 61.2967 680.714 62.4739 685.513 64.8283C690.313 67.1826 694.025 70.5331 696.651 74.8796C699.277 79.2262 700.59 84.2971 700.59 90.0925C700.59 95.9784 699.277 101.14 696.651 105.577C694.116 110.014 690.403 113.41 685.513 115.764C680.714 118.119 675.1 119.296 668.671 119.296H629.908C628.736 119.296 627.786 118.346 627.786 117.173V105.203Z" fill="black"/>
<path d="M751.998 42.1448C758.427 42.1448 764.177 43.9106 769.248 47.4422C774.409 50.8832 778.439 55.6372 781.337 61.7042C784.234 67.6807 785.683 74.291 785.683 81.5352C785.683 88.7795 784.234 95.4351 781.337 101.502C778.439 107.479 774.409 112.233 769.248 115.764C764.177 119.205 758.427 120.926 751.998 120.926C747.651 120.926 743.621 120.156 739.909 118.617C736.196 117.077 733.027 114.904 730.401 112.097V141.351C730.401 142.523 729.451 143.473 728.278 143.473H713.456C711.112 143.473 709.211 141.573 709.211 139.229V48.0194C709.211 45.6752 711.112 43.7748 713.456 43.7748H727.712C728.839 43.7748 729.77 44.656 729.831 45.7815L730.129 51.2454C732.755 48.4382 735.924 46.2197 739.637 44.5897C743.44 42.9598 747.56 42.1448 751.998 42.1448ZM746.564 103.54C750.005 103.54 753.084 102.589 755.801 100.687C758.517 98.695 760.645 96.0237 762.185 92.6732C763.724 89.3228 764.494 85.6101 764.494 81.5352C764.494 77.4604 763.724 73.7477 762.185 70.3973C760.645 67.0468 758.517 64.4208 755.801 62.5192C753.084 60.527 750.005 59.5309 746.564 59.5309C744.029 59.5309 741.675 60.0743 739.501 61.1609C737.419 62.157 735.608 63.6058 734.068 65.5074C732.529 67.409 731.306 69.6276 730.401 72.163V90.9074C731.668 94.8012 733.751 97.88 736.649 100.144C739.547 102.408 742.852 103.54 746.564 103.54Z" fill="black"/>
<path d="M831.223 120.926C823.254 120.926 816.282 119.341 810.305 116.172C804.419 112.912 799.892 108.339 796.722 102.453C793.553 96.4764 791.968 89.5039 791.968 81.5352C791.968 73.5666 793.598 66.6393 796.858 60.7534C800.209 54.7769 804.917 50.204 810.984 47.0347C817.052 43.7748 824.16 42.1448 832.31 42.1448C840.369 42.1448 847.251 43.8653 852.956 47.3063C858.751 50.7473 863.007 55.6824 865.724 62.1117C868.44 68.5409 869.482 76.1021 868.848 84.7951H808.811L808.947 70.2614H847.251C847.07 67.9976 846.3 66.0055 844.942 64.285C843.674 62.4739 841.908 61.0703 839.644 60.0743C837.471 59.0782 834.981 58.5801 832.174 58.5801C827.827 58.5801 824.25 59.4857 821.443 61.2967C818.636 63.1078 816.554 65.7791 815.195 69.3106C813.837 72.8422 813.158 77.234 813.158 82.486C813.158 86.5609 813.837 90.2283 815.195 93.4882C816.554 96.7481 818.591 99.3288 821.307 101.23C824.024 103.042 827.329 103.947 831.223 103.947C834.03 103.947 836.566 103.494 838.829 102.589C841.184 101.593 843.085 100.28 844.534 98.6497C845.211 97.8884 845.779 97.0679 846.238 96.1881C847.169 94.4059 848.828 92.9449 850.838 92.9449H866.242C867.494 92.9449 868.48 94.0247 868.274 95.2593C867.483 100.007 865.682 104.216 862.871 107.886C859.611 112.052 855.265 115.266 849.832 117.53C844.398 119.794 838.196 120.926 831.223 120.926Z" fill="black"/>
<path d="M914.461 120.926C906.492 120.926 899.52 119.341 893.543 116.172C887.657 112.912 883.13 108.339 879.96 102.453C876.791 96.4764 875.206 89.5039 875.206 81.5352C875.206 73.5666 876.836 66.6393 880.096 60.7534C883.446 54.7769 888.155 50.204 894.222 47.0347C900.289 43.7748 907.398 42.1448 915.547 42.1448C923.607 42.1448 930.489 43.8653 936.193 47.3063C941.989 50.7473 946.245 55.6824 948.961 62.1117C951.678 68.5409 952.719 76.1021 952.085 84.7951H892.049L892.185 70.2614H930.489C930.307 67.9976 929.538 66.0055 928.18 64.285C926.912 62.4739 925.146 61.0703 922.882 60.0743C920.709 59.0782 918.219 58.5801 915.412 58.5801C911.065 58.5801 907.488 59.4857 904.681 61.2967C901.874 63.1078 899.791 65.7791 898.433 69.3106C897.075 72.8422 896.395 77.234 896.395 82.486C896.395 86.5609 897.075 90.2283 898.433 93.4882C899.791 96.7481 901.829 99.3288 904.545 101.23C907.262 103.042 910.567 103.947 914.461 103.947C917.268 103.947 919.803 103.494 922.067 102.589C924.422 101.593 926.323 100.28 927.772 98.6497C928.449 97.8884 929.017 97.0679 929.476 96.1881C930.407 94.4059 932.065 92.9449 934.076 92.9449H949.48C950.731 92.9449 951.718 94.0247 951.512 95.2593C950.721 100.007 948.92 104.216 946.109 107.886C942.849 112.052 938.502 115.266 933.069 117.53C927.636 119.794 921.433 120.926 914.461 120.926Z" fill="black"/>
<path d="M992.129 42.1448C995.027 42.1448 997.789 42.507 1000.42 43.2315C1003.13 43.9559 1005.62 44.9972 1007.89 46.3555C1010.15 47.7138 1012.14 49.2985 1013.86 51.1095V23.0269C1013.86 20.6826 1015.76 18.7822 1018.11 18.7822H1032.79C1033.97 18.7822 1034.92 19.7324 1034.92 20.9046V117.173C1034.92 118.346 1033.97 119.296 1032.79 119.296H1018.56C1016.31 119.296 1014.45 117.531 1014.33 115.278L1014.13 111.689C1011.51 114.587 1008.25 116.851 1004.35 118.481C1000.55 120.111 996.476 120.926 992.129 120.926C985.7 120.926 979.905 119.205 974.743 115.764C969.672 112.233 965.688 107.479 962.79 101.502C959.893 95.4351 958.444 88.7795 958.444 81.5352C958.444 74.291 959.893 67.6807 962.79 61.7042C965.688 55.6372 969.672 50.8832 974.743 47.4422C979.905 43.9106 985.7 42.1448 992.129 42.1448ZM997.563 103.54C1001.37 103.54 1004.72 102.362 1007.61 100.008C1010.51 97.6536 1012.59 94.4843 1013.86 90.5V72.5705C1012.96 69.9445 1011.73 67.6807 1010.19 65.7791C1008.66 63.7869 1006.8 62.2475 1004.63 61.1609C1002.45 60.0743 1000.1 59.5309 997.563 59.5309C994.122 59.5309 991.043 60.527 988.326 62.5192C985.61 64.4208 983.482 67.0468 981.942 70.3973C980.403 73.7477 979.633 77.4604 979.633 81.5352C979.633 85.6101 980.403 89.3228 981.942 92.6732C983.482 96.0237 985.61 98.695 988.326 100.687C991.043 102.589 994.122 103.54 997.563 103.54Z" fill="black"/>
<path d="M70.4308 78.0854L91.7662 38.3429C96.5077 29.5107 105.721 24 115.745 24H139.559C143.467 24 146.635 27.1681 146.635 31.0761V78.0854L167.97 38.3429C172.712 29.5107 181.925 24 191.949 24H215.763C219.671 24 222.839 27.1681 222.839 31.0761V71.3553C222.839 75.2634 219.671 78.4314 215.763 78.4314H208.228L187.621 116.817C182.971 125.479 172.079 128.578 163.565 123.663L140.647 110.431C135.258 107.32 131.938 101.57 131.938 95.3468V78.5906L111.43 116.792C106.78 125.454 95.8881 128.554 87.3745 123.638L64.4434 110.399C59.0542 107.287 55.7343 101.537 55.7343 95.3144V78.5906L48.2111 92.6042C46.3221 96.1228 41.8972 97.3821 38.4386 95.3852L3.53923 75.2362C0.228521 73.3247 -0.96544 69.1293 0.842763 65.7611L15.5622 38.3428C20.3037 29.5106 29.5166 24 39.541 24H63.3547C67.2627 24 70.4308 27.1681 70.4308 31.0761V78.0854Z" fill="black"/>
</svg>
