<svg xmlns="http://www.w3.org/2000/svg" width="1022" height="144" fill="none" viewBox="0 0 1022 144"><path fill="#000" d="M239.835 29.976c-.836-2.729 1.204-5.489 4.058-5.489h15.372c.934 0 1.757.61 2.03 1.502l13.124 42.914 4.89 25.944 4.754-25.944 12.28-41.398a4.244 4.244 0 0 1 4.043-3.037l17.673-.107a2.122 2.122 0 0 1 2.046 1.515l12.856 43.027 4.754 22.276 3.939-22.276 12.795-41.424a4.244 4.244 0 0 1 4.055-2.992h15.723a2.123 2.123 0 0 1 2.028 2.75L348.229 117.8a2.122 2.122 0 0 1-2.027 1.495h-16.837a4.245 4.245 0 0 1-4.079-3.071l-12.292-42.704-4.754-23.498-4.482 23.498-13.665 44.278a2.122 2.122 0 0 1-2.028 1.497h-17.707a4.245 4.245 0 0 1-4.058-3.001l-26.465-86.32ZM433.662 119.296a4.245 4.245 0 0 1-4.239-4.033l-.478-9.55V57.358l.478-9.55a4.244 4.244 0 0 1 4.239-4.033h14.35c1.173 0 2.123.95 2.123 2.122v71.276c0 1.173-.95 2.123-2.123 2.123h-14.35Zm-26.313 1.63c-6.43 0-12.225-1.721-17.386-5.162-5.071-3.531-9.056-8.285-11.953-14.262-2.898-6.067-4.347-12.722-4.347-19.967 0-7.244 1.449-13.854 4.347-19.83 2.897-6.068 6.882-10.822 11.953-14.263 5.161-3.531 10.956-5.297 17.386-5.297 4.799 0 9.191.95 13.175 2.852 4.075 1.902 7.425 4.528 10.051 7.878 2.717 3.26 4.483 6.928 5.298 11.002v35.316c-.815 4.075-2.581 7.788-5.298 11.138-2.626 3.26-5.976 5.841-10.051 7.742-3.984 1.902-8.376 2.853-13.175 2.853Zm5.433-17.386c3.35 0 6.384-.951 9.1-2.853 2.717-1.901 4.8-4.528 6.248-7.878 1.54-3.35 2.31-7.108 2.31-11.274 0-4.165-.77-7.923-2.31-11.274-1.448-3.35-3.531-5.976-6.248-7.878-2.716-1.901-5.75-2.852-9.1-2.852-3.441 0-6.52.996-9.237 2.988-2.716 1.902-4.844 4.528-6.384 7.878-1.539 3.35-2.309 7.063-2.309 11.138s.77 7.788 2.309 11.138c1.54 3.35 3.668 6.022 6.384 8.014 2.717 1.902 5.796 2.853 9.237 2.853ZM456.973 49.443c-.984-2.763 1.065-5.668 3.999-5.668h14.598c.911 0 1.721.581 2.011 1.444l12.417 36.86 4.347 18.744 4.618-18.744 11.671-35.389a4.245 4.245 0 0 1 4.031-2.915h15.388c1.465 0 2.49 1.45 2 2.83l-25.254 71.277a2.123 2.123 0 0 1-2.001 1.414h-19.955a4.247 4.247 0 0 1-3.999-2.821l-23.871-67.032ZM571.561 120.926c-7.969 0-14.942-1.585-20.918-4.754-5.886-3.26-10.414-7.833-13.583-13.719-3.169-5.977-4.754-12.95-4.754-20.918s1.63-14.896 4.89-20.782c3.35-5.976 8.059-10.549 14.126-13.718 6.067-3.26 13.176-4.89 21.325-4.89 8.059 0 14.941 1.72 20.646 5.161 5.796 3.441 10.052 8.376 12.768 14.806 2.717 6.429 3.758 13.99 3.124 22.683h-60.036l.136-14.534h38.303c-.181-2.263-.95-4.255-2.309-5.976-1.267-1.811-3.033-3.215-5.297-4.21-2.173-.997-4.663-1.495-7.471-1.495-4.346 0-7.923.906-10.73 2.717-2.807 1.81-4.89 4.482-6.248 8.014-1.358 3.531-2.038 7.923-2.038 13.175 0 4.075.68 7.742 2.038 11.002 1.358 3.26 3.396 5.84 6.112 7.742 2.717 1.812 6.022 2.717 9.916 2.717 2.807 0 5.342-.453 7.606-1.358 2.354-.996 4.256-2.309 5.705-3.94a12.157 12.157 0 0 0 1.704-2.46c.931-1.783 2.589-3.244 4.6-3.244h15.404c1.251 0 2.238 1.08 2.032 2.314-.791 4.748-2.592 8.957-5.403 12.627-3.26 4.166-7.607 7.38-13.04 9.644-5.433 2.264-11.636 3.396-18.608 3.396ZM614.786 105.203a4.245 4.245 0 0 1 4.245-4.244h36.64c2.173 0 4.075-.453 5.704-1.359a9.61 9.61 0 0 0 3.804-3.803c.905-1.63 1.358-3.531 1.358-5.704 0-2.083-.453-3.894-1.358-5.434-.906-1.63-2.174-2.852-3.804-3.667-1.629-.906-3.531-1.358-5.704-1.358h-11.682c-6.157 0-11.545-1.087-16.163-3.26-4.528-2.264-8.059-5.479-10.595-9.644-2.535-4.166-3.803-9.01-3.803-14.534 0-5.614 1.222-10.504 3.667-14.67 2.536-4.165 6.113-7.38 10.731-9.643 4.618-2.264 10.006-3.396 16.163-3.396h38.763c1.172 0 2.122.95 2.122 2.122v11.97c0 2.345-1.9 4.245-4.245 4.245h-36.64c-1.901 0-3.576.407-5.025 1.222-1.359.725-2.445 1.812-3.26 3.26-.815 1.359-1.223 2.989-1.223 4.89 0 1.811.363 3.441 1.087 4.89.815 1.358 1.947 2.4 3.396 3.124 1.449.724 3.124 1.087 5.025 1.087h11.682c6.429 0 12.043 1.177 16.842 3.531 4.8 2.355 8.512 5.705 11.138 10.052 2.626 4.346 3.939 9.417 3.939 15.213 0 5.885-1.313 11.047-3.939 15.484-2.535 4.437-6.248 7.833-11.138 10.187-4.799 2.355-10.413 3.532-16.842 3.532h-38.763a2.122 2.122 0 0 1-2.122-2.123v-11.97ZM738.998 42.145c6.429 0 12.179 1.766 17.25 5.297 5.161 3.441 9.191 8.195 12.089 14.262 2.897 5.977 4.346 12.587 4.346 19.831 0 7.245-1.449 13.9-4.346 19.967-2.898 5.977-6.928 10.731-12.089 14.262-5.071 3.441-10.821 5.162-17.25 5.162-4.347 0-8.377-.77-12.089-2.309-3.713-1.54-6.882-3.713-9.508-6.52v29.254c0 1.172-.95 2.122-2.123 2.122h-14.822a4.245 4.245 0 0 1-4.245-4.244v-91.21a4.245 4.245 0 0 1 4.245-4.244h14.256c1.127 0 2.058.881 2.119 2.007l.298 5.463c2.626-2.807 5.795-5.025 9.508-6.655 3.803-1.63 7.923-2.445 12.361-2.445Zm-5.434 61.395c3.441 0 6.52-.951 9.237-2.853 2.716-1.992 4.844-4.663 6.384-8.014 1.539-3.35 2.309-7.063 2.309-11.138s-.77-7.787-2.309-11.138c-1.54-3.35-3.668-5.976-6.384-7.878-2.717-1.992-5.796-2.988-9.237-2.988-2.535 0-4.889.543-7.063 1.63-2.082.996-3.893 2.445-5.433 4.346-1.539 1.902-2.762 4.12-3.667 6.656v18.744c1.267 3.894 3.35 6.973 6.248 9.237 2.898 2.264 6.203 3.396 9.915 3.396ZM818.223 120.926c-7.969 0-14.941-1.585-20.918-4.754-5.886-3.26-10.413-7.833-13.583-13.719-3.169-5.977-4.754-12.95-4.754-20.918s1.63-14.896 4.89-20.782c3.351-5.976 8.059-10.549 14.126-13.718 6.068-3.26 13.176-4.89 21.326-4.89 8.059 0 14.941 1.72 20.646 5.161 5.795 3.441 10.051 8.376 12.768 14.806 2.716 6.429 3.758 13.99 3.124 22.683h-60.037l.136-14.534h38.304c-.181-2.263-.951-4.255-2.309-5.976-1.268-1.811-3.034-3.215-5.298-4.21-2.173-.997-4.663-1.495-7.47-1.495-4.347 0-7.924.906-10.731 2.717-2.807 1.81-4.889 4.482-6.248 8.014-1.358 3.531-2.037 7.923-2.037 13.175 0 4.075.679 7.742 2.037 11.002 1.359 3.26 3.396 5.84 6.112 7.742 2.717 1.812 6.022 2.717 9.916 2.717 2.807 0 5.343-.453 7.606-1.358 2.355-.996 4.256-2.309 5.705-3.94a12.157 12.157 0 0 0 1.704-2.46c.931-1.783 2.59-3.244 4.6-3.244h15.404c1.252 0 2.238 1.08 2.032 2.314-.791 4.748-2.592 8.957-5.403 12.627-3.26 4.166-7.606 7.38-13.039 9.644-5.434 2.264-11.636 3.396-18.609 3.396ZM901.461 120.926c-7.969 0-14.941-1.585-20.918-4.754-5.886-3.26-10.413-7.833-13.583-13.719-3.169-5.977-4.754-12.95-4.754-20.918s1.63-14.896 4.89-20.782c3.35-5.976 8.059-10.549 14.126-13.718 6.067-3.26 13.176-4.89 21.325-4.89 8.06 0 14.942 1.72 20.646 5.161 5.796 3.441 10.052 8.376 12.768 14.806 2.717 6.429 3.758 13.99 3.124 22.683h-60.036l.136-14.534h38.304c-.182-2.263-.951-4.255-2.31-5.976-1.267-1.811-3.033-3.215-5.297-4.21-2.173-.997-4.663-1.495-7.47-1.495-4.347 0-7.924.906-10.731 2.717-2.807 1.81-4.89 4.482-6.248 8.014-1.358 3.531-2.038 7.923-2.038 13.175 0 4.075.68 7.742 2.038 11.002 1.358 3.26 3.396 5.84 6.112 7.742 2.717 1.812 6.022 2.717 9.916 2.717 2.807 0 5.342-.453 7.606-1.358 2.355-.996 4.256-2.309 5.705-3.94a12.157 12.157 0 0 0 1.704-2.46c.931-1.783 2.589-3.244 4.6-3.244h15.404c1.251 0 2.238 1.08 2.032 2.314-.791 4.748-2.592 8.957-5.403 12.627-3.26 4.166-7.607 7.38-13.04 9.644-5.433 2.264-11.636 3.396-18.608 3.396ZM979.129 42.145c2.898 0 5.66.362 8.286 1.086 2.717.725 5.207 1.766 7.471 3.124 2.263 1.359 4.256 2.944 5.974 4.755V23.026c0-2.344 1.9-4.245 4.25-4.245h14.68c1.18 0 2.13.95 2.13 2.123v96.268c0 1.173-.95 2.123-2.13 2.123h-14.23a4.24 4.24 0 0 1-4.23-4.018l-.2-3.589c-2.622 2.898-5.882 5.162-9.776 6.792-3.803 1.63-7.878 2.445-12.225 2.445-6.429 0-12.224-1.721-17.386-5.162-5.071-3.531-9.055-8.285-11.953-14.262-2.897-6.067-4.346-12.722-4.346-19.967 0-7.244 1.449-13.854 4.346-19.83 2.898-6.068 6.882-10.822 11.953-14.263 5.162-3.531 10.957-5.297 17.386-5.297Zm5.434 61.395c3.803 0 7.153-1.178 10.051-3.532 2.898-2.354 4.98-5.524 6.246-9.508V72.57c-.903-2.625-2.126-4.89-3.665-6.79-1.54-1.993-3.396-3.532-5.569-4.62-2.174-1.086-4.528-1.63-7.063-1.63-3.441 0-6.52.997-9.237 2.99-2.716 1.9-4.844 4.527-6.384 7.877-1.539 3.35-2.309 7.063-2.309 11.138s.77 7.788 2.309 11.138c1.54 3.35 3.668 6.022 6.384 8.014 2.717 1.902 5.796 2.853 9.237 2.853ZM69.823 73.89 93.48 32.784A17.503 17.503 0 0 1 108.646 24h22.722c4.698 0 8.506 3.82 8.506 8.533V73.89l23.657-41.106A17.504 17.504 0 0 1 178.698 24h22.722c4.698 0 8.506 3.82 8.506 8.533v33.13c0 4.713-3.808 8.533-8.506 8.533h-3.945l-25.907 45.016c-4.836 8.403-15.547 11.283-23.923 6.431l-17.403-10.079a17.58 17.58 0 0 1-8.756-15.215V84.514l-19.97 34.699c-4.836 8.403-15.547 11.282-23.923 6.43l-17.402-10.079a17.578 17.578 0 0 1-8.757-15.215V84.514l-6.96 12.094c-2.349 4.081-7.551 5.48-11.62 3.123l-28.6-16.564C.187 80.81-1.207 75.59 1.142 71.51l22.287-38.726A17.503 17.503 0 0 1 38.595 24h22.722c4.698 0 8.506 3.82 8.506 8.533V73.89Z"/></svg>