<svg width="1014" height="144" viewBox="0 0 1014 144" fill="none" xmlns="http://www.w3.org/2000/svg">
<path d="M70.0297 70.4951L91.1857 33.8512C94.6736 27.81 101.12 24.0884 108.095 24.0884H127.588C131.901 24.0884 135.398 27.5851 135.398 31.8986V70.4951L156.554 33.8512C160.042 27.81 166.488 24.0884 173.464 24.0884H192.956C197.27 24.0884 200.767 27.5851 200.767 31.8986V62.9699C200.767 67.2834 197.27 70.7801 192.956 70.7801H189.148L161.915 117.951C157.601 125.422 148.048 127.982 140.577 123.668L125.317 114.858C119.276 111.37 115.554 104.924 115.554 97.9484V85.0277L96.5464 117.951C92.233 125.422 82.6796 127.982 75.2085 123.668L59.9484 114.858C53.9072 111.37 50.1857 104.924 50.1857 97.9482V85.0277L43.6146 96.4092C41.4578 100.145 36.6812 101.425 32.9456 99.2679L6.0372 83.7322C2.30167 81.5755 1.02177 76.7989 3.17846 73.0633L25.8173 33.8512C29.3052 27.81 35.7511 24.0884 42.7269 24.0884H62.2195C66.5329 24.0884 70.0297 27.5851 70.0297 31.8986V70.4951Z" fill="black"/>
<path d="M226.831 29.9764C225.995 27.2477 228.035 24.4875 230.889 24.4875H246.262C247.195 24.4875 248.018 25.0969 248.291 25.9892L261.415 68.9036L266.305 94.847L271.059 68.9036L283.339 27.5059C283.87 25.7133 285.513 24.4798 287.382 24.4685L305.055 24.3613C305.998 24.3556 306.831 24.9726 307.101 25.8761L319.957 68.9036L324.711 91.1796L328.65 68.9036L341.445 27.4795C341.994 25.7007 343.639 24.4875 345.5 24.4875H361.223C362.653 24.4875 363.673 25.8718 363.251 27.2373L335.225 117.801C334.95 118.69 334.128 119.296 333.198 119.296H316.361C314.469 119.296 312.805 118.044 312.282 116.226L299.99 73.5218L295.236 50.0234L290.754 73.5218L277.089 117.8C276.815 118.689 275.993 119.296 275.062 119.296H257.354C255.489 119.296 253.843 118.079 253.296 116.296L226.831 29.9764Z" fill="black"/>
<path d="M420.658 119.296C418.397 119.296 416.532 117.523 416.419 115.264L415.942 105.713V57.3582L416.419 47.8079C416.532 45.5489 418.397 43.7753 420.658 43.7753H435.009C436.181 43.7753 437.131 44.7255 437.131 45.8976V117.174C437.131 118.346 436.181 119.296 435.009 119.296H420.658ZM394.345 120.926C387.915 120.926 382.12 119.206 376.959 115.765C371.888 112.233 367.903 107.479 365.006 101.503C362.108 95.4356 360.659 88.7799 360.659 81.5357C360.659 74.2915 362.108 67.6812 365.006 61.7047C367.903 55.6377 371.888 50.8836 376.959 47.4426C382.12 43.9111 387.915 42.1453 394.345 42.1453C399.144 42.1453 403.536 43.0961 407.52 44.9977C411.595 46.8993 414.945 49.5254 417.571 52.8758C420.288 56.1357 422.054 59.8031 422.869 63.878V99.1935C422.054 103.268 420.288 106.981 417.571 110.331C414.945 113.591 411.595 116.172 407.52 118.074C403.536 119.975 399.144 120.926 394.345 120.926ZM399.778 103.54C403.128 103.54 406.162 102.589 408.878 100.688C411.595 98.786 413.678 96.16 415.127 92.8095C416.666 89.4591 417.436 85.7012 417.436 81.5357C417.436 77.3703 416.666 73.6124 415.127 70.2619C413.678 66.9115 411.595 64.2854 408.878 62.3838C406.162 60.4822 403.128 59.5314 399.778 59.5314C396.337 59.5314 393.258 60.5275 390.542 62.5197C387.825 64.4213 385.697 67.0473 384.158 70.3977C382.618 73.7482 381.848 77.4609 381.848 81.5357C381.848 85.6106 382.618 89.3233 384.158 92.6737C385.697 96.0242 387.825 98.6955 390.542 100.688C393.258 102.589 396.337 103.54 399.778 103.54Z" fill="black"/>
<path d="M443.969 49.4439C442.985 46.6802 445.034 43.7753 447.968 43.7753H462.566C463.477 43.7753 464.287 44.3567 464.578 45.22L476.995 82.079L481.341 100.823L485.959 82.079L497.63 46.6905C498.204 44.9507 499.829 43.7753 501.661 43.7753H517.049C518.514 43.7753 519.539 45.2251 519.049 46.6064L493.795 117.883C493.495 118.73 492.693 119.296 491.794 119.296H471.839C470.044 119.296 468.443 118.167 467.84 116.476L443.969 49.4439Z" fill="black"/>
<path d="M558.557 120.926C550.588 120.926 543.616 119.341 537.639 116.172C531.753 112.912 527.226 108.339 524.056 102.453C520.887 96.4769 519.302 89.5044 519.302 81.5357C519.302 73.5671 520.932 66.6398 524.192 60.7539C527.542 54.7774 532.251 50.2045 538.318 47.0352C544.385 43.7753 551.494 42.1453 559.643 42.1453C567.703 42.1453 574.585 43.8658 580.289 47.3068C586.085 50.7478 590.341 55.6829 593.057 62.1122C595.774 68.5414 596.815 76.1026 596.181 84.7956H536.145L536.281 70.2619H574.585C574.403 67.9981 573.634 66.0059 572.275 64.2854C571.008 62.4744 569.242 61.0708 566.978 60.0747C564.805 59.0787 562.315 58.5806 559.508 58.5806C555.161 58.5806 551.584 59.4861 548.777 61.2972C545.97 63.1083 543.887 65.7796 542.529 69.3111C541.171 72.8427 540.491 77.2345 540.491 82.4865C540.491 86.5614 541.171 90.2288 542.529 93.4887C543.887 96.7486 545.925 99.3293 548.641 101.231C551.358 103.042 554.663 103.948 558.557 103.948C561.364 103.948 563.899 103.495 566.163 102.589C568.518 101.593 570.419 100.28 571.868 98.6502C572.545 97.8889 573.113 97.0684 573.572 96.1886C574.503 94.4064 576.161 92.9454 578.172 92.9454H593.576C594.827 92.9454 595.814 94.0252 595.608 95.2598C594.817 100.007 593.016 104.216 590.205 107.887C586.945 112.052 582.598 115.267 577.165 117.53C571.732 119.794 565.529 120.926 558.557 120.926Z" fill="black"/>
<path d="M601.782 105.204C601.782 102.86 603.683 100.959 606.027 100.959H642.667C644.84 100.959 646.742 100.507 648.372 99.601C650.002 98.6955 651.269 97.4277 652.175 95.7978C653.08 94.1678 653.533 92.2662 653.533 90.093C653.533 88.0102 653.08 86.1992 652.175 84.6598C651.269 83.0299 650.002 81.8074 648.372 80.9924C646.742 80.0869 644.84 79.6341 642.667 79.6341H630.985C624.828 79.6341 619.44 78.5475 614.822 76.3742C610.294 74.1104 606.763 70.8958 604.227 66.7304C601.692 62.5649 600.424 57.7204 600.424 52.1967C600.424 46.5824 601.646 41.6925 604.091 37.5271C606.627 33.3617 610.204 30.1471 614.822 27.8833C619.44 25.6194 624.828 24.4875 630.985 24.4875H669.748C670.92 24.4875 671.87 25.4377 671.87 26.6099V38.5798C671.87 40.9241 669.97 42.8245 667.625 42.8245H630.985C629.084 42.8245 627.409 43.2319 625.96 44.0469C624.601 44.7713 623.515 45.858 622.7 47.3068C621.885 48.6651 621.477 50.295 621.477 52.1967C621.477 54.0077 621.84 55.6377 622.564 57.0865C623.379 58.4448 624.511 59.4861 625.96 60.2106C627.409 60.935 629.084 61.2972 630.985 61.2972H642.667C649.096 61.2972 654.71 62.4744 659.51 64.8288C664.309 67.1831 668.022 70.5336 670.648 74.8801C673.274 79.2266 674.587 84.2976 674.587 90.093C674.587 95.9789 673.274 101.14 670.648 105.577C668.112 110.015 664.399 113.41 659.51 115.765C654.71 118.119 649.096 119.296 642.667 119.296H603.905C602.732 119.296 601.782 118.346 601.782 117.174V105.204Z" fill="black"/>
<path d="M725.994 42.1453C732.423 42.1453 738.173 43.9111 743.244 47.4426C748.405 50.8836 752.435 55.6377 755.333 61.7047C758.23 67.6812 759.679 74.2915 759.679 81.5357C759.679 88.7799 758.23 95.4356 755.333 101.503C752.435 107.479 748.405 112.233 743.244 115.765C738.173 119.206 732.423 120.926 725.994 120.926C721.647 120.926 717.618 120.156 713.905 118.617C710.192 117.078 707.023 114.904 704.397 112.097V141.351C704.397 142.524 703.447 143.474 702.274 143.474H687.452C685.108 143.474 683.207 141.573 683.207 139.229V48.0199C683.207 45.6757 685.108 43.7753 687.452 43.7753H701.708C702.835 43.7753 703.766 44.6564 703.827 45.782L704.125 51.2459C706.751 48.4387 709.921 46.2202 713.633 44.5902C717.436 42.9603 721.557 42.1453 725.994 42.1453ZM720.56 103.54C724.001 103.54 727.08 102.589 729.797 100.688C732.513 98.6955 734.641 96.0242 736.181 92.6737C737.72 89.3233 738.49 85.6106 738.49 81.5357C738.49 77.4609 737.72 73.7482 736.181 70.3977C734.641 67.0473 732.513 64.4213 729.797 62.5197C727.08 60.5275 724.001 59.5314 720.56 59.5314C718.025 59.5314 715.671 60.0747 713.497 61.1614C711.415 62.1575 709.604 63.6063 708.064 65.5079C706.525 67.4095 705.302 69.6281 704.397 72.1635V90.9079C705.665 94.8017 707.747 97.8805 710.645 100.144C713.543 102.408 716.848 103.54 720.56 103.54Z" fill="black"/>
<path d="M805.219 120.926C797.251 120.926 790.278 119.341 784.301 116.172C778.416 112.912 773.888 108.339 770.719 102.453C767.549 96.4769 765.965 89.5044 765.965 81.5357C765.965 73.5671 767.594 66.6398 770.854 60.7539C774.205 54.7774 778.914 50.2045 784.981 47.0352C791.048 43.7753 798.156 42.1453 806.306 42.1453C814.365 42.1453 821.247 43.8658 826.952 47.3068C832.747 50.7478 837.003 55.6829 839.72 62.1122C842.436 68.5414 843.478 76.1026 842.844 84.7956H782.807L782.943 70.2619H821.247C821.066 67.9981 820.296 66.0059 818.938 64.2854C817.67 62.4744 815.904 61.0708 813.641 60.0747C811.467 59.0787 808.977 58.5806 806.17 58.5806C801.823 58.5806 798.247 59.4861 795.439 61.2972C792.632 63.1083 790.55 65.7796 789.191 69.3111C787.833 72.8427 787.154 77.2345 787.154 82.4865C787.154 86.5614 787.833 90.2288 789.191 93.4887C790.55 96.7486 792.587 99.3293 795.304 101.231C798.02 103.042 801.325 103.948 805.219 103.948C808.026 103.948 810.562 103.495 812.826 102.589C815.18 101.593 817.081 100.28 818.53 98.6502C819.207 97.8889 819.775 97.0684 820.234 96.1886C821.165 94.4064 822.824 92.9454 824.834 92.9454H840.238C841.49 92.9454 842.476 94.0252 842.271 95.2598C841.48 100.007 839.678 104.216 836.867 107.887C833.607 112.052 829.261 115.267 823.828 117.53C818.395 119.794 812.192 120.926 805.219 120.926Z" fill="black"/>
<path d="M888.457 120.926C880.488 120.926 873.516 119.341 867.539 116.172C861.653 112.912 857.126 108.339 853.956 102.453C850.787 96.4769 849.202 89.5044 849.202 81.5357C849.202 73.5671 850.832 66.6398 854.092 60.7539C857.443 54.7774 862.151 50.2045 868.218 47.0352C874.285 43.7753 881.394 42.1453 889.543 42.1453C897.603 42.1453 904.485 43.8658 910.19 47.3068C915.985 50.7478 920.241 55.6829 922.957 62.1122C925.674 68.5414 926.715 76.1026 926.082 84.7956H866.045L866.181 70.2619H904.485C904.304 67.9981 903.534 66.0059 902.176 64.2854C900.908 62.4744 899.142 61.0708 896.878 60.0747C894.705 59.0787 892.215 58.5806 889.408 58.5806C885.061 58.5806 881.484 59.4861 878.677 61.2972C875.87 63.1083 873.787 65.7796 872.429 69.3111C871.071 72.8427 870.392 77.2345 870.392 82.4865C870.392 86.5614 871.071 90.2288 872.429 93.4887C873.787 96.7486 875.825 99.3293 878.541 101.231C881.258 103.042 884.563 103.948 888.457 103.948C891.264 103.948 893.799 103.495 896.063 102.589C898.418 101.593 900.319 100.28 901.768 98.6502C902.445 97.8889 903.013 97.0684 903.472 96.1886C904.403 94.4064 906.061 92.9454 908.072 92.9454H923.476C924.727 92.9454 925.714 94.0252 925.508 95.2598C924.717 100.007 922.916 104.216 920.105 107.887C916.845 112.052 912.499 115.267 907.065 117.53C901.632 119.794 895.429 120.926 888.457 120.926Z" fill="black"/>
<path d="M966.126 42.1453C969.023 42.1453 971.785 42.5075 974.411 43.2319C977.128 43.9564 979.618 44.9977 981.882 46.356C984.146 47.7143 986.138 49.299 987.858 51.11V23.0274C987.858 20.6831 989.759 18.7827 992.103 18.7827H1006.79C1007.96 18.7827 1008.91 19.7329 1008.91 20.905V117.174C1008.91 118.346 1007.96 119.296 1006.79 119.296H992.561C990.305 119.296 988.443 117.531 988.322 115.279L988.13 111.69C985.504 114.587 982.244 116.851 978.35 118.481C974.547 120.111 970.472 120.926 966.126 120.926C959.696 120.926 953.901 119.206 948.739 115.765C943.669 112.233 939.684 107.479 936.786 101.503C933.889 95.4356 932.44 88.7799 932.44 81.5357C932.44 74.2915 933.889 67.6812 936.786 61.7047C939.684 55.6377 943.669 50.8836 948.739 47.4426C953.901 43.9111 959.696 42.1453 966.126 42.1453ZM971.559 103.54C975.362 103.54 978.712 102.363 981.61 100.008C984.508 97.6541 986.591 94.4848 987.858 90.5004V72.571C986.953 69.945 985.73 67.6812 984.191 65.7796C982.651 63.7874 980.795 62.248 978.622 61.1614C976.449 60.0747 974.094 59.5314 971.559 59.5314C968.118 59.5314 965.039 60.5275 962.322 62.5197C959.606 64.4213 957.478 67.0473 955.938 70.3977C954.399 73.7482 953.629 77.4609 953.629 81.5357C953.629 85.6106 954.399 89.3233 955.938 92.6737C957.478 96.0242 959.606 98.6955 962.322 100.688C965.039 102.589 968.118 103.54 971.559 103.54Z" fill="black"/>
</svg>
