<svg width="784" height="126" viewBox="0 0 784 126" fill="none" xmlns="http://www.w3.org/2000/svg">
<path d="M1.68283 11.9764C0.846247 9.24772 2.887 6.48753 5.74104 6.48753H21.1131C22.0462 6.48753 22.8698 7.09693 23.1427 7.98921L36.2664 50.9036L41.1562 76.847L45.9102 50.9036L58.1903 9.5059C58.722 7.7133 60.3642 6.47978 62.2339 6.46845L79.9065 6.36134C80.8494 6.35563 81.683 6.97264 81.9529 7.87606L94.8087 50.9036L99.5627 73.1796L103.502 50.9036L116.296 9.47954C116.846 7.70072 118.49 6.48753 120.352 6.48753H136.075C137.504 6.48753 138.525 7.87182 138.102 9.23727L110.077 99.8013C109.802 100.69 108.98 101.296 108.049 101.296H91.2125C89.3204 101.296 87.6568 100.044 87.1334 98.2256L74.8418 55.5218L70.0878 32.0234L65.6054 55.5218L51.941 99.7997C51.6665 100.689 50.8441 101.296 49.9131 101.296H32.2057C30.3407 101.296 28.6942 100.079 28.1475 98.2958L1.68283 11.9764Z" fill="black"/>
<path d="M195.51 101.296C193.248 101.296 191.384 99.5226 191.271 97.2635L190.793 87.7133V39.3582L191.271 29.8079C191.384 27.5489 193.248 25.7753 195.51 25.7753H209.86C211.032 25.7753 211.982 26.7255 211.982 27.8976V99.1739C211.982 100.346 211.032 101.296 209.86 101.296H195.51ZM169.196 102.926C162.767 102.926 156.972 101.206 151.81 97.7646C146.739 94.2331 142.755 89.4791 139.857 83.5026C136.96 77.4356 135.511 70.7799 135.511 63.5357C135.511 56.2915 136.96 49.6812 139.857 43.7047C142.755 37.6377 146.739 32.8836 151.81 29.4426C156.972 25.9111 162.767 24.1453 169.196 24.1453C173.996 24.1453 178.387 25.0961 182.372 26.9977C186.447 28.8993 189.797 31.5254 192.423 34.8758C195.14 38.1357 196.905 41.8031 197.72 45.878V81.1935C196.905 85.2684 195.14 88.981 192.423 92.3315C189.797 95.5914 186.447 98.1721 182.372 100.074C178.387 101.975 173.996 102.926 169.196 102.926ZM174.629 85.54C177.98 85.54 181.013 84.5892 183.73 82.6876C186.447 80.786 188.529 78.16 189.978 74.8095C191.518 71.4591 192.287 67.7012 192.287 63.5357C192.287 59.3703 191.518 55.6124 189.978 52.2619C188.529 48.9115 186.447 46.2854 183.73 44.3838C181.013 42.4822 177.98 41.5314 174.629 41.5314C171.188 41.5314 168.11 42.5275 165.393 44.5197C162.676 46.4213 160.549 49.0473 159.009 52.3977C157.47 55.7482 156.7 59.4609 156.7 63.5357C156.7 67.6106 157.47 71.3233 159.009 74.6737C160.549 78.0242 162.676 80.6955 165.393 82.6876C168.11 84.5892 171.188 85.54 174.629 85.54Z" fill="black"/>
<path d="M218.821 31.4439C217.837 28.6802 219.886 25.7753 222.82 25.7753H237.418C238.329 25.7753 239.138 26.3567 239.429 27.22L251.846 64.079L256.193 82.8235L260.811 64.079L272.482 28.6905C273.055 26.9507 274.681 25.7753 276.513 25.7753H291.9C293.366 25.7753 294.39 27.2251 293.901 28.6064L268.646 99.8827C268.346 100.73 267.545 101.296 266.646 101.296H246.691C244.895 101.296 243.294 100.167 242.692 98.4755L218.821 31.4439Z" fill="black"/>
<path d="M333.408 102.926C325.44 102.926 318.467 101.341 312.491 98.1721C306.605 94.9122 302.077 90.3393 298.908 84.4534C295.738 78.4769 294.154 71.5044 294.154 63.5357C294.154 55.5671 295.784 48.6398 299.044 42.7539C302.394 36.7774 307.103 32.2045 313.17 29.0352C319.237 25.7753 326.345 24.1453 334.495 24.1453C342.554 24.1453 349.436 25.8658 355.141 29.3068C360.936 32.7478 365.192 37.6829 367.909 44.1122C370.625 50.5414 371.667 58.1026 371.033 66.7956H310.997L311.132 52.2619H349.436C349.255 49.9981 348.485 48.0059 347.127 46.2854C345.859 44.4744 344.094 43.0708 341.83 42.0747C339.656 41.0787 337.166 40.5806 334.359 40.5806C330.013 40.5806 326.436 41.4861 323.629 43.2972C320.821 45.1083 318.739 47.7796 317.38 51.3111C316.022 54.8427 315.343 59.2345 315.343 64.4865C315.343 68.5614 316.022 72.2288 317.38 75.4887C318.739 78.7486 320.776 81.3293 323.493 83.2309C326.209 85.042 329.515 85.9475 333.408 85.9475C336.215 85.9475 338.751 85.4948 341.015 84.5892C343.369 83.5932 345.271 82.2801 346.72 80.6502C347.396 79.8889 347.964 79.0684 348.424 78.1886C349.354 76.4064 351.013 74.9454 353.023 74.9454H368.427C369.679 74.9454 370.665 76.0252 370.46 77.2598C369.669 82.0074 367.868 86.2164 365.056 89.8866C361.797 94.052 357.45 97.2666 352.017 99.5304C346.584 101.794 340.381 102.926 333.408 102.926Z" fill="black"/>
<path d="M376.634 87.2039C376.634 84.8597 378.534 82.9593 380.878 82.9593H417.518C419.692 82.9593 421.593 82.5065 423.223 81.601C424.853 80.6955 426.121 79.4277 427.026 77.7978C427.932 76.1678 428.385 74.2662 428.385 72.093C428.385 70.0102 427.932 68.1992 427.026 66.6598C426.121 65.0299 424.853 63.8074 423.223 62.9924C421.593 62.0869 419.692 61.6341 417.518 61.6341H405.837C399.679 61.6341 394.292 60.5475 389.673 58.3742C385.146 56.1104 381.614 52.8958 379.079 48.7304C376.543 44.5649 375.275 39.7204 375.275 34.1967C375.275 28.5824 376.498 23.6925 378.943 19.5271C381.478 15.3617 385.055 12.1471 389.673 9.88326C394.292 7.61944 399.679 6.48753 405.837 6.48753H444.599C445.771 6.48753 446.722 7.43773 446.722 8.60986V20.5798C446.722 22.9241 444.821 24.8245 442.477 24.8245H405.837C403.935 24.8245 402.26 25.2319 400.811 26.0469C399.453 26.7713 398.366 27.858 397.551 29.3068C396.736 30.6651 396.329 32.295 396.329 34.1967C396.329 36.0077 396.691 37.6377 397.416 39.0865C398.231 40.4448 399.363 41.4861 400.811 42.2106C402.26 42.935 403.935 43.2972 405.837 43.2972H417.518C423.948 43.2972 429.562 44.4744 434.361 46.8288C439.16 49.1831 442.873 52.5336 445.499 56.8801C448.125 61.2266 449.438 66.2976 449.438 72.093C449.438 77.9789 448.125 83.1404 445.499 87.5775C442.964 92.0146 439.251 95.4103 434.361 97.7646C429.562 100.119 423.948 101.296 417.518 101.296H378.756C377.584 101.296 376.634 100.346 376.634 99.1739V87.2039Z" fill="black"/>
<path d="M500.845 24.1453C507.274 24.1453 513.025 25.9111 518.096 29.4426C523.257 32.8836 527.287 37.6377 530.184 43.7047C533.082 49.6812 534.531 56.2915 534.531 63.5357C534.531 70.7799 533.082 77.4356 530.184 83.5026C527.287 89.4791 523.257 94.2331 518.096 97.7646C513.025 101.206 507.274 102.926 500.845 102.926C496.499 102.926 492.469 102.156 488.756 100.617C485.044 99.0777 481.874 96.9044 479.248 94.0973V123.351C479.248 124.524 478.298 125.474 477.126 125.474H462.304C459.959 125.474 458.059 123.573 458.059 121.229V30.0199C458.059 27.6757 459.959 25.7753 462.304 25.7753H476.56C477.687 25.7753 478.617 26.6564 478.679 27.782L478.977 33.2459C481.603 30.4387 484.772 28.2202 488.485 26.5902C492.288 24.9603 496.408 24.1453 500.845 24.1453ZM495.412 85.54C498.853 85.54 501.932 84.5892 504.648 82.6876C507.365 80.6955 509.493 78.0242 511.032 74.6737C512.572 71.3233 513.341 67.6106 513.341 63.5357C513.341 59.4609 512.572 55.7482 511.032 52.3977C509.493 49.0473 507.365 46.4213 504.648 44.5197C501.932 42.5275 498.853 41.5314 495.412 41.5314C492.877 41.5314 490.522 42.0747 488.349 43.1614C486.266 44.1575 484.455 45.6063 482.916 47.5079C481.376 49.4095 480.154 51.6281 479.248 54.1635V72.9079C480.516 76.8017 482.599 79.8805 485.496 82.1443C488.394 84.4081 491.699 85.54 495.412 85.54Z" fill="black"/>
<path d="M580.071 102.926C572.102 102.926 565.129 101.341 559.153 98.1721C553.267 94.9122 548.739 90.3393 545.57 84.4534C542.401 78.4769 540.816 71.5044 540.816 63.5357C540.816 55.5671 542.446 48.6398 545.706 42.7539C549.056 36.7774 553.765 32.2045 559.832 29.0352C565.899 25.7753 573.008 24.1453 581.157 24.1453C589.217 24.1453 596.099 25.8658 601.803 29.3068C607.599 32.7478 611.855 37.6829 614.571 44.1122C617.288 50.5414 618.329 58.1026 617.695 66.7956H557.659L557.795 52.2619H596.098C595.917 49.9981 595.148 48.0059 593.789 46.2854C592.522 44.4744 590.756 43.0708 588.492 42.0747C586.319 41.0787 583.829 40.5806 581.022 40.5806C576.675 40.5806 573.098 41.4861 570.291 43.2972C567.484 45.1083 565.401 47.7796 564.043 51.3111C562.685 54.8427 562.005 59.2345 562.005 64.4865C562.005 68.5614 562.685 72.2288 564.043 75.4887C565.401 78.7486 567.439 81.3293 570.155 83.2309C572.872 85.042 576.177 85.9475 580.071 85.9475C582.878 85.9475 585.413 85.4948 587.677 84.5892C590.031 83.5932 591.933 82.2801 593.382 80.6502C594.059 79.8889 594.627 79.0684 595.086 78.1886C596.017 76.4064 597.675 74.9454 599.686 74.9454H615.09C616.341 74.9454 617.328 76.0252 617.122 77.2598C616.331 82.0074 614.53 86.2164 611.719 89.8866C608.459 94.052 604.112 97.2666 598.679 99.5304C593.246 101.794 587.043 102.926 580.071 102.926Z" fill="black"/>
<path d="M663.308 102.926C655.34 102.926 648.367 101.341 642.391 98.1721C636.505 94.9122 631.977 90.3393 628.808 84.4534C625.638 78.4769 624.054 71.5044 624.054 63.5357C624.054 55.5671 625.684 48.6398 628.944 42.7539C632.294 36.7774 637.003 32.2045 643.07 29.0352C649.137 25.7753 656.245 24.1453 664.395 24.1453C672.454 24.1453 679.336 25.8658 685.041 29.3068C690.836 32.7478 695.092 37.6829 697.809 44.1122C700.526 50.5414 701.567 58.1026 700.933 66.7956H640.897L641.032 52.2619H679.336C679.155 49.9981 678.385 48.0059 677.027 46.2854C675.759 44.4744 673.994 43.0708 671.73 42.0747C669.557 41.0787 667.066 40.5806 664.259 40.5806C659.913 40.5806 656.336 41.4861 653.529 43.2972C650.722 45.1083 648.639 47.7796 647.281 51.3111C645.922 54.8427 645.243 59.2345 645.243 64.4865C645.243 68.5614 645.922 72.2288 647.281 75.4887C648.639 78.7486 650.676 81.3293 653.393 83.2309C656.109 85.042 659.415 85.9475 663.308 85.9475C666.116 85.9475 668.651 85.4948 670.915 84.5892C673.269 83.5932 675.171 82.2801 676.62 80.6502C677.296 79.8889 677.864 79.0684 678.324 78.1886C679.254 76.4064 680.913 74.9454 682.924 74.9454H698.327C699.579 74.9454 700.566 76.0252 700.36 77.2598C699.569 82.0074 697.768 86.2164 694.957 89.8866C691.697 94.052 687.35 97.2666 681.917 99.5304C676.484 101.794 670.281 102.926 663.308 102.926Z" fill="black"/>
<path d="M740.977 24.1453C743.875 24.1453 746.637 24.5075 749.263 25.2319C751.979 25.9564 754.47 26.9977 756.733 28.356C758.997 29.7143 760.989 31.299 762.71 33.11V5.02737C762.71 2.68311 764.61 0.782715 766.954 0.782715H781.641C782.813 0.782715 783.763 1.73291 783.763 2.90504V99.1739C783.763 100.346 782.813 101.296 781.641 101.296H767.412C765.156 101.296 763.294 99.5314 763.174 97.2786L762.981 93.6898C760.355 96.5875 757.096 98.8513 753.202 100.481C749.399 102.111 745.324 102.926 740.977 102.926C734.548 102.926 728.753 101.206 723.591 97.7646C718.52 94.2331 714.536 89.4791 711.638 83.5026C708.74 77.4356 707.292 70.7799 707.292 63.5357C707.292 56.2915 708.74 49.6812 711.638 43.7047C714.536 37.6377 718.52 32.8836 723.591 29.4426C728.753 25.9111 734.548 24.1453 740.977 24.1453ZM746.41 85.54C750.214 85.54 753.564 84.3628 756.462 82.0085C759.359 79.6541 761.442 76.4848 762.71 72.5004V54.571C761.804 51.945 760.582 49.6812 759.042 47.7796C757.503 45.7874 755.647 44.248 753.473 43.1614C751.3 42.0747 748.946 41.5314 746.41 41.5314C742.969 41.5314 739.891 42.5275 737.174 44.5197C734.457 46.4213 732.329 49.0473 730.79 52.3977C729.251 55.7482 728.481 59.4609 728.481 63.5357C728.481 67.6106 729.251 71.3233 730.79 74.6737C732.329 78.0242 734.457 80.6955 737.174 82.6876C739.891 84.5892 742.969 85.54 746.41 85.54Z" fill="black"/>
</svg>
