<svg width="202" height="108" viewBox="0 0 202 108" fill="none" xmlns="http://www.w3.org/2000/svg">
<path d="M70.7562 46.4951L91.9123 9.85123C95.4002 3.80996 101.846 0.0883789 108.822 0.0883789H128.314C132.628 0.0883789 136.125 3.58512 136.125 7.89857V46.4951L157.281 9.85123C160.769 3.80996 167.215 0.0883789 174.19 0.0883789H193.683C197.996 0.0883789 201.493 3.58512 201.493 7.89857V38.9699C201.493 43.2834 197.996 46.7801 193.683 46.7801H189.875L162.641 93.9508C158.328 101.422 148.774 103.982 141.303 99.6683L126.043 90.858C120.002 87.3701 116.281 80.9242 116.281 73.9484V61.0277L97.2729 93.9507C92.9595 101.422 83.4062 103.982 75.935 99.6682L60.6749 90.8578C54.6338 87.3699 50.9122 80.924 50.9122 73.9482V61.0277L44.3411 72.4092C42.1844 76.1447 37.4077 77.4246 33.6722 75.2679L6.76376 59.7322C3.02823 57.5755 1.74833 52.7989 3.90503 49.0633L26.5439 9.85121C30.0317 3.80995 36.4777 0.0883789 43.4535 0.0883789H62.946C67.2595 0.0883789 70.7562 3.58512 70.7562 7.89857V46.4951Z" fill="black"/>
</svg>
