<svg width="784" height="144" viewBox="0 0 784 144" fill="none" xmlns="http://www.w3.org/2000/svg">
<path d="M1.68283 29.9769C0.846247 27.2482 2.887 24.488 5.74104 24.488H21.1131C22.0462 24.488 22.8698 25.0974 23.1427 25.9897L36.2664 68.9041L41.1562 94.8475L45.9102 68.9041L58.1903 27.5064C58.722 25.7138 60.3642 24.4803 62.2339 24.4689L79.9065 24.3618C80.8494 24.3561 81.683 24.9731 81.9529 25.8765L94.8087 68.9041L99.5627 91.1801L103.502 68.9041L116.296 27.48C116.846 25.7012 118.49 24.488 120.352 24.488H136.075C137.504 24.488 138.525 25.8723 138.102 27.2378L110.077 117.802C109.802 118.691 108.98 119.297 108.049 119.297H91.2125C89.3204 119.297 87.6568 118.044 87.1334 116.226L74.8418 73.5223L70.0878 50.0239L65.6054 73.5223L51.941 117.8C51.6665 118.69 50.8441 119.297 49.9131 119.297H32.2057C30.3407 119.297 28.6942 118.079 28.1475 116.296L1.68283 29.9769Z" fill="black"/>
<path d="M195.51 119.297C193.248 119.297 191.384 117.523 191.271 115.264L190.793 105.714V57.3586L191.271 47.8084C191.384 45.5494 193.248 43.7757 195.51 43.7757H209.86C211.032 43.7757 211.982 44.7259 211.982 45.8981V117.174C211.982 118.346 211.032 119.297 209.86 119.297H195.51ZM169.196 120.927C162.767 120.927 156.972 119.206 151.81 115.765C146.739 112.234 142.755 107.48 139.857 101.503C136.96 95.4361 135.511 88.7804 135.511 81.5362C135.511 74.292 136.96 67.6817 139.857 61.7052C142.755 55.6381 146.739 50.8841 151.81 47.4431C156.972 43.9116 162.767 42.1458 169.196 42.1458C173.996 42.1458 178.387 43.0966 182.372 44.9982C186.447 46.8998 189.797 49.5258 192.423 52.8763C195.14 56.1362 196.905 59.8036 197.72 63.8784V99.194C196.905 103.269 195.14 106.982 192.423 110.332C189.797 113.592 186.447 116.173 182.372 118.074C178.387 119.976 173.996 120.927 169.196 120.927ZM174.629 103.541C177.98 103.541 181.013 102.59 183.73 100.688C186.447 98.7865 188.529 96.1605 189.978 92.81C191.518 89.4596 192.287 85.7016 192.287 81.5362C192.287 77.3708 191.518 73.6129 189.978 70.2624C188.529 66.912 186.447 64.2859 183.73 62.3843C181.013 60.4827 177.98 59.5319 174.629 59.5319C171.188 59.5319 168.11 60.528 165.393 62.5202C162.676 64.4218 160.549 67.0478 159.009 70.3982C157.47 73.7487 156.7 77.4613 156.7 81.5362C156.7 85.6111 157.47 89.3238 159.009 92.6742C160.549 96.0247 162.676 98.696 165.393 100.688C168.11 102.59 171.188 103.541 174.629 103.541Z" fill="black"/>
<path d="M218.821 49.4444C217.837 46.6807 219.886 43.7757 222.82 43.7757H237.418C238.329 43.7757 239.138 44.3572 239.429 45.2205L251.846 82.0795L256.193 100.824L260.811 82.0795L272.482 46.691C273.055 44.9511 274.681 43.7757 276.513 43.7757H291.9C293.366 43.7757 294.39 45.2256 293.901 46.6069L268.646 117.883C268.346 118.73 267.545 119.297 266.646 119.297H246.691C244.895 119.297 243.294 118.167 242.692 116.476L218.821 49.4444Z" fill="black"/>
<path d="M333.408 120.927C325.44 120.927 318.467 119.342 312.491 116.173C306.605 112.913 302.077 108.34 298.908 102.454C295.738 96.4774 294.154 89.5049 294.154 81.5362C294.154 73.5676 295.784 66.6403 299.044 60.7544C302.394 54.7779 307.103 50.205 313.17 47.0356C319.237 43.7757 326.345 42.1458 334.495 42.1458C342.554 42.1458 349.436 43.8663 355.141 47.3073C360.936 50.7483 365.192 55.6834 367.909 62.1127C370.625 68.5419 371.667 76.1031 371.033 84.7961H310.997L311.132 70.2624H349.436C349.255 67.9986 348.485 66.0064 347.127 64.2859C345.859 62.4749 344.094 61.0713 341.83 60.0752C339.656 59.0792 337.166 58.5811 334.359 58.5811C330.013 58.5811 326.436 59.4866 323.629 61.2977C320.821 63.1087 318.739 65.7801 317.38 69.3116C316.022 72.8432 315.343 77.235 315.343 82.487C315.343 86.5619 316.022 90.2293 317.38 93.4892C318.739 96.7491 320.776 99.3298 323.493 101.231C326.209 103.042 329.515 103.948 333.408 103.948C336.215 103.948 338.751 103.495 341.015 102.59C343.369 101.594 345.271 100.281 346.72 98.6507C347.396 97.8894 347.964 97.0689 348.424 96.1891C349.354 94.4069 351.013 92.9459 353.023 92.9459H368.427C369.679 92.9459 370.665 94.0256 370.46 95.2602C369.669 100.008 367.868 104.217 365.056 107.887C361.797 112.052 357.45 115.267 352.017 117.531C346.584 119.795 340.381 120.927 333.408 120.927Z" fill="black"/>
<path d="M376.634 105.204C376.634 102.86 378.534 100.96 380.878 100.96H417.518C419.692 100.96 421.593 100.507 423.223 99.6015C424.853 98.696 426.121 97.4282 427.026 95.7983C427.932 94.1683 428.385 92.2667 428.385 90.0934C428.385 88.0107 427.932 86.1997 427.026 84.6603C426.121 83.0303 424.853 81.8079 423.223 80.9929C421.593 80.0874 419.692 79.6346 417.518 79.6346H405.837C399.679 79.6346 394.292 78.548 389.673 76.3747C385.146 74.1109 381.614 70.8963 379.079 66.7309C376.543 62.5654 375.276 57.7209 375.276 52.1971C375.276 46.5829 376.498 41.693 378.943 37.5276C381.478 33.3622 385.055 30.1476 389.673 27.8837C394.292 25.6199 399.679 24.488 405.837 24.488H444.599C445.771 24.488 446.722 25.4382 446.722 26.6104V38.5803C446.722 40.9245 444.821 42.8249 442.477 42.8249H405.837C403.935 42.8249 402.26 43.2324 400.811 44.0474C399.453 44.7718 398.366 45.8585 397.551 47.3073C396.736 48.6656 396.329 50.2955 396.329 52.1971C396.329 54.0082 396.691 55.6381 397.416 57.087C398.231 58.4453 399.363 59.4866 400.811 60.2111C402.26 60.9355 403.935 61.2977 405.837 61.2977H417.518C423.948 61.2977 429.562 62.4749 434.361 64.8292C439.16 67.1836 442.873 70.5341 445.499 74.8806C448.125 79.2271 449.438 84.2981 449.438 90.0934C449.438 95.9794 448.125 101.141 445.499 105.578C442.964 110.015 439.251 113.411 434.361 115.765C429.562 118.12 423.948 119.297 417.518 119.297H378.756C377.584 119.297 376.634 118.346 376.634 117.174V105.204Z" fill="black"/>
<path d="M500.845 42.1458C507.274 42.1458 513.025 43.9116 518.096 47.4431C523.257 50.8841 527.287 55.6381 530.184 61.7052C533.082 67.6817 534.531 74.292 534.531 81.5362C534.531 88.7804 533.082 95.4361 530.184 101.503C527.287 107.48 523.257 112.234 518.096 115.765C513.025 119.206 507.274 120.927 500.845 120.927C496.499 120.927 492.469 120.157 488.756 118.618C485.044 117.078 481.874 114.905 479.248 112.098V141.352C479.248 142.524 478.298 143.474 477.126 143.474H462.304C459.959 143.474 458.059 141.574 458.059 139.23V48.0204C458.059 45.6761 459.959 43.7757 462.304 43.7757H476.56C477.687 43.7757 478.617 44.6569 478.679 45.7825L478.977 51.2463C481.603 48.4392 484.772 46.2207 488.485 44.5907C492.288 42.9608 496.408 42.1458 500.845 42.1458ZM495.412 103.541C498.853 103.541 501.932 102.59 504.648 100.688C507.365 98.696 509.493 96.0247 511.032 92.6742C512.572 89.3238 513.341 85.6111 513.341 81.5362C513.341 77.4613 512.572 73.7487 511.032 70.3982C509.493 67.0478 507.365 64.4218 504.648 62.5202C501.932 60.528 498.853 59.5319 495.412 59.5319C492.877 59.5319 490.522 60.0752 488.349 61.1619C486.266 62.1579 484.455 63.6068 482.916 65.5084C481.376 67.41 480.154 69.6285 479.248 72.164V90.9084C480.516 94.8022 482.599 97.881 485.496 100.145C488.394 102.409 491.699 103.541 495.412 103.541Z" fill="black"/>
<path d="M580.071 120.927C572.102 120.927 565.129 119.342 559.153 116.173C553.267 112.913 548.739 108.34 545.57 102.454C542.401 96.4774 540.816 89.5049 540.816 81.5362C540.816 73.5676 542.446 66.6403 545.706 60.7544C549.056 54.7779 553.765 50.205 559.832 47.0356C565.899 43.7757 573.008 42.1458 581.157 42.1458C589.216 42.1458 596.099 43.8663 601.803 47.3073C607.599 50.7483 611.855 55.6834 614.571 62.1127C617.288 68.5419 618.329 76.1031 617.695 84.7961H557.659L557.795 70.2624H596.098C595.917 67.9986 595.148 66.0064 593.789 64.2859C592.522 62.4749 590.756 61.0713 588.492 60.0752C586.319 59.0792 583.829 58.5811 581.021 58.5811C576.675 58.5811 573.098 59.4866 570.291 61.2977C567.484 63.1087 565.401 65.7801 564.043 69.3116C562.685 72.8432 562.005 77.235 562.005 82.487C562.005 86.5619 562.685 90.2293 564.043 93.4892C565.401 96.7491 567.439 99.3298 570.155 101.231C572.872 103.042 576.177 103.948 580.071 103.948C582.878 103.948 585.413 103.495 587.677 102.59C590.031 101.594 591.933 100.281 593.382 98.6507C594.059 97.8894 594.627 97.0689 595.086 96.1891C596.017 94.4069 597.675 92.9459 599.686 92.9459H615.09C616.341 92.9459 617.328 94.0256 617.122 95.2602C616.331 100.008 614.53 104.217 611.719 107.887C608.459 112.052 604.112 115.267 598.679 117.531C593.246 119.795 587.043 120.927 580.071 120.927Z" fill="black"/>
<path d="M663.308 120.927C655.34 120.927 648.367 119.342 642.391 116.173C636.505 112.913 631.977 108.34 628.808 102.454C625.638 96.4774 624.054 89.5049 624.054 81.5362C624.054 73.5676 625.684 66.6403 628.944 60.7544C632.294 54.7779 637.003 50.205 643.07 47.0356C649.137 43.7757 656.245 42.1458 664.395 42.1458C672.454 42.1458 679.336 43.8663 685.041 47.3073C690.836 50.7483 695.092 55.6834 697.809 62.1127C700.526 68.5419 701.567 76.1031 700.933 84.7961H640.897L641.032 70.2624H679.336C679.155 67.9986 678.385 66.0064 677.027 64.2859C675.759 62.4749 673.994 61.0713 671.73 60.0752C669.557 59.0792 667.066 58.5811 664.259 58.5811C659.913 58.5811 656.336 59.4866 653.529 61.2977C650.722 63.1087 648.639 65.7801 647.281 69.3116C645.922 72.8432 645.243 77.235 645.243 82.487C645.243 86.5619 645.922 90.2293 647.281 93.4892C648.639 96.7491 650.676 99.3298 653.393 101.231C656.109 103.042 659.415 103.948 663.308 103.948C666.116 103.948 668.651 103.495 670.915 102.59C673.269 101.594 675.171 100.281 676.62 98.6507C677.296 97.8894 677.864 97.0689 678.324 96.1891C679.254 94.4069 680.913 92.9459 682.924 92.9459H698.327C699.579 92.9459 700.566 94.0256 700.36 95.2602C699.569 100.008 697.768 104.217 694.957 107.887C691.697 112.052 687.35 115.267 681.917 117.531C676.484 119.795 670.281 120.927 663.308 120.927Z" fill="black"/>
<path d="M740.977 42.1458C743.875 42.1458 746.637 42.508 749.263 43.2324C751.979 43.9568 754.469 44.9982 756.733 46.3565C758.997 47.7148 760.989 49.2995 762.71 51.1105V23.0279C762.71 20.6836 764.61 18.7832 766.954 18.7832H781.641C782.813 18.7832 783.763 19.7334 783.763 20.9055V117.174C783.763 118.346 782.813 119.297 781.641 119.297H767.412C765.156 119.297 763.294 117.532 763.174 115.279L762.981 111.69C760.355 114.588 757.096 116.852 753.202 118.482C749.399 120.112 745.324 120.927 740.977 120.927C734.548 120.927 728.753 119.206 723.591 115.765C718.52 112.234 714.536 107.48 711.638 101.503C708.74 95.4361 707.292 88.7804 707.292 81.5362C707.292 74.292 708.74 67.6817 711.638 61.7052C714.536 55.6381 718.52 50.8841 723.591 47.4431C728.753 43.9116 734.548 42.1458 740.977 42.1458ZM746.41 103.541C750.214 103.541 753.564 102.363 756.462 100.009C759.359 97.6546 761.442 94.4853 762.71 90.5009V72.5715C761.804 69.9455 760.582 67.6817 759.042 65.78C757.503 63.7879 755.647 62.2485 753.473 61.1619C751.3 60.0752 748.946 59.5319 746.41 59.5319C742.969 59.5319 739.891 60.528 737.174 62.5202C734.457 64.4218 732.329 67.0478 730.79 70.3982C729.251 73.7487 728.481 77.4613 728.481 81.5362C728.481 85.6111 729.251 89.3238 730.79 92.6742C732.329 96.0247 734.457 98.696 737.174 100.688C739.891 102.59 742.969 103.541 746.41 103.541Z" fill="black"/>
</svg>
