<svg xmlns="http://www.w3.org/2000/svg" width="784" height="144" fill="none" viewBox="0 0 784 144"><path fill="#000" d="M1.683 29.977c-.837-2.729 1.204-5.489 4.058-5.489h15.372c.933 0 1.757.61 2.03 1.502l13.123 42.914 4.89 25.944 4.754-25.944 12.28-41.398a4.245 4.245 0 0 1 4.044-3.037l17.672-.107a2.122 2.122 0 0 1 2.047 1.515l12.856 43.027 4.754 22.276 3.939-22.276 12.794-41.424a4.245 4.245 0 0 1 4.056-2.992h15.723a2.122 2.122 0 0 1 2.027 2.75l-28.025 90.564a2.122 2.122 0 0 1-2.028 1.495H91.212a4.245 4.245 0 0 1-4.079-3.071L74.842 73.522l-4.754-23.498-4.483 23.498L51.941 117.8a2.122 2.122 0 0 1-2.028 1.497H32.206a4.245 4.245 0 0 1-4.059-3.001L1.684 29.976ZM195.51 119.297a4.245 4.245 0 0 1-4.239-4.033l-.478-9.55V57.359l.478-9.55a4.244 4.244 0 0 1 4.239-4.033h14.35c1.172 0 2.122.95 2.122 2.122v71.276c0 1.172-.95 2.123-2.122 2.123h-14.35Zm-26.314 1.63c-6.429 0-12.224-1.721-17.386-5.162-5.071-3.531-9.055-8.285-11.953-14.262-2.897-6.067-4.346-12.723-4.346-19.967 0-7.244 1.449-13.854 4.346-19.83 2.898-6.068 6.882-10.822 11.953-14.263 5.162-3.531 10.957-5.297 17.386-5.297 4.8 0 9.191.95 13.176 2.852 4.075 1.902 7.425 4.528 10.051 7.878 2.717 3.26 4.482 6.928 5.297 11.002v35.316c-.815 4.075-2.58 7.788-5.297 11.138-2.626 3.26-5.976 5.841-10.051 7.742-3.985 1.902-8.376 2.853-13.176 2.853Zm5.433-17.386c3.351 0 6.384-.951 9.101-2.853 2.717-1.901 4.799-4.528 6.248-7.878 1.54-3.35 2.309-7.108 2.309-11.274 0-4.165-.769-7.923-2.309-11.274-1.449-3.35-3.531-5.976-6.248-7.878-2.717-1.901-5.75-2.852-9.101-2.852-3.441 0-6.519.996-9.236 2.988-2.717 1.902-4.844 4.528-6.384 7.878-1.539 3.35-2.309 7.063-2.309 11.138s.77 7.788 2.309 11.138c1.54 3.35 3.667 6.022 6.384 8.014 2.717 1.902 5.795 2.853 9.236 2.853ZM218.821 49.444c-.984-2.763 1.065-5.668 3.999-5.668h14.598c.911 0 1.72.581 2.011 1.444l12.417 36.86 4.347 18.744 4.618-18.745 11.671-35.388a4.244 4.244 0 0 1 4.031-2.915H291.9c1.466 0 2.49 1.45 2.001 2.83l-25.255 71.277a2.122 2.122 0 0 1-2 1.414h-19.955a4.245 4.245 0 0 1-3.999-2.821l-23.871-67.032ZM333.408 120.927c-7.968 0-14.941-1.585-20.917-4.754-5.886-3.26-10.414-7.833-13.583-13.719-3.17-5.977-4.754-12.95-4.754-20.918s1.63-14.896 4.89-20.782c3.35-5.976 8.059-10.549 14.126-13.718 6.067-3.26 13.175-4.89 21.325-4.89 8.059 0 14.941 1.72 20.646 5.161 5.795 3.441 10.051 8.376 12.768 14.806 2.716 6.429 3.758 13.99 3.124 22.683h-60.036l.135-14.534h38.304c-.181-2.263-.951-4.256-2.309-5.976-1.268-1.811-3.033-3.215-5.297-4.21-2.174-.997-4.664-1.495-7.471-1.495-4.346 0-7.923.906-10.73 2.717-2.808 1.81-4.89 4.482-6.249 8.014-1.358 3.531-2.037 7.923-2.037 13.175 0 4.075.679 7.742 2.037 11.002 1.359 3.26 3.396 5.84 6.113 7.742 2.716 1.811 6.022 2.717 9.915 2.717 2.807 0 5.343-.453 7.607-1.358 2.354-.996 4.256-2.309 5.705-3.94a12.238 12.238 0 0 0 1.704-2.46c.93-1.783 2.589-3.244 4.599-3.244h15.404c1.252 0 2.238 1.08 2.033 2.314-.791 4.748-2.592 8.957-5.404 12.627-3.259 4.165-7.606 7.38-13.039 9.644-5.433 2.264-11.636 3.396-18.609 3.396ZM376.634 105.204c0-2.344 1.9-4.244 4.244-4.244h36.64c2.174 0 4.075-.453 5.705-1.358a9.6 9.6 0 0 0 3.803-3.804c.906-1.63 1.359-3.531 1.359-5.705 0-2.082-.453-3.893-1.359-5.433-.905-1.63-2.173-2.852-3.803-3.667-1.63-.906-3.531-1.358-5.705-1.358h-11.681c-6.158 0-11.545-1.087-16.164-3.26-4.527-2.264-8.059-5.479-10.594-9.644-2.536-4.166-3.804-9.01-3.804-14.534 0-5.614 1.223-10.504 3.668-14.67 2.535-4.165 6.112-7.38 10.73-9.643 4.619-2.264 10.006-3.396 16.164-3.396h38.762c1.172 0 2.123.95 2.123 2.122v11.97a4.245 4.245 0 0 1-4.245 4.245h-36.64c-1.902 0-3.577.407-5.026 1.222-1.358.725-2.445 1.812-3.26 3.26-.815 1.359-1.222 2.988-1.222 4.89 0 1.811.362 3.441 1.087 4.89.815 1.358 1.947 2.4 3.395 3.124 1.449.724 3.124 1.087 5.026 1.087h11.681c6.43 0 12.044 1.177 16.843 3.531 4.799 2.355 8.512 5.705 11.138 10.052 2.626 4.346 3.939 9.417 3.939 15.212 0 5.886-1.313 11.048-3.939 15.485-2.535 4.437-6.248 7.833-11.138 10.187-4.799 2.355-10.413 3.532-16.843 3.532h-38.762a2.123 2.123 0 0 1-2.122-2.123v-11.97ZM500.845 42.146c6.429 0 12.18 1.766 17.251 5.297 5.161 3.441 9.191 8.195 12.088 14.262 2.898 5.977 4.347 12.587 4.347 19.831s-1.449 13.9-4.347 19.967c-2.897 5.977-6.927 10.731-12.088 14.262-5.071 3.441-10.822 5.162-17.251 5.162-4.346 0-8.376-.77-12.089-2.309-3.712-1.54-6.882-3.713-9.508-6.52v29.254c0 1.172-.95 2.122-2.122 2.122h-14.822a4.244 4.244 0 0 1-4.245-4.244V48.02c0-2.344 1.9-4.244 4.245-4.244h14.256c1.127 0 2.057.88 2.119 2.006l.298 5.464c2.626-2.807 5.795-5.025 9.508-6.655 3.803-1.63 7.923-2.445 12.36-2.445Zm-5.433 61.395c3.441 0 6.52-.951 9.236-2.853 2.717-1.992 4.845-4.663 6.384-8.014 1.54-3.35 2.309-7.063 2.309-11.138s-.769-7.787-2.309-11.138c-1.539-3.35-3.667-5.976-6.384-7.878-2.716-1.992-5.795-2.988-9.236-2.988-2.535 0-4.89.543-7.063 1.63-2.083.996-3.894 2.445-5.433 4.346-1.54 1.902-2.762 4.12-3.668 6.656v18.744c1.268 3.894 3.351 6.973 6.248 9.237 2.898 2.264 6.203 3.396 9.916 3.396ZM580.071 120.927c-7.969 0-14.942-1.585-20.918-4.754-5.886-3.26-10.414-7.833-13.583-13.719-3.169-5.977-4.754-12.95-4.754-20.918s1.63-14.896 4.89-20.782c3.35-5.976 8.059-10.549 14.126-13.718 6.067-3.26 13.176-4.89 21.325-4.89 8.06 0 14.942 1.72 20.646 5.161 5.796 3.441 10.052 8.376 12.768 14.806 2.717 6.429 3.758 13.99 3.124 22.683h-60.036l.136-14.534h38.303c-.181-2.263-.95-4.256-2.309-5.976-1.267-1.811-3.033-3.215-5.297-4.21-2.173-.997-4.663-1.495-7.47-1.495-4.347 0-7.924.906-10.731 2.717-2.807 1.81-4.89 4.482-6.248 8.014-1.358 3.531-2.038 7.923-2.038 13.175 0 4.075.68 7.742 2.038 11.002 1.358 3.26 3.396 5.84 6.112 7.742 2.717 1.811 6.022 2.717 9.916 2.717 2.807 0 5.342-.453 7.606-1.358 2.354-.996 4.256-2.309 5.705-3.94a12.157 12.157 0 0 0 1.704-2.46c.931-1.783 2.589-3.244 4.6-3.244h15.404c1.251 0 2.238 1.08 2.032 2.314-.791 4.748-2.592 8.957-5.403 12.627-3.26 4.165-7.607 7.38-13.04 9.644-5.433 2.264-11.636 3.396-18.608 3.396ZM663.308 120.927c-7.968 0-14.941-1.585-20.917-4.754-5.886-3.26-10.414-7.833-13.583-13.719-3.17-5.977-4.754-12.95-4.754-20.918s1.63-14.896 4.89-20.782c3.35-5.976 8.059-10.549 14.126-13.718 6.067-3.26 13.175-4.89 21.325-4.89 8.059 0 14.941 1.72 20.646 5.161 5.795 3.441 10.051 8.376 12.768 14.806 2.717 6.429 3.758 13.99 3.124 22.683h-60.036l.135-14.534h38.304c-.181-2.263-.951-4.256-2.309-5.976-1.268-1.811-3.033-3.215-5.297-4.21-2.173-.997-4.664-1.495-7.471-1.495-4.346 0-7.923.906-10.73 2.717-2.807 1.81-4.89 4.482-6.248 8.014-1.359 3.531-2.038 7.923-2.038 13.175 0 4.075.679 7.742 2.038 11.002 1.358 3.26 3.395 5.84 6.112 7.742 2.716 1.811 6.022 2.717 9.915 2.717 2.808 0 5.343-.453 7.607-1.358 2.354-.996 4.256-2.309 5.705-3.94a12.238 12.238 0 0 0 1.704-2.46c.93-1.783 2.589-3.244 4.6-3.244h15.403c1.252 0 2.239 1.08 2.033 2.314-.791 4.748-2.592 8.957-5.403 12.627-3.26 4.165-7.607 7.38-13.04 9.644-5.433 2.264-11.636 3.396-18.609 3.396ZM740.977 42.146c2.898 0 5.66.362 8.286 1.086 2.716.725 5.207 1.766 7.47 3.124 2.264 1.359 4.256 2.944 5.977 4.755V23.028c0-2.344 1.9-4.245 4.244-4.245h14.687c1.172 0 2.122.95 2.122 2.122v96.269c0 1.172-.95 2.123-2.122 2.123h-14.229a4.244 4.244 0 0 1-4.238-4.018l-.193-3.589c-2.626 2.898-5.885 5.162-9.779 6.792-3.803 1.63-7.878 2.445-12.225 2.445-6.429 0-12.224-1.721-17.386-5.162-5.071-3.531-9.055-8.285-11.953-14.262-2.898-6.067-4.346-12.723-4.346-19.967 0-7.244 1.448-13.854 4.346-19.83 2.898-6.068 6.882-10.822 11.953-14.263 5.162-3.531 10.957-5.297 17.386-5.297Zm5.433 61.395c3.804 0 7.154-1.178 10.052-3.532 2.897-2.354 4.98-5.524 6.248-9.508V72.57c-.906-2.626-2.128-4.89-3.668-6.791-1.539-1.992-3.395-3.532-5.569-4.618-2.173-1.087-4.527-1.63-7.063-1.63-3.441 0-6.519.996-9.236 2.988-2.717 1.902-4.845 4.528-6.384 7.878-1.539 3.35-2.309 7.063-2.309 11.138s.77 7.788 2.309 11.138c1.539 3.35 3.667 6.022 6.384 8.014 2.717 1.902 5.795 2.853 9.236 2.853Z"/></svg>