<svg width="2917" height="533" viewBox="0 0 2917 533" fill="none" xmlns="http://www.w3.org/2000/svg">
<path d="M6.26215 110.654C3.14905 100.5 10.7431 90.2288 21.3635 90.2288H78.5661C82.0382 90.2288 85.1031 92.4965 86.1185 95.8168L134.954 255.51L153.15 352.05L170.841 255.51L216.537 101.461C218.516 94.7901 224.627 90.1999 231.585 90.1577L297.348 89.7592C300.856 89.7379 303.958 92.0339 304.963 95.3957L352.802 255.51L370.492 338.403L385.15 255.51L432.762 101.363C434.806 94.7433 440.925 90.2288 447.853 90.2288H506.361C511.68 90.2288 515.478 95.3799 513.905 100.461L409.617 437.468C408.593 440.775 405.535 443.031 402.072 443.031H339.42C332.379 443.031 326.188 438.37 324.241 431.604L278.501 272.695L260.81 185.253L244.131 272.695L193.283 437.462C192.261 440.772 189.201 443.031 185.736 443.031H119.844C112.904 443.031 106.777 438.5 104.742 431.865L6.26215 110.654Z" fill="black"/>
<path d="M727.531 443.031C719.114 443.031 712.176 436.43 711.756 428.024L709.979 392.486V212.547L711.756 177.009C712.176 168.602 719.114 162.002 727.531 162.002H780.931C785.293 162.002 788.828 165.538 788.828 169.9V435.133C788.828 439.495 785.293 443.031 780.931 443.031H727.531ZM629.613 449.096C605.688 449.096 584.123 442.694 564.916 429.889C546.046 416.747 531.219 399.057 520.436 376.817C509.653 354.24 504.262 329.473 504.262 302.516C504.262 275.559 509.653 250.961 520.436 228.721C531.219 206.145 546.046 188.454 564.916 175.649C584.123 162.508 605.688 155.937 629.613 155.937C647.472 155.937 663.815 159.475 678.641 166.551C693.804 173.627 706.272 183.399 716.044 195.867C726.153 207.998 732.724 221.645 735.757 236.808V368.224C732.724 383.388 726.153 397.203 716.044 409.671C706.272 421.802 693.804 431.405 678.641 438.481C663.815 445.558 647.472 449.096 629.613 449.096ZM649.831 384.399C662.298 384.399 673.587 380.861 683.696 373.784C693.804 366.708 701.555 356.936 706.946 344.468C712.674 332.001 715.539 318.017 715.539 302.516C715.539 287.016 712.674 273.032 706.946 260.564C701.555 248.097 693.804 238.325 683.696 231.248C673.587 224.172 662.298 220.634 649.831 220.634C637.026 220.634 625.569 224.341 615.46 231.754C605.351 238.83 597.433 248.602 591.704 261.07C585.976 273.537 583.112 287.353 583.112 302.516C583.112 317.68 585.976 331.495 591.704 343.963C597.433 356.431 605.351 366.371 615.46 373.784C625.569 380.861 637.026 384.399 649.831 384.399Z" fill="black"/>
<path d="M814.276 183.096C810.614 172.812 818.239 162.002 829.156 162.002H883.479C886.869 162.002 889.881 164.166 890.963 167.378L937.169 304.538L953.343 374.29L970.529 304.538L1013.96 172.85C1016.09 166.376 1022.14 162.002 1028.96 162.002H1086.22C1091.67 162.002 1095.48 167.397 1093.66 172.537L999.686 437.77C998.569 440.923 995.587 443.031 992.242 443.031H917.984C911.304 443.031 905.346 438.828 903.104 432.534L814.276 183.096Z" fill="black"/>
<path d="M1240.68 449.096C1211.03 449.096 1185.08 443.199 1162.84 431.405C1140.94 419.275 1124.09 402.258 1112.29 380.355C1100.5 358.115 1094.6 332.169 1094.6 302.516C1094.6 272.863 1100.67 247.086 1112.8 225.183C1125.27 202.943 1142.79 185.927 1165.37 174.133C1187.94 162.002 1214.39 155.937 1244.72 155.937C1274.71 155.937 1300.32 162.339 1321.55 175.144C1343.12 187.948 1358.95 206.313 1369.06 230.237C1379.17 254.162 1383.05 282.298 1380.69 314.647H1157.28L1157.78 260.564H1300.32C1299.65 252.14 1296.78 244.727 1291.73 238.325C1287.01 231.585 1280.44 226.362 1272.02 222.656C1263.93 218.949 1254.66 217.096 1244.22 217.096C1228.04 217.096 1214.73 220.465 1204.29 227.205C1193.84 233.944 1186.09 243.885 1181.04 257.026C1175.98 270.168 1173.45 286.511 1173.45 306.054C1173.45 321.218 1175.98 334.865 1181.04 346.996C1186.09 359.126 1193.67 368.73 1203.78 375.806C1213.89 382.545 1226.19 385.915 1240.68 385.915C1251.12 385.915 1260.56 384.23 1268.98 380.861C1277.74 377.154 1284.82 372.268 1290.21 366.203C1292.73 363.37 1294.84 360.316 1296.55 357.043C1300.02 350.411 1306.19 344.974 1313.67 344.974H1370.99C1375.65 344.974 1379.32 348.992 1378.55 353.586C1375.61 371.253 1368.91 386.915 1358.45 400.573C1346.32 416.073 1330.14 428.036 1309.92 436.46C1289.71 444.884 1266.62 449.096 1240.68 449.096Z" fill="black"/>
<path d="M1401.53 390.59C1401.53 381.867 1408.6 374.795 1417.32 374.795H1553.67C1561.76 374.795 1568.83 373.11 1574.9 369.741C1580.96 366.371 1585.68 361.654 1589.05 355.588C1592.42 349.523 1594.1 342.447 1594.1 334.359C1594.1 326.609 1592.42 319.87 1589.05 314.142C1585.68 308.076 1580.96 303.527 1574.9 300.495C1568.83 297.125 1561.76 295.44 1553.67 295.44H1510.2C1487.29 295.44 1467.24 291.397 1450.05 283.309C1433.2 274.885 1420.06 262.923 1410.63 247.423C1401.19 231.922 1396.47 213.895 1396.47 193.34C1396.47 172.448 1401.02 154.252 1410.12 138.752C1419.56 123.251 1432.87 111.289 1450.05 102.865C1467.24 94.4408 1487.29 90.2288 1510.2 90.2288H1654.44C1658.8 90.2288 1662.34 93.7646 1662.34 98.1264V142.669C1662.34 151.392 1655.27 158.464 1646.54 158.464H1510.2C1503.12 158.464 1496.89 159.98 1491.5 163.013C1486.44 165.709 1482.4 169.752 1479.37 175.144C1476.33 180.198 1474.82 186.264 1474.82 193.34C1474.82 200.079 1476.17 206.145 1478.86 211.536C1481.89 216.59 1486.11 220.465 1491.5 223.161C1496.89 225.857 1503.12 227.205 1510.2 227.205H1553.67C1577.59 227.205 1598.48 231.585 1616.34 240.346C1634.2 249.107 1648.02 261.575 1657.79 277.749C1667.56 293.924 1672.45 312.794 1672.45 334.359C1672.45 356.262 1667.56 375.469 1657.79 391.98C1648.35 408.492 1634.54 421.128 1616.34 429.889C1598.48 438.65 1577.59 443.031 1553.67 443.031H1409.43C1405.06 443.031 1401.53 439.495 1401.53 435.133V390.59Z" fill="black"/>
<path d="M1863.74 155.937C1887.67 155.937 1909.07 162.508 1927.94 175.649C1947.14 188.454 1962.14 206.145 1972.92 228.721C1983.7 250.961 1989.09 275.559 1989.09 302.516C1989.09 329.473 1983.7 354.24 1972.92 376.817C1962.14 399.057 1947.14 416.747 1927.94 429.889C1909.07 442.694 1887.67 449.096 1863.74 449.096C1847.57 449.096 1832.57 446.232 1818.76 440.503C1804.94 434.775 1793.15 426.688 1783.38 416.242V525.102C1783.38 529.464 1779.84 533 1775.48 533H1720.32C1711.6 533 1704.53 525.928 1704.53 517.205V177.797C1704.53 169.074 1711.6 162.002 1720.32 162.002H1773.37C1777.57 162.002 1781.03 165.281 1781.26 169.47L1782.37 189.802C1792.14 179.356 1803.93 171.1 1817.75 165.035C1831.9 158.969 1847.23 155.937 1863.74 155.937ZM1843.53 384.399C1856.33 384.399 1867.79 380.861 1877.9 373.784C1888.01 366.371 1895.92 356.431 1901.65 343.963C1907.38 331.495 1910.24 317.68 1910.24 302.516C1910.24 287.353 1907.38 273.537 1901.65 261.07C1895.92 248.602 1888.01 238.83 1877.9 231.754C1867.79 224.341 1856.33 220.634 1843.53 220.634C1834.09 220.634 1825.33 222.656 1817.24 226.699C1809.49 230.406 1802.75 235.797 1797.02 242.874C1791.3 249.95 1786.75 258.206 1783.38 267.641V337.392C1788.1 351.882 1795.85 363.338 1806.63 371.763C1817.41 380.187 1829.71 384.399 1843.53 384.399Z" fill="black"/>
<path d="M2158.56 449.096C2128.9 449.096 2102.96 443.199 2080.72 431.405C2058.82 419.275 2041.97 402.258 2030.17 380.355C2018.38 358.115 2012.48 332.169 2012.48 302.516C2012.48 272.863 2018.55 247.086 2030.68 225.183C2043.15 202.943 2060.67 185.927 2083.25 174.133C2105.82 162.002 2132.27 155.937 2162.6 155.937C2192.59 155.937 2218.2 162.339 2239.43 175.144C2260.99 187.948 2276.83 206.313 2286.94 230.237C2297.05 254.162 2300.92 282.298 2298.57 314.647H2075.16L2075.66 260.564H2218.2C2217.53 252.14 2214.66 244.727 2209.61 238.325C2204.89 231.585 2198.32 226.362 2189.9 222.656C2181.81 218.949 2172.54 217.096 2162.1 217.096C2145.92 217.096 2132.61 220.465 2122.17 227.205C2111.72 233.944 2103.97 243.885 2098.91 257.026C2093.86 270.168 2091.33 286.511 2091.33 306.054C2091.33 321.218 2093.86 334.865 2098.91 346.996C2103.97 359.126 2111.55 368.73 2121.66 375.806C2131.77 382.545 2144.07 385.915 2158.56 385.915C2169 385.915 2178.44 384.23 2186.86 380.861C2195.62 377.154 2202.7 372.268 2208.09 366.203C2210.61 363.37 2212.72 360.316 2214.43 357.043C2217.9 350.411 2224.07 344.974 2231.55 344.974H2288.87C2293.53 344.974 2297.2 348.992 2296.43 353.586C2293.49 371.253 2286.79 386.915 2276.33 400.573C2264.2 416.073 2248.02 428.036 2227.8 436.46C2207.59 444.884 2184.5 449.096 2158.56 449.096Z" fill="black"/>
<path d="M2468.3 449.096C2438.65 449.096 2412.7 443.199 2390.46 431.405C2368.56 419.275 2351.71 402.258 2339.92 380.355C2328.12 358.115 2322.23 332.169 2322.23 302.516C2322.23 272.863 2328.29 247.086 2340.42 225.183C2352.89 202.943 2370.41 185.927 2392.99 174.133C2415.57 162.002 2442.02 155.937 2472.34 155.937C2502.33 155.937 2527.94 162.339 2549.17 175.144C2570.74 187.948 2586.58 206.313 2596.68 230.237C2606.79 254.162 2610.67 282.298 2608.31 314.647H2384.9L2385.41 260.564H2527.94C2527.27 252.14 2524.41 244.727 2519.35 238.325C2514.63 231.585 2508.06 226.362 2499.64 222.656C2491.55 218.949 2482.29 217.096 2471.84 217.096C2455.67 217.096 2442.36 220.465 2431.91 227.205C2421.46 233.944 2413.71 243.885 2408.66 257.026C2403.6 270.168 2401.08 286.511 2401.08 306.054C2401.08 321.218 2403.6 334.865 2408.66 346.996C2413.71 359.126 2421.29 368.73 2431.4 375.806C2441.51 382.545 2453.81 385.915 2468.3 385.915C2478.75 385.915 2488.18 384.23 2496.61 380.861C2505.37 377.154 2512.44 372.268 2517.83 366.203C2520.35 363.37 2522.47 360.316 2524.18 357.043C2527.64 350.411 2533.81 344.974 2541.29 344.974H2598.61C2603.27 344.974 2606.94 348.992 2606.18 353.586C2603.23 371.253 2596.53 386.915 2586.07 400.573C2573.94 416.073 2557.77 428.036 2537.55 436.46C2517.33 444.884 2494.25 449.096 2468.3 449.096Z" fill="black"/>
<path d="M2757.32 155.937C2768.1 155.937 2778.38 157.285 2788.15 159.98C2798.26 162.676 2807.53 166.551 2815.95 171.606C2824.38 176.66 2831.79 182.557 2838.19 189.296V84.7952C2838.19 76.0717 2845.27 69 2853.99 69H2908.64C2913 69 2916.54 72.5359 2916.54 76.8976V435.133C2916.54 439.495 2913 443.031 2908.64 443.031H2855.69C2847.3 443.031 2840.37 436.463 2839.92 428.08L2839.2 414.725C2829.43 425.508 2817.3 433.932 2802.81 439.998C2788.66 446.063 2773.5 449.096 2757.32 449.096C2733.4 449.096 2711.83 442.694 2692.62 429.889C2673.75 416.747 2658.93 399.057 2648.15 376.817C2637.36 354.24 2631.97 329.473 2631.97 302.516C2631.97 275.559 2637.36 250.961 2648.15 228.721C2658.93 206.145 2673.75 188.454 2692.62 175.649C2711.83 162.508 2733.4 155.937 2757.32 155.937ZM2777.54 384.399C2791.69 384.399 2804.16 380.018 2814.94 371.257C2825.73 362.496 2833.48 350.702 2838.19 335.876V269.157C2834.82 259.385 2830.28 250.961 2824.55 243.885C2818.82 236.471 2811.91 230.743 2803.82 226.699C2795.74 222.656 2786.97 220.634 2777.54 220.634C2764.74 220.634 2753.28 224.341 2743.17 231.754C2733.06 238.83 2725.14 248.602 2719.41 261.07C2713.69 273.537 2710.82 287.353 2710.82 302.516C2710.82 317.68 2713.69 331.495 2719.41 343.963C2725.14 356.431 2733.06 366.371 2743.17 373.784C2753.28 380.861 2764.74 384.399 2777.54 384.399Z" fill="black"/>
</svg>
