<svg width="3225" height="589" viewBox="0 0 3225 589" fill="none" xmlns="http://www.w3.org/2000/svg">
<path d="M0.936528 121.134C-2.51137 109.888 5.89937 98.5118 17.662 98.5118H81.0164C84.8619 98.5118 88.2564 101.023 89.3809 104.701L143.469 281.568L163.622 388.491L183.215 281.568L233.826 110.952C236.017 103.564 242.785 98.4799 250.491 98.4332L323.327 97.9917C327.213 97.9682 330.648 100.511 331.761 104.234L384.745 281.568L404.338 373.376L420.572 281.568L473.304 110.843C475.568 103.512 482.345 98.5118 490.018 98.5118H554.818C560.709 98.5118 564.916 104.217 563.174 109.845L447.67 483.094C446.536 486.758 443.149 489.255 439.314 489.255H369.923C362.125 489.255 355.269 484.094 353.112 476.6L302.453 300.601L282.86 203.755L264.387 300.601L208.07 483.088C206.939 486.755 203.549 489.255 199.712 489.255H126.733C119.047 489.255 112.261 484.238 110.008 476.889L0.936528 121.134Z" fill="black"/>
<path d="M799.774 489.255C790.452 489.255 782.768 481.946 782.302 472.635L780.334 433.275V233.985L782.302 194.624C782.768 185.314 790.452 178.004 799.774 178.004H858.917C863.747 178.004 867.664 181.92 867.664 186.751V480.509C867.664 485.339 863.747 489.255 858.917 489.255H799.774ZM691.325 495.973C664.828 495.973 640.943 488.882 619.67 474.701C598.771 460.146 582.35 440.552 570.407 415.921C558.465 390.916 552.494 363.486 552.494 333.63C552.494 303.774 558.465 276.53 570.407 251.898C582.35 226.894 598.771 207.301 619.67 193.119C640.943 178.564 664.828 171.286 691.325 171.286C711.105 171.286 729.205 175.205 745.626 183.042C762.42 190.88 776.229 201.702 787.052 215.511C798.248 228.946 805.525 244.061 808.884 260.855V406.404C805.525 423.199 798.248 438.5 787.052 452.308C776.229 465.744 762.42 476.38 745.626 484.217C729.205 492.055 711.105 495.973 691.325 495.973ZM713.717 424.318C727.526 424.318 740.028 420.4 751.224 412.562C762.42 404.725 771.004 393.902 776.975 380.094C783.32 366.285 786.492 350.797 786.492 333.63C786.492 316.462 783.32 300.975 776.975 287.166C771.004 273.357 762.42 262.535 751.224 254.697C740.028 246.86 727.526 242.941 713.717 242.941C699.536 242.941 686.847 247.047 675.651 255.257C664.454 263.094 655.684 273.917 649.34 287.726C642.995 301.534 639.823 316.836 639.823 333.63C639.823 350.424 642.995 365.725 649.34 379.534C655.684 393.342 664.454 404.352 675.651 412.562C686.847 420.4 699.536 424.318 713.717 424.318Z" fill="black"/>
<path d="M895.848 201.367C891.792 189.977 900.237 178.004 912.328 178.004H972.493C976.247 178.004 979.583 180.4 980.782 183.959L1031.96 335.869L1049.87 413.122L1068.9 335.869L1117 190.019C1119.37 182.848 1126.07 178.004 1133.62 178.004H1197.04C1203.08 178.004 1207.3 183.979 1205.28 189.672L1101.2 483.43C1099.96 486.922 1096.66 489.255 1092.95 489.255H1010.71C1003.31 489.255 996.712 484.601 994.229 477.63L895.848 201.367Z" fill="black"/>
<path d="M1368.11 495.973C1335.27 495.973 1306.53 489.442 1281.9 476.38C1257.64 462.945 1238.98 444.098 1225.92 419.84C1212.85 395.208 1206.32 366.472 1206.32 333.63C1206.32 300.788 1213.04 272.238 1226.48 247.98C1240.29 223.348 1259.69 204.501 1284.7 191.439C1309.7 178.004 1339 171.286 1372.59 171.286C1405.8 171.286 1434.16 178.377 1457.68 192.559C1481.56 206.741 1499.1 227.08 1510.3 253.578C1521.49 280.075 1525.79 311.238 1523.17 347.065H1275.74L1276.3 287.166H1434.16C1433.42 277.836 1430.25 269.625 1424.65 262.535C1419.42 255.071 1412.15 249.286 1402.81 245.181C1393.86 241.075 1383.59 239.023 1372.03 239.023C1354.11 239.023 1339.37 242.755 1327.8 250.219C1316.23 257.683 1307.65 268.692 1302.05 283.247C1296.45 297.802 1293.65 315.903 1293.65 337.548C1293.65 354.343 1296.45 369.457 1302.05 382.893C1307.65 396.328 1316.05 406.964 1327.24 414.801C1338.44 422.266 1352.06 425.998 1368.11 425.998C1379.68 425.998 1390.13 424.132 1399.46 420.4C1409.16 416.294 1417 410.883 1422.97 404.165C1425.76 401.028 1428.1 397.646 1429.99 394.02C1433.83 386.675 1440.66 380.653 1448.95 380.653H1512.43C1517.59 380.653 1521.66 385.104 1520.81 390.192C1517.55 409.759 1510.13 427.106 1498.54 442.232C1485.11 459.399 1467.19 472.648 1444.8 481.978C1422.41 491.308 1396.84 495.973 1368.11 495.973Z" fill="black"/>
<path d="M1546.26 431.176C1546.26 421.514 1554.09 413.682 1563.75 413.682H1714.76C1723.71 413.682 1731.55 411.816 1738.27 408.084C1744.99 404.352 1750.21 399.127 1753.94 392.409C1757.68 385.692 1759.54 377.854 1759.54 368.897C1759.54 360.314 1757.68 352.85 1753.94 346.505C1750.21 339.788 1744.99 334.749 1738.27 331.391C1731.55 327.659 1723.71 325.792 1714.76 325.792H1666.61C1641.24 325.792 1619.03 321.314 1600 312.357C1581.34 303.027 1566.78 289.778 1556.33 272.611C1545.88 255.444 1540.66 235.477 1540.66 212.712C1540.66 189.573 1545.7 169.42 1555.77 152.253C1566.22 135.086 1580.96 121.837 1600 112.507C1619.03 103.177 1641.24 98.5118 1666.61 98.5118H1826.37C1831.2 98.5118 1835.12 102.428 1835.12 107.259V156.592C1835.12 166.253 1827.28 174.085 1817.62 174.085H1666.61C1658.78 174.085 1651.87 175.765 1645.9 179.124C1640.3 182.109 1635.82 186.588 1632.47 192.559C1629.11 198.157 1627.43 204.875 1627.43 212.712C1627.43 220.176 1628.92 226.894 1631.91 232.865C1635.27 238.463 1639.93 242.755 1645.9 245.74C1651.87 248.726 1658.78 250.219 1666.61 250.219H1714.76C1741.25 250.219 1764.39 255.071 1784.17 264.774C1803.95 274.477 1819.25 288.286 1830.08 306.199C1840.9 324.113 1846.31 345.012 1846.31 368.897C1846.31 393.156 1840.9 414.428 1830.08 432.715C1819.63 451.002 1804.33 464.997 1784.17 474.701C1764.39 484.404 1741.25 489.255 1714.76 489.255H1555C1550.17 489.255 1546.26 485.339 1546.26 480.509V431.176Z" fill="black"/>
<path d="M2058.18 171.286C2084.68 171.286 2108.38 178.564 2129.28 193.119C2150.55 207.301 2167.16 226.894 2179.1 251.898C2191.04 276.53 2197.01 303.774 2197.01 333.63C2197.01 363.486 2191.04 390.916 2179.1 415.921C2167.16 440.552 2150.55 460.146 2129.28 474.701C2108.38 488.882 2084.68 495.973 2058.18 495.973C2040.27 495.973 2023.66 492.801 2008.36 486.456C1993.06 480.112 1979.99 471.155 1969.17 459.586V580.154C1969.17 584.985 1965.25 588.901 1960.42 588.901H1899.34C1889.67 588.901 1881.84 581.068 1881.84 571.407V195.498C1881.84 185.836 1889.67 178.004 1899.34 178.004H1958.09C1962.73 178.004 1966.57 181.636 1966.82 186.275L1968.05 208.793C1978.87 197.224 1991.94 188.081 2007.24 181.363C2022.91 174.645 2039.89 171.286 2058.18 171.286ZM2035.79 424.318C2049.97 424.318 2062.66 420.4 2073.85 412.562C2085.05 404.352 2093.82 393.342 2100.17 379.534C2106.51 365.725 2109.68 350.424 2109.68 333.63C2109.68 316.836 2106.51 301.534 2100.17 287.726C2093.82 273.917 2085.05 263.094 2073.85 255.257C2062.66 247.047 2049.97 242.941 2035.79 242.941C2025.34 242.941 2015.63 245.181 2006.68 249.659C1998.09 253.764 1990.63 259.736 1984.29 267.573C1977.94 275.41 1972.9 284.554 1969.17 295.003V372.256C1974.4 388.304 1982.98 400.993 1994.92 410.323C2006.86 419.653 2020.49 424.318 2035.79 424.318Z" fill="black"/>
<path d="M2384.7 495.973C2351.86 495.973 2323.12 489.442 2298.49 476.38C2274.23 462.945 2255.57 444.098 2242.51 419.84C2229.45 395.208 2222.92 366.472 2222.92 333.63C2222.92 300.788 2229.63 272.238 2243.07 247.98C2256.88 223.348 2276.28 204.501 2301.29 191.439C2326.29 178.004 2355.59 171.286 2389.18 171.286C2422.39 171.286 2450.76 178.377 2474.27 192.559C2498.15 206.741 2515.69 227.08 2526.89 253.578C2538.09 280.075 2542.38 311.238 2539.77 347.065H2292.33L2292.89 287.166H2450.76C2450.01 277.836 2446.84 269.625 2441.24 262.535C2436.01 255.071 2428.74 249.286 2419.41 245.181C2410.45 241.075 2400.19 239.023 2388.62 239.023C2370.7 239.023 2355.96 242.755 2344.39 250.219C2332.82 257.683 2324.24 268.692 2318.64 283.247C2313.04 297.802 2310.25 315.903 2310.25 337.548C2310.25 354.343 2313.04 369.457 2318.64 382.893C2324.24 396.328 2332.64 406.964 2343.83 414.801C2355.03 422.266 2368.65 425.998 2384.7 425.998C2396.27 425.998 2406.72 424.132 2416.05 420.4C2425.75 416.294 2433.59 410.883 2439.56 404.165C2442.35 401.028 2444.69 397.646 2446.58 394.02C2450.42 386.675 2457.25 380.653 2465.54 380.653H2529.03C2534.18 380.653 2538.25 385.104 2537.4 390.192C2534.14 409.759 2526.72 427.106 2515.13 442.232C2501.7 459.399 2483.78 472.648 2461.39 481.978C2439 491.308 2413.44 495.973 2384.7 495.973Z" fill="black"/>
<path d="M2727.75 495.973C2694.91 495.973 2666.18 489.442 2641.54 476.38C2617.29 462.945 2598.63 444.098 2585.56 419.84C2572.5 395.208 2565.97 366.472 2565.97 333.63C2565.97 300.788 2572.69 272.238 2586.12 247.98C2599.93 223.348 2619.34 204.501 2644.34 191.439C2669.35 178.004 2698.64 171.286 2732.23 171.286C2765.45 171.286 2793.81 178.377 2817.32 192.559C2841.21 206.741 2858.75 227.08 2869.95 253.578C2881.14 280.075 2885.43 311.238 2882.82 347.065H2635.39L2635.95 287.166H2793.81C2793.06 277.836 2789.89 269.625 2784.29 262.535C2779.07 255.071 2771.79 249.286 2762.46 245.181C2753.51 241.075 2743.24 239.023 2731.67 239.023C2713.76 239.023 2699.02 242.755 2687.45 250.219C2675.88 257.683 2667.3 268.692 2661.7 283.247C2656.1 297.802 2653.3 315.903 2653.3 337.548C2653.3 354.343 2656.1 369.457 2661.7 382.893C2667.3 396.328 2675.69 406.964 2686.89 414.801C2698.08 422.266 2711.71 425.998 2727.75 425.998C2739.32 425.998 2749.77 424.132 2759.1 420.4C2768.81 416.294 2776.64 410.883 2782.62 404.165C2785.4 401.028 2787.75 397.646 2789.64 394.02C2793.47 386.675 2800.31 380.653 2808.6 380.653H2872.08C2877.24 380.653 2881.31 385.104 2880.46 390.192C2877.2 409.759 2869.78 427.106 2858.19 442.232C2844.75 459.399 2826.84 472.648 2804.45 481.978C2782.06 491.308 2756.49 495.973 2727.75 495.973Z" fill="black"/>
<path d="M3047.86 171.286C3059.8 171.286 3071.18 172.779 3082.01 175.765C3093.2 178.75 3103.47 183.042 3112.8 188.64C3122.13 194.238 3130.34 200.769 3137.43 208.234V92.4939C3137.43 82.8323 3145.26 75 3154.92 75H3215.45C3220.28 75 3224.2 78.9161 3224.2 83.7469V480.509C3224.2 485.339 3220.28 489.255 3215.45 489.255H3156.81C3147.51 489.255 3139.84 481.982 3139.34 472.697L3138.55 457.906C3127.72 469.849 3114.29 479.179 3098.24 485.897C3082.57 492.614 3065.77 495.973 3047.86 495.973C3021.36 495.973 2997.48 488.882 2976.2 474.701C2955.3 460.146 2938.88 440.552 2926.94 415.921C2915 390.916 2909.03 363.486 2909.03 333.63C2909.03 303.774 2915 276.53 2926.94 251.898C2938.88 226.894 2955.3 207.301 2976.2 193.119C2997.48 178.564 3021.36 171.286 3047.86 171.286ZM3070.25 424.318C3085.92 424.318 3099.73 419.466 3111.68 409.763C3123.62 400.06 3132.2 386.998 3137.43 370.577V296.683C3133.69 285.86 3128.66 276.53 3122.31 268.692C3115.97 260.482 3108.32 254.138 3099.36 249.659C3090.4 245.181 3080.7 242.941 3070.25 242.941C3056.07 242.941 3043.38 247.047 3032.18 255.257C3020.99 263.094 3012.22 273.917 3005.87 287.726C2999.53 301.534 2996.36 316.836 2996.36 333.63C2996.36 350.424 2999.53 365.725 3005.87 379.534C3012.22 393.342 3020.99 404.352 3032.18 412.562C3043.38 420.4 3056.07 424.318 3070.25 424.318Z" fill="black"/>
</svg>
