<svg width="70" height="48" viewBox="0 0 70 48" fill="none" xmlns="http://www.w3.org/2000/svg">
<path fill-rule="evenodd" clip-rule="evenodd" d="M30.8 18.4819H27.6888C27.4759 18.4819 27.2948 18.6367 27.2616 18.8468L26.0033 26.8249C25.9783 26.9824 26.1002 27.1243 26.2599 27.1243H27.7452C27.9581 27.1243 28.1392 26.9695 28.1724 26.759L28.5118 24.6072C28.5445 24.3965 28.726 24.2419 28.9385 24.2419H29.9234C31.9729 24.2419 33.1556 23.2502 33.4647 21.2849C33.6038 20.4251 33.4705 19.7495 33.0678 19.2762C32.6257 18.7569 31.8413 18.4819 30.8 18.4819ZM31.159 21.3958C30.9889 22.5123 30.1358 22.5123 29.3111 22.5123H28.8416L29.1709 20.4272C29.1905 20.3013 29.2997 20.2085 29.4271 20.2085H29.6422C30.2041 20.2085 30.7341 20.2085 31.008 20.5287C31.1712 20.7198 31.2213 21.0036 31.159 21.3958ZM40.1002 21.36H38.6103C38.4834 21.36 38.3737 21.4529 38.3541 21.579L38.2882 21.9956L38.184 21.8447C37.8615 21.3765 37.1423 21.22 36.4244 21.22C34.7779 21.22 33.3718 22.467 33.0979 24.2163C32.9556 25.0887 33.1579 25.923 33.6529 26.5049C34.107 27.0398 34.7567 27.2628 35.5295 27.2628C36.856 27.2628 37.5918 26.4097 37.5918 26.4097L37.5253 26.8238C37.5002 26.9822 37.6221 27.1241 37.7809 27.1241H39.123C39.3365 27.1241 39.5165 26.9693 39.5501 26.7588L40.3554 21.6594C40.3809 21.5026 40.2594 21.36 40.1002 21.36ZM38.0234 24.2598C37.8796 25.111 37.204 25.6824 36.3426 25.6824C35.9099 25.6824 35.564 25.5436 35.3421 25.2807C35.1219 25.0196 35.0381 24.6478 35.1082 24.2339C35.2425 23.3899 35.9295 22.8 36.7779 22.8C37.2009 22.8 37.5449 22.9405 37.7714 23.2057C37.9983 23.4737 38.0885 23.8476 38.0234 24.2598ZM46.5379 21.3598H48.0352C48.2449 21.3598 48.3672 21.595 48.2481 21.767L43.2685 28.9548C43.1878 29.0712 43.055 29.1405 42.9131 29.1405H41.4177C41.2072 29.1405 41.0842 28.9034 41.2061 28.731L42.7567 26.5424L41.1076 21.7028C41.0506 21.5346 41.1748 21.3598 41.3537 21.3598H42.8249C43.016 21.3598 43.1847 21.4853 43.2398 21.6683L44.115 24.5912L46.1801 21.5495C46.2609 21.4308 46.3952 21.3598 46.5379 21.3598Z" fill="#253B80"/>
<path fill-rule="evenodd" clip-rule="evenodd" d="M62.7709 26.8248L64.0478 18.7008C64.0673 18.5747 64.1766 18.4819 64.3035 18.4814H65.741C65.8998 18.4814 66.0216 18.6238 65.9966 18.7812L64.7374 26.7589C64.7046 26.9695 64.5235 27.1242 64.3103 27.1242H63.0265C62.8677 27.1242 62.7459 26.9823 62.7709 26.8248ZM52.9921 18.4819H49.8803C49.6679 18.4819 49.4869 18.6366 49.4536 18.8467L48.1953 26.8248C48.1702 26.9823 48.2921 27.1242 48.4511 27.1242H50.0477C50.1961 27.1242 50.3231 27.016 50.3462 26.8686L50.7033 24.6071C50.7361 24.3964 50.9176 24.2419 51.13 24.2419H52.1145C54.1644 24.2419 55.3469 23.2501 55.6562 21.2848C55.7957 20.425 55.6616 19.7494 55.2591 19.2762C54.8172 18.7568 54.0334 18.4819 52.9921 18.4819ZM53.3511 21.3958C53.1814 22.5122 52.3284 22.5122 51.5031 22.5122H51.034L51.3639 20.4271C51.3835 20.3012 51.4917 20.2084 51.6195 20.2084H51.8347C52.3961 20.2084 52.9267 20.2084 53.2004 20.5286C53.3637 20.7198 53.4134 21.0036 53.3511 21.3958ZM62.2915 21.36H60.8027C60.6747 21.36 60.5661 21.4528 60.5469 21.5789L60.481 21.9956L60.3764 21.8446C60.0538 21.3764 59.3351 21.22 58.6172 21.22C56.9707 21.22 55.565 22.4669 55.2911 24.2162C55.1492 25.0886 55.3507 25.9229 55.8456 26.5048C56.3006 27.0398 56.9494 27.2627 57.7223 27.2627C59.0488 27.2627 59.7844 26.4097 59.7844 26.4097L59.7181 26.8238C59.693 26.9821 59.8149 27.124 59.9747 27.124H61.3162C61.5286 27.124 61.7096 26.9693 61.7429 26.7587L62.5486 21.6593C62.5732 21.5025 62.4513 21.36 62.2915 21.36ZM60.2149 24.2598C60.072 25.1109 59.3955 25.6823 58.5338 25.6823C58.1021 25.6823 57.7555 25.5436 57.5334 25.2806C57.3132 25.0196 57.2305 24.6478 57.2997 24.2339C57.4347 23.3899 58.1208 22.8 58.9692 22.8C59.3924 22.8 59.7362 22.9404 59.9629 23.2057C60.1907 23.4737 60.2808 23.8476 60.2149 24.2598Z" fill="#179BD7"/>
<path d="M9.31403 34.3215L9.69656 31.892L8.84455 31.8722H4.77612L7.6035 13.9445C7.61213 13.8904 7.64076 13.8399 7.68245 13.8041C7.72413 13.7683 7.7776 13.7485 7.83318 13.7485H14.6932C16.9707 13.7485 18.5423 14.2225 19.3629 15.1578C19.7475 15.5967 19.9926 16.0552 20.1111 16.5598C20.2353 17.0894 20.2376 17.722 20.1162 18.4936L20.1073 18.5499V19.0443L20.4922 19.2622C20.8162 19.4341 21.0734 19.6308 21.2709 19.8561C21.6002 20.2312 21.813 20.7081 21.9029 21.2734C21.9957 21.8548 21.965 22.5467 21.813 23.33C21.6374 24.231 21.3536 25.0158 20.9705 25.6579C20.6178 26.2496 20.1688 26.7402 19.6357 27.1206C19.1267 27.4819 18.5218 27.7562 17.838 27.9318C17.1753 28.1042 16.4199 28.1913 15.5913 28.1913H15.0574C14.6757 28.1913 14.3048 28.3288 14.0138 28.5753C13.722 28.8269 13.5288 29.1705 13.4696 29.5465L13.4294 29.7652L12.7536 34.0472L12.7229 34.2044C12.7149 34.2543 12.701 34.2791 12.6806 34.296C12.6622 34.3111 12.6359 34.3215 12.6102 34.3215H9.31403Z" fill="#253B80"/>
<path d="M20.8564 18.6072C20.836 18.7381 20.8126 18.8719 20.7863 19.0094C19.8814 23.6542 16.7865 25.2588 12.8334 25.2588H10.8208C10.3374 25.2588 9.93004 25.6099 9.85467 26.0867L8.82414 32.6222L8.53235 34.4746C8.4833 34.7876 8.72477 35.07 9.04056 35.07H12.6105C13.0332 35.07 13.3922 34.7628 13.4587 34.346L13.4938 34.1645L14.166 29.8992L14.2092 29.6653C14.2749 29.247 14.6347 28.9398 15.0574 28.9398H15.5913C19.0498 28.9398 21.7574 27.5356 22.5488 23.4721C22.8793 21.7747 22.7082 20.3573 21.8334 19.3605C21.5688 19.0599 21.2404 18.8105 20.8564 18.6072Z" fill="#179BD7"/>
<path d="M19.9096 18.2301C19.7715 18.1899 19.6288 18.1533 19.4825 18.1204C19.3355 18.0882 19.1848 18.0597 19.0298 18.0348C18.4871 17.9471 17.8926 17.9054 17.2555 17.9054H11.8787C11.7463 17.9054 11.6206 17.9354 11.5079 17.9895C11.2599 18.1087 11.0757 18.3435 11.0311 18.6309L9.88709 25.8757L9.85425 26.087C9.92962 25.6102 10.337 25.2591 10.8204 25.2591H12.833C16.7861 25.2591 19.8812 23.6538 20.7859 19.0097C20.8128 18.8722 20.8355 18.7384 20.856 18.6075C20.6271 18.4861 20.3791 18.3822 20.1122 18.2937C20.0465 18.2718 19.9785 18.2506 19.9096 18.2301Z" fill="#222D65"/>
<path d="M11.0311 18.6307C11.0758 18.3433 11.2602 18.1085 11.508 17.99C11.6215 17.9359 11.7465 17.9059 11.8787 17.9059H17.2558C17.8928 17.9059 18.4874 17.9476 19.0299 18.0354C19.185 18.0602 19.3358 18.0887 19.4827 18.1209C19.629 18.1538 19.7716 18.1904 19.9099 18.2306C19.9785 18.2511 20.0465 18.2723 20.1131 18.2935C20.38 18.382 20.628 18.4866 20.8568 18.6073C21.1261 16.8908 20.8547 15.7221 19.9267 14.6638C18.9036 13.4988 17.0568 13 14.6939 13H7.83366C7.35092 13 6.93934 13.351 6.8646 13.8286L4.00733 31.9406C3.95091 32.2989 4.22733 32.6223 4.5886 32.6223H8.82397L9.88735 25.8755L11.0311 18.6307Z" fill="#253B80"/>
</svg>
