<svg width="879" height="32" viewBox="0 0 879 32" fill="none" xmlns="http://www.w3.org/2000/svg">
<path d="M12 3C18.627 3 24 8.373 24 15C24 21.627 18.627 27 12 27C5.373 27 0 21.627 0 15C0 8.373 5.373 3 12 3ZM9.683 20.946H14.269V19.338H11.473V13.565H9.683V20.946ZM17.05 10.51C16.6074 10.5103 16.1691 10.5977 15.7603 10.7674C15.3514 10.9371 14.98 11.1856 14.6673 11.4988C14.3545 11.812 14.1065 12.1838 13.9375 12.5929C13.7684 13.002 13.6816 13.4404 13.682 13.883C13.6816 14.3256 13.7684 14.764 13.9375 15.1731C14.1065 15.5822 14.3545 15.954 14.6673 16.267C14.98 16.58 15.3514 16.829 15.7603 16.999C16.1691 17.168 16.6074 17.256 17.05 17.256C18.91 17.256 20.419 15.746 20.419 13.883C20.4194 13.4402 20.3325 13.0016 20.1633 12.5924C19.9942 12.1832 19.746 11.8114 19.433 11.4981C19.12 11.1849 18.7484 10.9364 18.3393 10.7668C17.9303 10.5973 17.4928 10.51 17.05 10.51ZM15.849 12.68C16.0066 12.5218 16.1938 12.3963 16.4 12.3107C16.6062 12.2251 16.8272 12.181 17.0505 12.181C17.2738 12.181 17.4948 12.2251 17.701 12.3107C17.9072 12.3963 18.0944 12.5218 18.252 12.68C18.916 13.346 18.916 14.421 18.252 15.087C18.0944 15.245 17.9071 15.3704 17.7009 15.456C17.4947 15.5415 17.2737 15.5856 17.0505 15.5856C16.8273 15.5856 16.6063 15.5415 16.4001 15.456C16.1939 15.3704 16.0066 15.245 15.849 15.087C15.5304 14.7677 15.3514 14.3351 15.3514 13.884C15.3514 13.4329 15.5304 12.9993 15.849 12.68ZM3.956 15.284H7.986V13.404H3.956V15.284Z" fill="currentColor" style="fill:currentColor;fill-opacity:1;"/>
<mask id="mask0_1289_1503" style="mask-type:luminance" maskUnits="userSpaceOnUse" x="56" y="4" width="102" height="24">
<path d="M158 4H56V28H158V4Z" fill="white" style="fill:white;fill-opacity:1;"/>
</mask>
<g mask="url(#mask0_1289_1503)">
<path d="M73.3241 4V6.148H58.3966V23.082H56V4H73.3241Z" fill="currentColor" style="fill:currentColor;fill-opacity:1;"/>
<path d="M73.3232 8.07401V10.222H62.922V23.082H60.5234V8.07401H73.3232Z" fill="currentColor" style="fill:currentColor;fill-opacity:1;"/>
<path d="M73.3244 12.134V14.294H67.4474V23.082H65.0488V12.134H73.3244Z" fill="currentColor" style="fill:currentColor;fill-opacity:1;"/>
<path d="M80.147 11.924C82.9997 11.924 85.3967 13.824 85.3967 17.356C85.3967 17.59 85.3967 17.788 85.3727 18.146H76.8021C76.9137 19.936 78.352 21.12 80.159 21.12C81.6827 21.12 82.7047 20.416 83.2687 19.454L85.1017 20.762C84.1177 22.318 82.4217 23.304 80.1351 23.304C76.828 23.304 74.4434 20.946 74.4434 17.614C74.4553 14.392 76.84 11.924 80.149 11.924M76.9276 16.38H82.9897C82.7307 14.8 81.4657 13.948 80.0633 13.948C78.6608 13.948 77.2484 14.762 76.9276 16.38Z" fill="currentColor" style="fill:currentColor;fill-opacity:1;"/>
<path d="M87.8301 12.134H90.2271V13.602C90.8421 12.726 92.1691 11.924 93.7311 11.924C96.7191 11.924 98.9801 14.48 98.9801 17.614C98.9801 20.748 96.7171 23.304 93.7311 23.304C92.1571 23.304 90.8281 22.49 90.2271 21.612V27.648H87.8301V12.134ZM93.3011 14.108C91.3581 14.108 90.0301 15.638 90.0301 17.614C90.0301 19.59 91.3581 21.12 93.3011 21.12C95.2431 21.12 96.5461 19.59 96.5461 17.614C96.5461 15.638 95.2171 14.108 93.3011 14.108Z" fill="currentColor" style="fill:currentColor;fill-opacity:1;"/>
<path d="M103.826 6.666H101.43V23.07H103.826V6.666Z" fill="currentColor" style="fill:currentColor;fill-opacity:1;"/>
<path d="M108.255 9.75201C107.382 9.75201 106.645 9.03601 106.645 8.13601C106.645 7.23601 107.382 6.54401 108.255 6.54401C109.128 6.54401 109.841 7.27201 109.841 8.13601C109.841 9.03801 109.152 9.75201 108.255 9.75201ZM107.062 12.134H109.458V23.07H107.062V12.134Z" fill="currentColor" style="fill:currentColor;fill-opacity:1;"/>
<path d="M117.648 23.292C114.377 23.292 111.895 20.836 111.895 17.602C111.895 14.368 114.379 11.912 117.648 11.912C119.897 11.912 121.792 13.122 122.726 14.936L120.637 16.072C120.109 14.962 119.051 14.146 117.648 14.146C115.706 14.146 114.341 15.652 114.341 17.602C114.341 19.552 115.718 21.058 117.648 21.058C119.037 21.058 120.107 20.244 120.637 19.132L122.726 20.268C121.792 22.094 119.885 23.292 117.648 23.292Z" fill="currentColor" style="fill:currentColor;fill-opacity:1;"/>
<path d="M129.39 11.924C130.964 11.924 132.267 12.738 132.882 13.602V12.134H135.279V23.07H132.882V21.602C132.267 22.478 130.964 23.294 129.39 23.294C126.402 23.294 124.141 20.738 124.141 17.604C124.141 14.47 126.404 11.926 129.39 11.926M129.832 14.11C127.89 14.11 126.587 15.64 126.587 17.616C126.587 19.592 127.89 21.122 129.832 21.122C131.775 21.122 133.078 19.592 133.078 17.616C133.078 15.64 131.763 14.11 129.832 14.11Z" fill="currentColor" style="fill:currentColor;fill-opacity:1;"/>
<path d="M139.384 23.082V14.282H137.109V12.134H139.384V9.09799H141.783V12.134H145.912V14.282H141.783V20.922H145.912V23.082H139.384Z" fill="currentColor" style="fill:currentColor;fill-opacity:1;"/>
<path d="M152.751 11.924C155.603 11.924 158 13.824 158 17.356C158 17.59 158 17.788 157.976 18.146H149.406C149.517 19.936 150.956 21.12 152.763 21.12C154.287 21.12 155.309 20.416 155.872 19.454L157.705 20.762C156.721 22.318 155.026 23.304 152.739 23.304C149.432 23.304 147.047 20.946 147.047 17.614C147.071 14.392 149.444 11.924 152.753 11.924M149.531 16.38H155.593C155.334 14.8 154.069 13.948 152.667 13.948C151.264 13.948 149.864 14.762 149.531 16.38Z" fill="currentColor" style="fill:currentColor;fill-opacity:1;"/>
</g>
<path d="M217.559 7.77982H220.333V14.0544H227.434V7.77982H230.209V23.3099H227.434V16.6113H220.333V23.3099H217.559V7.77982Z" fill="currentColor" style="fill:currentColor;fill-opacity:1;"/>
<path d="M232.355 9.58382C232.355 8.68962 233.076 7.96802 234.142 7.96802C235.161 7.96802 235.882 8.68962 235.882 9.58382C235.882 10.4936 235.161 11.1838 234.142 11.1838C233.061 11.1995 232.355 10.4936 232.355 9.58382ZM232.763 12.8622H235.428V23.3099H232.763V12.8622Z" fill="currentColor" style="fill:currentColor;fill-opacity:1;"/>
<path d="M237.105 25.2699C237.105 24.2659 237.826 23.3099 238.955 22.8549V22.8079C238.014 22.4779 237.497 21.9449 237.497 21.1599C237.497 20.2189 238.469 19.5289 239.598 19.3719V19.3249C238.312 18.5879 237.685 17.5839 237.685 16.2819C237.685 14.0701 239.582 12.5642 242.403 12.5642H243.548C244.786 12.5642 245.162 12.0936 245.162 10.4151H247.765V11.1995C247.765 12.4544 246.793 13.176 245.209 13.2701V13.3171C246.338 13.9289 246.996 14.9956 246.996 16.3603C246.996 18.6349 245.194 20.0309 242.247 20.0309C241.855 20.0309 241.338 19.9839 240.836 19.9059C240.46 20.0149 240.099 20.2509 240.099 20.5959C240.099 21.0349 240.475 21.2699 241.071 21.2699H244.441C246.824 21.2699 248.109 22.2899 248.109 24.2189C248.109 26.6509 246.025 27.9999 242.2 27.9999C238.923 28.0159 237.105 27.0119 237.105 25.2699ZM245.523 24.5169C245.523 23.7639 244.912 23.3409 243.783 23.3719L240.977 23.4349C240.287 23.4349 239.723 24.0469 239.723 24.7679C239.723 25.6779 240.632 26.1329 242.388 26.1329C244.394 26.1169 245.523 25.5529 245.523 24.5169ZM244.363 16.3603C244.363 15.0427 243.626 14.3211 242.341 14.3211C241.102 14.3211 240.366 15.0427 240.366 16.2976C240.366 17.5839 241.102 18.2899 242.435 18.2899C243.689 18.3059 244.363 17.6469 244.363 16.3603Z" fill="currentColor" style="fill:currentColor;fill-opacity:1;"/>
<path d="M249.02 25.2699C249.02 24.2659 249.741 23.3099 250.869 22.8549V22.8079C249.929 22.4779 249.411 21.9449 249.411 21.1599C249.411 20.2189 250.383 19.5289 251.512 19.3719V19.3249C250.227 18.5879 249.6 17.5839 249.6 16.2819C249.6 14.0701 251.496 12.5642 254.318 12.5642H255.462C256.701 12.5642 257.061 12.0936 257.061 10.4151H259.663V11.1995C259.663 12.4544 258.691 13.176 257.108 13.2701V13.3171C258.237 13.9289 258.895 14.9956 258.895 16.3603C258.895 18.6349 257.093 20.0309 254.146 20.0309C253.754 20.0309 253.236 19.9839 252.735 19.9059C252.358 20.0149 251.998 20.2509 251.998 20.5959C251.998 21.0349 252.374 21.2699 252.97 21.2699H256.34C258.723 21.2699 260.008 22.2899 260.008 24.2189C260.008 26.6509 257.923 27.9999 254.098 27.9999C250.854 28.0159 249.02 27.0119 249.02 25.2699ZM257.453 24.5169C257.453 23.7639 256.842 23.3409 255.713 23.3719L252.907 23.4349C252.217 23.4349 251.653 24.0469 251.653 24.7679C251.653 25.6779 252.562 26.1329 254.318 26.1329C256.324 26.1169 257.453 25.5529 257.453 24.5169ZM256.277 16.3603C256.277 15.0427 255.541 14.3211 254.255 14.3211C253.017 14.3211 252.28 15.0427 252.28 16.2976C252.28 17.5839 253.017 18.2899 254.349 18.2899C255.603 18.3059 256.277 17.6469 256.277 16.3603Z" fill="currentColor" style="fill:currentColor;fill-opacity:1;"/>
<path d="M260.164 20.5799L262.641 19.8589C262.907 20.9719 263.66 21.6779 264.992 21.6779C266.058 21.6779 266.669 21.2389 266.669 20.4859C266.669 19.7329 266.152 19.3409 264.13 18.9169C261.669 18.4149 260.524 17.3959 260.524 15.7172C260.524 13.725 262.108 12.4858 264.694 12.4858C266.967 12.4858 268.644 13.4897 269.303 15.1838L266.92 16.0309C266.591 15.1368 265.792 14.4466 264.647 14.4466C263.707 14.4466 263.142 14.8544 263.142 15.5289C263.142 16.2035 263.613 16.5956 265.682 17.0349C268.174 17.5529 269.303 18.5409 269.303 20.2509C269.303 22.3529 267.626 23.6549 264.898 23.6549C262.296 23.6699 260.572 22.5099 260.164 20.5799Z" fill="currentColor" style="fill:currentColor;fill-opacity:1;"/>
<path d="M272.249 14.9956H270.164V12.8622H272.249V10.9485C272.249 8.90922 273.252 7.46613 275.588 7.46613C276.325 7.46613 277.061 7.59162 277.657 7.85822L277.202 9.99162C276.873 9.86612 276.356 9.77203 275.98 9.77203C275.086 9.77203 274.867 10.321 274.867 10.9955V12.8622H282.062V14.9956H274.914V23.3249H272.249V14.9956Z" fill="currentColor" style="fill:currentColor;fill-opacity:1;"/>
<path d="M278.99 9.58382C278.99 8.68962 279.711 7.96802 280.777 7.96802C281.796 7.96802 282.517 8.68962 282.517 9.58382C282.517 10.4936 281.796 11.1838 280.777 11.1838C279.711 11.1995 278.99 10.4936 278.99 9.58382ZM279.398 12.8622H282.063V23.3099H279.398V12.8622Z" fill="currentColor" style="fill:currentColor;fill-opacity:1;"/>
<path d="M284.414 18.1329C284.414 14.5407 286.734 12.5014 289.587 12.5014C292.848 12.5014 294.509 14.3995 294.509 17.7569V18.7759H287.126C287.22 20.2979 288.255 21.4739 289.775 21.4739C291.092 21.4739 291.876 20.6429 292.205 19.7169L294.305 20.7839C293.616 22.4309 292.048 23.6699 289.665 23.6699C286.938 23.6699 284.414 21.9449 284.414 18.1329ZM291.782 16.9721C291.688 15.4348 291.061 14.4779 289.571 14.4779C288.145 14.4779 287.377 15.4976 287.22 16.9721H291.782Z" fill="currentColor" style="fill:currentColor;fill-opacity:1;"/>
<path d="M296.141 7.77982H298.805V23.3099H296.141V7.77982Z" fill="currentColor" style="fill:currentColor;fill-opacity:1;"/>
<path d="M300.639 18.0549C300.639 14.1485 302.991 12.5328 305.154 12.5328C306.722 12.5328 307.756 13.4426 308.32 14.274H308.336V7.77982H311.001V23.3099H308.367V21.8979H308.352C307.85 22.6979 306.816 23.6079 305.232 23.6079C303.226 23.6229 300.639 22.1019 300.639 18.0549ZM308.383 18.0389C308.383 15.827 307.364 14.7289 305.844 14.7289C304.386 14.7289 303.32 15.7015 303.32 18.0549C303.32 20.2349 304.402 21.4429 305.812 21.4429C307.364 21.4429 308.383 20.0779 308.383 18.0389Z" fill="currentColor" style="fill:currentColor;fill-opacity:1;"/>
<path d="M210.77 14.1328L210.755 13.9289C210.582 12.0309 209.359 8.47003 205.942 8.47003C203.403 8.47003 201.49 10.9799 199.797 13.176C198.449 14.9485 197.273 16.4544 195.988 16.4544C195.643 16.4231 195.204 16.2505 194.938 15.8584C194.703 15.5133 194.64 15.0583 194.765 14.525C194.969 13.6779 196.098 12.8779 197.289 12.0465C197.948 11.5916 198.622 11.121 199.092 10.6661C200.44 9.36413 201.13 8.42302 201.13 6.90142C201.13 5.37982 200.299 4.62683 199.593 4.31313C198.198 3.66993 196.129 4.04643 194.828 5.17583C194.624 5.34843 194.436 5.52103 194.248 5.69353C192.931 6.87003 192.038 7.67002 190 7.05822V9.52103C192.712 10.7132 194.985 8.43863 195.847 7.38763C196.505 6.69743 197.211 6.28963 197.728 6.28963H197.759C197.995 6.30533 198.198 6.38372 198.339 6.55632C198.575 6.82292 198.669 7.13673 198.622 7.48183C198.528 8.21903 197.759 9.08183 196.364 10.023C194.718 11.121 191.975 12.972 191.756 15.2936C191.599 16.9564 192.461 18.6349 193.809 19.2779C196.96 20.7679 198.872 18.1959 200.895 15.4976C202.446 13.4113 203.92 11.4191 205.973 11.4191C207.823 11.4191 208.497 12.9407 208.497 13.8975V14.0858L208.325 14.1172C203.857 14.9015 201.428 19.0899 201.428 21.0189C201.428 22.9489 203.058 24.5959 205.08 24.5959C207.431 24.5959 210.347 22.5879 210.817 16.9407L210.833 16.7368H212.698V14.1328H210.77ZM208.34 17.0349C207.98 20.4229 206.24 21.9919 205.19 21.9919C204.719 21.9919 204.045 21.5999 204.045 20.8619C204.045 20.0309 205.284 17.5369 208.043 16.7839L208.372 16.7054L208.34 17.0349Z" fill="currentColor" style="fill:currentColor;fill-opacity:1;"/>
<path d="M355.01 19.6C355.01 20.2 354.877 20.733 354.61 21.2C354.343 21.733 353.943 22.133 353.476 22.533C353.009 22.933 352.408 23.267 351.741 23.467C351.074 23.667 350.34 23.8 349.539 23.8C348.805 23.8 348.138 23.733 347.604 23.667C347.003 23.6 346.47 23.467 345.936 23.333C345.402 23.2 344.935 22.933 344.468 22.733C344.001 22.467 343.534 22.133 343 21.8L345.335 19.733C346.003 20.267 346.67 20.6 347.337 20.8C348.004 21 348.672 21.133 349.406 21.133C349.739 21.133 350.006 21.067 350.273 21C350.54 20.933 350.807 20.8 351.007 20.667C351.207 20.533 351.341 20.333 351.474 20.2C351.607 20 351.674 19.8 351.674 19.6C351.674 19.333 351.607 19.133 351.541 18.933C351.474 18.733 351.274 18.533 351.007 18.4C350.74 18.2 350.406 18.067 349.939 17.867C349.472 17.667 348.938 17.467 348.205 17.267C347.604 17.067 347.003 16.8667 346.403 16.6C345.802 16.3333 345.335 16 344.935 15.6667C344.535 15.3333 344.134 14.8667 343.934 14.4C343.601 13.8 343.467 13.2 343.467 12.5333C343.467 11.8667 343.601 11.2667 343.867 10.7333C344.134 10.2 344.535 9.7333 345.068 9.3333C345.536 9 346.136 8.6667 346.803 8.4667C347.471 8.2667 348.205 8.1333 348.938 8.1333C350.206 8.1333 351.341 8.2667 352.208 8.6C353.075 8.9333 353.876 9.3333 354.543 9.9333L352.275 12C351.874 11.6667 351.407 11.3333 350.874 11.1333C350.34 10.9333 349.739 10.8667 349.072 10.8667C348.738 10.8667 348.471 10.9333 348.205 11C347.871 11.0667 347.671 11.2 347.471 11.3333C347.27 11.4667 347.137 11.6667 347.003 11.8667C346.87 12.0667 346.803 12.2667 346.803 12.4667C346.803 12.7333 346.87 12.9333 347.003 13.1333C347.07 13.3333 347.27 13.4667 347.537 13.6667C347.804 13.8667 348.138 14 348.605 14.2C349.072 14.4 349.606 14.6 350.273 14.8C351.14 15.0667 351.808 15.3333 352.408 15.6667C353.009 16 353.476 16.3333 353.876 16.7333C354.276 17.133 354.543 17.533 354.744 18C354.944 18.467 355.01 19 355.01 19.6ZM373.76 23.6H370.491V16.9333H364.419V23.6H361.149V8.4667H364.419V14.4667H370.491V8.4667H373.76V23.6ZM391.842 23.6H379.899V8.4667H391.842V10.8667H383.102V14.4667H391.175V16.8H383.102V20.933H391.842V23.6ZM401.518 23.6H398.248V8.4667H401.518V23.6ZM420 8.4667V24L410.859 16.0667V23.467H407.656V8L416.797 15.9333V8.4667H420Z" fill="currentColor" style="fill:currentColor;fill-opacity:1;"/>
<path fill-rule="evenodd" clip-rule="evenodd" d="M476.299 10.9288C475.477 10.4998 474.564 10.2758 473.637 10.2758C472.71 10.2758 471.797 10.4998 470.976 10.9288C470.578 11.152 470.215 11.4307 469.897 11.7563V4.00011H466.319V23.7211H469.897V16.1651C469.886 15.6801 470.004 15.2001 470.237 14.7741C470.458 14.383 470.785 14.0618 471.18 13.8474C471.6 13.6244 472.07 13.5117 472.546 13.5195C472.899 13.5015 473.252 13.5576 473.582 13.6841C473.911 13.8106 474.211 14.0048 474.461 14.254C474.711 14.5033 474.906 14.8022 475.034 15.1311C475.161 15.4601 475.218 15.8131 475.2 16.1651V23.7211H478.78V15.3751C478.798 14.4506 478.572 13.5379 478.123 12.7292C477.693 11.9726 477.062 11.3495 476.299 10.9288ZM460.73 20.3521C460.215 20.5681 459.662 20.6751 459.104 20.6661C458.487 20.6761 457.879 20.5211 457.342 20.2161C456.825 19.9181 456.4 19.4841 456.113 18.9611C455.805 18.3971 455.65 17.7631 455.662 17.1201C455.646 16.4771 455.801 15.8421 456.113 15.2791C456.407 14.7688 456.831 14.3452 457.342 14.0511C457.879 13.7476 458.487 13.5928 459.104 13.6028C459.651 13.5962 460.194 13.698 460.701 13.9023C461.175 14.0971 461.599 14.3949 461.943 14.7741L464.238 12.4563C463.609 11.7535 462.835 11.1949 461.97 10.8189C461.064 10.4311 460.088 10.2361 459.103 10.2466C457.837 10.2305 456.589 10.5458 455.483 11.1609C454.41 11.7467 453.519 12.6143 452.906 13.6698C452.292 14.7253 451.979 15.9281 452.001 17.1491C451.983 18.3611 452.296 19.5551 452.908 20.6031C453.519 21.6511 454.405 22.5121 455.47 23.0941C456.582 23.7041 457.834 24.0141 459.103 23.9941C460.088 24.0041 461.064 23.8091 461.97 23.4221C462.852 23.0341 463.643 22.4671 464.293 21.7581L461.97 19.4381C461.632 19.8331 461.208 20.1461 460.73 20.3521ZM489.723 10.8473C490.203 11.0897 490.637 11.4135 491.006 11.8042V10.5478H494.555V23.7211H491.006V22.4451C490.634 22.8341 490.201 23.1601 489.723 23.4071C488.937 23.8081 488.064 24.0101 487.182 23.9941C486.035 24.0101 484.908 23.6971 483.933 23.0941C482.969 22.4951 482.185 21.6471 481.665 20.6391C481.126 19.5501 480.845 18.3501 480.845 17.1341C480.845 15.9191 481.126 14.7193 481.665 13.6294C482.185 12.6215 482.968 11.7733 483.933 11.1751C484.908 10.5716 486.035 10.2592 487.182 10.2749C488.063 10.2591 488.934 10.4554 489.723 10.8473ZM487.838 20.6941C488.84 20.6931 489.651 20.3611 490.269 19.6991C490.888 19.0351 491.197 18.1751 491.197 17.1201C491.21 16.4811 491.065 15.8491 490.775 15.2791C490.508 14.7602 490.101 14.3257 489.6 14.0245C489.065 13.7161 488.456 13.5604 487.838 13.5745C487.229 13.5622 486.629 13.718 486.103 14.0245C485.603 14.3253 485.196 14.7599 484.93 15.2791C484.639 15.8491 484.493 16.4811 484.506 17.1201C484.491 17.7691 484.637 18.4111 484.93 18.9901C485.197 19.5091 485.603 19.9431 486.103 20.2441C486.629 20.5511 487.229 20.7071 487.838 20.6941ZM506.431 10.5886C505.884 10.3722 505.299 10.2657 504.71 10.2749C503.235 10.2749 502.106 10.7427 501.324 11.6784L501.296 11.7156V10.5478H497.719V23.7211H501.296V16.4381C501.296 15.4561 501.537 14.7245 502.02 14.2425C502.266 14.001 502.559 13.8123 502.881 13.688C503.203 13.5637 503.547 13.5064 503.892 13.5195C504.222 13.5139 504.551 13.5698 504.861 13.6843C505.137 13.7891 505.385 13.9573 505.585 14.1752L507.824 11.611C507.445 11.1674 506.968 10.8174 506.431 10.5886ZM516.791 10.8473C517.271 11.0897 517.706 11.4135 518.075 11.8042L518.081 10.5478H521.63V23.7211H518.081V22.4451C517.708 22.8341 517.274 23.1601 516.796 23.4071C516.01 23.8081 515.138 24.0091 514.257 23.9941C513.109 24.0101 511.981 23.6971 511.006 23.0941C510.042 22.4951 509.258 21.6471 508.738 20.6391C508.199 19.5501 507.918 18.3501 507.918 17.1341C507.918 15.9191 508.199 14.7193 508.738 13.6294C509.256 12.6222 510.038 11.774 511 11.1751C511.976 10.5716 513.104 10.2593 514.251 10.2749C515.131 10.2593 516.002 10.4556 516.791 10.8473ZM514.906 20.6941C515.908 20.6931 516.718 20.3611 517.337 19.6991C517.956 19.0351 518.265 18.1751 518.265 17.1201C518.278 16.4811 518.133 15.8491 517.843 15.2791C517.576 14.7598 517.169 14.3252 516.668 14.0245C516.133 13.7161 515.524 13.5605 514.906 13.5745C514.298 13.5625 513.698 13.7182 513.173 14.0245C512.671 14.3247 512.264 14.7594 511.998 15.2791C511.707 15.8491 511.561 16.4811 511.574 17.1201C511.559 17.7691 511.705 18.4111 511.998 18.9901C512.265 19.5091 512.671 19.9441 513.173 20.2441C513.698 20.5511 514.298 20.7061 514.906 20.6941ZM532.647 20.3521C532.133 20.5681 531.58 20.6751 531.022 20.6661C530.405 20.6771 529.796 20.5211 529.26 20.2161C528.743 19.9181 528.317 19.4841 528.03 18.9611C527.723 18.3971 527.567 17.7631 527.579 17.1201C527.563 16.4771 527.719 15.8421 528.03 15.2791C528.324 14.7685 528.748 14.3448 529.26 14.0511C529.796 13.7472 530.405 13.5924 531.022 13.6028C531.569 13.5959 532.112 13.6977 532.619 13.9023C533.093 14.0969 533.517 14.3947 533.861 14.7741L536.154 12.4563C535.525 11.7535 534.752 11.1949 533.887 10.8189C532.982 10.4314 532.005 10.2365 531.02 10.2466C529.754 10.2305 528.506 10.5458 527.4 11.1609C526.328 11.7467 525.437 12.6143 524.823 13.6698C524.209 14.7253 523.896 15.9281 523.918 17.1491C523.9 18.3611 524.214 19.5551 524.825 20.6021C525.436 21.6501 526.321 22.5111 527.386 23.0941C528.499 23.7041 529.751 24.0141 531.02 23.9941C532.005 24.0041 532.982 23.8091 533.887 23.4221C534.769 23.0341 535.559 22.4681 536.208 21.7581L533.887 19.4381C533.549 19.8331 533.125 20.1461 532.647 20.3521ZM539.953 5.06331H543.532V10.546H546.618V13.6825H543.532V23.7211H539.953V13.6825H536.867V10.546H539.953V5.06331ZM557.747 11.106C556.722 10.5203 555.557 10.2233 554.375 10.2466C553.141 10.2321 551.925 10.5478 550.853 11.1609C549.82 11.7475 548.958 12.5935 548.353 13.6152C547.882 14.4036 547.575 15.2791 547.45 16.1881C547.325 17.0981 547.385 18.0231 547.626 18.9091C547.867 19.7951 548.284 20.6231 548.853 21.3451C549.421 22.0661 550.129 22.6661 550.935 23.1081C552.068 23.7131 553.338 24.0181 554.622 23.9941C555.647 24.0031 556.663 23.8091 557.612 23.4221C558.514 23.0521 559.315 22.4721 559.947 21.7311L557.845 19.6291C557.457 20.0751 556.971 20.4261 556.425 20.6541C555.843 20.8871 555.221 21.0031 554.594 20.9941C553.908 21.0081 553.23 20.8441 552.628 20.5171C552.066 20.2041 551.612 19.7291 551.325 19.1551C551.204 18.9141 551.108 18.6621 551.04 18.4011L560.68 18.3771C560.746 18.1031 560.797 17.8251 560.831 17.5451C560.983 16.1331 560.707 14.7076 560.038 13.4539C559.5 12.4794 558.709 11.6681 557.747 11.106ZM551.043 15.7261C551.106 15.4871 551.193 15.2561 551.302 15.0351C551.567 14.4794 551.99 14.0142 552.518 13.6967C553.081 13.3698 553.723 13.2048 554.374 13.22C554.971 13.2006 555.562 13.3472 556.081 13.6436C556.55 13.9315 556.922 14.3547 557.145 14.8574C557.269 15.1291 557.363 15.4141 557.426 15.7061L551.043 15.7261ZM573.194 11.611L570.953 14.1752C570.754 13.9573 570.506 13.7892 570.23 13.6843C569.92 13.5696 569.591 13.5137 569.26 13.5195C568.915 13.5062 568.571 13.5634 568.25 13.6878C567.928 13.8121 567.635 14.0009 567.39 14.2425C566.907 14.7245 566.666 15.4561 566.666 16.4381V23.7211H563.086V10.5478H566.666V11.7156L566.692 11.6784C567.477 10.7427 568.606 10.2749 570.08 10.2749C570.668 10.266 571.253 10.3726 571.801 10.5885C572.338 10.8178 572.814 11.1677 573.194 11.611ZM571.897 19.4661C571.597 19.4561 571.298 19.5091 571.02 19.6211C570.742 19.7341 570.491 19.9041 570.284 20.1201C569.88 20.5591 569.656 21.1341 569.656 21.7301C569.656 22.3271 569.88 22.9011 570.284 23.3401C570.491 23.5561 570.742 23.7261 571.02 23.8391C571.298 23.9521 571.597 24.0051 571.897 23.9941C572.192 24.0021 572.485 23.9481 572.758 23.8361C573.031 23.7231 573.277 23.5541 573.48 23.3401C573.883 22.9011 574.107 22.3271 574.107 21.7301C574.107 21.1341 573.883 20.5591 573.48 20.1201C573.277 19.9061 573.031 19.7371 572.758 19.6251C572.485 19.5121 572.192 19.4581 571.897 19.4661ZM585.177 10.8473C585.657 11.0897 586.091 11.4135 586.46 11.8042L586.454 10.5478H590.003V23.7261H586.454V22.4511C586.083 22.8401 585.649 23.1651 585.172 23.4131C584.385 23.8131 583.513 24.0141 582.631 23.9991C581.483 24.0151 580.355 23.7021 579.38 23.0991C578.416 22.5001 577.633 21.6521 577.114 20.6451C576.574 19.5551 576.294 18.3551 576.294 17.1401C576.294 15.9241 576.574 14.7247 577.114 13.6347C577.633 12.6269 578.416 11.7786 579.38 11.1804C580.356 10.5743 581.486 10.2601 582.636 10.2749C583.517 10.2593 584.388 10.4556 585.177 10.8473ZM583.291 20.6941C584.291 20.6931 585.102 20.3611 585.722 19.6991H585.716C586.336 19.0351 586.648 18.1751 586.651 17.1201C586.664 16.4811 586.518 15.8491 586.227 15.2791C585.96 14.7598 585.554 14.3252 585.052 14.0245C584.518 13.7161 583.908 13.5604 583.291 13.5745C582.682 13.5625 582.083 13.7182 581.557 14.0245C581.056 14.3252 580.649 14.7598 580.382 15.2791C580.093 15.8491 579.947 16.4811 579.96 17.1201C579.946 17.7681 580.09 18.4101 580.382 18.9901C580.65 19.5091 581.056 19.9431 581.557 20.2441C582.083 20.5511 582.682 20.7061 583.291 20.6941ZM596.78 10.546H593.174V23.7211H596.78V10.546ZM595.771 8.28251C595.519 8.38361 595.248 8.43031 594.977 8.41961C594.708 8.42761 594.441 8.37961 594.192 8.27861C593.943 8.17761 593.718 8.02591 593.531 7.83301C593.162 7.43911 592.957 6.92001 592.957 6.38081C592.957 5.84161 593.162 5.3225 593.531 4.9287C593.917 4.544 594.44 4.3279 594.985 4.3279C595.531 4.3279 596.054 4.544 596.439 4.9287C596.8 5.3265 597 5.84411 597 6.38081C597 6.91761 596.8 7.43521 596.439 7.83301C596.251 8.02831 596.023 8.18141 595.771 8.28251Z" fill="currentColor" style="fill:currentColor;fill-opacity:1;"/>
<mask id="mask1_1289_1503" style="mask-type:luminance" maskUnits="userSpaceOnUse" x="629" y="2" width="101" height="24">
<path d="M730 2.5H629V25.5H730V2.5Z" fill="white" style="fill:white;fill-opacity:1;"/>
</mask>
<g mask="url(#mask1_1289_1503)">
<path d="M678.046 8.563C683.171 8.563 684.902 13.128 685.089 15.693C685.161 16.665 685.074 17.243 685.017 17.57C684.997 17.681 684.939 17.781 684.853 17.853C684.767 17.925 684.659 17.965 684.546 17.965H674.355C674.284 17.965 674.214 17.982 674.15 18.012C674.086 18.043 674.029 18.087 673.985 18.142C673.94 18.197 673.907 18.262 673.89 18.331C673.873 18.399 673.871 18.471 673.885 18.541C674.218 20.398 675.805 21.966 678.337 21.966C680.369 21.966 682.144 21.217 683.06 20.746C683.173 20.689 683.304 20.678 683.424 20.717C683.544 20.755 683.645 20.84 683.703 20.952L684.377 22.229C684.487 22.442 684.437 22.724 684.228 22.841C681.99 24.084 680.15 24.517 678.053 24.521C673.36 24.529 670.311 21.301 670.311 16.526C670.311 12.884 673.039 8.563 678.046 8.563ZM723.42 8.56C726.838 8.56 729.768 11.114 729.768 14.941V23.571C729.768 23.74 729.701 23.903 729.581 24.023C729.461 24.142 729.299 24.21 729.129 24.21H727.037C726.863 24.21 726.715 24.063 726.687 23.886C726.635 23.541 726.265 23.366 725.952 23.554C724.952 24.152 723.713 24.558 721.469 24.517C718.407 24.459 716.165 22.547 716.019 20.346C715.874 18.136 717.091 16.883 718.759 16.045C720.419 15.21 722.102 14.733 725.883 14.287C726.283 14.241 726.536 13.837 726.415 13.453C726.041 12.278 725.041 11.116 722.765 11.116C720.881 11.116 719.251 12.02 718.243 12.595C718.166 12.6392 718.08 12.6667 717.992 12.6757C717.903 12.6847 717.814 12.675 717.729 12.6473C717.644 12.6196 717.567 12.5745 717.5 12.5148C717.434 12.4552 717.381 12.3823 717.345 12.301L716.853 11.201C716.79 11.0599 716.78 10.9007 716.826 10.7529C716.871 10.6052 716.968 10.4787 717.099 10.397C718.293 9.66 720.364 8.562 723.419 8.562L723.42 8.56ZM712.325 2.5C712.678 2.5 712.964 2.786 712.964 3.139V23.573C712.964 23.742 712.897 23.905 712.777 24.025C712.657 24.144 712.495 24.212 712.325 24.212H710.257C710.167 24.211 710.079 24.178 710.011 24.119C709.943 24.059 709.898 23.978 709.884 23.888C709.873 23.809 709.842 23.734 709.795 23.67C709.747 23.606 709.685 23.555 709.613 23.522C709.54 23.488 709.461 23.473 709.381 23.478C709.302 23.483 709.225 23.508 709.157 23.55C708.122 24.189 706.927 24.525 705.71 24.519C701.81 24.519 698.457 21.285 698.457 16.54C698.457 11.795 702.299 8.563 705.971 8.563C707.198 8.563 708.041 8.818 708.687 9.183C709.127 9.433 709.667 9.083 709.637 8.58C709.622 8.309 709.612 8.02 709.612 7.728V3.138C709.612 2.786 709.898 2.5 710.251 2.5H712.325ZM696.768 8.66C696.838 8.6468 696.909 8.649 696.977 8.6665C697.046 8.6839 697.109 8.7163 697.164 8.7611C697.218 8.806 697.262 8.8623 697.292 8.9261C697.322 8.9898 697.338 9.0595 697.338 9.13V11.344C697.337 11.4564 697.297 11.5649 697.224 11.6506C697.152 11.7363 697.051 11.7938 696.94 11.813C695.168 12.127 691.917 13.754 691.917 17.837V23.739C691.917 23.866 691.867 23.988 691.777 24.078C691.687 24.168 691.565 24.219 691.438 24.219H688.776C688.649 24.218 688.528 24.168 688.438 24.078C688.349 23.988 688.298 23.866 688.298 23.739V9.378C688.298 9.113 688.512 8.9 688.776 8.899H690.884C691.134 8.899 691.344 9.094 691.361 9.345L691.449 10.972C691.454 11.0676 691.488 11.1595 691.546 11.2358C691.604 11.3121 691.683 11.3693 691.774 11.3999C691.865 11.4305 691.962 11.4331 692.055 11.4075C692.147 11.3818 692.229 11.3291 692.291 11.256C693.546 9.768 695.271 8.944 696.768 8.658V8.66ZM655.289 8.89C655.414 8.8901 655.535 8.9265 655.639 8.9947C655.744 9.0629 655.825 9.16 655.875 9.274L660.105 19.002C660.44 19.77 661.529 19.77 661.862 19.002L666.089 9.274C666.139 9.16 666.221 9.0629 666.325 8.9947C666.429 8.9265 666.551 8.8901 666.675 8.89H668.785C669.247 8.89 669.556 9.367 669.366 9.79L663.068 23.84C663.018 23.952 662.936 24.048 662.832 24.114C662.729 24.181 662.608 24.217 662.485 24.217H659.481C659.358 24.217 659.237 24.182 659.134 24.115C659.03 24.048 658.948 23.952 658.897 23.84L652.594 9.79C652.551 9.6927 652.533 9.5861 652.541 9.48C652.549 9.3738 652.584 9.2714 652.642 9.182C652.7 9.0927 652.779 9.0192 652.873 8.9682C652.966 8.9172 653.071 8.8903 653.177 8.89H655.289ZM705.971 11.115C704.047 11.123 701.81 13.026 701.81 16.525C701.81 20.024 703.81 21.921 705.883 21.979C707.293 22.019 708.316 21.263 709.009 20.518C709.401 20.098 709.612 19.651 709.612 19.122V13.655C709.613 13.3844 709.556 13.1168 709.445 12.87C709.334 12.6232 709.172 12.403 708.969 12.224C708.143 11.4933 707.074 11.0977 705.971 11.115ZM725.698 16.457C723.758 16.693 721.544 17.239 720.594 17.791C719.524 18.411 719.216 19.205 719.216 19.925C719.216 21.07 720.168 21.978 722.046 21.978C723.803 21.978 724.812 21.436 725.769 20.593C726.181 20.232 726.415 19.707 726.415 19.159L726.416 17.092C726.416 17.001 726.397 16.912 726.36 16.829C726.322 16.747 726.268 16.673 726.2 16.613C726.132 16.553 726.053 16.508 725.966 16.481C725.879 16.454 725.788 16.446 725.698 16.457ZM677.976 11.117C675.506 11.117 674.021 13.374 673.698 14.865C673.684 14.935 673.686 15.007 673.703 15.075C673.721 15.144 673.753 15.208 673.798 15.263C673.843 15.318 673.9 15.362 673.965 15.392C674.029 15.422 674.099 15.437 674.17 15.437H681.605C681.675 15.437 681.743 15.422 681.806 15.394C681.869 15.365 681.925 15.322 681.971 15.27C682.016 15.217 682.049 15.155 682.068 15.088C682.086 15.022 682.09 14.951 682.079 14.883C681.825 13.427 680.618 11.117 677.976 11.117Z" fill="currentColor" style="fill:currentColor;fill-opacity:1;"/>
<path d="M646.889 8.556C647.451 8.556 647.907 9.016 647.907 9.583C647.907 10.15 647.45 10.609 646.889 10.609C646.7 10.609 646.519 10.6841 646.385 10.8178C646.251 10.9515 646.176 11.1329 646.176 11.322C646.176 11.5111 646.251 11.6925 646.385 11.8262C646.519 11.9599 646.7 12.035 646.889 12.035C647.451 12.035 647.907 12.495 647.907 13.062C647.907 13.628 647.451 14.088 646.889 14.088C646.7 14.088 646.519 14.1631 646.385 14.2967C646.252 14.4303 646.177 14.612 646.177 14.8C646.177 14.989 646.252 15.171 646.385 15.304C646.519 15.438 646.7 15.513 646.889 15.513C647.451 15.513 647.907 15.974 647.907 16.541C647.907 17.107 647.45 17.567 646.889 17.567C646.7 17.567 646.519 17.642 646.386 17.776C646.252 17.909 646.177 18.09 646.177 18.279C646.177 18.468 646.252 18.649 646.386 18.782C646.519 18.916 646.7 18.991 646.889 18.991C647.45 18.991 647.907 19.451 647.907 20.018C647.907 20.584 647.451 21.046 646.889 21.046C646.7 21.046 646.519 21.121 646.385 21.255C646.252 21.388 646.177 21.57 646.177 21.758C646.177 21.947 646.252 22.129 646.385 22.262C646.519 22.396 646.7 22.471 646.889 22.471C647.451 22.471 647.907 22.931 647.907 23.497C647.907 24.063 647.451 24.523 646.889 24.523C646.618 24.522 646.358 24.413 646.167 24.221C645.976 24.028 645.869 23.768 645.87 23.497C645.87 23.404 645.852 23.311 645.817 23.225C645.781 23.139 645.729 23.06 645.663 22.994C645.598 22.928 645.52 22.876 645.434 22.84C645.348 22.804 645.255 22.785 645.162 22.785C644.891 22.783 644.632 22.674 644.441 22.482C644.25 22.289 644.143 22.029 644.144 21.758C644.144 21.665 644.126 21.572 644.091 21.486C644.055 21.399 644.003 21.321 643.937 21.255C643.871 21.189 643.792 21.136 643.706 21.1C643.62 21.064 643.527 21.046 643.434 21.046C643.163 21.044 642.903 20.935 642.713 20.742C642.522 20.55 642.415 20.289 642.416 20.018C642.417 19.83 642.342 19.649 642.21 19.516C642.077 19.382 641.897 19.307 641.709 19.306C641.438 19.305 641.178 19.196 640.987 19.003C640.796 18.811 640.689 18.55 640.69 18.279C640.691 18.091 640.616 17.91 640.484 17.777C640.351 17.643 640.171 17.568 639.983 17.567C639.421 17.567 638.963 17.107 638.963 16.541C638.963 15.975 639.421 15.513 639.983 15.513C640.171 15.512 640.351 15.437 640.484 15.303C640.616 15.17 640.691 14.989 640.69 14.801C640.69 14.234 641.147 13.774 641.709 13.773C641.897 13.7722 642.077 13.6969 642.209 13.5636C642.342 13.4304 642.416 13.25 642.416 13.062C642.416 12.495 642.873 12.035 643.435 12.035C643.825 12.035 644.144 11.715 644.144 11.321C644.144 10.755 644.6 10.295 645.162 10.295C645.552 10.295 645.87 9.975 645.87 9.583C645.87 9.016 646.327 8.556 646.889 8.556ZM629 8.852C629 8.602 629.293 8.472 629.479 8.638L637.997 16.305C638.03 16.335 638.056 16.372 638.074 16.412C638.092 16.453 638.101 16.497 638.101 16.541C638.101 16.586 638.092 16.63 638.074 16.671C638.056 16.711 638.03 16.748 637.997 16.778L629.48 24.445C629.439 24.482 629.387 24.507 629.332 24.516C629.277 24.525 629.221 24.517 629.17 24.495C629.119 24.472 629.076 24.435 629.046 24.388C629.016 24.341 629 24.287 629 24.231V22.51C629 22.459 629.012 22.408 629.036 22.362C629.06 22.317 629.094 22.278 629.136 22.248L636.528 17.395C636.588 17.351 636.539 17.257 636.468 17.282L629.43 19.861C629.382 19.879 629.33 19.884 629.279 19.878C629.228 19.871 629.179 19.852 629.137 19.823C629.095 19.794 629.06 19.754 629.036 19.709C629.013 19.663 629 19.612 629 19.561V18.153C629 18.078 629.027 18.005 629.076 17.947C629.125 17.89 629.193 17.851 629.267 17.839L636.485 16.635C636.592 16.617 636.592 16.465 636.485 16.446L629.267 15.242C629.193 15.23 629.125 15.191 629.076 15.134C629.027 15.076 629 15.003 629 14.928V13.52C629 13.4685 629.013 13.4179 629.036 13.3723C629.06 13.3267 629.095 13.2875 629.137 13.2581C629.179 13.2286 629.228 13.2098 629.279 13.2032C629.33 13.1965 629.382 13.2023 629.43 13.22L636.468 15.803C636.538 15.828 636.587 15.734 636.526 15.691L629.136 10.836C629.094 10.8065 629.06 10.7672 629.036 10.7216C629.012 10.676 629 10.6254 629 10.574V8.852ZM645.175 19.124C645.058 19.124 644.941 19.147 644.833 19.192C644.725 19.237 644.626 19.303 644.543 19.386C644.46 19.469 644.394 19.567 644.35 19.676C644.305 19.784 644.282 19.9 644.282 20.017C644.282 20.135 644.305 20.251 644.35 20.359C644.394 20.468 644.46 20.566 644.543 20.649C644.626 20.732 644.725 20.798 644.833 20.843C644.941 20.888 645.058 20.911 645.175 20.911C645.412 20.911 645.639 20.817 645.807 20.649C645.974 20.482 646.069 20.254 646.069 20.017C646.069 19.781 645.974 19.553 645.807 19.386C645.639 19.218 645.412 19.124 645.175 19.124ZM643.435 17.384C643.317 17.384 643.201 17.408 643.093 17.453C642.984 17.498 642.885 17.565 642.803 17.648C642.72 17.731 642.654 17.83 642.609 17.939C642.565 18.048 642.542 18.164 642.542 18.282C642.542 18.4 642.566 18.516 642.611 18.625C642.656 18.733 642.723 18.832 642.806 18.914C642.889 18.997 642.988 19.063 643.097 19.108C643.206 19.152 643.322 19.175 643.44 19.175C643.677 19.174 643.905 19.079 644.072 18.911C644.24 18.743 644.333 18.515 644.333 18.278C644.332 18.04 644.237 17.813 644.069 17.645C643.9 17.478 643.672 17.383 643.435 17.384ZM641.696 15.647C641.574 15.64 641.452 15.658 641.338 15.7C641.223 15.741 641.119 15.806 641.03 15.89C640.941 15.973 640.871 16.074 640.822 16.186C640.774 16.298 640.749 16.419 640.749 16.54C640.749 16.662 640.774 16.783 640.822 16.895C640.871 17.007 640.941 17.108 641.03 17.191C641.119 17.275 641.223 17.34 641.338 17.381C641.452 17.423 641.574 17.441 641.696 17.434C641.924 17.421 642.138 17.321 642.295 17.155C642.452 16.989 642.539 16.769 642.539 16.54C642.539 16.312 642.452 16.092 642.295 15.926C642.138 15.76 641.924 15.66 641.696 15.647ZM645.175 15.647C645.055 15.643 644.936 15.663 644.824 15.707C644.712 15.75 644.61 15.815 644.524 15.899C644.438 15.982 644.369 16.082 644.323 16.192C644.276 16.303 644.252 16.422 644.252 16.542C644.252 16.661 644.277 16.78 644.323 16.89C644.37 17.001 644.439 17.101 644.525 17.184C644.612 17.267 644.714 17.332 644.826 17.375C644.938 17.418 645.057 17.438 645.177 17.434C645.409 17.426 645.628 17.328 645.789 17.161C645.95 16.994 646.04 16.771 646.04 16.54C646.04 16.308 645.949 16.085 645.788 15.918C645.627 15.752 645.407 15.654 645.175 15.647ZM643.435 13.909C643.318 13.9092 643.201 13.9325 643.093 13.9777C642.984 14.0228 642.886 14.0889 642.803 14.1721C642.72 14.2553 642.654 14.354 642.61 14.4626C642.565 14.571 642.542 14.688 642.542 14.805C642.542 14.922 642.566 15.039 642.611 15.147C642.656 15.256 642.722 15.354 642.805 15.437C642.888 15.52 642.987 15.586 643.096 15.63C643.204 15.675 643.321 15.698 643.438 15.698C643.675 15.698 643.903 15.603 644.07 15.435C644.238 15.267 644.331 15.039 644.331 14.802C644.331 14.565 644.236 14.3374 644.068 14.1699C643.9 14.0025 643.672 13.9086 643.435 13.909ZM645.175 12.172C645.058 12.1721 644.941 12.1954 644.833 12.2405C644.724 12.2855 644.626 12.3515 644.543 12.4347C644.46 12.5179 644.394 12.6165 644.349 12.7251C644.304 12.8337 644.281 12.95 644.282 13.0675C644.282 13.185 644.305 13.3013 644.35 13.4097C644.395 13.5182 644.461 13.6167 644.544 13.6997C644.627 13.7827 644.726 13.8485 644.835 13.8933C644.943 13.9381 645.06 13.9611 645.177 13.961C645.414 13.9607 645.642 13.8662 645.81 13.6982C645.977 13.5301 646.071 13.3024 646.071 13.065C646.071 12.8276 645.976 12.6001 645.808 12.4324C645.64 12.2648 645.412 12.1717 645.175 12.172Z" fill="currentColor" style="fill:currentColor;fill-opacity:1;"/>
</g>
<mask id="mask2_1289_1503" style="mask-type:luminance" maskUnits="userSpaceOnUse" x="762" y="0" width="117" height="32">
<path d="M878.364 0H762V32H878.364V0Z" fill="white" style="fill:white;fill-opacity:1;"/>
</mask>
<g mask="url(#mask2_1289_1503)">
<path d="M792.562 18.235C792.513 18.186 792.545 18.088 792.627 18.088H792.953H792.97C795.76 17.812 798.093 16.0081 798.093 12.8227C798.093 9.1498 795.123 7.4595 791.713 7.4595H775.772C775.56 7.4595 775.381 7.6383 775.381 7.8496V24.134C775.381 24.345 775.56 24.524 775.772 24.524H780.863C781.075 24.524 781.254 24.345 781.254 24.134V18.933C781.254 18.722 781.434 18.543 781.646 18.543H784.958C785.415 18.543 785.856 18.738 786.166 19.08L790.881 24.378C790.979 24.427 791.077 24.459 791.175 24.508H797.897C798.24 24.508 798.419 24.102 798.174 23.858L792.562 18.235ZM790.44 14.7405H781.63C781.418 14.7405 781.238 14.5617 781.238 14.3504V11.8801C781.238 11.6688 781.418 11.49 781.63 11.49H790.31C791.55 11.49 792.366 12.0914 792.366 13.0665C792.366 14.1716 791.615 14.7405 790.44 14.7405Z" fill="currentColor" style="fill:currentColor;fill-opacity:1;"/>
<path d="M856.913 7.4762H851.822C851.61 7.4762 851.43 7.655 851.43 7.8663V18.674C851.43 18.885 851.61 19.064 851.822 19.064H856.913C857.125 19.064 857.304 18.885 857.304 18.674V7.8663C857.288 7.655 857.125 7.4762 856.913 7.4762Z" fill="currentColor" style="fill:currentColor;fill-opacity:1;"/>
<path d="M856.913 21.354H851.822C851.61 21.354 851.43 21.533 851.43 21.745V24.15C851.43 24.361 851.61 24.54 851.822 24.54H856.913C857.125 24.54 857.304 24.361 857.304 24.15V21.745C857.288 21.533 857.125 21.354 856.913 21.354Z" fill="currentColor" style="fill:currentColor;fill-opacity:1;"/>
<path d="M877.861 24.021L871.318 15.391C871.172 15.1959 871.188 14.9359 871.351 14.7571L877.536 7.9963C877.715 7.8013 877.568 7.4925 877.307 7.4925H871.955C871.808 7.4925 871.678 7.5575 871.58 7.655L865.608 14.1883C865.592 14.2046 865.559 14.2208 865.526 14.2208H865.314C865.265 14.2208 865.216 14.1721 865.216 14.1233V7.8338C865.216 7.6387 865.053 7.4762 864.858 7.4762H859.963C859.767 7.4762 859.604 7.6387 859.604 7.8338V24.151C859.604 24.33 859.751 24.476 859.93 24.476H864.874C865.053 24.476 865.2 24.33 865.2 24.151V21.112C865.2 20.982 865.249 20.868 865.331 20.77L867.5 18.463C867.5 18.463 867.516 18.43 867.565 18.43C867.614 18.43 867.826 18.43 867.859 18.43C867.891 18.43 867.924 18.463 867.924 18.463L872.297 24.281C872.395 24.411 872.543 24.476 872.706 24.476H877.617C877.877 24.476 878.009 24.2 877.861 24.021Z" fill="currentColor" style="fill:currentColor;fill-opacity:1;"/>
<path d="M806.006 11.3767H810.983C811.195 11.3767 811.374 11.1979 811.374 10.9867V7.8663C811.374 7.655 811.195 7.4762 810.983 7.4762H800.687C800.475 7.4762 800.295 7.655 800.295 7.8663V24.151C800.295 24.362 800.475 24.541 800.687 24.541H810.983C811.195 24.541 811.374 24.362 811.374 24.151V21.03C811.374 20.819 811.195 20.64 810.983 20.64H805.973C805.761 20.64 805.582 20.462 805.582 20.25V18.219C805.582 17.991 805.778 17.796 806.006 17.796H810.983C811.195 17.796 811.374 17.617 811.374 17.406V14.3508C811.374 14.1396 811.195 13.9608 810.983 13.9608H806.006C805.778 13.9608 805.582 13.7658 805.582 13.5382V11.783C805.582 11.5555 805.778 11.3767 806.006 11.3767Z" fill="currentColor" style="fill:currentColor;fill-opacity:1;"/>
<path d="M819.384 11.3767H824.361C824.573 11.3767 824.752 11.1979 824.752 10.9867V7.8663C824.752 7.655 824.573 7.4762 824.361 7.4762H814.065C813.853 7.4762 813.674 7.655 813.674 7.8663V24.151C813.674 24.362 813.853 24.541 814.065 24.541H824.361C824.573 24.541 824.752 24.362 824.752 24.151V21.03C824.752 20.819 824.573 20.64 824.361 20.64H819.352C819.14 20.64 818.96 20.462 818.96 20.25V18.219C818.96 17.991 819.156 17.796 819.384 17.796H824.361C824.573 17.796 824.752 17.617 824.752 17.406V14.3508C824.752 14.1396 824.573 13.9608 824.361 13.9608H819.384C819.156 13.9608 818.96 13.7658 818.96 13.5382V11.783C818.96 11.5555 819.156 11.3767 819.384 11.3767Z" fill="currentColor" style="fill:currentColor;fill-opacity:1;"/>
<path d="M767.711 11.3767H772.688C772.9 11.3767 773.079 11.1979 773.079 10.9867V7.8663C773.079 7.655 772.9 7.4762 772.688 7.4762H762.392C762.18 7.4762 762 7.655 762 7.8663V24.151C762 24.362 762.18 24.541 762.392 24.541H766.895C767.107 24.541 767.287 24.362 767.287 24.151V18.235C767.287 18.008 767.483 17.813 767.711 17.813H772.688C772.9 17.813 773.079 17.634 773.079 17.422V14.3671C773.079 14.1558 772.9 13.977 772.688 13.977H767.711C767.483 13.977 767.287 13.782 767.287 13.5545V11.7993C767.287 11.5555 767.466 11.3767 767.711 11.3767Z" fill="currentColor" style="fill:currentColor;fill-opacity:1;"/>
<path d="M842.863 7.4762H827.445C827.232 7.4762 827.053 7.655 827.053 7.8663V24.151C827.053 24.362 827.232 24.541 827.445 24.541H832.535C832.747 24.541 832.927 24.362 832.927 24.151V18.771C832.927 18.658 833.008 18.576 833.123 18.576H833.857H842.88C846.795 18.576 849.765 16.5448 849.765 12.9531C849.765 9.2314 846.796 7.4762 842.863 7.4762ZM842.129 14.7409H833.318C833.106 14.7409 832.927 14.5621 832.927 14.3508V11.8805C832.927 11.6693 833.106 11.4905 833.318 11.4905H841.999C843.239 11.4905 844.054 12.0918 844.054 13.0669C844.054 14.1721 843.288 14.7409 842.129 14.7409Z" fill="currentColor" style="fill:currentColor;fill-opacity:1;"/>
</g>
</svg>
