<svg preserveAspectRatio="none" width="100%" height="100%" overflow="visible" style="display: block;" viewBox="0 0 30.8158 20.3817" fill="none" xmlns="http://www.w3.org/2000/svg">
<path id="Union" d="M30.8158 7.0732C30.8158 7.86885 30.4998 8.63192 29.9372 9.19453L18.9712 20.1605C18.4987 20.633 17.6908 20.2984 17.6908 19.6302V13.8765C17.6908 13.2083 16.883 12.8737 16.4105 13.3462L9.59618 20.1605C9.1237 20.633 8.31584 20.2984 8.31584 19.6302V13.1908C8.31584 12.5695 7.81216 12.0658 7.19084 12.0658H0.751504C0.0833249 12.0658 -0.2513 11.258 0.221174 10.7855L10.7855 0.221173C11.258 -0.251301 12.0658 0.0833271 12.0658 0.751506V6.50519C12.0658 7.17336 12.8737 7.50799 13.3462 7.03552L20.1605 0.221177C20.633 -0.251297 21.4408 0.0833271 21.4408 0.751506V6.50519C21.4408 7.17336 22.2487 7.50799 22.7212 7.03552L29.5355 0.221177C30.008 -0.251297 30.8158 0.0833271 30.8158 0.751506V7.0732Z" fill="var(--fill-0, white)" style="fill:white;fill-opacity:1;"/>
</svg>
