<svg width="53" height="16" viewBox="0 0 53 16" fill="none" xmlns="http://www.w3.org/2000/svg">
<g clip-path="url(#clip0_558_285)">
<mask id="mask0_558_285" style="mask-type:luminance" maskUnits="userSpaceOnUse" x="0" y="0" width="53" height="16">
<path d="M52.5961 0H0.903839V16H52.5961V0Z" fill="white"/>
</mask>
<g mask="url(#mask0_558_285)">
<path d="M51.5442 3.18213L46.4002 14.7421H44.018L45.6642 11.0781L41.71 3.18213H44.1642L46.7922 8.58213L49.1682 3.18213H51.5442ZM40.5442 12.0621H38.2642V11.4241C37.53 11.9807 36.6312 12.2757 35.71 12.2621C33.1962 12.2621 31.2241 10.2221 31.2241 7.62213C31.2241 5.02213 33.1962 2.98214 35.71 2.98214C36.6312 2.96856 37.53 3.26355 38.2642 3.82013V3.18213H40.5442V12.0621ZM36.026 4.90213C34.59 4.90213 33.506 6.07213 33.506 7.62213C33.506 9.17213 34.59 10.3421 36.026 10.3421C37.462 10.3421 38.546 9.17213 38.546 7.62213C38.546 6.07213 37.462 4.90213 36.026 4.90213ZM20.6641 3.18213H22.9441V3.82013C23.6789 3.26382 24.5785 2.96888 25.5001 2.98214C28.0141 2.98214 29.9841 5.02013 29.9841 7.62213C29.9841 10.2241 28.0141 12.2621 25.5001 12.2621C24.6123 12.2755 23.7439 12.0019 23.0241 11.4821V14.7421H20.6641V3.18213ZM22.6641 7.62213C22.6641 9.17213 23.7481 10.3421 25.1841 10.3421C26.6201 10.3421 27.7041 9.17213 27.7041 7.62213C27.7041 6.07213 26.6201 4.90213 25.1841 4.90213C23.7481 4.90213 22.6641 6.07213 22.6641 7.62213Z" fill="#00DE5A"/>
<path d="M16.9038 8C16.9038 9.58225 16.4347 11.129 15.5556 12.4446C14.6765 13.7602 13.4271 14.7855 11.9653 15.391C10.5035 15.9966 8.89498 16.155 7.34313 15.8463C5.79129 15.5376 4.36581 14.7757 3.24699 13.6569C2.12817 12.538 1.36624 11.1126 1.05756 9.56074C0.748878 8.00889 0.907308 6.40034 1.51281 4.93852C2.11831 3.47674 3.1437 2.2273 4.45929 1.34824C5.77489 0.469191 7.32159 0 8.90384 0C11.0256 0 13.0604 0.842856 14.5607 2.34315C16.061 3.84345 16.9038 5.87828 16.9038 8ZM10.5758 3.88V8.532L7.30984 3.88H4.78384V12.12H7.23384V7.466L10.4998 12.12H13.0238V3.88H10.5758Z" fill="#00DE5A"/>
</g>
</g>
<defs>
<clipPath id="clip0_558_285">
<rect width="51.6923" height="16" fill="white" transform="translate(0.903839)"/>
</clipPath>
</defs>
</svg>
