<svg width="302" height="32" viewBox="0 0 302 32" fill="none" xmlns="http://www.w3.org/2000/svg">
<g clip-path="url(#clip0_401_8373)">
<path d="M5.64065 25.6458L0.0234375 27.088V1.49818L5.64065 2.94182V25.6458ZM32.7834 27.1428L27.156 28.5874V0L32.7834 1.43321V27.1428ZM14.5526 26.4262L8.93544 27.8708V12.7966L14.5526 14.24V26.4262ZM18.2222 10.56L23.8496 9.11539V24.1898L18.2222 22.7452V10.56ZM55.2714 14.1006C55.8714 13.6948 56.3788 13.1661 56.7594 12.5498C57.229 11.7915 57.4736 10.9156 57.4647 10.024C57.4647 8.93382 57.2087 7.93818 56.7056 7.06061C56.2028 6.184 55.4647 5.456 54.5114 4.88921C53.9447 4.55782 53.2394 4.312 52.3936 4.16218C51.5594 4.02279 50.4256 3.94739 49.0133 3.94739H43.7173V25.8902H51.7628C53.7948 25.8902 55.5287 25.2812 56.8976 24.0938C58.2782 22.8948 58.9847 21.3862 58.9847 19.6218C58.9847 18.2092 58.62 17 57.8933 16.0378C57.2727 15.2034 56.3847 14.5498 55.2714 14.0902V14.1018V14.1006ZM53.2394 12.3462C52.5973 12.8914 51.6656 13.1692 50.4576 13.1692H47.0554V6.91079H50.276C51.6016 6.91079 52.596 7.17818 53.2496 7.71418C53.892 8.23782 54.2016 9.008 54.2016 10.0572C54.2016 11.1052 53.892 11.8114 53.2496 12.3462H53.2382H53.2394ZM47.0453 16.1862H51.0988C52.596 16.1862 53.7422 16.4766 54.4908 17.0434C55.2293 17.5988 55.5822 18.4022 55.5822 19.4926C55.5822 20.584 55.2176 21.4182 54.4588 21.9748C53.6887 22.5418 52.5216 22.832 50.9927 22.832H47.0554V16.176L47.044 16.1874L47.0453 16.1862ZM81.3447 7.072H78.1788V10.656H72.1868L68.2714 20.1246C68.2062 20.2846 68.0782 20.6274 67.8966 21.1726C67.7893 21.4938 67.6714 21.8686 67.532 22.2754C67.404 21.8366 67.2976 21.4514 67.1902 21.1302C66.9653 20.4138 66.8794 20.2102 66.8474 20.1246L62.996 10.656H59.4874L65.7456 25.624L63.0496 32H66.2807L74.4542 13.3942H78.188V22.5748C78.188 23.88 78.4988 24.832 79.1093 25.4092C79.7182 25.9772 80.724 26.2766 82.1034 26.2766H83.8373V23.248H82.1902C81.8794 23.248 81.6656 23.184 81.5376 23.0458C81.4087 22.8948 81.3447 22.6388 81.3447 22.2754V13.4058H83.8373V10.6662H81.3456V7.07079L81.3447 7.072ZM93.1548 10.2812C90.8348 10.2812 88.9296 11.0412 87.4862 12.528C86.0416 14.0148 85.3136 15.984 85.3136 18.3794C85.3136 19.3966 85.4853 20.3818 85.8382 21.3018C86.1813 22.232 86.6942 23.056 87.3468 23.7622C88.0957 24.5661 89.0074 25.2007 90.0213 25.624C91.0833 26.0601 92.2215 26.2817 93.3696 26.2754C94.804 26.2754 96.1194 26.0092 97.2647 25.4742C98.4087 24.9382 99.4782 24.104 100.442 22.9806L100.625 22.7668L98.3228 20.9154L98.1514 21.1188C97.5001 21.8686 96.772 22.4458 95.98 22.8308C95.1914 23.2179 94.3236 23.416 93.4453 23.4092C92.0428 23.4092 90.8656 23.0126 89.9573 22.2206C89.1114 21.4938 88.6302 20.5738 88.5022 19.4286H101.116V18.9578C101.116 16.3794 100.378 14.272 98.9216 12.6994C97.4566 11.1154 95.5207 10.3028 93.1447 10.3028L93.156 10.2812H93.1548ZM89.9776 14.2502C90.8453 13.512 91.9047 13.1382 93.124 13.1382C94.3434 13.1382 95.3594 13.5018 96.1948 14.2298C96.9536 14.8926 97.4348 15.7486 97.6382 16.776H88.5127C88.6826 15.7857 89.2026 14.8895 89.9776 14.2502ZM118.651 6.75079C116.522 4.89939 113.377 3.95879 109.322 3.95879H104.614V25.9018H109.323C113.377 25.9018 116.522 24.96 118.651 23.1098C120.791 21.2468 121.882 18.4982 121.882 14.936C121.882 11.3726 120.791 8.61261 118.651 6.75079ZM109.739 22.8308H107.963V7.02861H109.739C112.649 7.02861 114.853 7.69139 116.318 9.01939C117.774 10.3348 118.501 12.3142 118.501 14.936C118.501 17.5566 117.763 19.5258 116.318 20.8412C114.863 22.1668 112.65 22.8308 109.739 22.8308ZM136.229 12.5818C135.651 11.969 134.971 11.4623 134.218 11.0846C133.244 10.6022 132.164 10.3668 130.997 10.3668C128.686 10.3668 126.804 11.0948 125.391 12.5382C123.979 13.9828 123.273 15.8982 123.273 18.2298C123.273 19.3108 123.454 20.3166 123.807 21.2366C124.171 22.1697 124.717 23.0208 125.413 23.7406C126.14 24.4897 127.009 25.0861 127.97 25.4948C128.929 25.8933 129.958 26.0967 130.997 26.0938C132.185 26.0938 133.254 25.8698 134.175 25.4194C134.881 25.0739 135.513 24.5944 136.036 24.008V25.912H139.182V10.6662H136.229V12.592V12.5818ZM134.817 14.6252C135.716 15.5668 136.175 16.7862 136.175 18.2526C136.175 19.7178 135.716 20.9486 134.817 21.8892C133.918 22.8206 132.751 23.2914 131.35 23.2914C129.949 23.2914 128.782 22.8206 127.884 21.8892C126.986 20.9588 126.525 19.7394 126.525 18.2526C126.525 16.7646 126.986 15.5554 127.884 14.6148C128.782 13.6834 129.949 13.2126 131.35 13.2126C132.751 13.2126 133.918 13.6834 134.817 14.6252ZM148.865 10.3668C148.031 10.3617 147.206 10.537 146.446 10.8812C145.843 11.1605 145.284 11.528 144.788 11.9714V10.656H141.665V25.9018H144.788V17.4822C144.788 16.0378 145.099 14.9452 145.698 14.24C146.286 13.544 147.206 13.192 148.404 13.192C149.463 13.192 150.212 13.5018 150.694 14.1542C151.186 14.8172 151.443 15.8982 151.443 17.3748V25.912H154.588V17.1178C154.588 15.0422 154.075 13.3942 153.058 12.1966C152.031 10.9874 150.619 10.3782 148.853 10.3782L148.865 10.3668ZM167.203 21.8788C166.806 22.3818 166.335 22.7668 165.78 23.0126C165.223 23.2698 164.571 23.3978 163.833 23.3978C162.474 23.3978 161.393 22.9382 160.548 21.9862C159.702 21.0446 159.275 19.792 159.275 18.2834C159.275 16.7748 159.714 15.5234 160.57 14.5612C161.425 13.5978 162.495 13.1268 163.843 13.1268C164.527 13.1268 165.148 13.2446 165.683 13.4698C166.207 13.6948 166.689 14.0468 167.106 14.5292L167.309 14.7646L169.353 12.4102L169.149 12.2286C168.454 11.5884 167.639 11.0904 166.753 10.7634C165.886 10.4422 164.902 10.2812 163.833 10.2812C162.769 10.273 161.714 10.4618 160.719 10.8378C159.782 11.2048 158.935 11.7707 158.237 12.496C157.494 13.2356 156.918 14.1256 156.547 15.1062C156.155 16.1193 155.959 17.1973 155.969 18.2834C155.969 19.4182 156.162 20.4892 156.547 21.4514C156.929 22.4228 157.504 23.3069 158.237 24.0502C158.941 24.7716 159.79 25.3336 160.73 25.6982C161.722 26.0819 162.779 26.2744 163.843 26.2652C164.966 26.2652 165.918 26.0938 166.796 25.7622C167.674 25.4308 168.508 24.896 169.299 24.168L169.502 23.9862L167.427 21.6012L167.223 21.8686L167.203 21.88V21.8788ZM186.567 18.9372C186.567 16.3588 185.829 14.2514 184.374 12.6778C182.908 11.0948 180.972 10.2812 178.597 10.2812C176.221 10.2812 174.371 11.0412 172.926 12.528C171.482 14.0148 170.755 15.984 170.755 18.3794C170.755 19.3966 170.925 20.3818 171.278 21.3018C171.621 22.232 172.134 23.056 172.787 23.7622C173.536 24.5661 174.448 25.2007 175.462 25.624C176.525 26.0604 177.663 26.2817 178.811 26.2754C180.244 26.2754 181.561 26.0092 182.705 25.4742C183.85 24.9382 184.919 24.104 185.883 22.9806L186.065 22.7668L183.764 20.9154L183.593 21.1188C182.94 21.8686 182.202 22.4458 181.421 22.8308C180.632 23.2182 179.764 23.4162 178.885 23.4092C177.484 23.4092 176.307 23.0126 175.398 22.2206C174.553 21.4834 174.071 20.5738 173.942 19.4286H186.556V18.9578L186.567 18.9372ZM175.419 14.2514C176.286 13.5132 177.345 13.1382 178.564 13.1382C179.785 13.1382 180.801 13.5018 181.635 14.2298C182.395 14.8926 182.876 15.7486 183.079 16.776H173.954C174.124 15.7857 174.644 14.8892 175.419 14.2502V14.2514ZM202.957 2.80339H201.887V27.7418H202.957V2.80339ZM224.858 26.3086C223.15 25.4931 221.669 24.2691 220.547 22.7452L223.339 20.4138C224.291 21.5258 225.307 22.392 226.378 23.0126C227.447 23.6332 228.817 23.9338 230.497 23.9338C232.079 23.9338 233.438 23.6228 234.594 22.992C235.749 22.36 236.316 21.5154 236.316 20.4458C236.316 19.3748 235.759 18.5828 234.658 17.984C233.556 17.3852 231.983 16.9258 229.929 16.5726C227.019 16.112 224.826 15.3738 223.339 14.3578C221.852 13.3406 221.102 11.8114 221.102 9.736C221.102 8.22739 221.541 6.91079 222.407 5.79879C223.275 4.68582 224.441 3.82982 225.875 3.23079C227.308 2.632 228.87 2.34279 230.549 2.34279C232.529 2.34279 234.326 2.70618 235.942 3.44461C237.557 4.17261 238.874 5.28461 239.9 6.77261L237.108 8.93261C236.316 7.93818 235.396 7.168 234.348 6.63321C233.299 6.09818 232.058 5.83079 230.614 5.83079C228.988 5.83079 227.607 6.17382 226.462 6.848C225.318 7.52218 224.751 8.41939 224.751 9.53261C224.751 10.56 225.254 11.3188 226.249 11.8218C227.244 12.3246 228.902 12.7634 231.202 13.128C233.716 13.544 235.813 14.3474 237.493 15.5132C239.183 16.6902 240.018 18.2846 240.018 20.3062C240.018 21.7508 239.569 23.024 238.681 24.1258C237.782 25.2274 236.605 26.0834 235.139 26.672C233.641 27.2681 232.043 27.5697 230.431 27.56C228.431 27.56 226.57 27.1428 224.836 26.3086H224.858ZM246.684 26.3942C245.25 25.5268 244.126 24.3394 243.303 22.8308C242.479 21.3222 242.062 19.6652 242.062 17.8252C242.062 15.984 242.479 14.4114 243.314 12.9452C244.979 9.99079 248.118 8.17527 251.509 8.20582C253.435 8.20582 255.083 8.60218 256.441 9.40461C257.779 10.185 258.858 11.3421 259.543 12.7314C260.25 14.1542 260.603 15.7806 260.603 17.6102C260.603 18.0274 260.561 18.68 260.463 19.568L245.646 19.6C245.882 20.5738 246.299 21.4194 246.919 22.1258C247.51 22.8126 248.239 23.3665 249.059 23.7508C249.873 24.1258 250.675 24.3074 251.466 24.3074C252.675 24.3074 253.766 24.0834 254.73 23.6228C255.692 23.1738 256.474 22.5748 257.083 21.8252L259.843 23.6012C259.054 24.9518 257.865 26.0247 256.441 26.672C254.986 27.3462 253.317 27.6892 251.434 27.6892C249.69 27.6892 248.107 27.2492 246.673 26.3828L246.684 26.3942ZM255.265 12.9452C254.247 12.0148 253.018 11.5542 251.551 11.5542C250.621 11.5542 249.733 11.7578 248.887 12.1646C248.04 12.5685 247.3 13.1658 246.726 13.9086C246.138 14.6604 245.767 15.56 245.657 16.5086H257.169C256.911 15.064 256.281 13.8766 255.265 12.9452ZM266.637 26.3942C265.203 25.5268 264.079 24.3394 263.257 22.8308C262.433 21.3222 262.015 19.6652 262.015 17.8252C262.015 15.984 262.433 14.4114 263.267 12.9452C264.932 9.99079 268.071 8.17527 271.462 8.20582C273.388 8.20582 275.036 8.60218 276.394 9.40461C277.732 10.185 278.811 11.3421 279.497 12.7314C280.203 14.1542 280.556 15.7806 280.556 17.6102C280.556 18.0274 280.514 18.68 280.417 19.568L265.599 19.6C265.835 20.5738 266.252 21.4194 266.873 22.1258C267.463 22.8126 268.192 23.3665 269.012 23.7508C269.826 24.1258 270.628 24.3074 271.419 24.3074C272.628 24.3074 273.719 24.0834 274.683 23.6228C275.645 23.1738 276.427 22.5748 277.036 21.8252L279.796 23.6012C279.006 24.9518 277.818 26.0247 276.394 26.672C274.939 27.3462 273.27 27.6892 271.387 27.6892C269.643 27.6892 268.06 27.2492 266.626 26.3828L266.637 26.3942ZM275.218 12.9452C274.201 12.0148 272.971 11.5542 271.505 11.5542C270.574 11.5542 269.686 11.7578 268.841 12.1646C267.993 12.5685 267.253 13.1658 266.679 13.9086C266.091 14.6604 265.72 15.56 265.61 16.5086H277.122C276.865 15.064 276.234 13.8766 275.218 12.9452ZM301.493 2.27879V27.1852H297.973V24.2218C297.204 25.2286 296.235 26.0662 295.127 26.6822C294.014 27.3028 292.753 27.6022 291.308 27.6022C289.586 27.6022 288.012 27.1748 286.579 26.3086C285.146 25.4514 284.022 24.2652 283.198 22.7668C282.374 21.2698 281.957 19.6114 281.957 17.792C281.957 15.9738 282.364 14.4114 283.177 12.9462C283.96 11.5113 285.107 10.3079 286.503 9.45721C287.915 8.5983 289.538 8.1503 291.19 8.16339C292.677 8.16339 293.982 8.47321 295.095 9.08339C296.206 9.69915 297.178 10.5367 297.951 11.544V2.26861H301.471L301.493 2.27879ZM295.063 23.4514C295.994 22.8599 296.757 22.0383 297.277 21.0662C297.81 20.0885 298.087 18.9915 298.081 17.8778C298.081 16.744 297.813 15.7062 297.277 14.7006C296.757 13.7217 295.995 12.8926 295.063 12.2926C294.122 11.6897 293.025 11.3741 291.907 11.384C290.655 11.384 289.542 11.6834 288.58 12.2926C287.637 12.8754 286.863 13.6938 286.333 14.6674C285.805 15.6162 285.529 16.6844 285.531 17.7702C285.531 18.936 285.798 20.0172 286.333 21.0332C286.852 22.0291 287.628 22.8681 288.58 23.4628C289.542 24.0618 290.655 24.3714 291.907 24.3714C293.073 24.3714 294.122 24.072 295.063 23.4628V23.4514Z" fill="white" style="fill:white;fill-opacity:1;"/>
</g>
<defs>
<clipPath id="clip0_401_8373">
<rect width="301.576" height="32" fill="white" style="fill:white;fill-opacity:1;"/>
</clipPath>
</defs>
</svg>
