<svg width="165" height="40" viewBox="0 0 165 40" fill="none" xmlns="http://www.w3.org/2000/svg">
<g clip-path="url(#clip0_401_8366)">
<path d="M117.631 25.5505H120.118V27.6984H117.631V31.8433C117.631 32.2702 117.751 32.5905 117.989 32.8042C118.228 33.0175 118.599 33.1244 119.101 33.1244C119.278 33.1256 119.455 33.1068 119.628 33.0679C119.792 33.0302 119.955 32.9862 120.118 32.936V35.0839C119.955 35.1717 119.723 35.2407 119.421 35.2911C119.132 35.3413 118.806 35.3665 118.441 35.3665C117.211 35.3665 116.294 35.0714 115.691 34.481C115.1 33.8781 114.805 32.9673 114.805 31.7491V27.6984H113.016V25.5505H114.805V23.4027L117.631 22.3476V25.5505ZM80.7429 25.3621C81.8104 25.3621 82.74 25.5694 83.5313 25.9836C84.3351 26.3981 84.9571 26.976 85.3965 27.7169C85.8362 28.4584 86.0559 29.3247 86.0559 30.3172C86.0559 31.3094 85.8298 32.1888 85.3777 32.9549C84.938 33.7085 84.3162 34.2986 83.5124 34.7259C82.7211 35.1404 81.798 35.3476 80.7429 35.3476C79.6878 35.3476 78.7582 35.1404 77.9545 34.7259C77.1632 34.2986 76.5414 33.7085 76.0893 32.9549C75.6496 32.1888 75.4298 31.3094 75.4298 30.3172C75.4298 29.3247 75.6496 28.4584 76.0893 27.7172C76.5414 26.976 77.1632 26.3984 77.9545 25.9839C78.7582 25.5694 79.6878 25.3621 80.7429 25.3621ZM98.6417 25.3621C99.6339 25.3621 100.494 25.563 101.223 25.965C101.951 26.3671 102.517 26.9259 102.919 27.6418C103.32 28.3578 103.521 29.1995 103.521 30.1665C103.521 30.3673 103.515 30.556 103.502 30.7317C103.49 30.8894 103.472 31.0468 103.446 31.2027H96.3191C96.402 31.7937 96.5855 32.2584 96.8704 32.5969C97.2849 33.0743 97.9006 33.3128 98.7171 33.3128C99.169 33.3128 99.5585 33.2375 99.8852 33.0868C100.212 32.936 100.457 32.6911 100.62 32.352H103.276C102.962 33.2815 102.422 34.016 101.656 34.5563C100.902 35.0839 99.929 35.3476 98.7356 35.3476C97.6681 35.3476 96.7388 35.1401 95.9475 34.7259C95.1562 34.2986 94.5406 33.7085 94.1011 32.9549C93.6739 32.2013 93.4606 31.3346 93.4606 30.3549C93.4606 29.3624 93.6739 28.4957 94.1011 27.7549C94.5406 27.0013 95.1498 26.4172 95.9284 26.0027C96.7072 25.5755 97.6116 25.3621 98.6417 25.3621ZM108.449 25.3621C109.717 25.3621 110.729 25.6195 111.482 26.1346C112.236 26.6369 112.65 27.3404 112.725 28.2447H110.201C110.15 27.9184 109.975 27.6731 109.673 27.5099C109.372 27.334 108.945 27.2462 108.392 27.2462C107.89 27.2462 107.513 27.3215 107.262 27.4723C107.023 27.6105 106.904 27.8114 106.904 28.0752C106.904 28.3013 107.004 28.4833 107.205 28.6215C107.406 28.7471 107.739 28.8601 108.204 28.9607L109.937 29.3186C110.904 29.5198 111.633 29.8963 112.123 30.4491C112.625 30.9891 112.876 31.6297 112.876 32.3708C112.876 33.3128 112.506 34.0476 111.765 34.5752C111.036 35.0902 110 35.3476 108.656 35.3476C107.249 35.3476 106.131 35.065 105.302 34.4998C104.473 33.9346 104.021 33.1557 103.946 32.1636H106.471C106.533 32.5905 106.747 32.9172 107.111 33.1433C107.488 33.3566 108.003 33.4636 108.656 33.4636C109.246 33.4636 109.674 33.3821 109.937 33.2186C110.214 33.043 110.352 32.7978 110.352 32.4839C110.352 32.2453 110.27 32.063 110.107 31.9372C109.956 31.7992 109.673 31.6862 109.259 31.5984L107.714 31.2781C106.571 31.0395 105.729 30.6815 105.189 30.2042C104.649 29.7143 104.379 29.0862 104.379 28.3201C104.379 27.3905 104.737 26.6685 105.453 26.1534C106.169 25.6259 107.168 25.3621 108.449 25.3621ZM139.355 25.3621C140.737 25.3621 141.792 25.6697 142.521 26.285C143.249 26.9007 143.613 27.7862 143.613 28.9418V33.181C143.613 33.4949 143.632 33.8152 143.67 34.1418C143.72 34.4557 143.795 34.7949 143.896 35.1592H141.07C140.992 34.8685 140.935 34.5726 140.9 34.2737C140.883 34.0459 140.872 33.8175 140.867 33.5888C140.6 34.1053 140.241 34.5099 139.788 34.8013C139.223 35.1656 138.532 35.3476 137.716 35.3476C136.761 35.3476 136.001 35.1091 135.436 34.6317C134.871 34.1418 134.588 33.4949 134.588 32.6911C134.588 31.7992 134.921 31.0833 135.587 30.5433C136.265 29.9905 137.208 29.6326 138.413 29.4694L140.787 29.1346V28.6401C140.787 28.2508 140.655 27.9497 140.391 27.736C140.14 27.5099 139.763 27.3969 139.261 27.3969C138.784 27.3969 138.401 27.4786 138.112 27.6418C137.835 27.8053 137.653 28.0436 137.565 28.3578H134.871C134.997 27.4911 135.443 26.7752 136.209 26.2099C136.975 25.6447 138.024 25.3621 139.355 25.3621ZM148.261 27.0873C148.452 26.6415 148.759 26.2731 149.185 25.9836C149.788 25.5691 150.541 25.3621 151.446 25.3621C152.312 25.3621 153.06 25.5694 153.688 25.9836C154.328 26.3856 154.818 26.9572 155.157 27.6984C155.509 28.4392 155.685 29.3123 155.685 30.3172C155.685 31.3346 155.503 32.2201 155.139 32.9737C154.774 33.7273 154.265 34.3114 153.612 34.7259C152.959 35.1404 152.187 35.3476 151.295 35.3476C150.378 35.3476 149.631 35.134 149.053 34.707C148.655 34.4062 148.372 34.0273 148.205 33.5705V35.1592H145.435V21.594H148.261V27.0873ZM160.645 25.3621C161.914 25.3621 162.925 25.6195 163.679 26.1346C164.432 26.6369 164.847 27.3404 164.922 28.2447H162.397C162.347 27.9184 162.172 27.6731 161.87 27.5099C161.569 27.334 161.142 27.2462 160.589 27.2462C160.087 27.2462 159.71 27.3215 159.459 27.4723C159.22 27.6105 159.1 27.8114 159.1 28.0752C159.1 28.3013 159.201 28.4833 159.402 28.6215C159.603 28.7471 159.936 28.8601 160.401 28.9607L162.134 29.3186C163.101 29.5198 163.829 29.8963 164.319 30.4491C164.821 30.9891 165.073 31.6297 165.073 32.3708C165.073 33.3128 164.702 34.0476 163.961 34.5752C163.233 35.0902 162.197 35.3476 160.853 35.3476C159.446 35.3476 158.328 35.065 157.499 34.4998C156.67 33.9346 156.218 33.1557 156.143 32.1636H158.667C158.73 32.5905 158.943 32.9172 159.308 33.1433C159.684 33.3566 160.2 33.4636 160.853 33.4636C161.443 33.4636 161.87 33.3821 162.134 33.2186C162.41 33.043 162.548 32.7978 162.548 32.4839C162.548 32.2453 162.467 32.063 162.303 31.9372C162.152 31.7992 161.87 31.6862 161.455 31.5984L159.911 31.2781C158.768 31.0395 157.926 30.6815 157.386 30.2042C156.846 29.7143 156.576 29.0862 156.576 28.3201C156.576 27.3905 156.934 26.6685 157.65 26.1534C158.366 25.6259 159.364 25.3621 160.645 25.3621ZM75.0788 23.8172H68.4093V27.6795H74.6458V29.9027H68.4093V35.1592H65.5078V21.594H75.0788V23.8172ZM92.8188 25.3621C93.0574 25.3621 93.233 25.3873 93.3461 25.4375V28.0752C93.2835 28.0502 93.1956 28.0375 93.0826 28.0375C92.9696 28.025 92.8313 28.0186 92.6678 28.0186C91.7638 28.0186 91.098 28.1821 90.671 28.5085C90.244 28.8227 90.0304 29.3688 90.0304 30.1476V35.1592H87.2043V25.5505H89.9736V27.3128C90.1982 26.7639 90.5061 26.327 90.8971 26.0027C91.4122 25.5757 92.0527 25.3621 92.8188 25.3621ZM127.413 32.936H133.932V35.1592H124.512V21.594H127.413V32.936ZM138.884 31.0708C138.382 31.1462 138.011 31.2844 137.772 31.4853C137.534 31.6862 137.414 31.9627 137.414 32.3143C137.414 32.6282 137.528 32.8671 137.754 33.0302C137.98 33.1934 138.281 33.2752 138.658 33.2752C139.248 33.2752 139.751 33.1181 140.165 32.8042C140.58 32.4775 140.787 32.1007 140.787 31.6737V30.7789L138.884 31.0708ZM80.7429 27.5853C80.0771 27.5853 79.5119 27.8239 79.0472 28.3013C78.5951 28.7784 78.369 29.4444 78.369 30.2984C78.369 30.8888 78.4756 31.3975 78.6893 31.8244C78.9026 32.2389 79.1852 32.5592 79.5371 32.7853C79.9011 33.0114 80.3032 33.1244 80.7429 33.1244C81.1823 33.1244 81.5782 33.0114 81.9298 32.7853C82.2942 32.5592 82.5829 32.2389 82.7965 31.8244C83.0098 31.3975 83.1168 30.8888 83.1168 30.2984C83.1168 29.4317 82.8843 28.7659 82.4197 28.3013C81.9675 27.8239 81.4084 27.5853 80.7429 27.5853ZM150.466 27.623C149.813 27.623 149.272 27.8615 148.845 28.3389C148.431 28.8036 148.224 29.4755 148.224 30.3549C148.224 31.234 148.431 31.9123 148.845 32.3897C149.272 32.8543 149.825 33.0868 150.504 33.0868C151.169 33.0868 151.71 32.8479 152.124 32.3708C152.538 31.8934 152.746 31.2152 152.746 30.336C152.746 29.4569 152.532 28.7847 152.105 28.3201C151.69 27.8555 151.144 27.623 150.466 27.623ZM98.6038 27.3969C97.8626 27.3969 97.2849 27.6482 96.8704 28.1505C96.6275 28.4543 96.4588 28.8499 96.3626 29.3375H100.663C100.614 28.7297 100.431 28.2711 100.111 27.9621C99.7467 27.5853 99.2443 27.3969 98.6038 27.3969ZM86.6435 8.84038C88.0252 8.84038 89.0803 9.14792 89.8087 9.76328C90.5371 10.3789 90.9014 11.2644 90.9014 12.4198V16.6589C90.9014 16.9731 90.9203 17.2937 90.958 17.6201C91.0081 17.934 91.0838 18.2731 91.184 18.6375H88.358C88.2797 18.3468 88.2232 18.0508 88.1884 17.752C88.1719 17.5453 88.1614 17.3172 88.1556 17.067C87.8884 17.5836 87.5293 17.9882 87.0768 18.2795C86.5116 18.6439 85.8209 18.8259 85.0043 18.8259C84.0498 18.8259 83.2898 18.5873 82.7246 18.1099C82.1594 17.6201 81.8768 16.9731 81.8768 16.1694C81.8768 15.2775 82.2098 14.5615 82.8753 14.0215C83.5536 13.4688 84.4956 13.1108 85.7014 12.9476L88.0753 12.6128V12.1184C88.0753 11.7291 87.9432 11.4279 87.6794 11.2143C87.4284 10.9882 87.0516 10.8752 86.5493 10.8752C86.0719 10.8752 85.689 10.9569 85.4 11.1201C85.1238 11.2833 84.9414 11.5218 84.8533 11.836H82.1591C82.2849 10.9694 82.7307 10.2534 83.4971 9.68821C84.2632 9.12299 85.3122 8.84038 86.6435 8.84038ZM96.8551 8.84038C97.6965 8.84038 98.4504 8.99748 99.1159 9.3114C99.7942 9.61285 100.347 10.0337 100.774 10.5737C101.214 11.114 101.496 11.7482 101.622 12.4766H98.8898C98.7519 12.012 98.5003 11.6604 98.1362 11.4215C97.7843 11.183 97.3698 11.0636 96.8927 11.0636C96.4406 11.0636 96.0449 11.1766 95.7058 11.4027C95.3791 11.6288 95.1281 11.9491 94.9522 12.3636C94.7765 12.7781 94.6884 13.2679 94.6884 13.8331C94.6884 14.3984 94.7765 14.8882 94.9522 15.3027C95.1281 15.7172 95.3791 16.0375 95.7058 16.2636C96.0449 16.4897 96.4406 16.6027 96.8927 16.6027C97.3698 16.6027 97.7843 16.4833 98.1362 16.2447C98.5003 16.0059 98.7519 15.6543 98.8898 15.1897H101.622C101.496 15.9181 101.214 16.5523 100.774 17.0926C100.347 17.6326 99.7942 18.0595 99.1159 18.3737C98.4504 18.6752 97.6965 18.8259 96.8551 18.8259C95.8501 18.8259 94.9646 18.6123 94.1985 18.1853C93.4322 17.7584 92.8295 17.1679 92.3898 16.4143C91.9629 15.6607 91.7493 14.8001 91.7493 13.8328C91.7493 12.8659 91.9629 12.0056 92.3898 11.252C92.8295 10.4984 93.4322 9.90792 94.1985 9.48096C94.9646 9.05401 95.8501 8.84038 96.8551 8.84038ZM71.8197 5.07227C73.0252 5.07227 73.9985 5.38009 74.7397 5.99516C75.4809 6.61082 75.8513 7.44618 75.8513 8.50125C75.8513 9.16705 75.6942 9.73835 75.3803 10.2157C75.0664 10.6928 74.6455 11.0572 74.118 11.3085C73.984 11.3723 73.8461 11.4279 73.7055 11.4749C73.9275 11.5444 74.1403 11.6331 74.3443 11.7415C74.9122 12.0337 75.3881 12.4772 75.7197 13.0227C76.0588 13.563 76.2284 14.2036 76.2284 14.9444C76.2284 15.6856 76.0525 16.3389 75.7006 16.9042C75.3614 17.4569 74.878 17.8839 74.2498 18.1853C73.6345 18.4868 72.9061 18.6375 72.0643 18.6375H65.5078V5.07227H71.8197ZM80.4081 18.6375H77.582V5.07227H80.4081V18.6375ZM105.559 12.8644L108.799 9.02879H112.059L107.937 13.574L112.247 18.6375H108.893L105.559 14.4688V18.6375H102.732V5.07227H105.559V12.8644ZM86.1724 14.5491C85.6701 14.6244 85.2997 14.7627 85.0609 14.9636C84.8223 15.1644 84.7029 15.441 84.7029 15.7926C84.7029 16.1065 84.8159 16.3453 85.042 16.5085C85.2681 16.6717 85.5696 16.7534 85.9464 16.7534C86.5368 16.7534 87.0391 16.5963 87.4536 16.2824C87.8681 15.9557 88.0753 15.5789 88.0753 15.152V14.2572L86.1724 14.5491ZM68.4093 16.565H71.3864C72.0142 16.565 72.4852 16.3952 72.7994 16.056C73.1258 15.7044 73.289 15.221 73.289 14.6056C73.289 13.9775 73.1133 13.4813 72.7617 13.1172C72.4226 12.7528 71.9324 12.5708 71.2919 12.5708H68.4093V16.565ZM68.4093 10.4984H71.1411C71.7313 10.4984 72.1774 10.3601 72.4788 10.0839C72.7927 9.79487 72.9498 9.37401 72.9498 8.82154C72.9498 8.26879 72.7991 7.85429 72.4977 7.57806C72.209 7.28908 71.7753 7.14473 71.1977 7.14473H68.4093V10.4984Z" fill="white" style="fill:white;fill-opacity:1;"/>
<path d="M40.5087 17.0623H34.4667L28.4243 8.55015L9.57594 35.0751H15.631L28.4238 17.0629H34.4661L21.6728 35.0751H27.7446L40.5084 17.0623L56.811 40.0151H52.2507L47.2725 40.0154V35.0942L40.5084 25.5745L33.782 35.0762V40.0151H18.1643L18.1638 40.0157H12.122V40.0151H0L28.4243 0L40.5087 17.0623Z" fill="white" style="fill:white;fill-opacity:1;"/>
</g>
<defs>
<clipPath id="clip0_401_8366">
<rect width="164.928" height="40" fill="white" style="fill:white;fill-opacity:1;"/>
</clipPath>
</defs>
</svg>
