<svg width="187" height="32" viewBox="0 0 187 32" fill="none" xmlns="http://www.w3.org/2000/svg">
<g clip-path="url(#clip0_621_369)">
<path d="M5.64065 25.6458L0.0234375 27.088V1.49818L5.64065 2.94182V25.6458ZM32.7834 27.1428L27.156 28.5874V0L32.7834 1.43321V27.1428ZM14.5526 26.4262L8.93544 27.8708V12.7966L14.5526 14.24V26.4262ZM18.2222 10.56L23.8496 9.11539V24.1898L18.2222 22.7452V10.56ZM55.2714 14.1006C55.8714 13.6948 56.3788 13.1661 56.7594 12.5498C57.229 11.7915 57.4736 10.9156 57.4647 10.024C57.4647 8.93382 57.2087 7.93818 56.7056 7.06061C56.2028 6.184 55.4647 5.456 54.5114 4.88921C53.9447 4.55782 53.2394 4.312 52.3936 4.16218C51.5594 4.02279 50.4256 3.94739 49.0133 3.94739H43.7173V25.8902H51.7628C53.7948 25.8902 55.5287 25.2812 56.8976 24.0938C58.2782 22.8948 58.9847 21.3862 58.9847 19.6218C58.9847 18.2092 58.62 17 57.8933 16.0378C57.2727 15.2034 56.3847 14.5498 55.2714 14.0902V14.1018V14.1006ZM53.2394 12.3462C52.5973 12.8914 51.6656 13.1692 50.4576 13.1692H47.0554V6.91079H50.276C51.6016 6.91079 52.596 7.17818 53.2496 7.71418C53.892 8.23782 54.2016 9.008 54.2016 10.0572C54.2016 11.1052 53.892 11.8114 53.2496 12.3462H53.2382H53.2394ZM47.0453 16.1862H51.0988C52.596 16.1862 53.7422 16.4766 54.4908 17.0434C55.2293 17.5988 55.5822 18.4022 55.5822 19.4926C55.5822 20.584 55.2176 21.4182 54.4588 21.9748C53.6887 22.5418 52.5216 22.832 50.9927 22.832H47.0554V16.176L47.044 16.1874L47.0453 16.1862ZM81.3447 7.072H78.1788V10.656H72.1868L68.2714 20.1246C68.2062 20.2846 68.0782 20.6274 67.8966 21.1726C67.7893 21.4938 67.6714 21.8686 67.532 22.2754C67.404 21.8366 67.2976 21.4514 67.1902 21.1302C66.9653 20.4138 66.8794 20.2102 66.8474 20.1246L62.996 10.656H59.4874L65.7456 25.624L63.0496 32H66.2807L74.4542 13.3942H78.188V22.5748C78.188 23.88 78.4988 24.832 79.1093 25.4092C79.7182 25.9772 80.724 26.2766 82.1034 26.2766H83.8373V23.248H82.1902C81.8794 23.248 81.6656 23.184 81.5376 23.0458C81.4087 22.8948 81.3447 22.6388 81.3447 22.2754V13.4058H83.8373V10.6662H81.3456V7.07079L81.3447 7.072ZM93.1548 10.2812C90.8348 10.2812 88.9296 11.0412 87.4862 12.528C86.0416 14.0148 85.3136 15.984 85.3136 18.3794C85.3136 19.3966 85.4853 20.3818 85.8382 21.3018C86.1813 22.232 86.6942 23.056 87.3468 23.7622C88.0957 24.5661 89.0074 25.2007 90.0213 25.624C91.0833 26.0601 92.2215 26.2817 93.3696 26.2754C94.804 26.2754 96.1194 26.0092 97.2647 25.4742C98.4087 24.9382 99.4782 24.104 100.442 22.9806L100.625 22.7668L98.3228 20.9154L98.1514 21.1188C97.5001 21.8686 96.772 22.4458 95.98 22.8308C95.1914 23.2179 94.3236 23.416 93.4453 23.4092C92.0428 23.4092 90.8656 23.0126 89.9573 22.2206C89.1114 21.4938 88.6302 20.5738 88.5022 19.4286H101.116V18.9578C101.116 16.3794 100.378 14.272 98.9216 12.6994C97.4566 11.1154 95.5207 10.3028 93.1447 10.3028L93.156 10.2812H93.1548ZM89.9776 14.2502C90.8453 13.512 91.9047 13.1382 93.124 13.1382C94.3434 13.1382 95.3594 13.5018 96.1948 14.2298C96.9536 14.8926 97.4348 15.7486 97.6382 16.776H88.5127C88.6826 15.7857 89.2026 14.8895 89.9776 14.2502ZM118.651 6.75079C116.522 4.89939 113.377 3.95879 109.322 3.95879H104.614V25.9018H109.323C113.377 25.9018 116.522 24.96 118.651 23.1098C120.791 21.2468 121.882 18.4982 121.882 14.936C121.882 11.3726 120.791 8.61261 118.651 6.75079ZM109.739 22.8308H107.963V7.02861H109.739C112.649 7.02861 114.853 7.69139 116.318 9.01939C117.774 10.3348 118.501 12.3142 118.501 14.936C118.501 17.5566 117.763 19.5258 116.318 20.8412C114.863 22.1668 112.65 22.8308 109.739 22.8308ZM136.229 12.5818C135.651 11.969 134.971 11.4623 134.218 11.0846C133.244 10.6022 132.164 10.3668 130.997 10.3668C128.686 10.3668 126.804 11.0948 125.391 12.5382C123.979 13.9828 123.273 15.8982 123.273 18.2298C123.273 19.3108 123.454 20.3166 123.807 21.2366C124.171 22.1697 124.717 23.0208 125.413 23.7406C126.14 24.4897 127.009 25.0861 127.97 25.4948C128.929 25.8933 129.958 26.0967 130.997 26.0938C132.185 26.0938 133.254 25.8698 134.175 25.4194C134.881 25.0739 135.513 24.5944 136.036 24.008V25.912H139.182V10.6662H136.229V12.592V12.5818ZM134.817 14.6252C135.716 15.5668 136.175 16.7862 136.175 18.2526C136.175 19.7178 135.716 20.9486 134.817 21.8892C133.918 22.8206 132.751 23.2914 131.35 23.2914C129.949 23.2914 128.782 22.8206 127.884 21.8892C126.986 20.9588 126.525 19.7394 126.525 18.2526C126.525 16.7646 126.986 15.5554 127.884 14.6148C128.782 13.6834 129.949 13.2126 131.35 13.2126C132.751 13.2126 133.918 13.6834 134.817 14.6252ZM148.865 10.3668C148.031 10.3617 147.206 10.537 146.446 10.8812C145.843 11.1605 145.284 11.528 144.788 11.9714V10.656H141.665V25.9018H144.788V17.4822C144.788 16.0378 145.099 14.9452 145.698 14.24C146.286 13.544 147.206 13.192 148.404 13.192C149.463 13.192 150.212 13.5018 150.694 14.1542C151.186 14.8172 151.443 15.8982 151.443 17.3748V25.912H154.588V17.1178C154.588 15.0422 154.075 13.3942 153.058 12.1966C152.031 10.9874 150.619 10.3782 148.853 10.3782L148.865 10.3668ZM167.203 21.8788C166.806 22.3818 166.335 22.7668 165.78 23.0126C165.223 23.2698 164.571 23.3978 163.833 23.3978C162.474 23.3978 161.393 22.9382 160.548 21.9862C159.702 21.0446 159.275 19.792 159.275 18.2834C159.275 16.7748 159.714 15.5234 160.57 14.5612C161.425 13.5978 162.495 13.1268 163.843 13.1268C164.527 13.1268 165.148 13.2446 165.683 13.4698C166.207 13.6948 166.689 14.0468 167.106 14.5292L167.309 14.7646L169.353 12.4102L169.149 12.2286C168.454 11.5884 167.639 11.0904 166.753 10.7634C165.886 10.4422 164.902 10.2812 163.833 10.2812C162.769 10.273 161.714 10.4618 160.719 10.8378C159.782 11.2048 158.935 11.7707 158.237 12.496C157.494 13.2356 156.918 14.1256 156.547 15.1062C156.155 16.1193 155.959 17.1973 155.969 18.2834C155.969 19.4182 156.162 20.4892 156.547 21.4514C156.929 22.4228 157.504 23.3069 158.237 24.0502C158.941 24.7716 159.79 25.3336 160.73 25.6982C161.722 26.0819 162.779 26.2744 163.843 26.2652C164.966 26.2652 165.918 26.0938 166.796 25.7622C167.674 25.4308 168.508 24.896 169.299 24.168L169.502 23.9862L167.427 21.6012L167.223 21.8686L167.203 21.88V21.8788ZM186.567 18.9372C186.567 16.3588 185.829 14.2514 184.374 12.6778C182.908 11.0948 180.972 10.2812 178.597 10.2812C176.221 10.2812 174.371 11.0412 172.926 12.528C171.482 14.0148 170.755 15.984 170.755 18.3794C170.755 19.3966 170.925 20.3818 171.278 21.3018C171.621 22.232 172.134 23.056 172.787 23.7622C173.536 24.5661 174.448 25.2007 175.462 25.624C176.525 26.0604 177.663 26.2817 178.811 26.2754C180.244 26.2754 181.561 26.0092 182.705 25.4742C183.85 24.9382 184.919 24.104 185.883 22.9806L186.065 22.7668L183.764 20.9154L183.593 21.1188C182.94 21.8686 182.202 22.4458 181.421 22.8308C180.632 23.2182 179.764 23.4162 178.885 23.4092C177.484 23.4092 176.307 23.0126 175.398 22.2206C174.553 21.4834 174.071 20.5738 173.942 19.4286H186.556V18.9578L186.567 18.9372ZM175.419 14.2514C176.286 13.5132 177.345 13.1382 178.564 13.1382C179.785 13.1382 180.801 13.5018 181.635 14.2298C182.395 14.8926 182.876 15.7486 183.079 16.776H173.954C174.124 15.7857 174.644 14.8892 175.419 14.2502V14.2514Z" fill="white" style="fill:white;fill-opacity:1;"/>
</g>
<defs>
<clipPath id="clip0_621_369">
<rect width="187" height="32" fill="white" style="fill:white;fill-opacity:1;"/>
</clipPath>
</defs>
</svg>
