<svg width="148" height="40" viewBox="0 0 148 40" fill="none" xmlns="http://www.w3.org/2000/svg">
<g clip-path="url(#clip0_401_8380)">
<path d="M32.4969 5.66329L32.6286 5.79368L32.6322 5.79004C35.166 8.33342 34.4392 13.4441 30.7657 19.2378L37.9912 26.4659L37.6808 27.0708C36.4665 29.4399 34.8218 31.5625 32.8309 33.3303C30.2088 35.6711 27.0439 37.3204 23.6231 38.129L23.499 38.1589L23.3213 38.2012L23.1935 38.2298L22.9114 38.2919C22.8338 38.308 22.7561 38.3233 22.6779 38.3378L22.5029 38.3713C22.3166 38.4085 22.1216 38.4433 21.9317 38.4755L21.7727 38.4991L21.6522 38.5142C15.7242 39.3433 9.74805 37.3651 5.48571 33.1625L5.36649 33.0469C2.82805 30.5036 3.54701 25.3893 7.22571 19.5919L0 12.3635L0.31039 11.7589C1.5226 9.38848 3.16909 7.26693 5.16416 5.50433C7.2026 3.69056 9.57039 2.28485 12.139 1.36355C12.7351 1.14874 13.3584 0.961212 13.9706 0.802251C14.4751 0.666926 14.9855 0.553939 15.4995 0.460693C15.6735 0.425887 15.8696 0.390043 16.0597 0.357576C22.0699 -0.579307 28.1686 1.38926 32.4969 5.66329ZM30.054 5.97368H30.0465L30.054 5.97758C27.5987 5.21732 23.7026 6.44563 19.5844 9.15939C22.7177 8.28615 25.7481 8.73835 27.7068 10.6981C29.5621 12.5573 30.0701 15.3791 29.3673 18.3436C29.3348 18.5025 29.2927 18.6615 29.2429 18.8243C32.6049 13.7384 33.6805 8.98043 31.5517 6.8555C31.5161 6.81784 31.479 6.78173 31.44 6.74745L31.4239 6.73264L31.4003 6.71134C31.3761 6.69394 31.3525 6.67576 31.3294 6.6568C31.2984 6.63186 31.2673 6.60719 31.2338 6.58485L31.1816 6.54745C30.8421 6.29212 30.4603 6.0981 30.054 5.97368ZM28.3686 17.4059C28.3686 17.4064 28.3686 17.4067 28.3686 17.4072H28.3699L28.3686 17.4059ZM28.3686 17.4072H28.3623C28.7722 14.9755 28.2382 12.889 26.8722 11.5228C25.4971 10.1542 23.4119 9.62251 20.9891 10.0324C18.4057 10.4646 15.7977 11.8916 13.633 14.0428L13.6255 14.0552C13.6169 14.0674 13.613 14.0674 13.613 14.0674C11.4558 16.2298 10.0299 18.8441 9.59662 21.4274C9.18675 23.8628 9.72078 25.9456 11.087 27.3129C12.4569 28.6791 14.547 29.2132 16.9701 28.8033C19.5595 28.3661 22.1774 26.9355 24.3384 24.7695C26.5055 22.6051 27.9348 19.9924 28.3686 17.4072ZM6.41091 6.89887C4.76182 8.35861 3.37299 10.088 2.3039 12.0134L2.29143 12.0171L8.56078 18.2716C9.08052 17.5402 9.62727 16.8285 10.2003 16.1378C10.4039 15.8958 10.6138 15.6448 10.8286 15.3952L10.9106 15.302L11.2086 14.9693C11.2174 14.9617 11.226 14.9456 11.226 14.9456L11.2805 14.8835L11.3091 14.85L11.4631 14.6786C11.5426 14.5903 11.6221 14.4997 11.7068 14.4139C11.7068 14.4054 11.719 14.3929 11.719 14.3929L11.8532 14.2464C11.886 14.2142 11.9179 14.1812 11.9488 14.1469C11.9525 14.1397 11.9564 14.1397 11.9564 14.1397C11.9649 14.1347 11.9649 14.1272 11.9649 14.1272C11.9699 14.121 11.9774 14.1134 11.9823 14.1048C11.9875 14.0973 11.9935 14.0903 11.9997 14.0835C12.0151 14.0724 12.0288 14.0589 12.0408 14.0438C12.0483 14.0355 12.0561 14.0272 12.0644 14.0191C12.1153 13.9682 12.1761 13.9085 12.2306 13.849C12.2582 13.8129 12.294 13.7781 12.3301 13.7423L12.381 13.69C12.3912 13.6773 12.4018 13.6654 12.4132 13.6539L12.5088 13.5597L12.6953 13.3758L12.7574 13.31L12.8268 13.2368C14.1699 11.8903 15.6044 10.6381 17.1203 9.48978L17.319 9.34433H17.3203V9.34303L17.3229 9.34199L17.5216 9.19524C17.7449 9.029 17.966 8.86615 18.1922 8.70719C18.4317 8.54459 18.674 8.38069 18.9125 8.22303C22.1688 6.05186 25.3582 4.74926 27.9613 4.49082C24.3231 2.29732 20.006 1.5168 15.8299 2.29758C15.7169 2.31732 15.6187 2.33732 15.5195 2.35706L15.4597 2.36952C14.547 2.55836 13.6491 2.81056 12.7709 3.12355C10.4283 3.96225 8.26909 5.24407 6.41091 6.89887ZM6.7561 32.2449C7.1026 32.5106 7.50026 32.7093 7.94468 32.8482H7.9361C10.4075 33.6036 14.2886 32.3713 18.3919 29.6651C15.2623 30.5345 12.2382 30.0825 10.2797 28.1228C8.43273 26.2721 7.92493 23.4417 8.62416 20.4773C8.66 20.3184 8.6987 20.1594 8.74701 19.9965C5.38623 25.0835 4.31325 29.8404 6.43948 31.9664C6.53948 32.0654 6.64519 32.1584 6.7561 32.2449ZM29.4418 20.5729C29.0119 21.1732 28.566 21.7617 28.1042 22.3376C28.0309 22.4259 27.9577 22.5178 27.8831 22.6108L27.8247 22.683L27.6384 22.9054C27.4844 23.0877 27.3291 23.2729 27.174 23.4529L27.0771 23.5649C26.9826 23.6703 26.8906 23.7758 26.7927 23.8789L26.7727 23.9025L26.6932 23.9981C26.6821 24.0171 26.6673 24.0334 26.6499 24.0467L26.5094 24.203C26.44 24.2825 26.3704 24.361 26.2971 24.4391C26.2847 24.4391 26.2847 24.4516 26.2847 24.4516C26.2312 24.5048 26.1792 24.5607 26.1244 24.6178L26.1231 24.6204L26.0462 24.7012C26.0784 24.6615 26.1096 24.6228 26.1455 24.5869L26.1132 24.6178L26.0462 24.69C26.0387 24.6937 26.0262 24.7061 26.0262 24.7061C26.02 24.7126 26.0143 24.7197 26.0088 24.7272C26.0031 24.735 25.9969 24.7425 25.9904 24.7495C25.9751 24.7604 25.9613 24.7734 25.9494 24.788C25.9156 24.8259 25.8805 24.8625 25.8439 24.8973L25.7605 24.9843L25.6525 25.0911C25.6374 25.11 25.6205 25.1269 25.6016 25.142C25.5979 25.1545 25.573 25.1794 25.573 25.1794L25.4787 25.2737C25.419 25.3332 25.3595 25.3942 25.2925 25.4563L25.2551 25.4984C25.2265 25.5295 25.1966 25.563 25.1644 25.5952C23.8192 26.9404 22.3844 28.1926 20.8699 29.3435C20.7356 29.4428 20.6039 29.5386 20.4649 29.6378C20.2462 29.8043 20.0203 29.9669 19.7943 30.1259L19.3236 30.4464H19.3223L19.079 30.6103L18.9 30.7282L18.7213 30.8451C15.5914 32.8682 12.54 34.0916 10.0338 34.3386C13.3029 36.3067 17.1299 37.1417 20.9218 36.7145C21.0623 36.701 21.1964 36.6823 21.3293 36.6648L21.4945 36.6438L21.6397 36.6189C21.8135 36.5939 21.9875 36.5654 22.1613 36.5319C22.2457 36.5197 22.3265 36.5033 22.4073 36.4859C22.5306 36.4651 22.6527 36.4386 22.7738 36.4064L22.8805 36.3817L22.9203 36.3719C28.3395 35.1477 32.9813 31.6742 35.6836 26.8199V26.8173L29.4418 20.5729ZM35.6862 26.8199H35.6836L35.6912 26.8274V26.8074C35.6862 26.81 35.6836 26.8137 35.6836 26.8173L35.6862 26.8199ZM48.374 8.0303H51.9408V30.4477H48.374V8.0303ZM72.0293 30.4477H68.701V8.0303H72.0293V30.4477ZM144.464 8.0303H147.792V30.4477H144.464V8.0303ZM133.933 8.02926L142.545 30.4464H138.87L136.709 24.7521H126.382L124.221 30.4477H120.546L129.158 8.0303L133.933 8.02926ZM135.438 21.4186L131.541 11.1539L127.645 21.4186H135.438ZM74.8971 12.5412H78.2255V30.4438H74.8971V12.5412ZM78.2255 10.8534H74.8971V8.0316H78.2255V10.8534ZM84.4229 14.6835C85.4873 13.4913 87.6483 12.5337 89.7857 12.5337C95.6925 12.5337 98.3252 16.4048 98.3252 21.1529V30.4438H94.9969V21.1542C94.9969 18.2355 93.4195 15.8633 89.7099 15.8633C87.021 15.8633 84.5969 17.3412 84.4229 20.3506V30.4402H81.0945V12.5376H84.4229V14.6835ZM109.544 12.5412C111.702 12.5412 113.687 13.336 115.248 14.6773V12.5412H118.572V31.1828C118.572 35.9768 114.815 39.8739 110.195 39.8739H109.266C105.202 39.8739 101.814 36.8623 101.05 32.8758H104.478C105.15 35.0056 107.041 36.5443 109.269 36.5443H110.198C112.988 36.5443 115.252 34.1436 115.252 31.1828V29.3547C113.691 30.6898 111.704 31.4934 109.543 31.4934C104.559 31.4934 100.506 27.241 100.506 22.016C100.506 16.7898 104.56 12.5412 109.544 12.5412ZM115.252 22.0074C115.252 18.6168 112.694 15.8597 109.544 15.8597C106.393 15.8597 103.831 18.6142 103.831 22.0074C103.831 25.4015 106.393 28.155 109.544 28.155C112.691 28.155 115.252 25.3978 115.252 22.0074ZM61.9262 8.0316H66.3551L56.453 19.0973L67.0195 30.4438H62.4304L51.9447 19.0986L61.9262 8.0316Z" fill="white" style="fill:white;fill-opacity:1;"/>
</g>
<defs>
<clipPath id="clip0_401_8380">
<rect width="147.792" height="40" fill="white" style="fill:white;fill-opacity:1;"/>
</clipPath>
</defs>
</svg>
