<svg viewBox="0 0 174 25" fill="none" xmlns="http://www.w3.org/2000/svg">
<path d="M11.7356 13.1987L15.4647 6.25231C16.1167 5.03778 17.3836 4.28 18.762 4.28H23.0532C23.7505 4.28 24.3157 4.84525 24.3157 5.54252V13.1987L28.0448 6.25231C28.6968 5.03778 29.9637 4.28 31.3422 4.28H35.6333C36.3306 4.28 36.8958 4.84525 36.8958 5.54252V12.2158C36.8958 12.8135 36.4113 13.298 35.8137 13.298H34.4977L31.1056 19.6167C30.3231 21.0741 28.4904 21.5956 27.0579 20.7686L23.3012 18.5996C22.4083 18.0841 21.8583 17.1315 21.8583 16.1005V13.4084L18.5254 19.6166C17.743 21.0741 15.9103 21.5956 14.4777 20.7686L10.7211 18.5996C9.8282 18.0841 9.27818 17.1315 9.27818 16.1005V13.4084L8.02003 15.752C7.73114 16.2901 7.05444 16.4827 6.5255 16.1773L0.473605 12.6833C0.0305795 12.4275 -0.129191 11.8661 0.112775 11.4154L2.88455 6.2523C3.53656 5.03777 4.80344 4.28 6.18191 4.28H10.4731C11.1703 4.28 11.7356 4.84525 11.7356 5.54252V13.1987Z" fill="currentColor"/>
<path d="M47.897 20.28L43.189 4.924H46.863L49.063 12.118L49.855 16.32L50.625 12.118L52.759 4.924L56.389 4.902L58.545 12.118L59.315 15.726L59.953 12.118L62.175 4.924H65.695L60.943 20.28H57.445L55.311 12.866L54.541 9.06L53.815 12.866L51.527 20.28H47.897Z" fill="currentColor"/>
<path d="M77.9634 20.28H74.6414L74.5754 19.07C73.7394 19.972 72.4854 20.544 71.0334 20.544C67.8434 20.544 65.5774 17.728 65.5774 14.164C65.5774 10.6 67.8434 7.784 71.0334 7.784C72.4854 7.784 73.7394 8.356 74.5754 9.258L74.6414 8.048H77.9634V20.28ZM69.0094 14.164C69.0094 16.166 70.2194 17.728 71.9134 17.728C73.1454 17.728 74.1134 16.914 74.5314 15.682V12.646C74.1134 11.414 73.1454 10.6 71.9134 10.6C70.2194 10.6 69.0094 12.162 69.0094 14.164Z" fill="currentColor"/>
<path d="M83.5401 20.28L79.1841 8.048H82.7701L84.8601 14.252L85.5641 17.288L86.3121 14.252L88.3581 8.048H91.8341L87.5001 20.28H83.5401Z" fill="currentColor"/>
<path d="M98.5106 20.544C94.5946 20.544 92.1526 18.08 92.1526 14.164C92.1526 10.248 94.6826 7.784 98.6866 7.784C102.647 7.784 104.935 10.446 104.605 14.692H95.6066C95.7166 16.452 96.7066 17.794 98.5106 17.794C99.9186 17.794 100.909 17.046 101.129 16.012H104.561C104.275 18.806 101.943 20.544 98.5106 20.544ZM95.8706 12.338H101.107C101.019 11.216 100.029 10.446 98.6646 10.446C97.1906 10.446 96.2886 11.084 95.8706 12.338Z" fill="currentColor"/>
<path d="M105.973 20.28V17.31H112.595C113.673 17.31 114.355 16.628 114.355 15.55C114.355 14.516 113.673 13.856 112.595 13.856H110.703C107.689 13.856 105.775 12.14 105.753 9.412C105.753 6.662 107.667 4.924 110.703 4.924H117.325V7.894H110.703C109.779 7.894 109.185 8.488 109.163 9.412C109.163 10.314 109.757 10.886 110.703 10.886H112.595C115.741 10.886 117.743 12.69 117.765 15.55C117.765 18.454 115.763 20.28 112.595 20.28H105.973Z" fill="currentColor"/>
<path d="M126.532 7.784C129.722 7.784 131.988 10.6 131.988 14.164C131.988 17.728 129.722 20.544 126.532 20.544C125.102 20.544 123.87 19.994 123.034 19.114V24.196H119.602V8.048H122.924L122.99 9.258C123.826 8.356 125.08 7.784 126.532 7.784ZM123.034 15.682C123.452 16.914 124.42 17.728 125.652 17.728C127.346 17.728 128.556 16.166 128.556 14.164C128.556 12.162 127.346 10.6 125.652 10.6C124.42 10.6 123.452 11.414 123.034 12.646V15.682Z" fill="currentColor"/>
<path d="M139.804 20.544C135.888 20.544 133.446 18.08 133.446 14.164C133.446 10.248 135.976 7.784 139.98 7.784C143.94 7.784 146.228 10.446 145.898 14.692H136.9C137.01 16.452 138 17.794 139.804 17.794C141.212 17.794 142.202 17.046 142.422 16.012H145.854C145.568 18.806 143.236 20.544 139.804 20.544ZM137.164 12.338H142.4C142.312 11.216 141.322 10.446 139.958 10.446C138.484 10.446 137.582 11.084 137.164 12.338Z" fill="currentColor"/>
<path d="M153.725 20.544C149.809 20.544 147.367 18.08 147.367 14.164C147.367 10.248 149.897 7.784 153.901 7.784C157.861 7.784 160.149 10.446 159.819 14.692H150.821C150.931 16.452 151.921 17.794 153.725 17.794C155.133 17.794 156.123 17.046 156.343 16.012H159.775C159.489 18.806 157.157 20.544 153.725 20.544ZM151.085 12.338H156.321C156.233 11.216 155.243 10.446 153.879 10.446C152.405 10.446 151.503 11.084 151.085 12.338Z" fill="currentColor"/>
<path d="M166.745 7.784C168.175 7.784 169.429 8.356 170.265 9.236V4H173.675V20.28H170.375L170.309 19.048C169.473 19.95 168.197 20.544 166.745 20.544C163.555 20.544 161.289 17.728 161.289 14.164C161.289 10.6 163.555 7.784 166.745 7.784ZM164.721 14.164C164.721 16.166 165.931 17.728 167.625 17.728C168.879 17.728 169.847 16.892 170.265 15.616V12.712C169.847 11.436 168.879 10.6 167.625 10.6C165.931 10.6 164.721 12.162 164.721 14.164Z" fill="currentColor"/>
</svg>
