<svg xmlns="http://www.w3.org/2000/svg" width="172" height="24" fill="none" viewBox="0 0 172 24"><path fill="currentColor" d="M41.306 4.996a.707.707 0 0 1 .676-.914h2.562c.156 0 .293.101.339.25l2.187 7.152.815 4.324.792-4.324 2.047-6.9a.707.707 0 0 1 .674-.506l2.945-.017c.157-.001.296.102.341.252l2.143 7.171.792 3.713.657-3.713 2.132-6.904a.708.708 0 0 1 .676-.498h2.62c.239 0 .409.23.338.458l-4.67 15.094a.354.354 0 0 1-.338.25h-2.806a.707.707 0 0 1-.68-.513l-2.049-7.117-.792-3.916-.747 3.916-2.278 7.38a.354.354 0 0 1-.338.25h-2.951a.708.708 0 0 1-.676-.501L41.306 4.996ZM73.61 19.883a.708.708 0 0 1-.706-.672l-.08-1.592V9.56l.08-1.592a.708.708 0 0 1 .706-.672h2.392c.195 0 .354.159.354.354v11.88a.354.354 0 0 1-.354.353H73.61Zm-4.385.272c-1.072 0-2.038-.287-2.898-.86-.845-.59-1.51-1.381-1.992-2.378-.483-1.01-.724-2.12-.724-3.327 0-1.208.241-2.31.724-3.306.483-1.01 1.147-1.803 1.992-2.376a5.014 5.014 0 0 1 2.898-.883c.8 0 1.532.158 2.196.475.679.317 1.237.755 1.675 1.313.453.543.747 1.155.883 1.834v5.886a4.229 4.229 0 0 1-.883 1.856 4.623 4.623 0 0 1-1.675 1.29 5.033 5.033 0 0 1-2.196.476Zm.905-2.898c.559 0 1.064-.158 1.517-.475.453-.317.8-.755 1.041-1.313.257-.559.385-1.185.385-1.88 0-.694-.128-1.32-.385-1.878-.241-.559-.588-.996-1.04-1.313a2.584 2.584 0 0 0-1.518-.476c-.573 0-1.086.166-1.54.498-.452.317-.806.755-1.063 1.313a4.393 4.393 0 0 0-.385 1.857c0 .679.128 1.298.385 1.856a3.354 3.354 0 0 0 1.064 1.336 2.62 2.62 0 0 0 1.54.475ZM77.496 8.241a.707.707 0 0 1 .666-.945h2.433c.152 0 .287.097.335.241L83 13.68l.724 3.124.77-3.124 1.945-5.898a.707.707 0 0 1 .672-.486h2.564c.245 0 .415.242.334.472l-4.21 11.88a.354.354 0 0 1-.333.235h-3.325a.707.707 0 0 1-.667-.47L77.496 8.241ZM96.593 20.155c-1.328 0-2.49-.264-3.486-.793a5.599 5.599 0 0 1-2.264-2.286c-.528-.996-.792-2.158-.792-3.486 0-1.328.272-2.483.815-3.464A5.636 5.636 0 0 1 93.22 7.84c1.011-.544 2.196-.815 3.555-.815 1.343 0 2.49.286 3.441.86.965.573 1.675 1.396 2.128 2.467.452 1.072.626 2.332.52 3.781H92.858l.023-2.422h6.384a1.802 1.802 0 0 0-.385-.996 2.06 2.06 0 0 0-.883-.702 2.957 2.957 0 0 0-1.245-.25c-.724 0-1.32.152-1.788.454-.468.301-.816.747-1.042 1.335-.226.589-.34 1.32-.34 2.196 0 .68.114 1.29.34 1.834.227.543.566.973 1.019 1.29.453.302 1.004.453 1.652.453.468 0 .89-.075 1.268-.226.393-.166.71-.385.951-.657a2.03 2.03 0 0 0 .284-.41c.155-.297.431-.54.767-.54h2.567c.209 0 .373.18.339.385a4.662 4.662 0 0 1-.901 2.104c-.543.695-1.268 1.23-2.173 1.608-.906.377-1.94.566-3.102.566ZM103.798 17.534c0-.39.316-.707.707-.707h6.107c.362 0 .679-.076.951-.226.271-.151.483-.363.633-.634.151-.272.227-.589.227-.951 0-.347-.076-.65-.227-.906a1.454 1.454 0 0 0-.633-.61 1.929 1.929 0 0 0-.951-.227h-1.947c-1.026 0-1.924-.181-2.694-.544a4.236 4.236 0 0 1-1.766-1.607c-.422-.694-.634-1.502-.634-2.422 0-.936.204-1.75.612-2.445.422-.694 1.018-1.23 1.788-1.607.77-.378 1.668-.566 2.694-.566h6.46c.196 0 .354.158.354.353V6.43c0 .391-.317.708-.707.708h-6.107c-.317 0-.596.068-.838.204-.226.12-.407.301-.543.543a1.554 1.554 0 0 0-.204.815c0 .302.061.573.181.815.136.226.325.4.566.52.242.121.521.182.838.182h1.947c1.071 0 2.007.196 2.807.588.8.393 1.419.951 1.856 1.675.438.725.657 1.57.657 2.536 0 .98-.219 1.841-.657 2.58-.422.74-1.041 1.306-1.856 1.698-.8.393-1.736.59-2.807.59h-6.461a.353.353 0 0 1-.353-.355v-1.995ZM124.5 7.025c1.071 0 2.029.294 2.875.883.86.573 1.531 1.365 2.014 2.376.483.997.725 2.098.725 3.306 0 1.207-.242 2.316-.725 3.328-.483.996-1.154 1.788-2.014 2.377-.846.573-1.804.86-2.875.86a5.207 5.207 0 0 1-2.015-.385 4.501 4.501 0 0 1-1.585-1.087v4.876a.354.354 0 0 1-.354.354h-2.47a.707.707 0 0 1-.707-.708V8.004c0-.391.316-.708.707-.708h2.376c.188 0 .343.147.353.335l.05.91a4.765 4.765 0 0 1 1.585-1.109 5.169 5.169 0 0 1 2.06-.407Zm-.906 10.232c.574 0 1.087-.158 1.539-.475a3.347 3.347 0 0 0 1.064-1.336 4.387 4.387 0 0 0 .385-1.856c0-.68-.128-1.298-.385-1.857-.256-.558-.611-.996-1.064-1.313a2.533 2.533 0 0 0-1.539-.498c-.423 0-.815.09-1.177.272a2.609 2.609 0 0 0-.906.724c-.256.317-.46.687-.611 1.11v3.124c.211.649.559 1.162 1.041 1.54a2.613 2.613 0 0 0 1.653.565ZM137.704 20.155c-1.328 0-2.49-.264-3.486-.793a5.597 5.597 0 0 1-2.264-2.286c-.528-.996-.793-2.158-.793-3.486 0-1.328.272-2.483.815-3.464a5.642 5.642 0 0 1 2.355-2.286c1.011-.544 2.196-.815 3.554-.815 1.343 0 2.49.286 3.441.86.966.573 1.675 1.396 2.128 2.467.453 1.072.626 2.332.521 3.781h-10.006l.022-2.422h6.384a1.797 1.797 0 0 0-.385-.996 2.055 2.055 0 0 0-.883-.702 2.956 2.956 0 0 0-1.245-.25c-.724 0-1.32.152-1.788.454-.468.301-.815.747-1.041 1.335-.227.589-.34 1.32-.34 2.196 0 .68.113 1.29.34 1.834.226.543.565.973 1.018 1.29.453.302 1.004.453 1.653.453.468 0 .89-.075 1.268-.226a2.6 2.6 0 0 0 .95-.657c.113-.127.208-.264.284-.41.156-.297.432-.54.767-.54h2.567c.209 0 .373.18.339.385a4.672 4.672 0 0 1-.9 2.104c-.544.695-1.268 1.23-2.174 1.608-.905.377-1.939.566-3.101.566ZM151.577 20.155c-1.328 0-2.49-.264-3.487-.793a5.6 5.6 0 0 1-2.263-2.286c-.529-.996-.793-2.158-.793-3.486 0-1.328.272-2.483.815-3.464a5.642 5.642 0 0 1 2.355-2.286c1.011-.544 2.196-.815 3.554-.815 1.343 0 2.49.286 3.441.86.966.573 1.675 1.396 2.128 2.467.453 1.072.626 2.332.521 3.781h-10.007l.023-2.422h6.384a1.797 1.797 0 0 0-.385-.996 2.055 2.055 0 0 0-.883-.702 2.956 2.956 0 0 0-1.245-.25c-.724 0-1.32.152-1.788.454-.468.301-.815.747-1.042 1.335-.226.589-.339 1.32-.339 2.196 0 .68.113 1.29.339 1.834.227.543.566.973 1.019 1.29.453.302 1.004.453 1.653.453.468 0 .89-.075 1.268-.226a2.6 2.6 0 0 0 .95-.657c.113-.127.208-.264.284-.41.155-.297.432-.54.767-.54h2.567c.209 0 .373.18.339.385a4.662 4.662 0 0 1-.901 2.104c-.543.695-1.267 1.23-2.173 1.608-.905.377-1.939.566-3.101.566ZM164.522 7.025c.483 0 .943.06 1.381.18.452.121.867.295 1.245.521.377.227.709.49.996.793v-4.68c0-.391.316-.708.707-.708h2.448c.195 0 .354.158.354.354v16.044a.354.354 0 0 1-.354.354h-2.372a.707.707 0 0 1-.706-.67l-.032-.598c-.438.483-.981.86-1.63 1.132a5.118 5.118 0 0 1-2.037.408c-1.072 0-2.038-.287-2.898-.86-.845-.59-1.509-1.381-1.992-2.378-.483-1.01-.725-2.12-.725-3.327 0-1.208.242-2.31.725-3.306.483-1.01 1.147-1.803 1.992-2.376a5.013 5.013 0 0 1 2.898-.883Zm.905 10.232c.634 0 1.192-.196 1.675-.588.483-.393.83-.921 1.042-1.585v-2.988a3.687 3.687 0 0 0-.612-1.132 2.67 2.67 0 0 0-.928-.77 2.593 2.593 0 0 0-1.177-.272c-.573 0-1.087.166-1.539.498-.453.317-.808.755-1.064 1.313a4.387 4.387 0 0 0-.385 1.857c0 .679.128 1.298.385 1.856a3.347 3.347 0 0 0 1.064 1.336c.452.317.966.475 1.539.475ZM12.085 12.635l4.094-7.114A3.03 3.03 0 0 1 18.804 4h3.933c.813 0 1.472.66 1.472 1.476v7.158l4.095-7.114A3.03 3.03 0 0 1 30.928 4h3.932c.813 0 1.472.66 1.472 1.476v5.734c0 .816-.659 1.477-1.472 1.477h-.683l-4.484 7.792a3.026 3.026 0 0 1-4.14 1.113l-3.012-1.745a3.043 3.043 0 0 1-1.516-2.633v-2.741L17.57 20.48a3.026 3.026 0 0 1-4.14 1.113l-3.012-1.745a3.043 3.043 0 0 1-1.516-2.633v-2.741l-1.205 2.093a1.47 1.47 0 0 1-2.01.54l-4.95-2.866a1.48 1.48 0 0 1-.54-2.018l3.858-6.702A3.03 3.03 0 0 1 6.68 4h3.933c.813 0 1.472.66 1.472 1.476v7.158Z"/></svg>