<svg width="162" height="23" viewBox="0 0 162 23" fill="none" xmlns="http://www.w3.org/2000/svg">
<path d="M11.1842 11.2596L14.5633 5.40675C15.1203 4.44183 16.1499 3.84741 17.2641 3.84741H20.3775C21.0664 3.84741 21.6249 4.40592 21.6249 5.09487V11.2596L25.004 5.40675C25.5611 4.44183 26.5907 3.84741 27.7049 3.84741H30.8183C31.5072 3.84741 32.0657 4.40592 32.0657 5.09487V10.0577C32.0657 10.7466 31.5072 11.3051 30.8183 11.3051H30.2101L25.8602 18.8393C25.1713 20.0326 23.6454 20.4415 22.4521 19.7525L20.0147 18.3453C19.0498 17.7882 18.4554 16.7587 18.4554 15.6445V13.5808L15.4195 18.8393C14.7305 20.0326 13.2046 20.4415 12.0113 19.7525L9.57395 18.3453C8.60904 17.7882 8.01463 16.7587 8.01463 15.6445V13.5808L6.96507 15.3987C6.6206 15.9953 5.85766 16.1997 5.26101 15.8552L0.963136 13.3739C0.366489 13.0294 0.16206 12.2664 0.506532 11.6698L4.12246 5.40675C4.67955 4.44183 5.70911 3.84741 6.8233 3.84741H9.93669C10.6256 3.84741 11.1842 4.40592 11.1842 5.09487V11.2596Z" fill="black"/>
<path d="M36.2297 4.78788C36.0961 4.35205 36.4221 3.91119 36.8779 3.91119H39.3332C39.4822 3.91119 39.6138 4.00852 39.6573 4.15104L41.7535 11.0054L42.5345 15.1492L43.2938 11.0054L45.2552 4.39329C45.3402 4.10697 45.6024 3.90995 45.9011 3.90814L48.7238 3.89103C48.8744 3.89012 49.0075 3.98867 49.0506 4.13296L51.104 11.0054L51.8633 14.5634L52.4925 11.0054L54.536 4.38908C54.6238 4.10496 54.8865 3.91119 55.1838 3.91119H57.6951C57.9234 3.91119 58.0864 4.13229 58.0189 4.35038L53.5426 18.8155C53.4987 18.9574 53.3674 19.0542 53.2188 19.0542H50.5296C50.2274 19.0542 49.9617 18.8542 49.8781 18.5638L47.9148 11.7431L47.1555 7.98983L46.4396 11.7431L44.2571 18.8152C44.2132 18.9573 44.0819 19.0542 43.9332 19.0542H41.1049C40.807 19.0542 40.544 18.8598 40.4567 18.575L36.2297 4.78788Z" fill="black"/>
<path d="M67.1882 19.0542C66.827 19.0542 66.5292 18.7709 66.5111 18.4101L66.4348 16.8847V9.16136L66.5111 7.63597C66.5292 7.27515 66.827 6.99186 67.1882 6.99186H69.4803C69.6675 6.99186 69.8192 7.14363 69.8192 7.33085V18.7153C69.8192 18.9025 69.6675 19.0542 69.4803 19.0542H67.1882ZM62.9853 19.3146C61.9585 19.3146 61.0328 19.0398 60.2084 18.4902C59.3985 17.9261 58.7621 17.1668 58.2992 16.2122C57.8364 15.2432 57.605 14.1801 57.605 13.0231C57.605 11.866 57.8364 10.8102 58.2992 9.85559C58.7621 8.88655 59.3985 8.12723 60.2084 7.57763C61.0328 7.01356 61.9585 6.73153 62.9853 6.73153C63.7519 6.73153 64.4534 6.88339 65.0898 7.18712C65.7406 7.49085 66.2757 7.91028 66.6952 8.44542C67.1291 8.9661 67.4111 9.55186 67.5413 10.2027V15.8434C67.4111 16.4942 67.1291 17.0872 66.6952 17.6224C66.2757 18.1431 65.7406 18.5553 65.0898 18.859C64.4534 19.1627 63.7519 19.3146 62.9853 19.3146ZM63.8531 16.5376C64.3883 16.5376 64.8728 16.3858 65.3067 16.082C65.7406 15.7783 66.0733 15.3589 66.3047 14.8237C66.5505 14.2886 66.6735 13.6884 66.6735 13.0231C66.6735 12.3577 66.5505 11.7575 66.3047 11.2224C66.0733 10.6872 65.7406 10.2678 65.3067 9.96407C64.8728 9.66034 64.3883 9.50847 63.8531 9.50847C63.3035 9.50847 62.8118 9.66757 62.3779 9.98576C61.944 10.2895 61.6041 10.7089 61.3582 11.2441C61.1124 11.7792 60.9894 12.3722 60.9894 13.0231C60.9894 13.6739 61.1124 14.2669 61.3582 14.802C61.6041 15.3372 61.944 15.7638 62.3779 16.082C62.8118 16.3858 63.3035 16.5376 63.8531 16.5376Z" fill="black"/>
<path d="M70.9115 7.89727C70.7543 7.45585 71.0816 6.99186 71.5502 6.99186H73.8818C74.0274 6.99186 74.1566 7.08473 74.2031 7.22263L76.1864 13.1098L76.8806 16.1037L77.6182 13.1098L79.4823 7.45749C79.5739 7.1796 79.8335 6.99186 80.1262 6.99186H82.5839C82.818 6.99186 82.9816 7.22344 82.9034 7.44406L78.8698 18.8285C78.8218 18.9638 78.6938 19.0542 78.5502 19.0542H75.3629C75.0762 19.0542 74.8204 18.8738 74.7242 18.6037L70.9115 7.89727Z" fill="black"/>
<path d="M89.2137 19.3146C87.9409 19.3146 86.8272 19.0615 85.8726 18.5553C84.9325 18.0346 84.2094 17.3042 83.7031 16.3641C83.1969 15.4095 82.9438 14.2958 82.9438 13.0231C82.9438 11.7503 83.2042 10.6438 83.7248 9.70373C84.26 8.74915 85.0121 8.01876 85.9811 7.51254C86.9502 6.99186 88.0855 6.73153 89.3872 6.73153C90.6744 6.73153 91.7737 7.00633 92.6848 7.55593C93.6105 8.10554 94.2903 8.89379 94.7242 9.92068C95.1581 10.9476 95.3244 12.1553 95.2231 13.5437H85.634L85.6557 11.2224H91.7737C91.7447 10.8608 91.6218 10.5426 91.4048 10.2678C91.2024 9.97853 90.9203 9.75435 90.5587 9.59525C90.2116 9.43616 89.8139 9.35661 89.3655 9.35661C88.6713 9.35661 88.1 9.50124 87.6516 9.79051C87.2033 10.0798 86.8706 10.5064 86.6537 11.0705C86.4367 11.6346 86.3282 12.336 86.3282 13.1749C86.3282 13.8258 86.4367 14.4115 86.6537 14.9322C86.8706 15.4529 87.196 15.8651 87.6299 16.1688C88.0638 16.4581 88.5917 16.6027 89.2137 16.6027C89.662 16.6027 90.067 16.5304 90.4286 16.3858C90.8046 16.2267 91.1083 16.0169 91.3398 15.7566C91.4478 15.635 91.5386 15.504 91.6119 15.3634C91.7606 15.0788 92.0255 14.8454 92.3466 14.8454H94.807C95.0069 14.8454 95.1645 15.0179 95.1316 15.2151C95.0053 15.9734 94.7176 16.6457 94.2686 17.2319C93.7479 17.8972 93.0537 18.4106 92.1859 18.7722C91.3181 19.1338 90.3273 19.3146 89.2137 19.3146Z" fill="black"/>
<path d="M96.1177 16.8034C96.1177 16.429 96.4213 16.1254 96.7957 16.1254H102.648C102.995 16.1254 103.299 16.0531 103.559 15.9085C103.819 15.7638 104.022 15.5614 104.167 15.301C104.311 15.0407 104.383 14.7369 104.383 14.3898C104.383 14.0572 104.311 13.7679 104.167 13.522C104.022 13.2617 103.819 13.0664 103.559 12.9363C103.299 12.7916 102.995 12.7193 102.648 12.7193H100.782C99.7986 12.7193 98.9381 12.5458 98.2004 12.1986C97.4773 11.8371 96.9132 11.3236 96.5082 10.6583C96.1033 9.99299 95.9008 9.21921 95.9008 8.33695C95.9008 7.44023 96.096 6.65921 96.4865 5.9939C96.8915 5.32859 97.4628 4.81514 98.2004 4.45356C98.9381 4.09198 99.7986 3.91119 100.782 3.91119H106.973C107.161 3.91119 107.312 4.06295 107.312 4.25017V6.16203C107.312 6.53646 107.009 6.84 106.634 6.84H100.782C100.478 6.84 100.211 6.90508 99.9794 7.03525C99.7625 7.15096 99.5889 7.32452 99.4587 7.55593C99.3286 7.77288 99.2635 8.03322 99.2635 8.33695C99.2635 8.62621 99.3213 8.88655 99.437 9.11797C99.5672 9.33492 99.748 9.50124 99.9794 9.61695C100.211 9.73266 100.478 9.79051 100.782 9.79051H102.648C103.675 9.79051 104.572 9.97853 105.338 10.3546C106.105 10.7306 106.698 11.2658 107.117 11.96C107.536 12.6542 107.746 13.4642 107.746 14.3898C107.746 15.3299 107.536 16.1544 107.117 16.8631C106.712 17.5718 106.119 18.1141 105.338 18.4902C104.572 18.8662 103.675 19.0542 102.648 19.0542H96.4567C96.2695 19.0542 96.1177 18.9025 96.1177 18.7153V16.8034Z" fill="black"/>
<path d="M115.957 6.73153C116.984 6.73153 117.902 7.01356 118.712 7.57763C119.537 8.12723 120.18 8.88655 120.643 9.85559C121.106 10.8102 121.337 11.866 121.337 13.0231C121.337 14.1801 121.106 15.2432 120.643 16.2122C120.18 17.1668 119.537 17.9261 118.712 18.4902C117.902 19.0398 116.984 19.3146 115.957 19.3146C115.263 19.3146 114.619 19.1916 114.026 18.9458C113.433 18.6999 112.927 18.3528 112.508 17.9044V22.5769C112.508 22.7642 112.356 22.9159 112.169 22.9159H109.801C109.427 22.9159 109.123 22.6124 109.123 22.238V7.66983C109.123 7.2954 109.427 6.99186 109.801 6.99186H112.078C112.258 6.99186 112.407 7.13261 112.417 7.31238L112.464 8.18508C112.884 7.73672 113.39 7.38237 113.983 7.12203C114.59 6.86169 115.248 6.73153 115.957 6.73153ZM115.089 16.5376C115.639 16.5376 116.131 16.3858 116.565 16.082C116.998 15.7638 117.338 15.3372 117.584 14.802C117.83 14.2669 117.953 13.6739 117.953 13.0231C117.953 12.3722 117.83 11.7792 117.584 11.2441C117.338 10.7089 116.998 10.2895 116.565 9.98576C116.131 9.66757 115.639 9.50847 115.089 9.50847C114.684 9.50847 114.308 9.59525 113.961 9.76881C113.628 9.92791 113.339 10.1593 113.093 10.4631C112.847 10.7668 112.652 11.1211 112.508 11.5261V14.52C112.71 15.1419 113.043 15.6337 113.506 15.9953C113.968 16.3568 114.496 16.5376 115.089 16.5376Z" fill="black"/>
<path d="M128.611 19.3146C127.338 19.3146 126.225 19.0615 125.27 18.5553C124.33 18.0346 123.607 17.3042 123.101 16.3641C122.594 15.4095 122.341 14.2958 122.341 13.0231C122.341 11.7503 122.602 10.6438 123.122 9.70373C123.657 8.74915 124.41 8.01876 125.379 7.51254C126.348 6.99186 127.483 6.73153 128.785 6.73153C130.072 6.73153 131.171 7.00633 132.082 7.55593C133.008 8.10554 133.688 8.89379 134.122 9.92068C134.556 10.9476 134.722 12.1553 134.621 13.5437H125.031L125.053 11.2224H131.171C131.142 10.8608 131.019 10.5426 130.802 10.2678C130.6 9.97853 130.318 9.75435 129.956 9.59525C129.609 9.43616 129.211 9.35661 128.763 9.35661C128.069 9.35661 127.497 9.50124 127.049 9.79051C126.601 10.0798 126.268 10.5064 126.051 11.0705C125.834 11.6346 125.726 12.336 125.726 13.1749C125.726 13.8258 125.834 14.4115 126.051 14.9322C126.268 15.4529 126.593 15.8651 127.027 16.1688C127.461 16.4581 127.989 16.6027 128.611 16.6027C129.059 16.6027 129.464 16.5304 129.826 16.3858C130.202 16.2267 130.506 16.0169 130.737 15.7566C130.845 15.635 130.936 15.504 131.009 15.3634C131.158 15.0788 131.423 14.8454 131.744 14.8454H134.204C134.404 14.8454 134.562 15.0179 134.529 15.2151C134.403 15.9734 134.115 16.6457 133.666 17.2319C133.145 17.8972 132.451 18.4106 131.583 18.7722C130.716 19.1338 129.725 19.3146 128.611 19.3146Z" fill="black"/>
<path d="M141.906 19.3146C140.633 19.3146 139.52 19.0615 138.565 18.5553C137.625 18.0346 136.902 17.3042 136.396 16.3641C135.889 15.4095 135.636 14.2958 135.636 13.0231C135.636 11.7503 135.897 10.6438 136.417 9.70373C136.952 8.74915 137.704 8.01876 138.673 7.51254C139.643 6.99186 140.778 6.73153 142.08 6.73153C143.367 6.73153 144.466 7.00633 145.377 7.55593C146.303 8.10554 146.983 8.89379 147.417 9.92068C147.85 10.9476 148.017 12.1553 147.916 13.5437H138.326L138.348 11.2224H144.466C144.437 10.8608 144.314 10.5426 144.097 10.2678C143.895 9.97853 143.613 9.75435 143.251 9.59525C142.904 9.43616 142.506 9.35661 142.058 9.35661C141.364 9.35661 140.792 9.50124 140.344 9.79051C139.896 10.0798 139.563 10.5064 139.346 11.0705C139.129 11.6346 139.021 12.336 139.021 13.1749C139.021 13.8258 139.129 14.4115 139.346 14.9322C139.563 15.4529 139.888 15.8651 140.322 16.1688C140.756 16.4581 141.284 16.6027 141.906 16.6027C142.354 16.6027 142.759 16.5304 143.121 16.3858C143.497 16.2267 143.801 16.0169 144.032 15.7566C144.14 15.635 144.231 15.504 144.304 15.3634C144.453 15.0788 144.718 14.8454 145.039 14.8454H147.499C147.699 14.8454 147.857 15.0179 147.824 15.2151C147.698 15.9734 147.41 16.6457 146.961 17.2319C146.44 17.8972 145.746 18.4106 144.878 18.7722C144.01 19.1338 143.02 19.3146 141.906 19.3146Z" fill="black"/>
<path d="M154.311 6.73153C154.774 6.73153 155.215 6.78938 155.635 6.90508C156.069 7.02079 156.466 7.18712 156.828 7.40407C157.19 7.62102 157.508 7.87412 157.783 8.16339V3.67797C157.783 3.30354 158.086 3 158.461 3H160.806C160.994 3 161.145 3.15177 161.145 3.33898V18.7153C161.145 18.9025 160.994 19.0542 160.806 19.0542H158.534C158.173 19.0542 157.876 18.7724 157.857 18.4125L157.826 17.8393C157.407 18.3021 156.886 18.6637 156.264 18.9241C155.657 19.1844 155.006 19.3146 154.311 19.3146C153.285 19.3146 152.359 19.0398 151.535 18.4902C150.725 17.9261 150.088 17.1668 149.625 16.2122C149.163 15.2432 148.931 14.1801 148.931 13.0231C148.931 11.866 149.163 10.8102 149.625 9.85559C150.088 8.88655 150.725 8.12723 151.535 7.57763C152.359 7.01356 153.285 6.73153 154.311 6.73153ZM155.179 16.5376C155.787 16.5376 156.322 16.3496 156.785 15.9736C157.248 15.5975 157.58 15.0913 157.783 14.4549V11.5912C157.638 11.1718 157.443 10.8102 157.197 10.5064C156.951 10.1882 156.655 9.94237 156.307 9.76881C155.96 9.59525 155.584 9.50847 155.179 9.50847C154.63 9.50847 154.138 9.66757 153.704 9.98576C153.27 10.2895 152.93 10.7089 152.684 11.2441C152.438 11.7792 152.316 12.3722 152.316 13.0231C152.316 13.6739 152.438 14.2669 152.684 14.802C152.93 15.3372 153.27 15.7638 153.704 16.082C154.138 16.3858 154.63 16.5376 155.179 16.5376Z" fill="black"/>
</svg>
