<svg preserveAspectRatio="none" width="100%" height="100%" overflow="visible" style="display: block;" viewBox="0 0 35.7828 18" fill="none" xmlns="http://www.w3.org/2000/svg">
<g id="05 - 01" clip-path="url(#clip0_312_5572)">
<path id="Subtract" d="M11.5826 9.27579L15.165 2.60272C15.7914 1.43598 17.0084 0.708008 18.3327 0.708008H22.455C23.1248 0.708008 23.6678 1.25102 23.6678 1.92086V9.27579L27.2502 2.60272C27.8766 1.43598 29.0936 0.708008 30.4178 0.708008H34.5402C35.21 0.708008 35.753 1.25102 35.753 1.92086V8.33163C35.753 8.90578 35.2876 9.37122 34.7134 9.37122H33.4492L30.1905 15.4413C29.4389 16.8413 27.6783 17.3424 26.3021 16.5479L22.6932 14.4643C21.8355 13.9691 21.3071 13.0539 21.3071 12.0634V9.47727L18.1054 15.4413C17.3537 16.8413 15.5931 17.3424 14.2169 16.5479L10.608 14.4643C9.7503 13.9691 9.22192 13.0539 9.22192 12.0634V9.47727L8.01327 11.7287C7.73574 12.2456 7.08566 12.4306 6.57754 12.1372L0.763744 8.78069C0.338148 8.53497 0.184662 7.99565 0.417109 7.56266L3.07984 2.60271C3.7062 1.43597 4.92323 0.708008 6.24747 0.708008H10.3698C11.0396 0.708008 11.5826 1.25102 11.5826 1.92086V9.27579Z" fill="var(--fill-0, black)" style="fill:black;fill-opacity:1;"/>
</g>
<defs>
<clipPath id="clip0_312_5572">
<rect width="35.7828" height="18" fill="white" style="fill:white;fill-opacity:1;"/>
</clipPath>
</defs>
</svg>
