<svg xmlns="http://www.w3.org/2000/svg" viewBox="0 0 150 150" fill="#000"><path d="M86.228 149.247C81.2776 149.247 76.5751 148.307 72.1201 146.426C67.6651 144.545 63.7051 141.921 60.2401 138.555C56.4781 139.842 52.5676 140.486 48.5086 140.486C41.8756 140.486 35.7376 138.852 30.0946 135.585C24.4516 132.318 19.8976 127.863 16.4326 122.22C13.0666 116.577 11.3836 110.291 11.3836 103.361C11.3836 100.49 11.7796 97.371 12.5716 94.005C8.6116 90.342 5.54259 86.135 3.36459 81.3828C1.18659 76.5318 0.0975952 71.4828 0.0975952 66.2358C0.0975952 60.8898 1.23609 55.7418 3.51309 50.7918C5.79009 45.8418 8.95809 41.5848 13.0171 38.0208C17.1751 34.3578 21.9766 31.8333 27.4216 30.4473C28.5106 24.8043 30.7876 19.7553 34.2526 15.3003C37.8166 10.7463 42.1726 7.18231 47.3206 4.60831C52.4686 2.03431 57.9631 0.747314 63.8041 0.747314C68.7541 0.747314 73.4566 1.68781 77.9116 3.56881C82.3666 5.44981 86.327 8.07331 89.792 11.4393C93.554 10.1523 97.464 9.50881 101.523 9.50881C108.156 9.50881 114.294 11.1423 119.937 14.4093C125.58 17.6763 130.085 22.1313 133.451 27.7743C136.916 33.4173 138.648 39.7038 138.648 46.6338C138.648 49.5048 138.252 52.6233 137.46 55.9893C141.42 59.6523 144.489 63.9093 146.667 68.7603C148.845 73.5123 149.934 78.5118 149.934 83.7588C149.934 89.105 148.796 94.253 146.519 99.203C144.242 104.153 141.024 108.459 136.866 112.122C132.807 115.686 128.055 118.161 122.61 119.547C121.521 125.19 119.195 130.239 115.631 134.694C112.166 139.248 107.859 142.812 102.711 145.386C97.563 147.96 92.069 149.247 86.228 149.247ZM49.5481 130.685C54.4981 130.685 58.8046 129.645 62.4676 127.566L90.386 111.528C91.376 110.835 91.871 109.895 91.871 108.707V95.936L55.9336 116.577C53.7556 117.864 51.5776 117.864 49.3996 116.577L21.3331 100.391C21.3331 100.688 21.2836 101.034 21.1846 101.43C21.1846 101.826 21.1846 102.42 21.1846 103.212C21.1846 108.261 22.3726 112.914 24.7486 117.171C27.2236 121.329 30.6391 124.596 34.9951 126.972C39.3511 129.447 44.2021 130.685 49.5481 130.685ZM51.0331 106.479C51.6271 106.776 52.1716 106.925 52.6666 106.925C53.1616 106.925 53.6566 106.776 54.1516 106.479L65.2891 100.094L29.5006 79.3038C27.3226 78.0168 26.2336 76.0863 26.2336 73.5123V41.2878C21.2836 43.4658 17.3236 46.8318 14.3536 51.3858C11.3836 55.8408 9.89859 60.7908 9.89859 66.2358C9.89859 71.0868 11.1361 75.7398 13.6111 80.1948C16.0861 84.6498 19.3036 88.016 23.2636 90.293L51.0331 106.479ZM86.228 139.446C91.475 139.446 96.227 138.258 100.484 135.882C104.741 133.506 108.107 130.239 110.582 126.081C113.057 121.923 114.294 117.27 114.294 112.122V80.0463C114.294 78.8583 113.799 77.9673 112.809 77.3733L101.523 70.8393V112.271C101.523 114.845 100.434 116.775 98.256 118.062L70.1896 134.249C75.0406 137.714 80.3866 139.446 86.228 139.446ZM91.871 85.095V64.8993L75.09 55.3953L58.1611 64.8993V85.095L75.09 94.599L91.871 85.095ZM48.5086 37.7238C48.5086 35.1498 49.5976 33.2193 51.7756 31.9323L79.8421 15.7458C74.9911 12.2808 69.6451 10.5483 63.8041 10.5483C58.5571 10.5483 53.8051 11.7363 49.5481 14.1123C45.2911 16.4883 41.9251 19.7553 39.4501 23.9133C37.0741 28.0713 35.8861 32.7243 35.8861 37.8723V69.7998C35.8861 70.9878 36.3811 71.9283 37.3711 72.6213L48.5086 79.1553V37.7238ZM123.947 108.707C128.897 106.529 132.807 103.163 135.678 98.609C138.648 94.055 140.133 89.105 140.133 83.7588C140.133 78.9078 138.896 74.2548 136.421 69.7998C133.946 65.3448 130.728 61.9788 126.768 59.7018L98.999 43.6638C98.405 43.2678 97.86 43.1193 97.365 43.2183C96.87 43.2183 96.375 43.3668 95.88 43.6638L84.7426 49.9008L120.68 70.8393C121.769 71.4333 122.561 72.2253 123.056 73.2153C123.65 74.1063 123.947 75.1953 123.947 76.4823V108.707ZM94.098 33.2688C96.276 31.8828 98.454 31.8828 100.632 33.2688L128.847 49.7523C128.847 49.0593 128.847 48.1683 128.847 47.0793C128.847 42.3273 127.659 37.8228 125.283 33.5658C123.006 29.2098 119.69 25.7448 115.334 23.1708C111.077 20.5968 106.127 19.3098 100.484 19.3098C95.534 19.3098 91.227 20.3493 87.564 22.4283L59.6461 38.4663C58.6561 39.1593 58.1611 40.0998 58.1611 41.2878V54.0588L94.098 33.2688Z"/></svg>
