<svg width="49" height="20" viewBox="0 0 49 20" fill="none" xmlns="http://www.w3.org/2000/svg">
<path d="M33.1053 4.21899C35.4474 4.21903 37.6554 6.3287 37.6688 10.2004C37.6687 14.4325 35.4873 16.3547 33.0917 16.3547C31.914 16.3547 31.2043 15.861 30.7225 15.5139L30.7098 19.2922L27.3641 20.0002V4.43286H30.3085L30.4823 5.26001C30.9508 4.83279 31.794 4.21899 33.1053 4.21899ZM4.55846 4.21899C5.66923 4.21901 6.76701 4.3927 7.87779 4.83325V7.97095C6.8607 7.42359 5.57558 7.11649 4.55846 7.11646C3.84912 7.11646 3.42076 7.31647 3.42076 7.83716C3.42083 9.33242 8.51968 8.62522 8.53307 12.6038C8.53287 14.9933 6.61932 16.3683 3.8358 16.3684C2.68481 16.3684 1.42618 16.1417 0.181503 15.6077V12.4299C1.30573 13.0441 2.72496 13.4983 3.8358 13.4983C4.58502 13.4982 5.11979 13.2977 5.11998 12.6838C5.11998 11.0951 0.0350189 11.6822 0.0350189 7.99731C0.0350303 5.63422 1.84158 4.21899 4.55846 4.21899ZM12.454 4.44653H14.9969V7.29028H12.454V12.0295C12.454 14.0047 14.5676 13.3918 14.9969 13.218V15.928C14.5552 16.1682 13.7523 16.3684 12.6551 16.3684C10.6745 16.3684 9.18952 14.9135 9.18932 12.9377L9.20201 2.24341L12.4676 1.54907L12.454 4.44653ZM43.3837 4.21899C46.5556 4.21899 48.2157 6.9164 48.2157 10.3342C48.2157 10.6547 48.1884 11.3479 48.1883 11.5217H41.6444C41.7916 13.0971 42.9429 13.551 44.2411 13.551C45.5658 13.551 46.6094 13.2705 47.5194 12.8167V15.4875C46.6094 15.9948 45.4048 16.3547 43.8124 16.3547C40.5468 16.3547 38.2713 14.3255 38.2713 10.3069C38.2714 6.91597 40.1986 4.21921 43.3837 4.21899ZM19.16 5.43384C19.9494 3.99275 21.5142 4.28531 21.9432 4.44556V7.51685C21.528 7.37001 20.1907 7.18356 19.4012 8.21118V16.1282H16.0546V4.44556H18.9462L19.16 5.43384ZM26.119 16.1282H22.7596V4.44653H26.119V16.1282ZM32.3026 7.18286C31.5398 7.18286 31.0578 7.45007 30.7098 7.83716L30.7225 12.7903C31.0437 13.1374 31.513 13.4182 32.3026 13.4182C33.5336 13.4179 34.363 12.0828 34.3631 10.2942C34.3631 8.54541 33.5203 7.18315 32.3026 7.18286ZM43.371 6.92896C42.5278 6.92896 41.6044 7.55703 41.6044 9.06567H45.0565C45.0565 7.55725 44.1873 6.92914 43.371 6.92896ZM26.119 2.71021L22.7596 3.43188V0.708252L26.119 0.000244141V2.71021Z" fill="#6461FC"/>
</svg>
