<svg width="70" height="48" viewBox="0 0 70 48" fill="none" xmlns="http://www.w3.org/2000/svg">
<g clip-path="url(#clip0_550_400)">
<mask id="mask0_550_400" style="mask-type:luminance" maskUnits="userSpaceOnUse" x="7" y="15" width="56" height="18">
<path d="M63 15.3334H6.99998V32.6667H63V15.3334Z" fill="white"/>
</mask>
<g mask="url(#mask0_550_400)">
<path d="M61.8603 18.7806L56.2877 31.304H53.707L55.4903 27.3346L51.2067 18.7806H53.8653L56.7123 24.6306L59.2863 18.7806H61.8603ZM49.9437 28.4006H47.4737V27.7095C46.6783 28.3124 45.7047 28.632 44.7067 28.6173C41.9833 28.6173 39.8469 26.4073 39.8469 23.5906C39.8469 20.774 41.9833 18.564 44.7067 18.564C45.7047 18.5492 46.6783 18.8688 47.4737 19.4718V18.7806H49.9437V28.4006ZM45.049 20.644C43.4933 20.644 42.319 21.9115 42.319 23.5906C42.319 25.2698 43.4933 26.5373 45.049 26.5373C46.6047 26.5373 47.779 25.2698 47.779 23.5906C47.779 21.9115 46.6047 20.644 45.049 20.644ZM28.4069 18.7806H30.8769V19.4718C31.673 18.8691 32.6475 18.5496 33.6459 18.564C36.3694 18.564 38.5036 20.7718 38.5036 23.5906C38.5036 26.4095 36.3694 28.6173 33.6459 28.6173C32.6842 28.6317 31.7434 28.3354 30.9636 27.7723V31.304H28.4069V18.7806ZM30.5736 23.5906C30.5736 25.2698 31.7479 26.5373 33.3036 26.5373C34.8593 26.5373 36.0336 25.2698 36.0336 23.5906C36.0336 21.9115 34.8593 20.644 33.3036 20.644C31.7479 20.644 30.5736 21.9115 30.5736 23.5906Z" fill="#00DE5A"/>
<path d="M24.3333 24C24.3333 25.7141 23.825 27.3898 22.8727 28.815C21.9204 30.2402 20.5669 31.351 18.9833 32.007C17.3996 32.663 15.6571 32.8346 13.9759 32.5002C12.2947 32.1658 10.7505 31.3404 9.5384 30.1283C8.32634 28.9162 7.50092 27.372 7.16652 25.6908C6.83211 24.0097 7.00374 22.2671 7.6597 20.6834C8.31566 19.0998 9.4265 17.7463 10.8517 16.794C12.277 15.8417 13.9526 15.3334 15.6667 15.3334C17.9652 15.3334 20.1696 16.2465 21.7949 17.8718C23.4203 19.4971 24.3333 21.7015 24.3333 24ZM17.478 19.5367V24.5764L13.9398 19.5367H11.2033V28.4634H13.8575V23.4215L17.3957 28.4634H20.13V19.5367H17.478Z" fill="#00DE5A"/>
</g>
</g>
<defs>
<clipPath id="clip0_550_400">
<rect width="56" height="17.3333" fill="white" transform="translate(6.99998 15.3334)"/>
</clipPath>
</defs>
</svg>
