<svg width="70" height="48" viewBox="0 0 70 48" fill="none" xmlns="http://www.w3.org/2000/svg">
<path d="M17.0528 26.6512C16.9529 26.7029 16.8404 26.7328 16.7208 26.7328C16.4439 26.7328 16.2033 26.5769 16.077 26.3461L16.0286 26.2377L14.013 21.7097C13.9912 21.6605 13.9777 21.6048 13.9777 21.5506C13.9777 21.3419 14.143 21.1728 14.3469 21.1728C14.4296 21.1728 14.5061 21.2009 14.5677 21.2477L16.9462 22.9815C17.1199 23.0977 17.3276 23.166 17.5508 23.166C17.684 23.166 17.811 23.1406 17.9294 23.0965L29.1149 18C27.1099 15.581 23.8079 14 20.0712 14C13.9565 14 9 18.2287 9 23.4454C9 26.2912 10.4912 28.8531 12.8254 30.5847C13.0126 30.7215 13.1353 30.9464 13.1353 31.2002C13.1353 31.2841 13.1177 31.3607 13.0962 31.4407C12.9098 32.1526 12.6114 33.2927 12.5976 33.3461C12.5743 33.4355 12.538 33.5288 12.538 33.6223C12.538 33.8309 12.7031 34 12.9073 34C12.9872 34 13.0527 33.9695 13.1203 33.9297L15.5441 32.4971C15.7264 32.3895 15.9194 32.3226 16.1322 32.3226C16.2453 32.3226 16.3546 32.3406 16.4574 32.3728C17.5881 32.7057 18.8081 32.8907 20.0713 32.8907C26.1856 32.8907 31.1429 28.6618 31.1429 23.4454C31.1429 21.8653 30.6855 20.3772 29.8816 19.0682L17.134 26.6034L17.0528 26.6512Z" fill="#1AAD19"/>
<path d="M56.5314 13.9998C58.2866 13.9998 59.7088 15.4327 59.7072 17.2029V27.574C59.7071 27.5738 59.0558 27.5198 56.2032 26.5583C55.4109 26.2905 54.3449 25.8807 53.1593 25.448C53.8712 24.1985 54.4409 22.7767 54.8156 21.2312H50.9054V19.8113H55.6945V19.0183H50.9054V16.6501H48.9513C48.6162 16.6504 48.6087 16.9769 48.6085 16.991V19.0164H43.7657V19.8093H48.6085V21.2292H44.6095V22.0212H52.3654C52.0825 23.0066 51.6996 23.934 51.2482 24.7751C48.7325 23.9379 46.0465 23.26 44.3605 23.6775C43.2814 23.9454 42.5863 24.4235 42.1779 24.9255C40.3045 27.2241 41.6473 30.7154 45.6036 30.7156C47.9435 30.7156 50.1975 29.4007 51.9435 27.2332C54.5494 28.4958 59.7072 30.6648 59.7072 30.6648V30.7966C59.7071 32.5651 58.2867 33.9998 56.5314 33.9998H43.0529C41.2975 33.9998 39.8752 32.5651 39.8751 30.7966V17.2029C39.8753 15.4346 41.2976 13.9998 43.0529 13.9998H56.5314ZM44.6954 24.865C46.5276 24.6833 48.2251 25.3884 50.2277 26.3738C48.8208 28.2246 47.0273 29.3806 45.2345 29.3806C42.1495 29.3804 41.2373 26.93 42.7618 25.5886C43.2714 25.1353 44.2009 24.9137 44.6954 24.865Z" fill="#1677FF"/>
</svg>
