<svg width="59" height="18" viewBox="0 0 59 18" fill="none" xmlns="http://www.w3.org/2000/svg">
<g clip-path="url(#clip0_562_321)">
<mask id="mask0_562_321" style="mask-type:luminance" maskUnits="userSpaceOnUse" x="0" y="0" width="59" height="18">
<path d="M58.8269 0H0.673065V18H58.8269V0Z" fill="white"/>
</mask>
<g mask="url(#mask0_562_321)">
<path d="M57.6434 3.57987L51.8564 16.5849H49.1765L51.0284 12.4629L46.58 3.57987H49.3409L52.2974 9.65487L54.9704 3.57987H57.6434ZM45.2684 13.5699H42.7034V12.8521C41.8775 13.4783 40.8664 13.8102 39.83 13.7949C37.0019 13.7949 34.7833 11.4999 34.7833 8.57487C34.7833 5.64987 37.0019 3.35488 39.83 3.35488C40.8664 3.3396 41.8775 3.67146 42.7034 4.29762V3.57987H45.2684V13.5699ZM40.1855 5.51487C38.57 5.51487 37.3505 6.83112 37.3505 8.57487C37.3505 10.3186 38.57 11.6349 40.1855 11.6349C41.801 11.6349 43.0205 10.3186 43.0205 8.57487C43.0205 6.83112 41.801 5.51487 40.1855 5.51487ZM22.9033 3.57987H25.4683V4.29762C26.295 3.67177 27.3071 3.33996 28.3438 3.35488C31.1721 3.35488 33.3884 5.64762 33.3884 8.57487C33.3884 11.5021 31.1721 13.7949 28.3438 13.7949C27.3451 13.8099 26.3681 13.5021 25.5583 12.9174V16.5849H22.9033V3.57987ZM25.1533 8.57487C25.1533 10.3186 26.3729 11.6349 27.9884 11.6349C29.6039 11.6349 30.8233 10.3186 30.8233 8.57487C30.8233 6.83112 29.6039 5.51487 27.9884 5.51487C26.3729 5.51487 25.1533 6.83112 25.1533 8.57487Z" fill="#00DE5A"/>
<path d="M18.6731 9C18.6731 10.78 18.1452 12.5201 17.1563 14.0001C16.1674 15.4802 14.7618 16.6337 13.1172 17.3149C11.4727 17.9961 9.6631 18.1744 7.91727 17.8271C6.17144 17.4798 4.56778 16.6227 3.30911 15.364C2.05044 14.1053 1.19327 12.5017 0.846001 10.7558C0.498734 9.01 0.676967 7.20038 1.35816 5.55584C2.03934 3.91133 3.19291 2.50571 4.67294 1.51677C6.15299 0.52784 7.89304 0 9.67307 0C12.06 0 14.3492 0.948212 16.037 2.63604C17.7249 4.32388 18.6731 6.61306 18.6731 9ZM11.5541 4.365V9.5985L7.87982 4.365H5.03807V13.635H7.79432V8.39925L11.4686 13.635H14.3081V4.365H11.5541Z" fill="#00DE5A"/>
</g>
</g>
<defs>
<clipPath id="clip0_562_321">
<rect width="58.1539" height="18" fill="white" transform="translate(0.673065)"/>
</clipPath>
</defs>
</svg>
