<svg width="68" height="18" viewBox="0 0 68 18" fill="none" xmlns="http://www.w3.org/2000/svg">
<path d="M3.98552 16.9911L4.27242 15.169L3.63342 15.1541H0.582092L2.70262 1.7084C2.7091 1.66781 2.73057 1.62996 2.76183 1.60309C2.7931 1.57621 2.8332 1.5614 2.87489 1.5614H8.0199C9.72801 1.5614 10.9067 1.91684 11.5222 2.61838C11.8106 2.9475 11.9944 3.29141 12.0833 3.66989C12.1765 4.06702 12.1782 4.54148 12.0871 5.12017L12.0805 5.1624V5.53319L12.3691 5.69666C12.6121 5.82555 12.8051 5.9731 12.9532 6.14205C13.2001 6.42343 13.3598 6.78107 13.4272 7.20506C13.4968 7.64114 13.4738 8.16003 13.3598 8.74749C13.2281 9.42327 13.0152 10.0118 12.7279 10.4934C12.4634 10.9372 12.1266 11.3051 11.7268 11.5905C11.345 11.8614 10.8914 12.0671 10.3785 12.1988C9.88148 12.3281 9.31495 12.3935 8.69348 12.3935H8.29306C8.00679 12.3935 7.72858 12.4966 7.51037 12.6815C7.29153 12.8702 7.14658 13.1279 7.10221 13.4099L7.07206 13.5739L6.56521 16.7854L6.54216 16.9033C6.53616 16.9407 6.52574 16.9594 6.51042 16.972C6.49669 16.9834 6.47695 16.9911 6.45768 16.9911H3.98552Z" fill="#253B80"/>
<path d="M12.6423 5.20532C12.627 5.3035 12.6094 5.40388 12.5897 5.507C11.9111 8.99062 9.58986 10.1941 6.62506 10.1941H5.11558C4.75305 10.1941 4.44753 10.4573 4.391 10.815L3.61811 15.7166L3.39926 17.1059C3.36247 17.3407 3.54358 17.5524 3.78042 17.5524H6.45785C6.7749 17.5524 7.04411 17.322 7.09401 17.0094L7.12038 16.8733L7.62454 13.6743L7.6569 13.4989C7.70617 13.1852 7.97601 12.9548 8.29306 12.9548H8.69349C11.2874 12.9548 13.3181 11.9017 13.9116 8.85404C14.1595 7.58093 14.0311 6.51792 13.3751 5.77029C13.1766 5.54484 12.9303 5.3578 12.6423 5.20532Z" fill="#179BD7"/>
<path d="M11.9322 4.92249C11.8287 4.89232 11.7216 4.86489 11.6119 4.84021C11.5017 4.81609 11.3886 4.79469 11.2724 4.77604C10.8653 4.71022 10.4194 4.67896 9.94165 4.67896H5.909C5.80969 4.67896 5.71543 4.70144 5.63095 4.74203C5.44495 4.83143 5.30679 5.00752 5.27332 5.22308L4.41532 10.6567L4.39069 10.8152C4.44721 10.4576 4.75274 10.1943 5.11527 10.1943H6.62474C9.58954 10.1943 11.9109 8.99028 12.5894 5.50721C12.6096 5.40409 12.6267 5.30371 12.642 5.20554C12.4703 5.11448 12.2843 5.03659 12.0841 4.97021C12.0349 4.95376 11.9839 4.93786 11.9322 4.92249Z" fill="#222D65"/>
<path d="M5.27335 5.22302C5.30683 5.00744 5.44514 4.83137 5.63098 4.74251C5.71609 4.70191 5.80988 4.67943 5.90904 4.67943H9.94184C10.4196 4.67943 10.8655 4.71069 11.2724 4.77652C11.3888 4.79517 11.5018 4.81656 11.612 4.84069C11.7218 4.86538 11.8287 4.89281 11.9324 4.92297C11.9839 4.93833 12.0349 4.95423 12.0848 4.97015C12.285 5.03651 12.471 5.11495 12.6426 5.20546C12.8446 3.91809 12.6411 3.04157 11.9451 2.24786C11.1777 1.37408 9.79262 1 8.02041 1H2.87524C2.51319 1 2.2045 1.26327 2.14845 1.62146L0.00549879 15.2054C-0.0368171 15.4742 0.170499 15.7167 0.441447 15.7167H3.61798L4.41551 10.6566L5.27335 5.22302Z" fill="#253B80"/>
<path d="M29.5493 11.1209C29.4693 11.1622 29.3793 11.1861 29.2836 11.1861C29.0622 11.1861 28.8697 11.0614 28.7686 10.8767L28.7299 10.7901L27.1174 7.16765C27.1 7.12827 27.0892 7.0837 27.0892 7.04033C27.0892 6.87338 27.2214 6.73814 27.3845 6.73814C27.4507 6.73814 27.5119 6.76059 27.5612 6.79806L29.464 8.18505C29.603 8.27807 29.7691 8.33266 29.9476 8.33266C30.0542 8.33266 30.1558 8.31237 30.2506 8.27706L39.1989 4.19989C37.5949 2.26469 34.9533 0.999878 31.964 0.999878C27.0722 0.999878 23.107 4.38282 23.107 8.55617C23.107 10.8328 24.3 12.8823 26.1674 14.2676C26.3171 14.3771 26.4152 14.557 26.4152 14.76C26.4152 14.8272 26.4012 14.8884 26.384 14.9525C26.2349 15.522 25.9962 16.434 25.9851 16.4768C25.9665 16.5482 25.9374 16.6229 25.9374 16.6977C25.9374 16.8646 26.0695 16.9999 26.2328 16.9999C26.2968 16.9999 26.3492 16.9755 26.4033 16.9436L28.3423 15.7975C28.4881 15.7115 28.6425 15.658 28.8127 15.658C28.9032 15.658 28.9907 15.6724 29.0729 15.6981C29.9775 15.9645 30.9535 16.1125 31.9641 16.1125C36.8555 16.1125 40.8213 12.7293 40.8213 8.55617C40.8213 7.29211 40.4554 6.10168 39.8123 5.05447L29.6142 11.0826L29.5493 11.1209Z" fill="#1AAD19"/>
<path d="M68 9C68 10.78 67.4722 12.5201 66.4832 14.0001C65.4943 15.4802 64.0887 16.6337 62.4442 17.3149C60.7996 17.9961 58.99 18.1744 57.2442 17.8271C55.4984 17.4798 53.8947 16.6227 52.636 15.364C51.3774 14.1053 50.5202 12.5017 50.1729 10.7558C49.8257 9.01 50.0039 7.20038 50.6851 5.55584C51.3663 3.91133 52.5198 2.50571 53.9999 1.51677C55.4799 0.52784 57.22 0 59 0C61.387 0 63.6762 0.948212 65.364 2.63604C67.0518 4.32388 68 6.61306 68 9ZM60.881 4.365V9.5985L57.2068 4.365H54.365V13.635H57.1213V8.39925L60.7955 13.635H63.635V4.365H60.881Z" fill="#00DE5A"/>
</svg>
