<svg width="64" height="18" viewBox="0 0 64 18" fill="none" xmlns="http://www.w3.org/2000/svg">
<path d="M7.24745 11.3862C7.1575 11.4327 7.05626 11.4596 6.94861 11.4596C6.69945 11.4596 6.48289 11.3193 6.36918 11.1116L6.32563 11.0141L4.51161 6.9389C4.49203 6.89461 4.47991 6.84446 4.47991 6.79567C4.47991 6.60786 4.62867 6.45571 4.81212 6.45571C4.88654 6.45571 4.95545 6.48096 5.01084 6.52312L7.15151 8.08347C7.30786 8.18811 7.49473 8.24953 7.69561 8.24953C7.81552 8.24953 7.92979 8.2267 8.03639 8.18697L18.1032 3.60021C16.2987 1.42314 13.3269 0.000244141 9.96399 0.000244141C4.46082 0.000244141 0 3.806 0 8.50097C0 11.0622 1.3421 13.3678 3.44284 14.9263C3.61132 15.0494 3.72169 15.2518 3.72169 15.4802C3.72169 15.5557 3.70587 15.6247 3.68657 15.6967C3.51879 16.3374 3.25026 17.3635 3.23779 17.4115C3.21682 17.4919 3.18414 17.576 3.18414 17.6601C3.18414 17.8479 3.33276 18 3.51649 18C3.58847 18 3.64741 17.9726 3.70824 17.9368L5.8896 16.6474C6.05369 16.5506 6.22739 16.4904 6.41886 16.4904C6.52066 16.4904 6.61904 16.5066 6.71157 16.5355C7.72919 16.8352 8.82715 17.0017 9.96406 17.0017C15.4669 17.0017 19.9283 13.1957 19.9283 8.50097C19.9283 7.07892 19.5167 5.7397 18.7932 4.5616L7.32047 11.3431L7.24745 11.3862Z" fill="#1AAD19"/>
<path d="M61.1402 0C62.7199 0 64.0002 1.28965 63.9986 2.88281V12.2168C63.9986 12.2167 63.4127 12.1681 60.8453 11.3027C60.1323 11.0617 59.173 10.6931 58.106 10.3037C58.7467 9.17913 59.2591 7.89878 59.5963 6.50781H56.0777V5.23047H60.3873V4.5166H56.0777V2.38574H54.3189C54.0151 2.38574 54.0104 2.6834 54.0103 2.69238V4.51562H49.6519V5.22852H54.0103V6.50684H50.4107V7.21973H57.3912C57.1366 8.10656 56.7926 8.94123 56.3863 9.69824C54.122 8.94459 51.7036 8.33398 50.1861 8.70996C49.2151 8.95107 48.5898 9.38119 48.2223 9.83301C46.5362 11.9018 47.7454 15.0439 51.3062 15.0439C53.4119 15.0438 55.44 13.8607 57.0113 11.9102C59.3566 13.0465 63.9986 14.999 63.9986 14.999V15.1172C63.9985 16.7087 62.7199 18 61.1402 18H49.0094C47.4297 17.9999 46.1501 16.7086 46.15 15.1172V2.88281C46.1502 1.29138 47.4297 6.94831e-05 49.0094 0H61.1402ZM50.4879 9.7793C52.1368 9.61575 53.665 10.2489 55.4674 11.1357C54.2012 12.8015 52.5868 13.8428 50.9732 13.8428C48.1967 13.8425 47.3763 11.6368 48.7486 10.4297C49.2072 10.0219 50.0428 9.82318 50.4879 9.7793Z" fill="#1677FF"/>
<path d="M32.5 1V17" stroke="#E9E9E9"/>
</svg>
