<svg width="63" height="17" viewBox="0 0 63 17" fill="none" xmlns="http://www.w3.org/2000/svg">
<path fill-rule="evenodd" clip-rule="evenodd" d="M24.184 3.64014H20.8239C20.5939 3.64014 20.3984 3.80725 20.3625 4.03417L19.0035 12.6505C18.9765 12.8206 19.1082 12.9739 19.2806 12.9739H20.8848C21.1147 12.9739 21.3103 12.8067 21.3462 12.5794L21.7127 10.2554C21.7481 10.0278 21.9441 9.86095 22.1735 9.86095H23.2372C25.4507 9.86095 26.728 8.78982 27.0618 6.66733C27.2121 5.73875 27.0682 5.00912 26.6332 4.498C26.1558 3.93708 25.3086 3.64014 24.184 3.64014ZM24.5717 6.78715C24.388 7.99289 23.4667 7.99289 22.5759 7.99289H22.0689L22.4246 5.74103C22.4457 5.60506 22.5636 5.50479 22.7012 5.50479H22.9336C23.5404 5.50479 24.1128 5.50479 24.4087 5.85062C24.5849 6.05707 24.639 6.36356 24.5717 6.78715ZM34.2283 6.7485H32.6192C32.4821 6.7485 32.3636 6.84877 32.3425 6.98496L32.2713 7.43493L32.1588 7.2719C31.8104 6.76623 31.0337 6.5973 30.2584 6.5973C28.4802 6.5973 26.9616 7.94401 26.6657 9.83321C26.512 10.7754 26.7305 11.6765 27.2651 12.3049C27.7555 12.8827 28.4572 13.1235 29.2919 13.1235C30.7245 13.1235 31.5192 12.2022 31.5192 12.2022L31.4473 12.6494C31.4203 12.8204 31.5519 12.9736 31.7233 12.9736H33.1728C33.4034 12.9736 33.5978 12.8065 33.6342 12.5791L34.5038 7.07182C34.5313 6.90243 34.4002 6.7485 34.2283 6.7485ZM31.9853 9.88028C31.83 10.7995 31.1003 11.4166 30.17 11.4166C29.7027 11.4166 29.3291 11.2668 29.0895 10.9828C28.8517 10.7009 28.7612 10.2993 28.8369 9.85231C28.982 8.94079 29.7239 8.3037 30.6402 8.3037C31.0969 8.3037 31.4685 8.45535 31.7131 8.74184C31.9582 9.03128 32.0555 9.43509 31.9853 9.88028ZM41.181 6.74827H42.798C43.0245 6.74827 43.1566 7.00224 43.0279 7.188L37.6499 14.9508C37.5629 15.0766 37.4194 15.1514 37.2661 15.1514H35.6511C35.4238 15.1514 35.291 14.8954 35.4226 14.7091L37.0972 12.3454L35.3162 7.11865C35.2546 6.93699 35.3888 6.74827 35.582 6.74827H37.1709C37.3773 6.74827 37.5595 6.88378 37.619 7.08137L38.5642 10.2382L40.7945 6.95313C40.8818 6.82489 41.0268 6.74827 41.181 6.74827Z" fill="#253B80"/>
<path fill-rule="evenodd" clip-rule="evenodd" d="M58.7126 12.6504L60.0916 3.87645C60.1127 3.74025 60.2307 3.63998 60.3678 3.63953H61.9203C62.0917 3.63953 62.2234 3.79323 62.1963 3.9633L60.8364 12.5792C60.801 12.8066 60.6054 12.9737 60.3751 12.9737H58.9886C58.8172 12.9737 58.6855 12.8205 58.7126 12.6504ZM48.1515 3.63998H44.7908C44.5614 3.63998 44.3658 3.8071 44.3299 4.03401L42.9709 12.6504C42.9439 12.8205 43.0755 12.9737 43.2472 12.9737H44.9715C45.1318 12.9737 45.2689 12.8568 45.2939 12.6977L45.6796 10.2553C45.715 10.0277 45.911 9.8608 46.1404 9.8608H47.2036C49.4175 9.8608 50.6946 8.78966 51.0286 6.66717C51.1794 5.7386 51.0346 5.00897 50.5998 4.49784C50.1226 3.93692 49.2761 3.63998 48.1515 3.63998ZM48.5392 6.787C48.3559 7.99273 47.4346 7.99273 46.5433 7.99273H46.0368L46.393 5.74087C46.4142 5.6049 46.5311 5.50463 46.6691 5.50463H46.9014C47.5078 5.50463 48.0808 5.50463 48.3764 5.85046C48.5528 6.05691 48.6065 6.36341 48.5392 6.787ZM58.1949 6.74834H56.5869C56.4487 6.74834 56.3313 6.84861 56.3107 6.98481L56.2395 7.43477L56.1265 7.27175C55.7782 6.76608 55.0019 6.59714 54.2266 6.59714C52.4483 6.59714 50.9302 7.94385 50.6344 9.83306C50.4811 10.7753 50.6987 11.6763 51.2333 12.3048C51.7246 12.8825 52.4254 13.1233 53.26 13.1233C54.6927 13.1233 55.4871 12.202 55.4871 12.202L55.4155 12.6493C55.3884 12.8202 55.5201 12.9735 55.6927 12.9735H57.1415C57.3709 12.9735 57.5664 12.8064 57.6023 12.579L58.4725 7.07166C58.4991 6.90227 58.3674 6.74834 58.1949 6.74834ZM55.9521 9.88012C55.7977 10.7994 55.0672 11.4165 54.1365 11.4165C53.6702 11.4165 53.296 11.2666 53.0561 10.9826C52.8183 10.7007 52.7289 10.2992 52.8037 9.85216C52.9495 8.94064 53.6905 8.30355 54.6067 8.30355C55.0638 8.30355 55.4351 8.4552 55.6799 8.74168C55.9259 9.03113 56.0233 9.43493 55.9521 9.88012Z" fill="#179BD7"/>
<path d="M3.98552 15.9911L4.27242 14.169L3.63342 14.1541H0.582092L2.70262 0.708402C2.7091 0.667807 2.73057 0.62996 2.76183 0.603086C2.7931 0.576212 2.8332 0.561401 2.87489 0.561401H8.0199C9.72801 0.561401 10.9067 0.916839 11.5222 1.61838C11.8106 1.9475 11.9944 2.29141 12.0833 2.66989C12.1765 3.06702 12.1782 3.54148 12.0871 4.12017L12.0805 4.1624V4.53319L12.3691 4.69666C12.6121 4.82555 12.8051 4.9731 12.9532 5.14205C13.2001 5.42343 13.3598 5.78107 13.4272 6.20506C13.4968 6.64114 13.4738 7.16003 13.3598 7.74749C13.2281 8.42327 13.0152 9.01182 12.7279 9.49342C12.4634 9.93717 12.1266 10.3051 11.7268 10.5905C11.345 10.8614 10.8914 11.0671 10.3785 11.1988C9.88148 11.3281 9.31495 11.3935 8.69348 11.3935H8.29306C8.00679 11.3935 7.72858 11.4966 7.51037 11.6815C7.29153 11.8702 7.14658 12.1279 7.10221 12.4099L7.07206 12.5739L6.56521 15.7854L6.54216 15.9033C6.53616 15.9407 6.52574 15.9594 6.51042 15.972C6.49669 15.9834 6.47695 15.9911 6.45768 15.9911H3.98552Z" fill="#253B80"/>
<path d="M12.6423 4.20532C12.627 4.3035 12.6094 4.40388 12.5897 4.507C11.9111 7.99062 9.58986 9.19407 6.62506 9.19407H5.11558C4.75305 9.19407 4.44753 9.45734 4.391 9.81497L3.61811 14.7166L3.39926 16.1059C3.36247 16.3407 3.54358 16.5524 3.78042 16.5524H6.45785C6.7749 16.5524 7.04411 16.322 7.09401 16.0094L7.12038 15.8733L7.62454 12.6743L7.6569 12.4989C7.70617 12.1852 7.97601 11.9548 8.29306 11.9548H8.69349C11.2874 11.9548 13.3181 10.9017 13.9116 7.85404C14.1595 6.58093 14.0311 5.51792 13.3751 4.77029C13.1766 4.54484 12.9303 4.3578 12.6423 4.20532Z" fill="#179BD7"/>
<path d="M11.9322 3.92249C11.8287 3.89232 11.7216 3.86489 11.6119 3.84021C11.5017 3.81609 11.3886 3.79469 11.2724 3.77604C10.8653 3.71022 10.4194 3.67896 9.94165 3.67896H5.909C5.80969 3.67896 5.71543 3.70144 5.63095 3.74203C5.44495 3.83143 5.30679 4.00752 5.27332 4.22308L4.41532 9.65667L4.39069 9.81518C4.44721 9.45755 4.75274 9.19426 5.11527 9.19426H6.62474C9.58954 9.19426 11.9109 7.99028 12.5894 4.50721C12.6096 4.40409 12.6267 4.30371 12.642 4.20554C12.4703 4.11448 12.2843 4.03659 12.0841 3.97021C12.0349 3.95376 11.9839 3.93786 11.9322 3.92249Z" fill="#222D65"/>
<path d="M5.27335 4.22302C5.30683 4.00744 5.44514 3.83137 5.63098 3.74251C5.71609 3.70191 5.80988 3.67943 5.90904 3.67943H9.94184C10.4196 3.67943 10.8655 3.71069 11.2724 3.77652C11.3888 3.79517 11.5018 3.81656 11.6121 3.84069C11.7218 3.86538 11.8287 3.89281 11.9324 3.92297C11.9839 3.93833 12.0349 3.95423 12.0848 3.97015C12.285 4.03651 12.471 4.11495 12.6426 4.20546C12.8446 2.91809 12.6411 2.04157 11.9451 1.24786C11.1777 0.374085 9.79262 0 8.02041 0H2.87524C2.51319 0 2.2045 0.263274 2.14845 0.621459L0.00549879 14.2054C-0.0368171 14.4742 0.170499 14.7167 0.441447 14.7167H3.61798L4.41551 9.6566L5.27335 4.22302Z" fill="#253B80"/>
</svg>
