<svg width="39" height="16" viewBox="0 0 39 16" fill="none" xmlns="http://www.w3.org/2000/svg">
<path d="M26.2549 3.41089C28.1142 3.41105 29.8673 5.08536 29.8779 8.15894C29.8779 11.5187 28.146 13.0446 26.2441 13.0447C25.3092 13.0447 24.7458 12.6533 24.3633 12.3777L24.3525 15.3767L21.6963 15.9382V3.57983H24.0342L24.1719 4.23706C24.5438 3.89789 25.2136 3.41089 26.2549 3.41089ZM3.5918 3.41089C4.47361 3.4109 5.34475 3.54846 6.22656 3.89819V6.38843C5.41915 5.95398 4.39919 5.71072 3.5918 5.71069C3.02867 5.71069 2.68848 5.8696 2.68848 6.28296C2.68861 7.46997 6.73645 6.90867 6.74707 10.0671C6.74687 11.9641 5.22744 13.0554 3.01758 13.0554C2.10393 13.0554 1.10518 12.8758 0.117188 12.4519V9.92944C1.00956 10.4169 2.13579 10.777 3.01758 10.7771C3.61248 10.7771 4.03794 10.618 4.03809 10.1306C4.03809 8.86933 0 9.33525 0 6.40991C8.90207e-05 4.53398 1.43498 3.41089 3.5918 3.41089ZM9.86035 3.59058H11.8789V5.84839H9.86035V9.61108C9.86041 11.1794 11.5385 10.6923 11.8789 10.5544V12.7058C11.5283 12.8966 10.8907 13.0554 10.0195 13.0554C8.4471 13.0554 7.26761 11.9004 7.26758 10.3318L7.27832 1.84155L9.87109 1.29077L9.86035 3.59058ZM34.415 3.41089C36.933 3.41106 38.25 5.55213 38.25 8.26538C38.25 8.51967 38.2295 9.06928 38.2295 9.20776H33.0332C33.1501 10.4584 34.0641 10.8191 35.0947 10.8191C36.1466 10.8191 36.9757 10.5965 37.6982 10.2361V12.3562C36.9758 12.759 36.0192 13.0447 34.7549 13.0447C32.1624 13.0447 30.3565 11.4341 30.3564 8.2439C30.3564 5.55174 31.8863 3.41089 34.415 3.41089ZM15.1836 4.37476C15.8105 3.23049 17.0534 3.46339 17.3936 3.59058V6.02905C17.0642 5.91246 16.0019 5.76372 15.375 6.57983V12.865H12.7188V3.59058H15.0137L15.1836 4.37476ZM20.708 12.865H18.041V3.59058H20.708V12.865ZM25.6172 5.76343C25.0116 5.76343 24.6288 5.97559 24.3525 6.28296L24.3633 10.2156C24.6183 10.4911 24.9905 10.7136 25.6172 10.7136C26.5946 10.7135 27.2529 9.65337 27.2529 8.23315C27.2529 6.84473 26.584 5.76351 25.6172 5.76343ZM34.4043 5.56226C33.735 5.56226 33.0021 6.0602 33.002 7.25757H35.7432C35.743 6.06034 35.0523 5.56238 34.4043 5.56226ZM20.709 2.21265L18.042 2.78491V0.622803L20.709 0.0612793V2.21265Z" fill="#6461FC"/>
</svg>
