<svg width="44" height="16" viewBox="0 0 44 16" fill="none" xmlns="http://www.w3.org/2000/svg">
<path d="M6.78962 9.98842C6.71465 10.0272 6.63029 10.0496 6.54058 10.0496C6.33294 10.0496 6.15248 9.93266 6.05771 9.75956L6.02142 9.6783L4.50972 6.28229C4.4934 6.24537 4.4833 6.20358 4.4833 6.16292C4.4833 6.00641 4.60727 5.87962 4.76015 5.87962C4.82217 5.87962 4.87959 5.90066 4.92575 5.93579L6.70966 7.2361C6.83996 7.3233 6.99569 7.37449 7.16308 7.37449C7.26301 7.37449 7.35824 7.35546 7.44708 7.32235L15.8361 3.50001C14.3324 1.68576 11.8559 0.5 9.05343 0.5C4.46739 0.5 0.75 3.6715 0.75 7.58402C0.75 9.71837 1.86843 11.6398 3.61907 12.9385C3.75947 13.0412 3.85145 13.2098 3.85145 13.4001C3.85145 13.4631 3.83827 13.5205 3.82218 13.5805C3.68236 14.1145 3.45858 14.9695 3.44819 15.0096C3.43071 15.0766 3.40348 15.1466 3.40348 15.2167C3.40348 15.3732 3.52733 15.5 3.68045 15.5C3.74043 15.5 3.78955 15.4771 3.84024 15.4473L5.65806 14.3728C5.7948 14.2921 5.93955 14.242 6.09911 14.242C6.18395 14.242 6.26593 14.2554 6.34304 14.2796C7.19107 14.5293 8.10605 14.668 9.05348 14.668C13.6392 14.668 17.3571 11.4964 17.3571 7.58402C17.3571 6.39897 17.0141 5.28294 16.4112 4.30118L6.85047 9.95251L6.78962 9.98842Z" fill="#1AAD19"/>
<path d="M40.8985 0.499878C42.215 0.499878 43.2816 1.57459 43.2804 2.90222V10.6805C43.2803 10.6804 42.7918 10.6399 40.6524 9.91882C40.0581 9.7179 39.2584 9.41032 38.3692 9.08582C38.9031 8.14878 39.3304 7.08268 39.6114 5.92371H36.6788V4.85828H40.2706V4.26355H36.6788V2.48816H35.214C34.9568 2.48816 34.9571 2.74402 34.9571 2.74402V4.26257H31.3243V4.8573H34.9571V5.92175H31.9571V6.51648H37.7735C37.5614 7.25543 37.2752 7.95112 36.9366 8.58191C35.0496 7.95386 33.0342 7.44534 31.7696 7.75867C30.9606 7.95961 30.4391 8.31773 30.1329 8.69421C28.7281 10.4182 29.7359 13.037 32.7032 13.037C34.458 13.0369 36.1477 12.0502 37.4571 10.4247C39.4115 11.3717 43.2804 12.9989 43.2804 12.9989V13.0975C43.2803 14.4239 42.215 15.4999 40.8985 15.4999H30.7892C29.4727 15.4998 28.4064 14.4238 28.4063 13.0975V2.90222C28.4065 1.57604 29.4728 0.499952 30.7892 0.499878H40.8985ZM32.0216 8.64929C33.3957 8.51302 34.669 9.04111 36.171 9.78015C35.1158 11.1683 33.7705 12.035 32.4259 12.035C30.112 12.0349 29.4277 10.1973 30.5714 9.19128C30.9536 8.85127 31.6506 8.68582 32.0216 8.64929Z" fill="#1677FF"/>
</svg>
