<svg xmlns="http://www.w3.org/2000/svg" version="1.1" xmlns:xlink="http://www.w3.org/1999/xlink" width="1000" height="1000"><style>
    #light-icon {
      display: inline;
    }
    #dark-icon {
      display: none;
    }

    @media (prefers-color-scheme: dark) {
      #light-icon {
        display: none;
      }
      #dark-icon {
        display: inline;
      }
    }
  </style><g id="light-icon"><svg xmlns="http://www.w3.org/2000/svg" version="1.1" xmlns:xlink="http://www.w3.org/1999/xlink" width="1000" height="1000"><g><g transform="matrix(4.587155963302752,0,0,4.587155963302752,0,233.94495412844037)"><svg xmlns="http://www.w3.org/2000/svg" width="218" height="116" viewBox="0 0 218 116" fill="none"><path d="M72.5084 55.6464L97.075 9.79795C100.324 3.73497 106.328 0 112.825 0H136.421C141.299 0 145.254 4.26132 145.254 9.51793V55.6464L169.821 9.79795C173.07 3.73497 179.073 0 185.571 0H209.167C214.045 0 218 4.26132 218 9.51793V46.4699C218 51.7265 214.045 55.9878 209.167 55.9878H205.071L178.167 106.199C173.145 115.571 162.022 118.782 153.323 113.371L135.252 102.129C129.625 98.6284 126.158 92.1594 126.158 85.1585V67.4959L105.421 106.199C100.399 115.571 89.2758 118.783 80.5774 113.371L62.5058 102.129C56.8789 98.6287 53.4126 92.1597 53.4126 85.1588V67.4959L46.1845 80.9856C43.7452 85.538 38.3428 87.0977 34.1178 84.4694L4.41816 65.9934C0.193227 63.3651 -1.25434 57.5441 1.18492 52.9917L24.3293 9.79791C27.5779 3.73494 33.5818 0 40.0792 0H63.675C68.5536 0 72.5084 4.26132 72.5084 9.51793V55.6464Z" fill="black"></path></svg></g></g></svg></g><g id="dark-icon"><svg xmlns="http://www.w3.org/2000/svg" version="1.1" xmlns:xlink="http://www.w3.org/1999/xlink" width="1000" height="1000"><g><g transform="matrix(4.587155963302752,0,0,4.587155963302752,0,233.94495412844037)"><svg xmlns="http://www.w3.org/2000/svg" width="218" height="116" viewBox="0 0 218 116" fill="none"><path d="M72.5084 55.6464L97.075 9.79795C100.324 3.73497 106.328 0 112.825 0H136.421C141.299 0 145.254 4.26132 145.254 9.51793V55.6464L169.821 9.79795C173.07 3.73497 179.073 0 185.571 0H209.167C214.045 0 218 4.26132 218 9.51793V46.4699C218 51.7265 214.045 55.9878 209.167 55.9878H205.071L178.167 106.199C173.145 115.571 162.022 118.782 153.323 113.371L135.252 102.129C129.625 98.6284 126.158 92.1594 126.158 85.1585V67.4959L105.421 106.199C100.399 115.571 89.2758 118.783 80.5774 113.371L62.5058 102.129C56.8789 98.6287 53.4126 92.1597 53.4126 85.1588V67.4959L46.1845 80.9856C43.7452 85.538 38.3428 87.0977 34.1178 84.4694L4.41816 65.9934C0.193227 63.3651 -1.25434 57.5441 1.18492 52.9917L24.3293 9.79791C27.5779 3.73494 33.5818 0 40.0792 0H63.675C68.5536 0 72.5084 4.26132 72.5084 9.51793V55.6464Z" fill="white"></path></svg></g></g></svg></g></svg>