<svg xmlns="http://www.w3.org/2000/svg" version="1.1" xmlns:xlink="http://www.w3.org/1999/xlink" width="1000" height="1000"><style>
    #light-icon {
      display: inline;
    }
    #dark-icon {
      display: none;
    }

    @media (prefers-color-scheme: dark) {
      #light-icon {
        display: none;
      }
      #dark-icon {
        display: inline;
      }
    }
  </style><g id="light-icon"><svg xmlns="http://www.w3.org/2000/svg" version="1.1" xmlns:xlink="http://www.w3.org/1999/xlink" width="1000" height="1000"><g><g transform="matrix(1.953125,0,0,1.953125,0,0)"><svg xmlns="http://www.w3.org/2000/svg" version="1.1" xmlns:xlink="http://www.w3.org/1999/xlink" width="512" height="512"><svg width="512" height="512" viewBox="0 0 512 512" fill="none" xmlns="http://www.w3.org/2000/svg">
<path d="M168.675 262.792L217.189 164.039C225.672 146.773 242.153 136 260.087 136H315.913C324.984 136 332.338 144.036 332.338 153.949V262.792L380.852 164.039C389.334 146.773 405.816 136 423.749 136H479.575C488.646 136 496 144.036 496 153.949V248.82C496 257.317 489.697 264.204 481.922 264.204H464.801L420.671 354.033C410.492 374.753 386.649 382.168 368.012 370.409L319.139 339.575C307.523 332.247 300.368 318.703 300.368 304.046V265.774L257.008 354.033C246.83 374.753 222.986 382.168 204.349 370.409L155.477 339.575C143.861 332.247 136.705 318.703 136.705 304.046V265.774L120.337 299.091C116.579 306.742 107.775 309.48 100.894 305.138L22.1614 255.465C16.3978 251.829 14.3193 243.848 17.4672 237.44L53.5269 164.039C62.0093 146.773 78.4908 136 96.4242 136H152.25C161.322 136 168.675 144.036 168.675 153.949V262.792Z" fill="black" style="fill:black;fill-opacity:1;"></path>
</svg></svg></g></g></svg></g><g id="dark-icon"><svg xmlns="http://www.w3.org/2000/svg" version="1.1" xmlns:xlink="http://www.w3.org/1999/xlink" width="1000" height="1000"><g><g transform="matrix(1.953125,0,0,1.953125,0,0)"><svg xmlns="http://www.w3.org/2000/svg" version="1.1" xmlns:xlink="http://www.w3.org/1999/xlink" width="512" height="512"><svg width="512" height="512" viewBox="0 0 512 512" fill="none" xmlns="http://www.w3.org/2000/svg">
<path d="M168.675 262.792L217.189 164.039C225.672 146.773 242.153 136 260.087 136H315.913C324.984 136 332.338 144.036 332.338 153.949V262.792L380.852 164.039C389.334 146.773 405.816 136 423.749 136H479.575C488.646 136 496 144.036 496 153.949V248.82C496 257.317 489.697 264.204 481.922 264.204H464.801L420.671 354.033C410.492 374.753 386.649 382.168 368.012 370.409L319.139 339.575C307.523 332.247 300.368 318.703 300.368 304.046V265.774L257.008 354.033C246.83 374.753 222.986 382.168 204.349 370.409L155.477 339.575C143.861 332.247 136.705 318.703 136.705 304.046V265.774L120.337 299.091C116.579 306.742 107.775 309.48 100.894 305.138L22.1614 255.465C16.3978 251.829 14.3193 243.848 17.4672 237.44L53.5269 164.039C62.0093 146.773 78.4908 136 96.4242 136H152.25C161.322 136 168.675 144.036 168.675 153.949V262.792Z" fill="white" style="fill:white;fill-opacity:1;"></path>
</svg></svg></g></g></svg></g></svg>