<svg xmlns="http://www.w3.org/2000/svg" version="1.1" xmlns:xlink="http://www.w3.org/1999/xlink" width="1000" height="1000"><style>
    #light-icon {
      display: inline;
    }
    #dark-icon {
      display: none;
    }

    @media (prefers-color-scheme: dark) {
      #light-icon {
        display: none;
      }
      #dark-icon {
        display: inline;
      }
    }
  </style><g id="light-icon"><svg xmlns="http://www.w3.org/2000/svg" version="1.1" xmlns:xlink="http://www.w3.org/1999/xlink" width="1000" height="1000"><g><g transform="matrix(1.187648456057007,0,0,1.187648456057007,0,0)"><svg xmlns="http://www.w3.org/2000/svg" width="842" height="842" viewBox="0 0 842 842" fill="none"><path d="M283.001 419.695L373.805 250.312C388.432 223.028 416.881 206 447.838 206H536.5C550.859 206 562.5 217.641 562.5 232V419.695L653.304 250.312C667.931 223.028 696.379 206 727.337 206H815.998C830.358 206 841.998 217.641 841.998 232V395.007C841.998 409.366 830.358 421.007 815.998 421.007H792.322L686.261 618.851C668.797 651.427 627.449 662.48 596.06 642.963L519.266 595.213C500.526 583.561 489.131 563.058 489.131 540.991V465.201L406.761 618.852C389.298 651.428 347.949 662.481 316.561 642.964L239.768 595.215C221.028 583.562 209.633 563.059 209.633 540.992V465.201L177.991 524.224C170.897 537.457 154.099 541.948 141.348 534.019L12.7043 454.03C1.05986 446.79 -2.96023 431.751 3.51834 419.666L94.3069 250.312C108.934 223.028 137.382 206 168.34 206H257.001C271.361 206 283.001 217.641 283.001 232V419.695Z" fill="black"></path></svg></g></g></svg></g><g id="dark-icon"><svg xmlns="http://www.w3.org/2000/svg" version="1.1" xmlns:xlink="http://www.w3.org/1999/xlink" width="1000" height="1000"><g><g transform="matrix(1.187648456057007,0,0,1.187648456057007,0,0)"><svg xmlns="http://www.w3.org/2000/svg" width="842" height="842" viewBox="0 0 842 842" fill="none"><path d="M283.001 419.695L373.805 250.312C388.432 223.028 416.881 206 447.838 206H536.5C550.859 206 562.5 217.641 562.5 232V419.695L653.304 250.312C667.931 223.028 696.379 206 727.337 206H815.998C830.358 206 841.998 217.641 841.998 232V395.007C841.998 409.366 830.358 421.007 815.998 421.007H792.322L686.261 618.851C668.797 651.427 627.449 662.48 596.06 642.963L519.266 595.213C500.526 583.561 489.131 563.058 489.131 540.991V465.201L406.761 618.852C389.298 651.428 347.949 662.481 316.561 642.964L239.768 595.215C221.028 583.562 209.633 563.059 209.633 540.992V465.201L177.991 524.224C170.897 537.457 154.099 541.948 141.348 534.019L12.7043 454.03C1.05986 446.79 -2.96023 431.751 3.51834 419.666L94.3069 250.312C108.934 223.028 137.382 206 168.34 206H257.001C271.361 206 283.001 217.641 283.001 232V419.695Z" fill="white"></path></svg></g></g></svg></g></svg>